<svg width="615" height="530" viewBox="0 0 615 530" fill="none" xmlns="http://www.w3.org/2000/svg">
<path d="M303.052 343.993H356.511C356.628 343.252 357.194 342.706 357.896 342.706C358.675 342.706 359.299 343.408 359.299 344.266C359.299 345.124 358.675 345.826 357.896 345.826C357.194 345.826 356.628 345.26 356.511 344.539H303.325L291.53 369.514H-33.2412V368.987H291.237L303.052 343.993Z" fill="#419586"/>
<path d="M303.052 356.47H396.635C396.752 355.476 397.512 354.696 398.448 354.696C399.462 354.696 400.281 355.613 400.281 356.724C400.281 357.835 399.462 358.752 398.448 358.752C397.512 358.752 396.752 357.972 396.635 356.977H303.325L291.53 381.952H-33.2412V381.426H291.237L303.052 356.47Z" fill="#419586"/>
<path d="M303.052 368.968H356.511C356.628 368.227 357.194 367.681 357.896 367.681C358.675 367.681 359.299 368.383 359.299 369.241C359.299 370.099 358.675 370.8 357.896 370.8C357.194 370.8 356.628 370.235 356.511 369.514H303.325L291.53 394.489H-33.2412V393.962H291.237L303.052 368.968Z" fill="#419586"/>
<path d="M303.052 381.446H495.677C495.794 380.705 496.359 380.159 497.061 380.159C497.841 380.159 498.465 380.861 498.465 381.718C498.465 382.576 497.841 383.278 497.061 383.278C496.359 383.278 495.794 382.713 495.677 381.991H303.325L291.53 406.966H-33.2412V406.44H291.237L303.052 381.446Z" fill="#419586"/>
<path d="M229.161 348.185L248.54 322.215H295.371C295.488 321.104 296.345 320.227 297.379 320.227C298.51 320.227 299.406 321.241 299.406 322.488C299.406 323.736 298.49 324.75 297.379 324.75C296.345 324.75 295.488 323.873 295.371 322.761H248.755L229.375 348.731H-33.2412V348.204H229.161V348.185Z" fill="#419586"/>
<path d="M240.429 528.507L259.809 502.538H306.639C306.756 501.426 307.614 500.549 308.647 500.549C309.778 500.549 310.675 501.563 310.675 502.81C310.675 504.058 309.759 505.072 308.647 505.072C307.614 505.072 306.756 504.195 306.639 503.083H260.023L240.644 529.053H-21.9727V528.526H240.429V528.507Z" fill="#419586"/>
<path d="M328.885 452.783H466.393C466.51 452.295 466.9 451.925 467.387 451.925C467.952 451.925 468.401 452.432 468.401 453.056C468.401 453.68 467.952 454.187 467.387 454.187C466.9 454.187 466.51 453.816 466.393 453.329H328.709L312.02 437.751H-16.5332V437.225H312.196L328.885 452.783Z" fill="#419586"/>
<path d="M328.885 468.361H402.23C402.347 467.249 403.205 466.372 404.238 466.372C405.369 466.372 406.266 467.386 406.266 468.633C406.266 469.881 405.349 470.895 404.238 470.895C403.205 470.895 402.347 470.018 402.23 468.906H328.709L312.02 453.329H-16.5332V452.802H312.196L328.885 468.361Z" fill="#419586"/>
<path d="M328.885 483.938H595.127C595.244 482.573 596.278 481.482 597.545 481.482C598.89 481.482 599.982 482.69 599.982 484.192C599.982 485.693 598.89 486.902 597.545 486.902C596.278 486.902 595.244 485.829 595.127 484.445H328.709L312.02 468.867H-16.5332V468.341H312.196L328.885 483.938Z" fill="#419586"/>
<path d="M288.332 136.395H341.811C341.928 135.654 342.493 135.108 343.195 135.108C343.975 135.108 344.599 135.81 344.599 136.668C344.599 137.526 343.975 138.228 343.195 138.228C342.493 138.228 341.928 137.662 341.811 136.941H288.625L276.83 161.916H-47.9609V161.39H276.518L288.332 136.395Z" fill="#419586"/>
<path d="M288.332 148.873H381.915C382.032 147.879 382.793 147.099 383.728 147.099C384.742 147.099 385.561 148.015 385.561 149.126C385.561 150.257 384.742 151.154 383.728 151.154C382.793 151.154 382.032 150.374 381.915 149.38H288.625L276.83 174.355H-47.9609V173.828H276.518L288.332 148.873Z" fill="#419586"/>
<path d="M288.332 161.37H341.811C341.928 160.629 342.493 160.083 343.195 160.083C343.975 160.083 344.599 160.785 344.599 161.643C344.599 162.501 343.975 163.203 343.195 163.203C342.493 163.203 341.928 162.637 341.811 161.916H288.625L276.83 186.891H-47.9609V186.364H276.518L288.332 161.37Z" fill="#419586"/>
<path d="M288.332 173.848H603.94C604.057 173.107 604.623 172.561 605.324 172.561C606.104 172.561 606.728 173.263 606.728 174.121C606.728 174.979 606.104 175.68 605.324 175.68C604.623 175.68 604.057 175.115 603.94 174.394H288.625L276.83 199.369H-47.9609V198.842H276.518L288.332 173.848Z" fill="#419586"/>
<path d="M214.441 140.587L233.821 114.618H280.651C280.768 113.506 281.626 112.629 282.659 112.629C283.79 112.629 284.687 113.643 284.687 114.891C284.687 116.138 283.77 117.152 282.659 117.152C281.626 117.152 280.768 116.275 280.651 115.164H234.035L214.656 141.133H-47.9609V140.606H214.441V140.587Z" fill="#419586"/>
<path d="M314.165 229.607H322.724C322.841 228.496 323.699 227.619 324.732 227.619C325.863 227.619 326.759 228.633 326.759 229.88C326.759 231.128 325.843 232.142 324.732 232.142C323.699 232.142 322.841 231.265 322.724 230.153H313.989L297.3 214.576H-31.2529V214.049H297.476L314.165 229.607Z" fill="#419586"/>
<path d="M314.165 245.185H451.673C451.79 244.698 452.18 244.327 452.667 244.327C453.233 244.327 453.681 244.834 453.681 245.458C453.681 246.082 453.233 246.589 452.667 246.589C452.18 246.589 451.79 246.218 451.673 245.731H313.989L297.3 230.153H-31.2529V229.627H297.476L314.165 245.185Z" fill="#419586"/>
<path d="M314.165 260.763H387.51C387.627 259.651 388.485 258.774 389.518 258.774C390.649 258.774 391.546 259.788 391.546 261.036C391.546 262.283 390.63 263.297 389.518 263.297C388.485 263.297 387.627 262.42 387.51 261.309H313.989L297.3 245.731H-31.2529V245.205H297.476L314.165 260.763Z" fill="#419586"/>
<path d="M314.165 276.34H580.408C580.525 274.976 581.558 273.884 582.825 273.884C584.17 273.884 585.262 275.093 585.262 276.594C585.262 278.095 584.17 279.304 582.825 279.304C581.558 279.304 580.525 278.231 580.408 276.847H313.989L297.3 261.27H-31.2529V260.743H297.476L314.165 276.34Z" fill="#419586"/>
<path d="M418.588 306.501C417.788 306.501 417.125 307.32 417.047 308.373H381.213L366.318 284.002H164.842L162.6 280.981H-100.036V281.507H162.366L164.374 284.197V284.49H164.589L181.726 307.476H228.556C228.673 308.587 229.531 309.465 230.564 309.465C231.695 309.465 232.592 308.451 232.592 307.203C232.592 305.955 231.676 304.942 230.564 304.942C229.531 304.942 228.673 305.819 228.556 306.93H181.94L165.193 284.47H366.123L381.018 308.841H417.028C417.125 309.894 417.769 310.713 418.568 310.713C419.426 310.713 420.128 309.757 420.128 308.587C420.147 307.437 419.445 306.501 418.588 306.501Z" fill="#419586"/>
<path d="M343.39 15.7905H351.949C352.066 14.6792 352.924 13.8019 353.957 13.8019C355.088 13.8019 355.985 14.8157 355.985 16.0634C355.985 17.3112 355.069 18.325 353.957 18.325C352.924 18.325 352.066 17.4477 351.949 16.3364H343.215L326.526 0.758765H-2.02734V0.232361H326.701L343.39 15.7905Z" fill="#419586"/>
<path d="M310.773 83.1701H319.332C319.449 82.0588 320.307 81.1814 321.34 81.1814C322.471 81.1814 323.368 82.1953 323.368 83.443C323.368 84.6908 322.452 85.7046 321.34 85.7046C320.307 85.7046 319.449 84.8273 319.332 83.716H310.598L293.909 68.1383H-34.6641V67.6119H294.065L310.773 83.1701Z" fill="#419586"/>
<path d="M343.39 31.3681H480.899C481.016 30.8807 481.405 30.5102 481.893 30.5102C482.458 30.5102 482.907 31.0171 482.907 31.641C482.907 32.2649 482.458 32.7718 481.893 32.7718C481.405 32.7718 481.016 32.4014 480.899 31.914H343.215L326.526 16.3363H-2.02734V15.8099H326.702L343.39 31.3681Z" fill="#419586"/>
<path d="M343.39 46.9458H416.736C416.853 45.8345 417.711 44.9572 418.744 44.9572C419.875 44.9572 420.772 45.971 420.772 47.2187C420.772 48.4665 419.855 49.4803 418.744 49.4803C417.711 49.4803 416.853 48.603 416.736 47.4917H343.215L326.526 31.9141H-2.02734V31.3682H326.702L343.39 46.9458Z" fill="#419586"/>
<path d="M343.39 62.5234H609.633C609.75 61.1586 610.784 60.0669 612.051 60.0669C613.396 60.0669 614.488 61.2756 614.488 62.7769C614.488 64.2781 613.396 65.4869 612.051 65.4869C610.784 65.4869 609.75 64.4145 609.633 63.0303H343.215L326.526 47.4527H-2.02734V46.9263H326.702L343.39 62.5234Z" fill="#419586"/>
<path d="M376.905 123.274C376.106 123.274 375.443 124.093 375.365 125.146H339.53L324.635 100.775H123.159L120.917 97.7534H-141.719V98.2798H120.683L122.691 100.97V101.263H122.906L140.043 124.249H186.874C186.991 125.36 187.848 126.238 188.882 126.238C190.013 126.238 190.909 125.224 190.909 123.976C190.909 122.728 189.993 121.714 188.882 121.714C187.848 121.714 186.991 122.592 186.874 123.703H140.258L123.51 101.243H324.44L339.335 125.614H375.345C375.443 126.667 376.086 127.485 376.885 127.485C377.743 127.485 378.445 126.53 378.445 125.36C378.465 124.21 377.763 123.274 376.905 123.274Z" fill="#419586"/>
</svg>
