<svg width="849" height="566" viewBox="0 0 849 566" fill="none" xmlns="http://www.w3.org/2000/svg">
<g opacity="0.3">
<mask id="mask0_425_7266" style="mask-type:luminance" maskUnits="userSpaceOnUse" x="0" y="0" width="850" height="566">
<path d="M849.01 0H0V566H849.01V0Z" fill="white"/>
</mask>
<g mask="url(#mask0_425_7266)">
<path d="M303.052 357.993H356.511C356.628 357.252 357.194 356.706 357.896 356.706C358.675 356.706 359.299 357.408 359.299 358.266C359.299 359.124 358.675 359.826 357.896 359.826C357.194 359.826 356.628 359.26 356.511 358.539H303.325L291.53 383.514H-33.2412V382.987H291.237L303.052 357.993Z" fill="#419586"/>
<path d="M303.052 370.47H396.635C396.752 369.476 397.512 368.696 398.448 368.696C399.462 368.696 400.281 369.613 400.281 370.724C400.281 371.835 399.462 372.752 398.448 372.752C397.512 372.752 396.752 371.972 396.635 370.977H303.325L291.53 395.952H-33.2412V395.426H291.237L303.052 370.47Z" fill="#419586"/>
<path d="M303.052 382.968H356.511C356.628 382.227 357.194 381.681 357.896 381.681C358.675 381.681 359.299 382.383 359.299 383.241C359.299 384.099 358.675 384.8 357.896 384.8C357.194 384.8 356.628 384.235 356.511 383.514H303.325L291.53 408.489H-33.2412V407.962H291.237L303.052 382.968Z" fill="#419586"/>
<path d="M303.052 395.446H495.677C495.794 394.705 496.359 394.159 497.061 394.159C497.841 394.159 498.465 394.861 498.465 395.718C498.465 396.576 497.841 397.278 497.061 397.278C496.359 397.278 495.794 396.713 495.677 395.991H303.325L291.53 420.966H-33.2412V420.44H291.237L303.052 395.446Z" fill="#419586"/>
<path d="M229.161 362.185L248.54 336.215H295.371C295.488 335.104 296.345 334.227 297.379 334.227C298.51 334.227 299.406 335.241 299.406 336.488C299.406 337.736 298.49 338.75 297.379 338.75C296.345 338.75 295.488 337.873 295.371 336.761H248.755L229.375 362.731H-33.2412V362.204H229.161V362.185Z" fill="#419586"/>
<path d="M240.429 542.507L259.809 516.538H306.639C306.756 515.426 307.614 514.549 308.647 514.549C309.778 514.549 310.675 515.563 310.675 516.81C310.675 518.058 309.759 519.072 308.647 519.072C307.614 519.072 306.756 518.195 306.639 517.083H260.023L240.644 543.053H-21.9727V542.526H240.429V542.507Z" fill="#419586"/>
<path d="M328.885 466.783H466.393C466.51 466.295 466.9 465.925 467.387 465.925C467.952 465.925 468.401 466.432 468.401 467.056C468.401 467.68 467.952 468.187 467.387 468.187C466.9 468.187 466.51 467.816 466.393 467.329H328.709L312.02 451.751H-16.5332V451.225H312.196L328.885 466.783Z" fill="#419586"/>
<path d="M328.885 482.361H402.23C402.347 481.249 403.205 480.372 404.238 480.372C405.369 480.372 406.266 481.386 406.266 482.633C406.266 483.881 405.349 484.895 404.238 484.895C403.205 484.895 402.347 484.018 402.23 482.906H328.709L312.02 467.329H-16.5332V466.802H312.196L328.885 482.361Z" fill="#419586"/>
<path d="M328.885 497.938H595.127C595.244 496.573 596.278 495.482 597.545 495.482C598.89 495.482 599.982 496.69 599.982 498.192C599.982 499.693 598.89 500.902 597.545 500.902C596.278 500.902 595.244 499.829 595.127 498.445H328.709L312.02 482.867H-16.5332V482.341H312.196L328.885 497.938Z" fill="#419586"/>
<path d="M288.332 150.395H341.811C341.928 149.654 342.493 149.108 343.195 149.108C343.975 149.108 344.599 149.81 344.599 150.668C344.599 151.526 343.975 152.228 343.195 152.228C342.493 152.228 341.928 151.662 341.811 150.941H288.625L276.83 175.916H-47.9609V175.39H276.518L288.332 150.395Z" fill="#419586"/>
<path d="M288.332 162.873H381.915C382.032 161.879 382.793 161.099 383.728 161.099C384.742 161.099 385.561 162.015 385.561 163.126C385.561 164.257 384.742 165.154 383.728 165.154C382.793 165.154 382.032 164.374 381.915 163.38H288.625L276.83 188.355H-47.9609V187.828H276.518L288.332 162.873Z" fill="#419586"/>
<path d="M288.332 175.37H341.811C341.928 174.629 342.493 174.083 343.195 174.083C343.975 174.083 344.599 174.785 344.599 175.643C344.599 176.501 343.975 177.203 343.195 177.203C342.493 177.203 341.928 176.637 341.811 175.916H288.625L276.83 200.891H-47.9609V200.364H276.518L288.332 175.37Z" fill="#419586"/>
<path d="M288.332 187.848H603.94C604.057 187.107 604.623 186.561 605.324 186.561C606.104 186.561 606.728 187.263 606.728 188.121C606.728 188.979 606.104 189.68 605.324 189.68C604.623 189.68 604.057 189.115 603.94 188.394H288.625L276.83 213.369H-47.9609V212.842H276.518L288.332 187.848Z" fill="#419586"/>
<path d="M214.441 154.587L233.821 128.618H280.651C280.768 127.506 281.626 126.629 282.659 126.629C283.79 126.629 284.687 127.643 284.687 128.891C284.687 130.138 283.77 131.152 282.659 131.152C281.626 131.152 280.768 130.275 280.651 129.164H234.035L214.656 155.133H-47.9609V154.606H214.441V154.587Z" fill="#419586"/>
<path d="M314.165 243.607H322.724C322.841 242.496 323.699 241.619 324.732 241.619C325.863 241.619 326.759 242.633 326.759 243.88C326.759 245.128 325.843 246.142 324.732 246.142C323.699 246.142 322.841 245.265 322.724 244.153H313.989L297.3 228.576H-31.2529V228.049H297.476L314.165 243.607Z" fill="#419586"/>
<path d="M314.165 259.185H451.673C451.79 258.698 452.18 258.327 452.667 258.327C453.233 258.327 453.681 258.834 453.681 259.458C453.681 260.082 453.233 260.589 452.667 260.589C452.18 260.589 451.79 260.218 451.673 259.731H313.989L297.3 244.153H-31.2529V243.627H297.476L314.165 259.185Z" fill="#419586"/>
<path d="M314.165 274.763H387.51C387.627 273.651 388.485 272.774 389.518 272.774C390.649 272.774 391.546 273.788 391.546 275.036C391.546 276.283 390.63 277.297 389.518 277.297C388.485 277.297 387.627 276.42 387.51 275.309H313.989L297.3 259.731H-31.2529V259.205H297.476L314.165 274.763Z" fill="#419586"/>
<path d="M314.165 290.34H580.408C580.525 288.976 581.558 287.884 582.825 287.884C584.17 287.884 585.262 289.093 585.262 290.594C585.262 292.095 584.17 293.304 582.825 293.304C581.558 293.304 580.525 292.231 580.408 290.847H313.989L297.3 275.27H-31.2529V274.743H297.476L314.165 290.34Z" fill="#419586"/>
<path d="M418.588 320.501C417.788 320.501 417.125 321.32 417.047 322.373H381.213L366.318 298.002H164.842L162.6 294.981H-100.036V295.507H162.366L164.374 298.197V298.49H164.589L181.726 321.476H228.556C228.673 322.587 229.531 323.465 230.564 323.465C231.695 323.465 232.592 322.451 232.592 321.203C232.592 319.955 231.676 318.942 230.564 318.942C229.531 318.942 228.673 319.819 228.556 320.93H181.94L165.193 298.47H366.123L381.018 322.841H417.028C417.125 323.894 417.769 324.713 418.568 324.713C419.426 324.713 420.128 323.757 420.128 322.587C420.147 321.437 419.445 320.501 418.588 320.501Z" fill="#419586"/>
<path d="M343.39 29.7905H351.949C352.066 28.6792 352.924 27.8019 353.957 27.8019C355.088 27.8019 355.985 28.8157 355.985 30.0634C355.985 31.3112 355.069 32.325 353.957 32.325C352.924 32.325 352.066 31.4477 351.949 30.3364H343.215L326.526 14.7588H-2.02734V14.2324H326.701L343.39 29.7905Z" fill="#419586"/>
<path d="M310.773 97.1701H319.332C319.449 96.0588 320.307 95.1814 321.34 95.1814C322.471 95.1814 323.368 96.1953 323.368 97.443C323.368 98.6908 322.452 99.7046 321.34 99.7046C320.307 99.7046 319.449 98.8273 319.332 97.716H310.598L293.909 82.1383H-34.6641V81.6119H294.065L310.773 97.1701Z" fill="#419586"/>
<path d="M343.39 45.3681H480.899C481.016 44.8807 481.405 44.5102 481.893 44.5102C482.458 44.5102 482.907 45.0171 482.907 45.641C482.907 46.2649 482.458 46.7718 481.893 46.7718C481.405 46.7718 481.016 46.4014 480.899 45.914H343.215L326.526 30.3363H-2.02734V29.8099H326.702L343.39 45.3681Z" fill="#419586"/>
<path d="M343.39 60.9458H416.736C416.853 59.8345 417.711 58.9572 418.744 58.9572C419.875 58.9572 420.772 59.971 420.772 61.2187C420.772 62.4665 419.855 63.4803 418.744 63.4803C417.711 63.4803 416.853 62.603 416.736 61.4917H343.215L326.526 45.9141H-2.02734V45.3682H326.702L343.39 60.9458Z" fill="#419586"/>
<path d="M343.39 76.5234H609.633C609.75 75.1586 610.784 74.0669 612.051 74.0669C613.396 74.0669 614.488 75.2756 614.488 76.7769C614.488 78.2781 613.396 79.4869 612.051 79.4869C610.784 79.4869 609.75 78.4145 609.633 77.0303H343.215L326.526 61.4527H-2.02734V60.9263H326.702L343.39 76.5234Z" fill="#419586"/>
<path d="M376.905 137.274C376.106 137.274 375.443 138.093 375.365 139.146H339.53L324.635 114.775H123.159L120.917 111.753H-141.719V112.28H120.683L122.691 114.97V115.263H122.906L140.043 138.249H186.874C186.991 139.36 187.848 140.238 188.882 140.238C190.013 140.238 190.909 139.224 190.909 137.976C190.909 136.728 189.993 135.714 188.882 135.714C187.848 135.714 186.991 136.592 186.874 137.703H140.258L123.51 115.243H324.44L339.335 139.614H375.345C375.443 140.667 376.086 141.485 376.885 141.485C377.743 141.485 378.445 140.53 378.445 139.36C378.465 138.21 377.763 137.274 376.905 137.274Z" fill="#419586"/>
</g>
</g>
</svg>
