<svg width="214" height="147" viewBox="0 0 214 147" fill="none" xmlns="http://www.w3.org/2000/svg">
<path d="M32.7629 78.9146C31.9257 78.9146 31.1059 78.6979 30.3858 78.2822L3.04247 62.4969C2.61504 62.251 2.35742 61.806 2.35742 61.3083C2.35742 60.8106 2.61504 60.3656 3.04247 60.1197L52.518 31.5527C52.6 31.5059 52.7054 31.5059 52.7932 31.5527L53.0216 31.6874L82.3731 48.632C82.8006 48.8779 83.0582 49.3229 83.0582 49.8206C83.0582 50.3183 82.8006 50.7633 82.3731 51.0092L35.1342 78.2822C34.4141 78.6921 33.5944 78.9146 32.7629 78.9146ZM52.6527 32.1031L3.3118 60.5881C3.05418 60.7345 2.90195 61.0038 2.90195 61.3024C2.90195 61.6011 3.05418 61.8704 3.3118 62.0168L30.6551 77.8021C31.9256 78.534 33.5826 78.534 34.8532 77.8021L82.0921 50.5291C82.3497 50.3827 82.5019 50.1134 82.5019 49.8147C82.5019 49.5161 82.3497 49.2468 82.0921 49.1004L52.6527 32.1031Z" fill="#419586"/>
<path d="M85.9167 40.9561L83.0477 42.455L54.2641 25.8383C53.784 25.5631 52.9409 25.5924 52.3846 25.9144L2.74514 54.5751C2.27087 54.3116 0.104492 53.2694 0.104492 53.2694L1.15255 56.0096C1.15255 56.0096 1.15841 56.0096 1.15841 56.0037C1.19939 56.1267 1.29307 56.2379 1.45116 56.3316L31.763 73.8325C32.2431 74.1077 33.0862 74.0784 33.6425 73.7564L84.4413 44.4282C84.6696 44.2935 84.8101 44.1354 84.8687 43.9774H84.8745L85.9167 40.9561Z" fill="#55759A"/>
<path d="M85.4718 41.4248L33.4083 71.4849C32.8404 71.8128 31.9738 71.8479 31.482 71.5668L0.414864 53.6327C-0.0769641 53.3458 -0.0184144 52.8481 0.555385 52.5202L52.6189 22.4602C53.1868 22.1323 54.0534 22.0971 54.5452 22.3782L85.6123 40.3123C86.1042 40.5993 86.0398 41.0969 85.4718 41.4248Z" fill="#344E6C"/>
<path d="M85.4717 41.1264L33.4082 71.1864C32.8403 71.5143 31.9737 71.5494 31.4819 71.2684L0.414761 53.3342C0.250818 53.2406 0.157134 53.1235 0.110294 53.0005C0.0341774 53.2347 0.127861 53.4689 0.414761 53.6387L31.4819 71.5729C31.9737 71.8598 32.8403 71.8246 33.4082 71.4909L85.4717 41.4308C85.8523 41.2083 86.0045 40.9156 85.9108 40.6521C85.8523 40.8219 85.7118 40.9917 85.4717 41.1264Z" fill="#EDE7D9"/>
<path d="M17.7051 64.9859V64.4121C17.7051 64.3594 17.7402 64.336 17.7812 64.3594L19.7953 65.5246C19.8363 65.548 19.8715 65.6124 19.8715 65.6651V66.2389C19.8715 66.2916 19.8363 66.3209 19.7953 66.2916L17.7812 65.1264C17.7402 65.103 17.7051 65.0386 17.7051 64.9859Z" fill="#010101"/>
<path d="M20.7207 66.7249V66.1511C20.7207 66.0984 20.7558 66.075 20.7968 66.0984L22.811 67.2636C22.852 67.287 22.8871 67.3514 22.8871 67.4041V67.9779C22.8871 68.0306 22.852 68.054 22.811 68.0306L20.7968 66.8655C20.75 66.8362 20.7207 66.7776 20.7207 66.7249Z" fill="#010101"/>
<path d="M17.9335 57.7085L61.1968 32.7306C61.4837 32.5667 61.8408 32.5667 62.1277 32.7306L77.5325 41.6421C77.755 41.7709 77.755 42.0871 77.5325 42.2159L34.2867 67.182C33.9998 67.3459 33.6427 67.3459 33.3558 67.182L17.9335 58.2823C17.711 58.1534 17.711 57.8373 17.9335 57.7085Z" fill="#70B8A1"/>
<path d="M17.9335 58.2818L18.0857 58.3696L61.1909 33.4796C61.4778 33.3157 61.835 33.3157 62.1219 33.4796L77.3744 42.3032L77.5266 42.2154C77.7491 42.0866 77.7491 41.7704 77.5266 41.6416L62.1219 32.7301C61.835 32.5662 61.4778 32.5603 61.1909 32.7301L17.9335 57.708C17.711 57.8368 17.711 58.153 17.9335 58.2818Z" fill="#192533"/>
<path d="M63.2936 34.9844L23.4439 57.9949L21.4648 57.2045L61.6191 34.0242L63.2936 34.9844Z" fill="#192533"/>
<path d="M67.3861 37.3501L32.1384 57.7024L30.4697 56.7363L65.7174 36.384L67.3861 37.3501Z" fill="#192533"/>
<path d="M70.0563 38.8899L28.5554 62.8548L26.8867 61.8887L68.3876 37.9297L70.0563 38.8899Z" fill="#192533"/>
<path d="M72.7253 40.4297L31.2244 64.3946L29.5498 63.4285L71.0507 39.4695L72.7253 40.4297Z" fill="#192533"/>
<path d="M75.3893 41.9754L33.8884 65.9344L32.2197 64.9683L73.7206 41.0093L75.3893 41.9754Z" fill="#192533"/>
<path d="M23.4438 57.9951L21.7693 58.9612L20.1006 57.9951L21.7693 57.0291L23.4438 57.9951Z" fill="#192533"/>
<path d="M34.1636 56.5313L25.8669 61.3266L24.1924 60.3605L32.5535 55.53L34.1636 56.5313Z" fill="#192533"/>
<path d="M33.3374 46.5128L45.0008 39.7795C45.4575 39.516 45.4575 39.0886 45.0008 38.8251L37.0262 34.2171C36.5695 33.9537 35.8317 33.9537 35.375 34.2171L23.7117 40.9505C23.255 41.214 23.255 41.6414 23.7117 41.9049L31.6863 46.5128C32.1371 46.7763 32.8807 46.7763 33.3374 46.5128Z" fill="#344E6C"/>
<path d="M23.7063 41.3428L35.3696 34.6094C35.8263 34.346 36.5641 34.346 37.0208 34.6094L44.9954 39.2174C45.1359 39.2994 45.2296 39.3989 45.2823 39.4984C45.4053 39.2701 45.3116 39.0066 44.9954 38.8251L37.0208 34.2171C36.5641 33.9537 35.8263 33.9537 35.3696 34.2171L23.7063 40.9505C23.3901 41.132 23.2964 41.3896 23.4194 41.6238C23.4721 41.5243 23.5658 41.4248 23.7063 41.3428Z" fill="#192533"/>
<path d="M85.8377 40.1832L79.2566 1.14141L79.7835 0.918916L78.9872 0.462219V0.468076C78.835 0.362684 78.6125 0.374394 78.3725 0.509061L25.7761 30.8736C25.3429 31.1253 25.015 31.7635 25.0911 32.2085L31.7249 71.5665C31.7601 71.7714 31.8596 71.9061 32.0001 71.9646L32.7788 72.4155L32.9135 71.6894L32.8667 71.7012L85.1468 41.5181C85.5859 41.2722 85.9138 40.6282 85.8377 40.1832Z" fill="#344E6C"/>
<path d="M26.0744 31.9392L25.2078 31.5586C25.1083 31.7811 25.0614 32.0153 25.0966 32.2085L31.7304 71.5665C31.7655 71.7714 31.865 71.9061 32.0056 71.9646L32.7843 72.4154L32.919 71.6894L32.8721 71.7011L35.5186 70.1729L26.0744 31.9392Z" fill="#55759A"/>
<path d="M85.9788 41.9925L33.3825 72.357C32.9785 72.5912 32.6272 72.4566 32.557 72.035L25.9231 32.6771C25.847 32.2321 26.1749 31.588 26.6082 31.3421L79.2045 0.977578C79.6085 0.743375 79.9598 0.878044 80.0301 1.29961L86.6639 40.6576C86.74 41.1025 86.4121 41.7408 85.9788 41.9925Z" fill="#2A3A4D"/>
<path d="M181.107 78.9148C180.27 78.9148 179.45 78.6982 178.73 78.2825L131.491 51.0094C131.063 50.7635 130.806 50.3185 130.806 49.8208C130.806 49.3232 131.063 48.8782 131.491 48.6323L161.071 31.553C161.158 31.5061 161.258 31.5061 161.346 31.553L210.821 60.12C211.249 60.3659 211.506 60.8109 211.506 61.3085C211.506 61.8062 211.249 62.2512 210.821 62.4971L183.478 78.2825C182.764 78.6923 181.944 78.9148 181.107 78.9148ZM179.011 77.8023C180.281 78.5342 181.938 78.5342 183.209 77.8023L210.552 62.017C210.81 61.8706 210.962 61.6013 210.962 61.3027C210.962 61.0041 210.81 60.7347 210.552 60.5884L161.211 32.1033L161.117 32.156L131.766 49.1007C131.508 49.247 131.356 49.5164 131.356 49.815C131.356 50.1136 131.508 50.3771 131.766 50.5293L179.011 77.8023Z" fill="#419586"/>
<path d="M127.951 40.9564L130.82 42.4553L159.604 25.8385C160.084 25.5633 160.927 25.5926 161.483 25.9146L211.123 54.5753C211.597 54.3118 213.763 53.2696 213.763 53.2696L212.715 56.0098C212.715 56.0098 212.71 56.0098 212.71 56.004C212.669 56.1269 212.575 56.2382 212.417 56.3319L182.105 73.8327C181.625 74.1079 180.782 74.0786 180.225 73.7566L129.427 44.4284C129.198 44.2938 129.058 44.1357 128.999 43.9776H128.993L127.951 40.9564Z" fill="#55759A"/>
<path d="M128.396 41.4248L180.46 71.4849C181.028 71.8128 181.894 71.8479 182.386 71.5668L213.453 53.6327C213.945 53.3458 213.886 52.8481 213.313 52.5202L161.249 22.4602C160.681 22.1323 159.815 22.0971 159.323 22.3782L128.256 40.3123C127.764 40.5993 127.828 41.0969 128.396 41.4248Z" fill="#344E6C"/>
<path d="M128.397 41.1264L180.46 71.1864C181.028 71.5143 181.895 71.5494 182.387 71.2684L213.454 53.3342C213.618 53.2406 213.711 53.1235 213.758 53.0005C213.834 53.2347 213.741 53.4689 213.454 53.6387L182.387 71.5729C181.895 71.8598 181.028 71.8246 180.46 71.4909L128.397 41.4308C128.016 41.2083 127.864 40.9156 127.958 40.6521C128.016 40.8219 128.157 40.9917 128.397 41.1264Z" fill="#EDE7D9"/>
<path d="M196.163 64.9859V64.4121C196.163 64.3594 196.128 64.336 196.087 64.3594L194.073 65.5246C194.032 65.548 193.997 65.6124 193.997 65.6651V66.2389C193.997 66.2916 194.032 66.3209 194.073 66.2916L196.087 65.1264C196.128 65.103 196.163 65.0386 196.163 64.9859Z" fill="#010101"/>
<path d="M193.148 66.7249V66.1511C193.148 66.0984 193.113 66.075 193.072 66.0984L191.058 67.2636C191.017 67.287 190.981 67.3514 190.981 67.4041V67.9779C190.981 68.0306 191.017 68.054 191.058 68.0306L193.072 66.8655C193.119 66.8362 193.148 66.7776 193.148 66.7249Z" fill="#010101"/>
<path d="M195.934 57.7087L152.671 32.7309C152.384 32.5669 152.026 32.5669 151.74 32.7309L136.335 41.6423C136.112 41.7711 136.112 42.0873 136.335 42.2161L179.581 67.1822C179.867 67.3462 180.225 67.3462 180.512 67.1822L195.94 58.2825C196.156 58.1537 196.156 57.8375 195.934 57.7087Z" fill="#70B8A1"/>
<path d="M195.935 58.282L195.783 58.3699L152.677 33.4798C152.39 33.3159 152.033 33.3159 151.746 33.4798L136.494 42.3035L136.342 42.2156C136.119 42.0868 136.119 41.7707 136.342 41.6418L151.746 32.7304C152.033 32.5664 152.39 32.5606 152.677 32.7304L195.935 57.7082C196.157 57.837 196.157 58.1532 195.935 58.282Z" fill="#192533"/>
<path d="M150.574 34.9846L190.424 57.9952L192.403 57.2047L152.249 34.0244L150.574 34.9846Z" fill="#192533"/>
<path d="M146.482 37.3504L181.73 57.7027L183.399 56.7366L148.151 36.3843L146.482 37.3504Z" fill="#192533"/>
<path d="M143.812 38.8902L185.313 62.8551L186.982 61.889L145.481 37.9299L143.812 38.8902Z" fill="#192533"/>
<path d="M141.142 40.4302L182.642 64.3951L184.317 63.429L142.816 39.47L141.142 40.4302Z" fill="#192533"/>
<path d="M138.478 41.9756L179.978 65.9347L181.647 64.9686L140.146 41.0095L138.478 41.9756Z" fill="#192533"/>
<path d="M190.424 57.9951L192.098 58.9612L193.767 57.9951L192.098 57.0291L190.424 57.9951Z" fill="#192533"/>
<path d="M179.703 56.5315L188 61.3268L189.674 60.3607L181.313 55.5303L179.703 56.5315Z" fill="#192533"/>
<path d="M180.53 46.5131L168.867 39.7797C168.41 39.5162 168.41 39.0888 168.867 38.8253L176.842 34.2174C177.298 33.9539 178.036 33.9539 178.493 34.2174L190.156 40.9507C190.613 41.2142 190.613 41.6416 190.156 41.9051L182.181 46.5131C181.731 46.7766 180.987 46.7766 180.53 46.5131Z" fill="#344E6C"/>
<path d="M190.161 41.343L178.498 34.6097C178.041 34.3462 177.304 34.3462 176.847 34.6097L168.872 39.2176C168.732 39.2996 168.638 39.3991 168.585 39.4987C168.462 39.2703 168.556 39.0068 168.872 38.8253L176.847 34.2174C177.304 33.9539 178.041 33.9539 178.498 34.2174L190.161 40.9507C190.478 41.1323 190.571 41.3899 190.448 41.6241C190.396 41.5245 190.302 41.425 190.161 41.343Z" fill="#192533"/>
<path d="M128.031 40.1832L134.612 1.13555L134.085 0.913057L134.881 0.45636V0.462216C135.033 0.356825 135.256 0.368535 135.496 0.503202L188.092 30.8677C188.525 31.1195 188.853 31.7577 188.777 32.2027L182.143 71.5606C182.108 71.7656 182.009 71.9002 181.868 71.9588L181.089 72.4096L180.955 71.6836L181.002 71.6953L128.721 41.5123C128.282 41.2722 127.954 40.6282 128.031 40.1832Z" fill="#344E6C"/>
<path d="M187.794 31.9392L188.66 31.5586C188.76 31.7811 188.807 32.0153 188.772 32.2085L182.138 71.5665C182.103 71.7714 182.003 71.9061 181.863 71.9646L181.084 72.4154L180.949 71.6894L180.996 71.7011L178.35 70.1729L187.794 31.9392Z" fill="#55759A"/>
<path d="M127.89 41.9925L180.487 72.357C180.891 72.5912 181.242 72.4566 181.312 72.035L187.946 32.6771C188.022 32.2321 187.694 31.588 187.261 31.3421L134.665 0.977578C134.261 0.743375 133.909 0.878044 133.839 1.29961L127.205 40.6576C127.129 41.1025 127.457 41.7408 127.89 41.9925Z" fill="#2A3A4D"/>
<path d="M106.935 88.3297L57.9629 60.0555L106.935 31.7812L155.907 60.0555L106.935 88.3297Z" fill="#55759A"/>
<path d="M106.936 80.6069L71.3369 60.0555L106.936 39.4983L142.535 60.0555L106.936 80.6069Z" fill="#2A3A4D"/>
<path d="M106.936 40.8918L141.329 60.7523L142.535 60.0555L106.936 39.4983L71.3369 60.0555L72.5431 60.7523L106.936 40.8918Z" fill="#EDE7D9"/>
<path d="M155.907 60.0557V76.0811L106.935 104.355V88.3299L155.907 60.0557Z" fill="#344E6C"/>
<path d="M57.9629 60.0557V76.0811L106.935 104.355V88.3299L57.9629 60.0557Z" fill="#192533"/>
<g opacity="0.51">
<path d="M61.2773 67.2573V72.3044L103.621 96.7436V91.6965L61.2773 67.2573Z" fill="#2A3A4D"/>
</g>
<path d="M106.935 87.4106L58.7592 59.593L57.9629 60.0556L106.935 88.3298L155.907 60.0556L155.111 59.593L106.935 87.4106Z" fill="#EDE7D9"/>
<path d="M148.565 71.2854V74.1544L114.283 93.9446V91.0756L148.565 71.2854Z" fill="#2A3A4D"/>
<path opacity="0.51" d="M57.9629 60.0557V76.0811L106.935 104.355V88.3299L57.9629 60.0557Z" fill="#2A3A4D"/>
<path d="M92.6371 87.4753L83.7725 82.3579V83.4118L92.6371 88.535V87.4753Z" fill="#419586"/>
<path d="M82.4895 81.6313L80.0889 80.2437V81.2976L82.4895 82.6852V81.6313Z" fill="#419586"/>
<path d="M71.2366 75.1324L66.3184 72.2927V73.3525L71.2366 76.1922V75.1324Z" fill="#419586"/>
<path d="M75.721 77.7204L72.167 75.6711V76.7251L75.721 78.7802V77.7204Z" fill="#419586"/>
<path d="M79.0598 79.6467L76.6533 78.259V79.3188L79.0539 80.7065L79.0598 79.6467Z" fill="#419586"/>
<path d="M106.987 46.5595L105.43 45.6578L106.987 44.762L108.539 45.6578L106.987 46.5595Z" fill="#419586"/>
<path opacity="0.1" d="M110.097 48.3512L108.539 47.4554L110.097 46.5596L111.648 47.4554L110.097 48.3512Z" fill="#419586"/>
<path opacity="0.4" d="M113.205 50.1488L111.647 49.253L113.205 48.3513L114.762 49.253L113.205 50.1488Z" fill="#419586"/>
<path d="M116.315 51.9462L114.764 51.0445L116.315 50.1487L117.873 51.0445L116.315 51.9462Z" fill="#419586"/>
<path opacity="0.4" d="M119.424 53.7379L117.872 52.8421L119.424 51.9463L120.981 52.8421L119.424 53.7379Z" fill="#419586"/>
<path d="M122.539 55.5356L120.981 54.6397L122.539 53.738L124.09 54.6397L122.539 55.5356Z" fill="#419586"/>
<path d="M125.647 57.3329L124.09 56.4312L125.647 55.5354L127.199 56.4312L125.647 57.3329Z" fill="#419586"/>
<path d="M128.757 59.1247L127.199 58.2288L128.757 57.333L130.314 58.2288L128.757 59.1247Z" fill="#419586"/>
<path opacity="0.1" d="M131.866 60.922L130.314 60.0262L131.866 59.1245L133.424 60.0262L131.866 60.922Z" fill="#419586"/>
<path d="M103.86 48.3629L102.309 47.4613L103.86 46.5654L105.418 47.4613L103.86 48.3629Z" fill="#419586"/>
<path d="M106.969 50.1549L105.417 49.2591L106.969 48.3633L108.526 49.2591L106.969 50.1549Z" fill="#419586"/>
<path d="M110.084 51.9523L108.526 51.0565L110.084 50.1548L111.635 51.0565L110.084 51.9523Z" fill="#419586"/>
<path d="M113.193 53.7494L111.636 52.8477L113.193 51.9519L114.745 52.8477L113.193 53.7494Z" fill="#419586"/>
<path d="M116.302 55.5414L114.744 54.6456L116.302 53.7498L117.859 54.6456L116.302 55.5414Z" fill="#419586"/>
<path d="M119.412 57.3388L117.86 56.4429L119.412 55.5413L120.969 56.4429L119.412 57.3388Z" fill="#419586"/>
<path d="M122.52 59.1361L120.969 58.2345L122.52 57.3386L124.078 58.2345L122.52 59.1361Z" fill="#419586"/>
<path d="M125.636 60.9279L124.078 60.0321L125.636 59.1362L127.187 60.0321L125.636 60.9279Z" fill="#419586"/>
<path d="M128.744 62.7257L127.187 61.8299L128.744 60.9282L130.296 61.8299L128.744 62.7257Z" fill="#419586"/>
<path d="M100.741 50.1659L99.1836 49.2642L100.741 48.3684L102.293 49.2642L100.741 50.1659Z" fill="#419586"/>
<path d="M103.85 51.9577L102.299 51.0619L103.85 50.166L105.408 51.0619L103.85 51.9577Z" fill="#419586"/>
<path d="M106.96 53.755L105.408 52.8592L106.96 51.9575L108.517 52.8592L106.96 53.755Z" fill="#419586"/>
<path opacity="0.1" d="M110.075 55.5524L108.518 54.6507L110.069 53.7549L111.627 54.6507L110.075 55.5524Z" fill="#419586"/>
<path opacity="0.4" d="M113.183 57.3444L111.626 56.4486L113.183 55.5527L114.735 56.4486L113.183 57.3444Z" fill="#419586"/>
<path opacity="0.4" d="M116.293 59.1417L114.735 58.2459L116.293 57.3442L117.844 58.2459L116.293 59.1417Z" fill="#419586"/>
<path d="M119.401 60.9394L117.85 60.0377L119.401 59.1418L120.959 60.0377L119.401 60.9394Z" fill="#419586"/>
<path d="M122.511 62.7309L120.959 61.835L122.511 60.9392L124.068 61.835L122.511 62.7309Z" fill="#419586"/>
<path d="M125.619 64.5287L124.067 63.6329L125.619 62.7312L127.176 63.6329L125.619 64.5287Z" fill="#419586"/>
<path opacity="0.4" d="M97.62 51.964L96.0625 51.0682L97.62 50.1724L99.1716 51.0682L97.62 51.964Z" fill="#419586"/>
<path opacity="0.4" d="M100.728 53.7614L99.1709 52.8655L100.728 51.9639L102.28 52.8655L100.728 53.7614Z" fill="#419586"/>
<path opacity="0.1" d="M103.838 55.5587L102.28 54.6571L103.838 53.7612L105.395 54.6571L103.838 55.5587Z" fill="#419586"/>
<path d="M106.947 57.3564L105.396 56.4547L106.947 55.5588L108.505 56.4547L106.947 57.3564Z" fill="#419586"/>
<path d="M110.056 59.1481L108.505 58.2523L110.056 57.3564L111.614 58.2523L110.056 59.1481Z" fill="#419586"/>
<path d="M113.171 60.9455L111.613 60.0496L113.171 59.1479L114.722 60.0496L113.171 60.9455Z" fill="#419586"/>
<path opacity="0.4" d="M116.28 62.7428L114.723 61.8411L116.28 60.9453L117.832 61.8411L116.28 62.7428Z" fill="#419586"/>
<path d="M119.389 64.5348L117.832 63.639L119.389 62.7432L120.947 63.639L119.389 64.5348Z" fill="#419586"/>
<path d="M122.498 66.3322L120.946 65.4363L122.498 64.5347L124.055 65.4363L122.498 66.3322Z" fill="#419586"/>
<path d="M94.494 53.7672L92.9424 52.8714L94.494 51.9756L96.0514 52.8714L94.494 53.7672Z" fill="#419586"/>
<path d="M97.6034 55.5646L96.0518 54.6688L97.6034 53.7671L99.1608 54.6688L97.6034 55.5646Z" fill="#419586"/>
<path d="M100.718 57.3622L99.1602 56.4605L100.718 55.5647L102.269 56.4605L100.718 57.3622Z" fill="#419586"/>
<path d="M103.827 59.1537L102.27 58.2579L103.827 57.3621L105.379 58.2579L103.827 59.1537Z" fill="#419586"/>
<path d="M106.935 60.9516L105.378 60.0557L106.935 59.1541L108.493 60.0557L106.935 60.9516Z" fill="#419586"/>
<path d="M110.046 62.7489L108.494 61.8472L110.046 60.9514L111.603 61.8472L110.046 62.7489Z" fill="#419586"/>
<path d="M113.154 64.5463L111.603 63.6446L113.154 62.7488L114.712 63.6446L113.154 64.5463Z" fill="#419586"/>
<path d="M116.269 66.338L114.712 65.4422L116.269 64.5464L117.821 65.4422L116.269 66.338Z" fill="#419586"/>
<path d="M119.378 68.1356L117.82 67.2398L119.378 66.3381L120.929 67.2398L119.378 68.1356Z" fill="#419586"/>
<path d="M91.3709 55.5705L89.8135 54.6746L91.3709 53.7788L92.9225 54.6746L91.3709 55.5705Z" fill="#419586"/>
<path d="M94.4803 57.3678L92.9229 56.472L94.4803 55.5703L96.0378 56.472L94.4803 57.3678Z" fill="#419586"/>
<path opacity="0.4" d="M97.5897 59.1652L96.0381 58.2635L97.5897 57.3677L99.1471 58.2635L97.5897 59.1652Z" fill="#419586"/>
<path d="M100.699 60.9569L99.1475 60.0611L100.699 59.1653L102.257 60.0611L100.699 60.9569Z" fill="#419586"/>
<path opacity="0.1" d="M103.813 62.7545L102.256 61.8587L103.813 60.957L105.365 61.8587L103.813 62.7545Z" fill="#419586"/>
<path d="M106.923 64.5519L105.365 63.6502L106.923 62.7544L108.474 63.6502L106.923 64.5519Z" fill="#419586"/>
<path d="M110.031 66.3439L108.474 65.4481L110.031 64.5522L111.589 65.4481L110.031 66.3439Z" fill="#419586"/>
<path d="M113.14 68.1413L111.589 67.2454L113.14 66.3438L114.698 67.2454L113.14 68.1413Z" fill="#419586"/>
<path d="M116.25 69.9386L114.698 69.0369L116.25 68.1411L117.807 69.0369L116.25 69.9386Z" fill="#419586"/>
<path d="M88.2498 57.3739L86.6924 56.4781L88.244 55.5823L89.8014 56.4781L88.2498 57.3739Z" fill="#419586"/>
<path d="M91.3592 59.1715L89.8018 58.2757L91.3592 57.374L92.9108 58.2757L91.3592 59.1715Z" fill="#419586"/>
<path opacity="0.4" d="M94.4676 60.9691L92.9102 60.0675L94.4676 59.1716L96.0192 60.0675L94.4676 60.9691Z" fill="#419586"/>
<path d="M97.577 62.7604L96.0195 61.8646L97.577 60.9688L99.1344 61.8646L97.577 62.7604Z" fill="#419586"/>
<path d="M100.686 64.5583L99.1348 63.6624L100.686 62.7607L102.244 63.6624L100.686 64.5583Z" fill="#419586"/>
<path opacity="0.1" d="M103.796 66.3556L102.244 65.4539L103.796 64.5581L105.353 65.4539L103.796 66.3556Z" fill="#419586"/>
<path opacity="0.4" d="M106.91 68.1471L105.353 67.2513L106.91 66.3555L108.462 67.2513L106.91 68.1471Z" fill="#419586"/>
<path d="M110.019 69.9447L108.462 69.0489L110.019 68.1472L111.571 69.0489L110.019 69.9447Z" fill="#419586"/>
<path opacity="0.1" d="M113.128 71.7423L111.57 70.8407L113.128 69.9448L114.685 70.8407L113.128 71.7423Z" fill="#419586"/>
<path d="M85.1239 59.1774L83.5723 58.2816L85.1239 57.3799L86.6813 58.2816L85.1239 59.1774Z" fill="#419586"/>
<path opacity="0.4" d="M88.2332 60.9748L86.6816 60.0731L88.2332 59.1772L89.7907 60.0731L88.2332 60.9748Z" fill="#419586"/>
<path d="M91.3475 62.7721L89.79 61.8704L91.3475 60.9746L92.8991 61.8704L91.3475 62.7721Z" fill="#419586"/>
<path d="M94.4578 64.5641L92.9004 63.6683L94.4578 62.7725L96.0094 63.6683L94.4578 64.5641Z" fill="#419586"/>
<path d="M97.5662 66.3615L96.0088 65.4656L97.5662 64.564L99.1237 65.4656L97.5662 66.3615Z" fill="#419586"/>
<path d="M100.676 68.1591L99.124 67.2574L100.676 66.3616L102.233 67.2574L100.676 68.1591Z" fill="#419586"/>
<path d="M103.784 69.9506L102.232 69.0548L103.784 68.1589L105.341 69.0548L103.784 69.9506Z" fill="#419586"/>
<path opacity="0.4" d="M106.899 71.7482L105.342 70.8524L106.899 69.9507L108.451 70.8524L106.899 71.7482Z" fill="#419586"/>
<path d="M110.009 73.5458L108.451 72.6441L110.009 71.7483L111.56 72.6441L110.009 73.5458Z" fill="#419586"/>
<path d="M82.0038 60.9806L80.4463 60.0848L82.0038 59.1831L83.5554 60.0848L82.0038 60.9806Z" fill="#419586"/>
<path opacity="0.1" d="M85.1121 62.7785L83.5547 61.8768L85.1121 60.981L86.6696 61.8768L85.1121 62.7785Z" fill="#419586"/>
<path d="M88.2215 64.5697L86.6699 63.6739L88.2215 62.7781L89.779 63.6739L88.2215 64.5697Z" fill="#419586"/>
<path d="M91.3309 66.3673L89.7793 65.4715L91.3309 64.5698L92.8884 65.4715L91.3309 66.3673Z" fill="#419586"/>
<path d="M94.4461 68.1649L92.8887 67.2633L94.4461 66.3674L95.9977 67.2633L94.4461 68.1649Z" fill="#419586"/>
<path d="M97.5545 69.9626L95.9971 69.0609L97.5545 68.165L99.1061 69.0609L97.5545 69.9626Z" fill="#419586"/>
<path opacity="0.4" d="M100.664 71.7541L99.1064 70.8582L100.664 69.9624L102.221 70.8582L100.664 71.7541Z" fill="#419586"/>
<path d="M103.773 73.5517L102.222 72.6558L103.773 71.7542L105.331 72.6558L103.773 73.5517Z" fill="#419586"/>
<path d="M106.882 75.349L105.33 74.4473L106.882 73.5515L108.439 74.4473L106.882 75.349Z" fill="#419586"/>
<path d="M106.935 60.5763L57.9629 32.3021L106.935 4.02783L155.907 32.3021L106.935 60.5763Z" fill="#55759A"/>
<path d="M106.936 52.8593L71.3369 32.3021L106.936 11.7507L142.535 32.3021L106.936 52.8593Z" fill="#2A3A4D"/>
<path d="M106.936 13.1442L141.329 32.9989L142.535 32.3021L106.936 11.7507L71.3369 32.3021L72.5431 32.9989L106.936 13.1442Z" fill="#EDE7D9"/>
<path d="M155.907 32.3022V48.3335L106.935 76.6077V60.5765L155.907 32.3022Z" fill="#344E6C"/>
<path d="M57.9629 32.3022V48.3335L106.935 76.6077V60.5765L57.9629 32.3022Z" fill="#192533"/>
<g opacity="0.51">
<path d="M61.2773 39.5037V44.5508L103.621 68.9958V63.9487L61.2773 39.5037Z" fill="#2A3A4D"/>
</g>
<path d="M106.935 59.6572L58.7592 31.8455L57.9629 32.3022L106.935 60.5764L155.907 32.3022L155.111 31.8455L106.935 59.6572Z" fill="#EDE7D9"/>
<path d="M148.565 43.5381V46.4071L114.283 66.1973V63.3283L148.565 43.5381Z" fill="#2A3A4D"/>
<path opacity="0.51" d="M57.9629 32.3022V48.3335L106.935 76.6077V60.5765L57.9629 32.3022Z" fill="#2A3A4D"/>
<path d="M92.6371 59.7272L83.7725 54.604V55.6638L92.6371 60.787V59.7272Z" fill="#419586"/>
<path d="M82.4895 53.8781L80.0889 52.4905V53.5503L82.4895 54.9379V53.8781Z" fill="#419586"/>
<path d="M71.2366 47.3849L66.3184 44.5452V45.5991L71.2366 48.4388V47.3849Z" fill="#419586"/>
<path d="M75.721 49.9731L72.167 47.918V48.9777L75.721 51.0329V49.9731Z" fill="#419586"/>
<path d="M79.0598 51.8994L76.6533 50.5117V51.5656L79.0539 52.9533L79.0598 51.8994Z" fill="#419586"/>
<path d="M106.987 18.8061L105.43 17.9102L106.987 17.0144L108.539 17.9102L106.987 18.8061Z" fill="#419586"/>
<path opacity="0.1" d="M110.097 20.6037L108.539 19.7078L110.097 18.8062L111.648 19.7078L110.097 20.6037Z" fill="#419586"/>
<path opacity="0.4" d="M113.205 22.401L111.647 21.4993L113.205 20.6035L114.762 21.4993L113.205 22.401Z" fill="#419586"/>
<path d="M116.315 24.1928L114.764 23.297L116.315 22.4011L117.873 23.297L116.315 24.1928Z" fill="#419586"/>
<path opacity="0.4" d="M119.424 25.9904L117.872 25.0946L119.424 24.1929L120.981 25.0946L119.424 25.9904Z" fill="#419586"/>
<path d="M122.539 27.7877L120.981 26.8861L122.539 25.9902L124.09 26.8861L122.539 27.7877Z" fill="#419586"/>
<path d="M125.647 29.5795L124.09 28.6837L125.647 27.7878L127.199 28.6837L125.647 29.5795Z" fill="#419586"/>
<path d="M128.757 31.3771L127.199 30.4813L128.757 29.5796L130.314 30.4813L128.757 31.3771Z" fill="#419586"/>
<path opacity="0.1" d="M131.866 33.1747L130.314 32.273L131.866 31.3772L133.424 32.273L131.866 33.1747Z" fill="#419586"/>
<path d="M103.86 20.6095L102.309 19.7137L103.86 18.812L105.418 19.7137L103.86 20.6095Z" fill="#419586"/>
<path d="M106.969 22.4069L105.417 21.5052L106.969 20.6094L108.526 21.5052L106.969 22.4069Z" fill="#419586"/>
<path d="M110.084 24.1984L108.526 23.3026L110.084 22.4067L111.635 23.3026L110.084 24.1984Z" fill="#419586"/>
<path d="M113.193 25.996L111.636 25.1002L113.193 24.2043L114.745 25.1002L113.193 25.996Z" fill="#419586"/>
<path d="M116.302 27.7936L114.744 26.8978L116.302 25.9961L117.859 26.8978L116.302 27.7936Z" fill="#419586"/>
<path d="M119.412 29.591L117.86 28.6893L119.412 27.7935L120.969 28.6893L119.412 29.591Z" fill="#419586"/>
<path d="M122.52 31.3827L120.969 30.4869L122.52 29.5911L124.078 30.4869L122.52 31.3827Z" fill="#419586"/>
<path d="M125.636 33.1801L124.078 32.2842L125.636 31.3826L127.187 32.2842L125.636 33.1801Z" fill="#419586"/>
<path d="M128.744 34.9777L127.187 34.076L128.744 33.1802L130.296 34.076L128.744 34.9777Z" fill="#419586"/>
<path d="M100.741 22.413L99.1836 21.5172L100.741 20.6155L102.293 21.5172L100.741 22.413Z" fill="#419586"/>
<path d="M103.85 24.2106L102.299 23.3089L103.85 22.4131L105.408 23.3089L103.85 24.2106Z" fill="#419586"/>
<path d="M106.96 26.0024L105.408 25.1065L106.96 24.2107L108.517 25.1065L106.96 26.0024Z" fill="#419586"/>
<path opacity="0.1" d="M110.075 27.7997L108.518 26.9039L110.069 26.0022L111.627 26.9039L110.075 27.7997Z" fill="#419586"/>
<path opacity="0.4" d="M113.183 29.5973L111.626 28.6956L113.183 27.7998L114.735 28.6956L113.183 29.5973Z" fill="#419586"/>
<path opacity="0.4" d="M116.293 31.3886L114.735 30.4928L116.293 29.5969L117.844 30.4928L116.293 31.3886Z" fill="#419586"/>
<path d="M119.401 33.1864L117.85 32.2906L119.401 31.3948L120.959 32.2906L119.401 33.1864Z" fill="#419586"/>
<path d="M122.511 34.984L120.959 34.0882L122.511 33.1865L124.068 34.0882L122.511 34.984Z" fill="#419586"/>
<path d="M125.619 36.7814L124.067 35.8797L125.619 34.9839L127.176 35.8797L125.619 36.7814Z" fill="#419586"/>
<path opacity="0.4" d="M97.62 24.2162L96.0625 23.3204L97.62 22.4187L99.1716 23.3204L97.62 24.2162Z" fill="#419586"/>
<path opacity="0.4" d="M100.728 26.0136L99.1709 25.1119L100.728 24.2161L102.28 25.1119L100.728 26.0136Z" fill="#419586"/>
<path opacity="0.1" d="M103.838 27.8051L102.28 26.9093L103.838 26.0134L105.395 26.9093L103.838 27.8051Z" fill="#419586"/>
<path d="M106.947 29.6027L105.396 28.7069L106.947 27.8052L108.505 28.7069L106.947 29.6027Z" fill="#419586"/>
<path d="M110.056 31.4003L108.505 30.4986L110.056 29.6028L111.614 30.4986L110.056 31.4003Z" fill="#419586"/>
<path d="M113.171 33.192L111.613 32.2962L113.171 31.4004L114.722 32.2962L113.171 33.192Z" fill="#419586"/>
<path opacity="0.4" d="M116.28 34.9896L114.723 34.0938L116.28 33.1921L117.832 34.0938L116.28 34.9896Z" fill="#419586"/>
<path d="M119.389 36.787L117.832 35.8853L119.389 34.9895L120.947 35.8853L119.389 36.787Z" fill="#419586"/>
<path d="M122.498 38.579L120.946 37.6832L122.498 36.7874L124.055 37.6832L122.498 38.579Z" fill="#419586"/>
<path d="M94.494 26.0194L92.9424 25.1236L94.494 24.2219L96.0514 25.1236L94.494 26.0194Z" fill="#419586"/>
<path d="M97.6034 27.817L96.0518 26.9154L97.6034 26.0195L99.1608 26.9154L97.6034 27.817Z" fill="#419586"/>
<path d="M100.718 29.6086L99.1602 28.7127L100.718 27.8169L102.269 28.7127L100.718 29.6086Z" fill="#419586"/>
<path d="M103.827 31.4059L102.27 30.5101L103.827 29.6084L105.379 30.5101L103.827 31.4059Z" fill="#419586"/>
<path d="M106.935 33.2038L105.378 32.3021L106.935 31.4062L108.493 32.3021L106.935 33.2038Z" fill="#419586"/>
<path d="M110.046 34.9953L108.494 34.0994L110.046 33.2036L111.603 34.0994L110.046 34.9953Z" fill="#419586"/>
<path d="M113.154 36.7929L111.603 35.897L113.154 34.9954L114.712 35.897L113.154 36.7929Z" fill="#419586"/>
<path d="M116.269 38.5902L114.712 37.6886L116.269 36.7927L117.821 37.6886L116.269 38.5902Z" fill="#419586"/>
<path d="M119.378 40.382L117.82 39.4862L119.378 38.5903L120.929 39.4862L119.378 40.382Z" fill="#419586"/>
<path d="M91.3709 27.8229L89.8135 26.9271L91.3709 26.0254L92.9225 26.9271L91.3709 27.8229Z" fill="#419586"/>
<path d="M94.4803 29.6205L92.9229 28.7188L94.4803 27.823L96.0378 28.7188L94.4803 29.6205Z" fill="#419586"/>
<path opacity="0.4" d="M97.5897 31.4123L96.0381 30.5164L97.5897 29.6206L99.1471 30.5164L97.5897 31.4123Z" fill="#419586"/>
<path d="M100.699 33.2096L99.1475 32.3138L100.699 31.4121L102.257 32.3138L100.699 33.2096Z" fill="#419586"/>
<path opacity="0.1" d="M103.813 35.0072L102.256 34.1055L103.813 33.2097L105.365 34.1055L103.813 35.0072Z" fill="#419586"/>
<path d="M106.923 36.799L105.365 35.9032L106.923 35.0073L108.474 35.9032L106.923 36.799Z" fill="#419586"/>
<path d="M110.031 38.5966L108.474 37.7008L110.031 36.7991L111.589 37.7008L110.031 38.5966Z" fill="#419586"/>
<path d="M113.14 40.394L111.589 39.4923L113.14 38.5964L114.698 39.4923L113.14 40.394Z" fill="#419586"/>
<path d="M116.25 42.1859L114.698 41.2901L116.25 40.3943L117.807 41.2901L116.25 42.1859Z" fill="#419586"/>
<path d="M88.2498 29.6264L86.6924 28.7247L88.244 27.8289L89.8014 28.7247L88.2498 29.6264Z" fill="#419586"/>
<path d="M91.3592 31.4181L89.8018 30.5223L91.3592 29.6265L92.9108 30.5223L91.3592 31.4181Z" fill="#419586"/>
<path opacity="0.4" d="M94.4676 33.2157L92.9102 32.3199L94.4676 31.4182L96.0192 32.3199L94.4676 33.2157Z" fill="#419586"/>
<path d="M97.577 35.0129L96.0195 34.1112L97.577 33.2153L99.1344 34.1112L97.577 35.0129Z" fill="#419586"/>
<path d="M100.686 36.8107L99.1348 35.909L100.686 35.0132L102.244 35.909L100.686 36.8107Z" fill="#419586"/>
<path opacity="0.1" d="M103.796 38.6022L102.244 37.7064L103.796 36.8105L105.353 37.7064L103.796 38.6022Z" fill="#419586"/>
<path opacity="0.4" d="M106.91 40.3998L105.353 39.504L106.91 38.6023L108.462 39.504L106.91 40.3998Z" fill="#419586"/>
<path d="M110.019 42.1974L108.462 41.2957L110.019 40.3999L111.571 41.2957L110.019 42.1974Z" fill="#419586"/>
<path opacity="0.1" d="M113.128 43.9892L111.57 43.0933L113.128 42.1975L114.685 43.0933L113.128 43.9892Z" fill="#419586"/>
<path d="M85.1239 31.4298L83.5723 30.5282L85.1239 29.6323L86.6813 30.5282L85.1239 31.4298Z" fill="#419586"/>
<path opacity="0.4" d="M88.2332 33.2216L86.6816 32.3258L88.2332 31.4299L89.7907 32.3258L88.2332 33.2216Z" fill="#419586"/>
<path d="M91.3475 35.0192L89.79 34.1234L91.3475 33.2217L92.8991 34.1234L91.3475 35.0192Z" fill="#419586"/>
<path d="M94.4578 36.8166L92.9004 35.9149L94.4578 35.019L96.0094 35.9149L94.4578 36.8166Z" fill="#419586"/>
<path d="M97.5662 38.6083L96.0088 37.7125L97.5662 36.8167L99.1237 37.7125L97.5662 38.6083Z" fill="#419586"/>
<path d="M100.676 40.4059L99.124 39.5101L100.676 38.6084L102.233 39.5101L100.676 40.4059Z" fill="#419586"/>
<path d="M103.784 42.2035L102.232 41.3018L103.784 40.406L105.341 41.3018L103.784 42.2035Z" fill="#419586"/>
<path opacity="0.4" d="M106.899 44.0006L105.342 43.099L106.899 42.2031L108.451 43.099L106.899 44.0006Z" fill="#419586"/>
<path d="M110.009 45.7924L108.451 44.8966L110.009 44.0007L111.56 44.8966L110.009 45.7924Z" fill="#419586"/>
<path d="M82.0038 33.2331L80.4463 32.3314L82.0038 31.4355L83.5554 32.3314L82.0038 33.2331Z" fill="#419586"/>
<path opacity="0.1" d="M85.1121 35.0248L83.5547 34.129L85.1121 33.2332L86.6696 34.129L85.1121 35.0248Z" fill="#419586"/>
<path d="M88.2215 36.8224L86.6699 35.9266L88.2215 35.0249L89.779 35.9266L88.2215 36.8224Z" fill="#419586"/>
<path d="M91.3309 38.62L89.7793 37.7183L91.3309 36.8225L92.8884 37.7183L91.3309 38.62Z" fill="#419586"/>
<path d="M94.4461 40.4115L92.8887 39.5157L94.4461 38.6199L95.9977 39.5157L94.4461 40.4115Z" fill="#419586"/>
<path d="M97.5545 42.2086L95.9971 41.3128L97.5545 40.4111L99.1061 41.3128L97.5545 42.2086Z" fill="#419586"/>
<path opacity="0.4" d="M100.664 44.0065L99.1064 43.1048L100.664 42.209L102.221 43.1048L100.664 44.0065Z" fill="#419586"/>
<path d="M103.773 45.798L102.222 44.9022L103.773 44.0063L105.331 44.9022L103.773 45.798Z" fill="#419586"/>
<path d="M106.882 47.5958L105.33 46.7L106.882 45.7983L108.439 46.7L106.882 47.5958Z" fill="#419586"/>
<path d="M159.655 146.845C158.806 146.845 157.969 146.622 157.243 146.201L129.414 130.129C128.974 129.877 128.717 129.426 128.717 128.922C128.717 128.419 128.974 127.968 129.414 127.716L179.767 98.6457C179.849 98.5989 179.955 98.5989 180.043 98.6457L210.149 116.03C210.583 116.281 210.846 116.732 210.846 117.236C210.846 117.739 210.589 118.19 210.149 118.442L162.073 146.195C161.336 146.617 160.504 146.845 159.655 146.845ZM179.902 99.202L129.689 128.191C129.425 128.343 129.267 128.618 129.267 128.922C129.267 129.227 129.425 129.502 129.689 129.654L157.518 145.721C158.812 146.47 160.504 146.47 161.798 145.721L209.874 117.968C210.138 117.815 210.296 117.54 210.296 117.236C210.296 116.931 210.138 116.656 209.874 116.504L179.902 99.202Z" fill="#419586"/>
<path d="M179.959 87.4156L173.261 47.6829L173.799 47.4546L172.991 46.992V46.9979C172.833 46.8925 172.611 46.8983 172.365 47.0388L118.837 77.942C118.398 78.1938 118.065 78.8437 118.141 79.3004L124.892 119.349C124.927 119.56 125.032 119.695 125.173 119.759L125.963 120.216L126.098 119.478L126.051 119.49L179.25 88.774C179.707 88.5222 180.035 87.8723 179.959 87.4156Z" fill="#344E6C"/>
<path d="M119.142 79.0254L118.263 78.6389C118.164 78.8614 118.117 79.1015 118.152 79.3005L124.903 119.349C124.938 119.56 125.044 119.695 125.184 119.759L125.975 120.216L126.109 119.478L126.062 119.49L128.756 117.938L119.142 79.0254Z" fill="#55759A"/>
<path d="M180.105 89.26L126.578 120.163C126.162 120.403 125.811 120.263 125.74 119.835L118.989 79.7865C118.913 79.3298 119.247 78.6798 119.686 78.4281L173.213 47.5249C173.629 47.2848 173.98 47.4254 174.051 47.8528L180.802 87.9016C180.878 88.3525 180.544 89.0024 180.105 89.26Z" fill="#192533"/>
<g opacity="0.51">
<path d="M172.51 50.0774L120.915 79.8623L127.315 117.587L178.875 87.8135L172.51 50.0774Z" fill="#2A3A4D"/>
</g>
<path d="M213.755 108.219L210.834 109.747L181.541 92.8372C181.049 92.5561 180.194 92.5913 179.626 92.9191L129.108 122.083C128.622 121.814 126.421 120.754 126.421 120.754L127.492 123.541C127.492 123.541 127.498 123.541 127.498 123.535C127.545 123.658 127.639 123.775 127.797 123.869L158.647 141.68C159.139 141.961 159.994 141.926 160.562 141.598L212.257 111.749C212.491 111.614 212.631 111.451 212.69 111.287H212.696L213.755 108.219Z" fill="#55759A"/>
<path d="M213.299 108.699L160.316 139.286C159.736 139.62 158.858 139.655 158.355 139.368L126.737 121.112C126.233 120.819 126.298 120.315 126.878 119.982L179.86 89.3947C180.44 89.061 181.318 89.0258 181.822 89.3127L213.439 107.569C213.943 107.856 213.878 108.365 213.299 108.699Z" fill="#344E6C"/>
<path d="M213.298 108.394L160.315 138.981C159.736 139.315 158.858 139.35 158.354 139.063L126.736 120.807C126.573 120.713 126.473 120.59 126.432 120.467C126.35 120.707 126.45 120.947 126.736 121.117L158.354 139.373C158.858 139.666 159.736 139.625 160.315 139.292L213.298 108.705C213.69 108.482 213.837 108.178 213.743 107.914C213.69 108.084 213.544 108.254 213.298 108.394Z" fill="#EDE7D9"/>
<path d="M144.337 132.669V132.09C144.337 132.037 144.372 132.008 144.413 132.031L146.462 133.214C146.503 133.237 146.538 133.302 146.538 133.354V133.934C146.538 133.987 146.503 134.016 146.462 133.993L144.413 132.81C144.372 132.792 144.337 132.728 144.337 132.669Z" fill="#010101"/>
<path d="M147.405 134.438V133.858C147.405 133.806 147.44 133.776 147.481 133.8L149.531 134.982C149.572 135.006 149.607 135.07 149.607 135.123V135.703C149.607 135.755 149.572 135.785 149.531 135.761L147.481 134.578C147.435 134.561 147.405 134.496 147.405 134.438Z" fill="#010101"/>
<path d="M134.987 119.408L179.017 93.9909C179.31 93.8211 179.673 93.8211 179.966 93.9909L195.646 103.06C195.868 103.189 195.868 103.517 195.646 103.646L151.639 129.051C151.346 129.221 150.983 129.221 150.69 129.051L134.993 119.993C134.759 119.865 134.759 119.537 134.987 119.408Z" fill="#70B8A1"/>
<path d="M134.987 119.993L135.145 120.087L179.017 94.7579C179.31 94.5881 179.673 94.5881 179.966 94.7579L195.487 103.74L195.645 103.646C195.868 103.517 195.868 103.189 195.645 103.06L179.966 93.9909C179.673 93.8211 179.31 93.8211 179.017 93.9909L134.987 119.408C134.758 119.537 134.758 119.865 134.987 119.993Z" fill="#192533"/>
<path d="M181.149 96.2861L142.903 118.366L141.199 117.382L179.445 95.3025L181.149 96.2861Z" fill="#192533"/>
<path d="M185.317 98.6926L149.443 119.402L147.745 118.418L183.613 97.709L185.317 98.6926Z" fill="#192533"/>
<path d="M188.028 100.261L145.796 124.642L144.098 123.664L186.33 99.2778L188.028 100.261Z" fill="#192533"/>
<path d="M190.745 101.825L148.512 126.211L146.809 125.228L189.047 100.847L190.745 101.825Z" fill="#192533"/>
<path d="M193.461 103.394L151.222 127.781L149.524 126.797L191.757 102.41L193.461 103.394Z" fill="#192533"/>
<path d="M140.59 119.7L138.892 120.678L137.188 119.7L138.892 118.717L140.59 119.7Z" fill="#192533"/>
<path d="M146.592 121.047L143.061 123.091L141.357 122.107L144.888 120.069L146.592 121.047Z" fill="#192533"/>
<path d="M180.709 125.556L192.583 118.699C193.046 118.43 193.046 117.997 192.583 117.727L184.462 113.037C183.999 112.768 183.244 112.768 182.782 113.037L170.907 119.894C170.445 120.163 170.445 120.596 170.907 120.866L179.023 125.55C179.491 125.825 180.246 125.825 180.709 125.556Z" fill="#55759A"/>
<path d="M170.913 120.298L182.787 113.441C183.25 113.172 184.005 113.172 184.468 113.441L192.589 118.131C192.729 118.213 192.823 118.313 192.882 118.418C193.004 118.184 192.911 117.921 192.589 117.733L184.468 113.049C184.005 112.78 183.25 112.78 182.787 113.049L170.913 119.905C170.591 120.093 170.497 120.356 170.62 120.591C170.673 120.479 170.767 120.38 170.913 120.298Z" fill="#192533"/>
<g opacity="0.11">
<mask id="mask0_452_569" style="mask-type:luminance" maskUnits="userSpaceOnUse" x="120" y="50" width="59" height="68">
<path d="M172.51 50.0774L120.915 79.8623L127.315 117.587L178.875 87.8135L172.51 50.0774Z" fill="white"/>
</mask>
<g mask="url(#mask0_452_569)">
<path d="M179.917 89.3303L126.934 119.917C126.355 120.251 125.476 120.286 124.973 119.999L93.3552 101.743C92.8517 101.45 92.9161 100.947 93.4957 100.613L146.478 70.026C147.058 69.6923 147.936 69.6572 148.44 69.9441L180.057 88.2002C180.561 88.493 180.497 88.9965 179.917 89.3303Z" fill="#344E6C"/>
<path d="M126.776 94.8164L138.65 87.9601C139.113 87.6907 139.113 87.2575 138.65 86.9881L130.529 82.3041C130.067 82.0347 129.312 82.0347 128.849 82.3041L116.975 89.1604C116.512 89.4297 116.512 89.863 116.975 90.1323L125.09 94.8164C125.558 95.0857 126.314 95.0857 126.776 94.8164Z" fill="#344E6C"/>
<path d="M116.982 89.5585L128.85 82.7022C129.312 82.4329 130.068 82.4329 130.53 82.7022L138.651 87.3863C138.792 87.4682 138.885 87.5678 138.944 87.6732C139.067 87.439 138.973 87.1755 138.651 86.9881L130.53 82.3041C130.068 82.0347 129.312 82.0347 128.85 82.3041L116.976 89.1604C116.654 89.3477 116.56 89.6112 116.683 89.8454C116.741 89.74 116.835 89.6405 116.982 89.5585Z" fill="#192533"/>
<path d="M111.758 105.526L155.788 80.1085C156.081 79.9388 156.444 79.9388 156.737 80.1085L172.417 89.1781C172.639 89.3069 172.639 89.6348 172.417 89.7636L128.41 115.169C128.117 115.339 127.754 115.339 127.461 115.169L111.764 106.111C111.535 105.982 111.535 105.66 111.758 105.526Z" fill="#70B8A1"/>
<path d="M111.758 106.111L111.916 106.205L155.788 80.8756C156.081 80.7058 156.444 80.7058 156.737 80.8756L172.258 89.8573L172.416 89.7636C172.639 89.6348 172.645 89.3069 172.416 89.1781L156.737 80.1085C156.444 79.9388 156.081 79.9388 155.788 80.1085L111.758 105.526C111.535 105.66 111.535 105.982 111.758 106.111Z" fill="#192533"/>
<path d="M168.313 88.5635L129.956 110.707L131.478 111.586L169.829 89.4359L168.313 88.5635Z" fill="#192533"/>
<path d="M164.273 86.2271L127.813 107.276L129.336 108.154L165.79 87.1053L164.273 86.2271Z" fill="#192533"/>
<path d="M125.091 108.845L121.689 110.813L123.206 111.691L126.614 109.724L125.091 108.845Z" fill="#192533"/>
<path d="M128.101 111.779L125.729 113.149L127.246 114.027L129.617 112.657L128.101 111.779Z" fill="#192533"/>
<path d="M161.737 84.7634L119.153 109.349L120.676 110.227L163.26 85.6417L161.737 84.7634Z" fill="#192533"/>
<path d="M159.208 83.3054L116.624 107.891L118.141 108.769L160.725 84.1837L159.208 83.3054Z" fill="#192533"/>
<path d="M156.673 81.8418L114.089 106.427L115.611 107.306L158.195 82.7201L156.673 81.8418Z" fill="#192533"/>
</g>
</g>
<path d="M140.347 103.201L144.521 100.789L144.644 101.515L140.47 103.927L140.347 103.201Z" fill="#419586"/>
<path d="M145.193 100.402L147.465 99.0906L147.588 99.8166L145.31 101.128L145.193 100.402Z" fill="#419586"/>
<path d="M151.003 97.0472L152.648 96.0986L152.771 96.8188L151.126 97.7732L151.003 97.0472Z" fill="#419586"/>
<path d="M149.803 97.7439L150.365 97.416L150.488 98.142L149.926 98.4641L149.803 97.7439Z" fill="#419586"/>
<path d="M148.146 98.6985L149.17 98.113L149.287 98.8332L148.268 99.4246L148.146 98.6985Z" fill="#419586"/>
<path d="M143.648 97.656L145.294 96.7075L145.417 97.4336L143.771 98.3821L143.648 97.656Z" fill="#419586"/>
<path d="M139.784 99.8927L143.01 98.0249L143.133 98.7509L139.907 100.619L139.784 99.8927Z" fill="#419586"/>
<path d="M144.41 88.1417L147.636 86.2798L147.759 87.0058L144.533 88.8677L144.41 88.1417Z" fill="#419586"/>
<path d="M142.753 89.1021L143.772 88.5107L143.895 89.2368L142.876 89.8281L142.753 89.1021Z" fill="#419586"/>
<path d="M144.949 91.4615L148.175 89.5938L148.292 90.3198L145.072 92.1876L144.949 91.4615Z" fill="#419586"/>
<path d="M143.291 92.4161L144.31 91.8306L144.433 92.5507L143.408 93.1421L143.291 92.4161Z" fill="#419586"/>
<path d="M142.027 73.8317L135.955 77.3448L135.832 76.6188L141.91 73.1057L142.027 73.8317Z" fill="#419586"/>
<path d="M144.17 72.5964L142.665 73.4629L142.542 72.7369L144.047 71.8704L144.17 72.5964Z" fill="#419586"/>
<path d="M154.844 71.8938L148.772 75.401L148.649 74.6749L154.721 71.1677L154.844 71.8938Z" fill="#419586"/>
<path d="M156.987 70.6525L155.482 71.525L155.359 70.7989L156.864 69.9324L156.987 70.6525Z" fill="#419586"/>
<path d="M137.882 78.0476L136.236 79.0019L136.113 78.2759L137.759 77.3215L137.882 78.0476Z" fill="#419586"/>
<path d="M147.893 75.8984L146.248 76.8528L146.125 76.1268L147.77 75.1782L147.893 75.8984Z" fill="#419586"/>
<path d="M141.746 75.8166L138.519 77.6785L138.396 76.9525L141.623 75.0906L141.746 75.8166Z" fill="#419586"/>
<path d="M143.402 74.8567L142.378 75.448L142.261 74.722L143.28 74.1306L143.402 74.8567Z" fill="#419586"/>
<path d="M147.296 72.614L144.07 74.4759L143.947 73.7499L147.173 71.8879L147.296 72.614Z" fill="#419586"/>
<path d="M148.953 71.6535L147.929 72.2449L147.812 71.5189L148.83 70.9275L148.953 71.6535Z" fill="#419586"/>
<path d="M147.612 74.2414L145.967 75.1958L145.844 74.4698L147.489 73.5212L147.612 74.2414Z" fill="#419586"/>
<path d="M151.477 72.0109L148.251 73.8729L148.128 73.1527L151.354 71.2849L151.477 72.0109Z" fill="#419586"/>
<path d="M153.134 71.0507L152.115 71.6421L151.992 70.9161L153.011 70.3306L153.134 71.0507Z" fill="#419586"/>
<path d="M139.884 78.7089L136.517 80.6528L136.395 79.9327L139.761 77.9829L139.884 78.7089Z" fill="#419586"/>
<path d="M142.952 76.935L140.522 78.3402L140.399 77.6142L142.835 76.209L142.952 76.935Z" fill="#419586"/>
<path d="M145.235 75.6118L143.59 76.5662L143.467 75.8401L145.118 74.8857L145.235 75.6118Z" fill="#419586"/>
<path d="M161.197 68.2285L157.83 70.1724L157.707 69.4463L161.074 67.5024L161.197 68.2285Z" fill="#419586"/>
<path d="M164.271 66.4485L161.835 67.8595L161.712 67.1335L164.148 65.7283L164.271 66.4485Z" fill="#419586"/>
<path d="M166.554 65.1311L164.909 66.0796L164.786 65.3594L166.431 64.405L166.554 65.1311Z" fill="#419586"/>
<path d="M159.885 90.1031L163.251 88.1592L163.374 88.8852L160.008 90.8291L159.885 90.1031Z" fill="#419586"/>
<path d="M156.812 91.883L159.247 90.4719L159.37 91.1979L156.934 92.6032L156.812 91.883Z" fill="#419586"/>
<path d="M154.527 93.2005L156.173 92.252L156.296 92.9721L154.65 93.9265L154.527 93.2005Z" fill="#419586"/>
<path d="M158.767 92.574L162.133 90.6301L162.256 91.3562L158.89 93.3001L158.767 92.574Z" fill="#419586"/>
<path d="M155.693 94.3481L158.129 92.9429L158.252 93.6689L155.816 95.0741L155.693 94.3481Z" fill="#419586"/>
<path d="M153.409 95.6712L155.054 94.7168L155.177 95.4428L153.532 96.3972L153.409 95.6712Z" fill="#419586"/>
<path d="M145.171 89.5117L146.307 88.856L146.43 89.582L145.294 90.2378L145.171 89.5117Z" fill="#419586"/>
<path d="M143.028 90.7472L144.533 89.8806L144.656 90.6067L143.151 91.4732L143.028 90.7472Z" fill="#419586"/>
<path d="M140.182 80.3545L136.815 82.2983L136.692 81.5782L140.059 79.6284L140.182 80.3545Z" fill="#419586"/>
<path d="M143.256 78.5803L140.82 79.9855L140.697 79.2595L143.133 77.8542L143.256 78.5803Z" fill="#419586"/>
<path d="M145.54 77.2568L143.894 78.2112L143.771 77.4851L145.417 76.5366L145.54 77.2568Z" fill="#419586"/>
<path d="M138.232 83.2995L137.097 83.9553L136.974 83.2293L138.11 82.5735L138.232 83.2995Z" fill="#419586"/>
<path d="M140.376 82.0642L138.871 82.9307L138.748 82.2047L140.253 81.3381L140.376 82.0642Z" fill="#419586"/>
<path d="M143.432 80.2959L141.014 81.6952L140.891 80.9692L143.309 79.5698L143.432 80.2959Z" fill="#419586"/>
<path d="M146.717 94.0789L147.853 93.4231L147.976 94.1433L146.84 94.8049L146.717 94.0789Z" fill="#419586"/>
<path d="M144.573 95.3143L146.078 94.4478L146.201 95.1738L144.696 96.0403L144.573 95.3143Z" fill="#419586"/>
<path d="M141.518 97.0822L143.936 95.6829L144.059 96.4089L141.641 97.8083L141.518 97.0822Z" fill="#419586"/>
<path d="M148.449 91.3913L150.867 89.9919L150.99 90.718L148.572 92.1173L148.449 91.3913Z" fill="#419586"/>
<path d="M144.486 93.5518L147.753 91.6606L147.876 92.3867L144.609 94.272L144.486 93.5518Z" fill="#419586"/>
<path d="M142.829 94.5062L143.854 93.9207L143.971 94.6408L142.952 95.2322L142.829 94.5062Z" fill="#419586"/>
<path d="M141.236 95.431L142.261 94.8396L142.378 95.5598L141.359 96.1511L141.236 95.431Z" fill="#419586"/>
<path d="M141.453 86.0748L144.679 84.207L144.802 84.9331L141.576 86.795L141.453 86.0748Z" fill="#419586"/>
<path d="M139.797 87.0291L140.822 86.4377L140.939 87.1638L139.92 87.7551L139.797 87.0291Z" fill="#419586"/>
<path d="M141.676 84.125L142.818 83.4692L142.94 84.1953L141.799 84.851L141.676 84.125Z" fill="#419586"/>
<path d="M145.692 85.4543L146.828 84.7927L146.951 85.5188L145.815 86.1745L145.692 85.4543Z" fill="#419586"/>
<path d="M147.314 84.5172L150.043 82.9421L150.166 83.6623L147.437 85.2432L147.314 84.5172Z" fill="#419586"/>
<path d="M150.529 82.6612L152.151 81.7244L152.274 82.4504L150.652 83.3872L150.529 82.6612Z" fill="#419586"/>
<path d="M139.539 85.3602L141.038 84.4937L141.161 85.2197L139.662 86.0862L139.539 85.3602Z" fill="#419586"/>
<path d="M139.399 83.6621L140.535 83.0063L140.658 83.7265L139.522 84.3882L139.399 83.6621Z" fill="#419586"/>
<path d="M137.256 84.8978L138.761 84.0312L138.884 84.7573L137.379 85.6238L137.256 84.8978Z" fill="#419586"/>
<path d="M144.042 86.4024L145.067 85.811L145.19 86.5371L144.165 87.1284L144.042 86.4024Z" fill="#419586"/>
<path d="M142.449 87.3218L143.474 86.7363L143.597 87.4565L142.572 88.0479L142.449 87.3218Z" fill="#419586"/>
<path d="M150.294 95.6479L153.778 93.6338L153.901 94.3598L150.417 96.3681L150.294 95.6479Z" fill="#419586"/>
<path d="M146.396 97.9019L149.657 96.0166L149.78 96.7368L146.518 98.628L146.396 97.9019Z" fill="#419586"/>
<path d="M144.731 98.8624L145.756 98.271L145.879 98.997L144.854 99.5825L144.731 98.8624Z" fill="#419586"/>
<path d="M143.139 99.7815L144.163 99.1902L144.286 99.9162L143.262 100.508L143.139 99.7815Z" fill="#419586"/>
<path d="M142.273 100.285L140.065 101.556L140.188 102.282L142.396 101.006L142.273 100.285Z" fill="#419586"/>
<path d="M54.2155 146.845C53.3665 146.845 52.5292 146.623 51.8032 146.201L3.72703 118.448C3.29375 118.196 3.03027 117.745 3.03027 117.242C3.03027 116.738 3.2879 116.287 3.72703 116.036L33.8339 98.6518C33.9217 98.605 34.0213 98.605 34.1091 98.6518L84.4571 127.722C84.8962 127.974 85.1538 128.425 85.1538 128.929C85.1538 129.432 84.8962 129.883 84.4571 130.135L56.6278 146.201C55.9018 146.617 55.0645 146.845 54.2155 146.845ZM52.0784 145.721C53.3724 146.47 55.0645 146.47 56.3585 145.721L84.1877 129.655C84.4512 129.502 84.6093 129.227 84.6093 128.923C84.6093 128.618 84.4512 128.343 84.1877 128.191L33.9744 99.2022L33.8749 99.2549L4.00222 116.504C3.73874 116.656 3.58065 116.931 3.58065 117.236C3.58065 117.54 3.73874 117.816 4.00222 117.968L52.0784 145.721Z" fill="#419586"/>
<path d="M33.9133 87.4156L40.6116 47.6829L40.0729 47.4546L40.8809 46.992V46.9979C41.039 46.8925 41.2615 46.8983 41.5074 47.0388L95.0347 77.942C95.4738 78.1938 95.8075 78.8437 95.7314 79.3004L88.9805 119.349C88.9454 119.56 88.84 119.695 88.6995 119.759L87.909 120.216L87.7743 119.478L87.8212 119.49L34.6218 88.774C34.1651 88.5222 33.8372 87.8723 33.9133 87.4156Z" fill="#344E6C"/>
<path d="M94.7293 79.0254L95.6076 78.6389C95.7071 78.8614 95.7539 79.1015 95.7188 79.3005L88.9679 119.349C88.9327 119.56 88.8273 119.695 88.6868 119.759L87.8964 120.216L87.7617 119.478L87.8086 119.49L85.1152 117.938L94.7293 79.0254Z" fill="#55759A"/>
<path d="M33.7662 89.26L87.2935 120.163C87.7092 120.403 88.0605 120.263 88.1308 119.835L94.8817 79.7865C94.9578 79.3298 94.6241 78.6798 94.1849 78.4281L40.6577 47.5249C40.2419 47.2848 39.8906 47.4254 39.8204 47.8528L33.0695 87.9016C32.9933 88.3525 33.3271 89.0024 33.7662 89.26Z" fill="#192533"/>
<g opacity="0.51">
<path d="M41.3606 50.0776L92.9557 79.8625L86.5561 117.587L34.9961 87.8137L41.3606 50.0776Z" fill="#2A3A4D"/>
</g>
<path d="M0.117188 108.219L3.03888 109.747L32.3319 92.8372C32.8237 92.5561 33.6786 92.5913 34.2465 92.9191L84.7643 122.083C85.2503 121.814 87.4518 120.754 87.4518 120.754L86.3803 123.541C86.3803 123.541 86.3744 123.541 86.3744 123.535C86.3276 123.658 86.2339 123.775 86.0758 123.869L55.2253 141.68C54.7335 141.961 53.8787 141.926 53.3107 141.598L1.61609 111.749C1.38189 111.614 1.24137 111.451 1.18281 111.287H1.17696L0.117188 108.219Z" fill="#55759A"/>
<path d="M0.573837 108.699L53.5566 139.286C54.1362 139.619 55.0145 139.655 55.518 139.368L87.1355 121.112C87.6391 120.819 87.5747 120.315 86.995 119.981L34.0123 89.3944C33.4326 89.0607 32.5544 89.0256 32.0508 89.3125L0.433316 107.569C-0.0702224 107.856 -0.0058176 108.365 0.573837 108.699Z" fill="#344E6C"/>
<path d="M0.574899 108.394L53.5576 138.981C54.1373 139.315 55.0156 139.35 55.5191 139.063L87.1366 120.807C87.3006 120.713 87.4001 120.59 87.4411 120.467C87.5231 120.707 87.4235 120.947 87.1366 121.117L55.5191 139.373C55.0156 139.666 54.1373 139.625 53.5576 139.292L0.574899 108.705C0.182608 108.482 0.0362335 108.178 0.129915 107.914C0.182611 108.084 0.328985 108.254 0.574899 108.394Z" fill="#EDE7D9"/>
<path d="M69.5355 132.669V132.089C69.5355 132.037 69.5004 132.007 69.4594 132.031L67.4101 133.214C67.3691 133.237 67.334 133.301 67.334 133.354V133.934C67.334 133.986 67.3691 134.016 67.4101 133.992L69.4594 132.81C69.5004 132.792 69.5355 132.728 69.5355 132.669Z" fill="#010101"/>
<path d="M66.4681 134.438V133.858C66.4681 133.806 66.433 133.776 66.392 133.8L64.3427 134.982C64.3017 135.006 64.2666 135.07 64.2666 135.123V135.703C64.2666 135.755 64.3017 135.785 64.3427 135.761L66.392 134.578C66.4388 134.561 66.4681 134.496 66.4681 134.438Z" fill="#010101"/>
<path d="M78.8862 119.408L34.8559 93.9909C34.5631 93.8211 34.2001 93.8211 33.9074 93.9909L18.2274 103.06C18.0049 103.189 18.0049 103.517 18.2274 103.646L62.2343 129.051C62.5271 129.221 62.8901 129.221 63.1828 129.051L78.8803 119.993C79.1145 119.865 79.1145 119.537 78.8862 119.408Z" fill="#70B8A1"/>
<path d="M78.8862 119.993L78.7281 120.087L34.8559 94.7579C34.5631 94.5881 34.2001 94.5881 33.9074 94.7579L18.3855 103.74L18.2274 103.646C18.0049 103.517 18.0049 103.189 18.2274 103.06L33.9074 93.9909C34.2001 93.8211 34.5631 93.8211 34.8559 93.9909L78.8862 119.408C79.1145 119.537 79.1145 119.865 78.8862 119.993Z" fill="#192533"/>
<path d="M36.4062 98.4109L73.6739 119.928L75.2841 118.892L38.1159 97.4331L36.4062 98.4109Z" fill="#192533"/>
<path d="M33.9883 101.824L67.8249 121.363L68.9842 120.069L35.6863 100.847L33.9883 101.824Z" fill="#192533"/>
<path d="M25.8447 100.261L68.0775 124.642L69.7755 123.664L27.5427 99.2776L25.8447 100.261Z" fill="#192533"/>
<path d="M23.126 101.824L65.3588 126.211L67.0626 125.227L24.824 100.847L23.126 101.824Z" fill="#192533"/>
<path d="M20.4102 103.394L62.6488 127.78L64.3468 126.797L22.114 102.41L20.4102 103.394Z" fill="#192533"/>
<path d="M73.2812 119.7L74.9792 120.678L76.6831 119.7L74.9792 118.717L73.2812 119.7Z" fill="#192533"/>
<path d="M67.2803 121.047L70.8109 123.09L72.5147 122.107L68.9841 120.069L67.2803 121.047Z" fill="#192533"/>
<path d="M33.1634 125.556L21.2893 118.699C20.8267 118.43 20.8267 117.997 21.2893 117.727L29.4103 113.037C29.8729 112.768 30.6282 112.768 31.0907 113.037L42.9649 119.894C43.4274 120.163 43.4274 120.596 42.9649 120.866L34.8438 125.55C34.3813 125.825 33.626 125.825 33.1634 125.556Z" fill="#344E6C"/>
<path d="M42.9598 120.298L31.0857 113.441C30.6232 113.172 29.8678 113.172 29.4053 113.441L21.2843 118.131C21.1438 118.213 21.0501 118.313 20.9915 118.418C20.8686 118.184 20.9623 117.92 21.2843 117.733L29.4053 113.049C29.8678 112.78 30.6232 112.78 31.0857 113.049L42.9598 119.905C43.2819 120.093 43.3755 120.356 43.2526 120.59C43.1999 120.479 43.1062 120.38 42.9598 120.298Z" fill="#192533"/>
<g opacity="0.11">
<mask id="mask1_452_569" style="mask-type:luminance" maskUnits="userSpaceOnUse" x="34" y="50" width="59" height="68">
<path d="M41.3586 50.0776L92.9537 79.8625L86.5541 117.587L34.9941 87.8137L41.3586 50.0776Z" fill="white"/>
</mask>
<g mask="url(#mask1_452_569)">
<path d="M33.9518 89.3303L86.9345 119.917C87.5142 120.251 88.3924 120.286 88.896 119.999L120.513 101.743C121.017 101.45 120.953 100.947 120.373 100.613L67.3902 70.026C66.8106 69.6923 65.9323 69.6572 65.4288 69.9441L33.8112 88.2002C33.3077 88.493 33.3721 88.9965 33.9518 89.3303Z" fill="#344E6C"/>
<path d="M87.0931 94.8164L75.219 87.9601C74.7564 87.6907 74.7564 87.2575 75.219 86.9881L83.34 82.3041C83.8026 82.0347 84.5579 82.0347 85.0204 82.3041L96.8945 89.1604C97.3571 89.4297 97.3571 89.863 96.8945 90.1323L88.7794 94.8164C88.311 95.0857 87.5557 95.0857 87.0931 94.8164Z" fill="#344E6C"/>
<path d="M96.8886 89.5585L85.0203 82.7022C84.5577 82.4329 83.8024 82.4329 83.3399 82.7022L75.2189 87.3863C75.0783 87.4682 74.9846 87.5678 74.9261 87.6732C74.8031 87.439 74.8968 87.1755 75.2189 86.9881L83.3399 82.3041C83.8024 82.0347 84.5577 82.0347 85.0203 82.3041L96.8944 89.1604C97.2164 89.3477 97.3101 89.6112 97.1872 89.8454C97.1286 89.74 97.0349 89.6405 96.8886 89.5585Z" fill="#192533"/>
<path d="M102.112 105.526L58.0815 80.1085C57.7887 79.9388 57.4257 79.9388 57.1329 80.1085L41.453 89.1781C41.2305 89.3069 41.2305 89.6348 41.453 89.7636L85.4599 115.169C85.7527 115.339 86.1157 115.339 86.4084 115.169L102.106 106.111C102.334 105.982 102.334 105.66 102.112 105.526Z" fill="#70B8A1"/>
<path d="M102.111 106.111L101.953 106.205L58.0807 80.8756C57.788 80.7058 57.425 80.7058 57.1322 80.8756L41.6104 89.8573L41.4523 89.7636C41.2298 89.6348 41.2239 89.3069 41.4523 89.1781L57.1322 80.1085C57.425 79.9388 57.788 79.9388 58.0807 80.1085L102.111 105.526C102.334 105.66 102.334 105.982 102.111 106.111Z" fill="#192533"/>
<path d="M45.5565 88.5635L83.9132 110.707L82.3909 111.586L44.04 89.4359L45.5565 88.5635Z" fill="#192533"/>
<path d="M49.5966 86.2271L86.0562 107.276L84.5339 108.154L48.0801 87.1053L49.5966 86.2271Z" fill="#192533"/>
<path d="M88.7791 108.845L92.181 110.813L90.6645 111.691L87.2568 109.723L88.7791 108.845Z" fill="#192533"/>
<path d="M85.7694 111.779L88.1407 113.149L86.6242 114.027L84.2529 112.657L85.7694 111.779Z" fill="#192533"/>
<path d="M52.1317 84.7632L94.7158 109.349L93.1935 110.227L50.6094 85.6414L52.1317 84.7632Z" fill="#192533"/>
<path d="M54.661 83.3054L97.2451 107.891L95.7286 108.769L53.1445 84.1837L54.661 83.3054Z" fill="#192533"/>
<path d="M57.1962 81.8418L99.7803 106.427L98.2579 107.306L55.6738 82.7201L57.1962 81.8418Z" fill="#192533"/>
</g>
</g>
<path d="M52.9121 64.06L57.0868 66.4723L57.2098 65.7463L53.0351 63.334L52.9121 64.06Z" fill="#419586"/>
<path d="M57.7598 66.8527L60.0315 68.1701L60.1545 67.4441L57.8827 66.1326L57.7598 66.8527Z" fill="#419586"/>
<path d="M63.5742 70.2136L65.2195 71.1621L65.3425 70.4361L63.6913 69.4875L63.5742 70.2136Z" fill="#419586"/>
<path d="M62.373 69.5166L62.9351 69.8444L63.0581 69.1184L62.4901 68.7964L62.373 69.5166Z" fill="#419586"/>
<path d="M60.7119 68.5622L61.7366 69.1477L61.8595 68.4275L60.8349 67.8362L60.7119 68.5622Z" fill="#419586"/>
<path d="M56.2148 69.5988L57.8601 70.5532L57.9831 69.8272L56.3378 68.8787L56.2148 69.5988Z" fill="#419586"/>
<path d="M52.3555 67.3679L55.5758 69.2298L55.6987 68.5096L52.4726 66.6418L52.3555 67.3679Z" fill="#419586"/>
<path d="M56.9766 79.1191L60.2027 80.981L60.3257 80.255L57.0995 78.3931L56.9766 79.1191Z" fill="#419586"/>
<path d="M55.3193 78.1591L56.3381 78.7505L56.4611 78.0245L55.4423 77.4331L55.3193 78.1591Z" fill="#419586"/>
<path d="M57.5146 75.7993L60.7408 77.6612L60.8638 76.941L57.6376 75.0732L57.5146 75.7993Z" fill="#419586"/>
<path d="M55.8564 74.8388L56.8752 75.4302L56.9982 74.7042L55.9794 74.1187L55.8564 74.8388Z" fill="#419586"/>
<path d="M54.598 93.4288L48.5204 89.9158L48.3975 90.6418L54.475 94.149L54.598 93.4288Z" fill="#419586"/>
<path d="M56.7351 94.6644L55.2362 93.7979L55.1133 94.518L56.6122 95.3904L56.7351 94.6644Z" fill="#419586"/>
<path d="M67.4095 95.3671L61.3378 91.8599L61.2148 92.58L67.2866 96.0931L67.4095 95.3671Z" fill="#419586"/>
<path d="M69.5525 96.6083L68.0478 95.7358L67.9248 96.4619L69.4296 97.3284L69.5525 96.6083Z" fill="#419586"/>
<path d="M50.447 89.2134L48.8017 88.259L48.6787 88.9851L50.324 89.9394L50.447 89.2134Z" fill="#419586"/>
<path d="M60.4587 91.3621L58.8134 90.4077L58.6904 91.1337L60.3357 92.0823L60.4587 91.3621Z" fill="#419586"/>
<path d="M54.311 91.4439L51.0849 89.582L50.9619 90.3022L54.1881 92.17L54.311 91.4439Z" fill="#419586"/>
<path d="M55.9679 92.4044L54.9491 91.813L54.8262 92.539L55.845 93.1304L55.9679 92.4044Z" fill="#419586"/>
<path d="M59.8628 94.6466L56.6366 92.7847L56.5137 93.5107L59.7398 95.3726L59.8628 94.6466Z" fill="#419586"/>
<path d="M61.5187 95.607L60.4999 95.0156L60.377 95.7417L61.3957 96.333L61.5187 95.607Z" fill="#419586"/>
<path d="M60.1774 93.0132L58.5321 92.0647L58.4092 92.7907L60.0545 93.7393L60.1774 93.0132Z" fill="#419586"/>
<path d="M64.0425 95.2496L60.8163 93.3818L60.6934 94.1079L63.9195 95.9698L64.0425 95.2496Z" fill="#419586"/>
<path d="M65.6994 96.2042L64.6806 95.6187L64.5576 96.3388L65.5764 96.9302L65.6994 96.2042Z" fill="#419586"/>
<path d="M52.4496 88.5516L49.0829 86.6077L48.96 87.3278L52.3266 89.2776L52.4496 88.5516Z" fill="#419586"/>
<path d="M55.5235 90.3259L53.0878 88.9207L52.9648 89.6467L55.4006 91.0519L55.5235 90.3259Z" fill="#419586"/>
<path d="M57.8073 91.649L56.1562 90.6946L56.0391 91.4206L57.6843 92.3691L57.8073 91.649Z" fill="#419586"/>
<path d="M73.7621 99.0323L70.3954 97.0884L70.2725 97.8144L73.6391 99.7583L73.7621 99.0323Z" fill="#419586"/>
<path d="M76.836 100.812L74.4003 99.4014L74.2773 100.127L76.7131 101.533L76.836 100.812Z" fill="#419586"/>
<path d="M79.1198 102.129L77.4745 101.175L77.3516 101.901L78.9968 102.855L79.1198 102.129Z" fill="#419586"/>
<path d="M72.4512 77.1577L75.8179 79.1016L75.9408 78.3755L72.5741 76.4316L72.4512 77.1577Z" fill="#419586"/>
<path d="M69.377 75.3776L71.8127 76.7887L71.9356 76.0627L69.4999 74.6516L69.377 75.3776Z" fill="#419586"/>
<path d="M67.0928 74.0603L68.7381 75.0088L68.861 74.2886L67.2157 73.3342L67.0928 74.0603Z" fill="#419586"/>
<path d="M71.333 74.6867L74.6997 76.6306L74.8226 75.9046L71.456 73.9607L71.333 74.6867Z" fill="#419586"/>
<path d="M68.2588 72.907L70.6945 74.318L70.8175 73.592L68.3817 72.1868L68.2588 72.907Z" fill="#419586"/>
<path d="M65.9746 71.5896L67.6199 72.5381L67.7429 71.8179L66.0976 70.8635L65.9746 71.5896Z" fill="#419586"/>
<path d="M57.7363 77.749L58.8722 78.4048L58.9952 77.6787L57.8593 77.0229L57.7363 77.749Z" fill="#419586"/>
<path d="M55.5938 76.5078L57.0985 77.3802L57.2215 76.6541L55.7167 75.7876L55.5938 76.5078Z" fill="#419586"/>
<path d="M52.7474 86.9063L49.3808 84.9565L49.2578 85.6826L52.6245 87.6323L52.7474 86.9063Z" fill="#419586"/>
<path d="M55.8223 88.6804L53.3866 87.2751L53.2637 88.0012L55.6994 89.4064L55.8223 88.6804Z" fill="#419586"/>
<path d="M58.1052 89.9978L56.4599 89.0493L56.3369 89.7754L57.9822 90.7239L58.1052 89.9978Z" fill="#419586"/>
<path d="M50.7979 83.9614L49.662 83.3057L49.5391 84.0258L50.675 84.6875L50.7979 83.9614Z" fill="#419586"/>
<path d="M52.9412 85.1966L51.4364 84.3301L51.3135 85.0561L52.8182 85.9227L52.9412 85.1966Z" fill="#419586"/>
<path d="M55.9981 86.9648L53.58 85.5654L53.457 86.2915L55.8752 87.6908L55.9981 86.9648Z" fill="#419586"/>
<path d="M59.2832 73.1821L60.4191 73.8379L60.542 73.1118L59.4062 72.4561L59.2832 73.1821Z" fill="#419586"/>
<path d="M57.1455 71.9467L58.6444 72.8133L58.7674 72.0873L57.2626 71.2207L57.1455 71.9467Z" fill="#419586"/>
<path d="M54.084 70.1782L56.508 71.5776L56.631 70.8515L54.2069 69.4521L54.084 70.1782Z" fill="#419586"/>
<path d="M61.0166 75.8693L63.4406 77.2687L63.5577 76.5427L61.1396 75.1433L61.0166 75.8693Z" fill="#419586"/>
<path d="M57.0576 73.7092L60.3189 75.6004L60.4419 74.8744L57.1747 72.989L57.0576 73.7092Z" fill="#419586"/>
<path d="M55.3945 72.7546L56.4192 73.3401L56.5421 72.6199L55.5175 72.0286L55.3945 72.7546Z" fill="#419586"/>
<path d="M53.8018 71.8293L54.8264 72.4207L54.9494 71.6946L53.9247 71.1091L53.8018 71.8293Z" fill="#419586"/>
<path d="M54.0254 81.1858L57.2457 83.0535L57.3686 82.3275L54.1483 80.4656L54.0254 81.1858Z" fill="#419586"/>
<path d="M52.3623 80.2317L53.3869 80.8172L53.5099 80.097L52.4853 79.5056L52.3623 80.2317Z" fill="#419586"/>
<path d="M54.2471 83.1357L55.383 83.7915L55.5059 83.0654L54.3642 82.4097L54.2471 83.1357Z" fill="#419586"/>
<path d="M58.2578 81.8064L59.3937 82.468L59.5167 81.742L58.3808 81.0803L58.2578 81.8064Z" fill="#419586"/>
<path d="M59.8799 82.7434L62.6083 84.3184L62.7313 83.5982L60.0028 82.0173L59.8799 82.7434Z" fill="#419586"/>
<path d="M63.0947 84.5996L64.7166 85.5364L64.8396 84.8104L63.2177 83.8735L63.0947 84.5996Z" fill="#419586"/>
<path d="M52.1045 81.9004L53.6092 82.7669L53.7263 82.0409L52.2274 81.1743L52.1045 81.9004Z" fill="#419586"/>
<path d="M51.9639 83.5981L53.0998 84.2539L53.2227 83.5337L52.0868 82.8721L51.9639 83.5981Z" fill="#419586"/>
<path d="M49.8213 82.3628L51.3261 83.2293L51.449 82.5033L49.9442 81.6367L49.8213 82.3628Z" fill="#419586"/>
<path d="M56.6074 80.8584L57.6321 81.4439L57.755 80.7237L56.7304 80.1323L56.6074 80.8584Z" fill="#419586"/>
<path d="M55.0146 79.9331L56.0393 80.5244L56.1622 79.7984L55.1376 79.2129L55.0146 79.9331Z" fill="#419586"/>
<path d="M62.8594 71.6127L66.3432 73.6269L66.4661 72.9009L62.9823 70.8867L62.8594 71.6127Z" fill="#419586"/>
<path d="M58.9609 69.3584L62.2222 71.2437L62.3452 70.5177L59.0839 68.6323L58.9609 69.3584Z" fill="#419586"/>
<path d="M57.3037 68.3984L58.3225 68.9898L58.4455 68.2637L57.4208 67.6724L57.3037 68.3984Z" fill="#419586"/>
<path d="M55.7109 67.4792L56.7297 68.0706L56.8527 67.3445L55.8339 66.7532L55.7109 67.4792Z" fill="#419586"/>
<path d="M54.8392 66.9756L52.6377 65.705L52.7607 64.979L54.9622 66.2496L54.8392 66.9756Z" fill="#419586"/>
<path d="M32.7217 96.2866L34.4255 97.2644L36.1235 96.2866L34.4255 95.303L32.7217 96.2866Z" fill="#192533"/>
<path d="M28.5527 98.6931L32.0834 100.731L33.7872 99.747L30.2566 97.7095L28.5527 98.6931Z" fill="#192533"/>
</svg>
