<svg width="218" height="169" viewBox="0 0 218 169" fill="none" xmlns="http://www.w3.org/2000/svg">
<path d="M80.5062 168.811C77.7423 168.811 75.1011 168.256 73.1315 167.119L3.09829 126.681C1.17391 125.57 0.108398 124.021 0.108398 122.329C0.108398 120.295 1.63886 118.241 4.30587 116.704L127.783 45.4374C132.794 42.5444 140.401 42.2344 144.747 44.74L214.78 85.1778C216.704 86.2885 217.77 87.8384 217.77 89.5303C217.77 91.5644 216.24 93.618 213.573 95.1613L90.0893 166.422C87.3513 168.004 83.8383 168.811 80.5062 168.811ZM73.2865 166.841C77.5421 169.295 85.0071 168.985 89.9279 166.144L213.405 94.8772C215.968 93.3984 217.441 91.4482 217.441 89.5303C217.441 87.9546 216.44 86.5081 214.612 85.4555L144.579 45.0177C140.323 42.5573 132.858 42.8737 127.938 45.7151L4.46085 116.982C1.89716 118.461 0.424817 120.411 0.424817 122.329C0.424817 123.904 1.42576 125.351 3.25327 126.403L73.2865 166.841Z" fill="#419586"/>
<path d="M28.5351 147.61C32.1265 147.61 35.0379 144.699 35.0379 141.107C35.0379 137.516 32.1265 134.604 28.5351 134.604C24.9436 134.604 22.0322 137.516 22.0322 141.107C22.0322 144.699 24.9436 147.61 28.5351 147.61Z" fill="#70B8A1" fill-opacity="0.09"/>
<path d="M30.3883 141.107C30.3883 142.134 29.5553 142.961 28.535 142.961C27.5082 142.961 26.6816 142.128 26.6816 141.107C26.6816 140.081 27.5147 139.254 28.535 139.254C29.5618 139.254 30.3883 140.087 30.3883 141.107Z" fill="#419586"/>
<path d="M9.56341 136.865C13.1548 136.865 16.0662 133.954 16.0662 130.362C16.0662 126.771 13.1548 123.859 9.56341 123.859C5.97198 123.859 3.06055 126.771 3.06055 130.362C3.06055 133.954 5.97198 136.865 9.56341 136.865Z" fill="#70B8A1" fill-opacity="0.09"/>
<path d="M11.4167 130.362C11.4167 131.389 10.5836 132.215 9.56332 132.215C8.53656 132.215 7.70996 131.382 7.70996 130.362C7.70996 129.335 8.54301 128.509 9.56332 128.509C10.5836 128.509 11.4167 129.342 11.4167 130.362Z" fill="#419586"/>
<path d="M176.163 123.071C179.754 123.071 182.666 120.16 182.666 116.568C182.666 112.977 179.754 110.065 176.163 110.065C172.572 110.065 169.66 112.977 169.66 116.568C169.66 120.16 172.572 123.071 176.163 123.071Z" fill="#70B8A1" fill-opacity="0.09"/>
<path d="M178.016 116.568C178.016 117.595 177.183 118.422 176.163 118.422C175.136 118.422 174.31 117.589 174.31 116.568C174.31 115.542 175.143 114.715 176.163 114.715C177.19 114.715 178.016 115.542 178.016 116.568Z" fill="#419586"/>
<path d="M188.22 115.968C191.811 115.968 194.723 113.056 194.723 109.465C194.723 105.873 191.811 102.962 188.22 102.962C184.628 102.962 181.717 105.873 181.717 109.465C181.717 113.056 184.628 115.968 188.22 115.968Z" fill="#70B8A1" fill-opacity="0.09"/>
<path d="M190.073 109.465C190.073 110.492 189.24 111.318 188.22 111.318C187.193 111.318 186.366 110.485 186.366 109.465C186.366 108.438 187.199 107.612 188.22 107.612C189.246 107.612 190.073 108.438 190.073 109.465Z" fill="#419586"/>
<path d="M200.276 108.968C203.868 108.968 206.779 106.056 206.779 102.465C206.779 98.8736 203.868 95.9622 200.276 95.9622C196.685 95.9622 193.773 98.8736 193.773 102.465C193.773 106.056 196.685 108.968 200.276 108.968Z" fill="#70B8A1" fill-opacity="0.09"/>
<path d="M202.13 102.465C202.13 103.492 201.297 104.319 200.276 104.319C199.256 104.319 198.423 103.485 198.423 102.465C198.423 101.438 199.256 100.612 200.276 100.612C201.297 100.612 202.13 101.445 202.13 102.465Z" fill="#419586"/>
<path opacity="0.5" d="M76.4249 160.119L15.9231 125.19C13.6629 123.886 13.9471 121.606 16.556 120.095L132.51 53.1484C135.118 51.6438 139.071 51.4759 141.331 52.7803L201.832 87.7097C204.093 89.0142 203.809 91.2937 201.2 92.8048L85.246 159.751C82.6371 161.262 78.6915 161.424 76.4249 160.119Z" fill="#233244"/>
<path d="M203.363 65.7474L195.646 67.097L141.337 35.7451C139.077 34.4407 135.125 34.6021 132.516 36.1132L27.9605 96.4793L14.3994 98.8558V103.266H14.4059C14.3865 104.112 14.8773 104.926 15.9234 105.533L76.4252 140.462C78.6853 141.767 82.6374 141.605 85.2463 140.094L201.2 73.1479C202.621 72.3277 203.35 71.2751 203.357 70.2807H203.363V65.7474Z" fill="#192533"/>
<path opacity="0.5" d="M203.363 65.7474L195.646 67.097L141.337 35.7451C139.077 34.4407 135.125 34.6021 132.516 36.1132L27.9605 96.4793L14.3994 98.8558V103.266H14.4059C14.3865 104.112 14.8773 104.926 15.9234 105.533L76.4252 140.462C78.6853 141.767 82.6374 141.605 85.2463 140.094L201.2 73.1479C202.621 72.3277 203.35 71.2751 203.357 70.2807H203.363V65.7474Z" fill="#344E6C"/>
<path d="M201.206 70.4163L85.2463 137.363C82.6374 138.867 78.6853 139.035 76.4252 137.731L15.9234 102.801C14.8773 102.194 14.38 101.387 14.4059 100.535H14.3994V101.691H14.4059C14.3865 102.537 14.8773 103.35 15.9234 103.957L76.4252 138.887C78.6853 140.191 82.6374 140.03 85.2463 138.519L201.2 71.5722C202.621 70.7521 203.35 69.6995 203.357 68.705H203.363V67.5491H203.357C203.35 68.5436 202.627 69.5961 201.206 70.4163Z" fill="#EDE7D9"/>
<path d="M76.4249 135.948L15.9231 101.019C13.6629 99.7145 13.9471 97.435 16.556 95.9239L132.516 28.9838C135.125 27.4792 139.077 27.3113 141.337 28.6158L201.839 63.5452C204.099 64.8496 203.815 67.1292 201.206 68.6403L85.246 135.587C82.6371 137.091 78.6915 137.253 76.4249 135.948Z" fill="#192533"/>
<path opacity="0.7" d="M76.4249 135.948L15.9231 101.019C13.6629 99.7145 13.9471 97.435 16.556 95.9239L132.516 28.9838C135.125 27.4792 139.077 27.3113 141.337 28.6158L201.839 63.5452C204.099 64.8496 203.815 67.1292 201.206 68.6403L85.246 135.587C82.6371 137.091 78.6915 137.253 76.4249 135.948Z" fill="#192533"/>
<g opacity="0.4">
<path opacity="0.5" d="M203.363 64.8238L195.646 66.1734L141.337 34.8215C139.077 33.5171 135.125 33.6785 132.516 35.1896L27.9605 95.5558L14.3994 97.9322V98.7588H14.4059C14.3865 99.6047 14.8773 100.418 15.9234 101.025L76.4252 135.955C78.6853 137.259 82.6374 137.098 85.2463 135.587L201.2 68.6403C202.621 67.8201 203.35 66.7676 203.357 65.7731H203.363V64.8238Z" fill="#192533"/>
<path opacity="0.7" d="M76.4249 135.032L15.9231 100.102C13.6629 98.7976 13.9471 96.5181 16.556 95.007L132.516 28.0605C135.125 26.5559 139.077 26.388 141.337 27.6924L201.839 62.6219C204.099 63.9263 203.815 66.2059 201.206 67.7169L85.246 134.663C82.6371 136.168 78.6915 136.336 76.4249 135.032Z" fill="#1759A5"/>
<path d="M76.4249 135.032L15.9231 100.102C13.6629 98.7976 13.9471 96.5181 16.556 95.007L132.516 28.0605C135.125 26.5559 139.077 26.388 141.337 27.6924L201.839 62.6219C204.099 63.9263 203.815 66.2059 201.206 67.7169L85.246 134.663C82.6371 136.168 78.6915 136.336 76.4249 135.032Z" fill="#192533"/>
</g>
<path d="M48.3337 122.058C48.3337 122.594 48.0108 122.839 47.604 122.607L42.8576 119.869C42.4573 119.636 42.1279 119.016 42.1279 118.48C42.1279 117.944 42.4508 117.699 42.8576 117.931L47.604 120.669C48.0044 120.895 48.3337 121.522 48.3337 122.058Z" fill="#192533"/>
<path d="M61.65 129.742C61.65 130.175 61.3465 130.349 60.972 130.136C60.5974 129.916 60.2939 129.393 60.2939 128.961C60.2939 128.528 60.5974 128.354 60.972 128.567C61.3465 128.786 61.65 129.309 61.65 129.742Z" fill="#192533"/>
<path d="M64.3297 131.292C64.3297 131.724 64.0262 131.899 63.6517 131.686C63.2771 131.466 62.9736 130.943 62.9736 130.51C62.9736 130.078 63.2771 129.903 63.6517 130.116C64.0198 130.33 64.3297 130.859 64.3297 131.292Z" fill="#192533"/>
<path d="M67.0036 132.835C67.0036 133.268 66.7001 133.442 66.3255 133.229C65.951 133.009 65.6475 132.486 65.6475 132.054C65.6475 131.621 65.951 131.447 66.3255 131.66C66.7001 131.873 67.0036 132.402 67.0036 132.835Z" fill="#192533"/>
<path d="M24.8141 108.477C24.8141 108.91 24.5106 109.084 24.1361 108.871C23.7615 108.651 23.458 108.128 23.458 107.696C23.458 107.263 23.7615 107.089 24.1361 107.302C24.5106 107.521 24.8141 108.044 24.8141 108.477Z" fill="#192533"/>
<path d="M27.4938 110.027C27.4938 110.459 27.1903 110.634 26.8157 110.421C26.4412 110.201 26.1377 109.678 26.1377 109.245C26.1377 108.813 26.4412 108.638 26.8157 108.852C27.1903 109.065 27.4938 109.588 27.4938 110.027Z" fill="#192533"/>
<path d="M30.1676 111.57C30.1676 112.003 29.8641 112.177 29.4896 111.964C29.115 111.744 28.8115 111.221 28.8115 110.789C28.8115 110.356 29.115 110.182 29.4896 110.395C29.8641 110.608 30.1676 111.137 30.1676 111.57Z" fill="#192533"/>
<path opacity="0.5" d="M76.4249 135.032L15.9231 100.102C13.6629 98.7976 13.9471 96.5181 16.556 95.007L132.516 28.0605C135.125 26.5559 139.077 26.388 141.337 27.6924L201.839 62.6219C204.099 63.9263 203.815 66.2059 201.206 67.7169L85.246 134.663C82.6371 136.168 78.6915 136.336 76.4249 135.032Z" fill="#192533"/>
<path opacity="0.5" d="M76.4249 135.032L15.9231 100.102C13.6629 98.7976 13.9471 96.5181 16.556 95.007L132.516 28.0605C135.125 26.5559 139.077 26.388 141.337 27.6924L201.839 62.6219C204.099 63.9263 203.815 66.2059 201.206 67.7169L85.246 134.663C82.6371 136.168 78.6915 136.336 76.4249 135.032Z" fill="#344E6C"/>
<path opacity="0.9" d="M77.4778 134.986L16.9761 100.057C14.5222 98.5716 14.0831 97.0023 17.6089 94.9617L133.563 28.0217C134.738 27.3436 136.184 26.9368 137.624 26.8141C135.855 26.7947 133.976 27.2145 132.516 28.0604L16.5628 95.0069C13.9539 96.5116 13.6698 98.7976 15.9299 100.102L76.4317 135.031C77.678 135.748 79.428 136.019 81.191 135.871C79.7961 135.852 78.4723 135.561 77.4778 134.986Z" fill="#419586"/>
<path d="M109.702 112.636L55.0312 81.0713L109.702 49.5063L164.372 81.0713L109.702 112.636Z" fill="#344E6C"/>
<path d="M109.702 53.9557L160.517 83.2992L164.372 81.0713L109.702 49.5063L55.0312 81.0713L58.8865 83.2928L109.702 53.9557Z" fill="#1F3372"/>
<path opacity="0.5" d="M109.702 53.9557L160.517 83.2992L164.372 81.0713L109.702 49.5063L55.0312 81.0713L58.8865 83.2928L109.702 53.9557Z" fill="#223040"/>
<path opacity="0.5" d="M109.702 53.9557L58.8865 83.2992L55.0312 81.0713L109.702 49.5063L164.372 81.0713L160.517 83.2928L109.702 53.9557Z" fill="#223040"/>
<mask id="mask0_452_1100" style="mask-type:luminance" maskUnits="userSpaceOnUse" x="55" y="0" width="110" height="113">
<path d="M109.703 112.636L55.0322 81.0712V9.46228L111.285 0.841309L158.949 24.7152L164.373 81.0712L109.703 112.636Z" fill="white"/>
</mask>
<g mask="url(#mask0_452_1100)">
<path d="M109.76 140.798L65.3379 115.148L109.76 89.5049L154.182 115.155L109.76 140.798Z" fill="#192533"/>
<path d="M109.76 133.417L65.3379 107.774L109.76 82.1306L154.182 107.774L109.76 133.417Z" fill="#192533"/>
<g opacity="0.9">
<path d="M109.76 87.8586L75.4639 68.0594L109.76 48.2603L144.057 68.0594L109.76 87.8586Z" fill="url(#paint0_linear_452_1100)"/>
<path d="M144.057 68.0593V107.774L109.761 127.573V87.8585L144.057 68.0593Z" fill="url(#paint1_linear_452_1100)"/>
<path d="M75.4639 68.0593V107.774L109.76 127.573V87.8585L75.4639 68.0593Z" fill="#419586"/>
</g>
<path opacity="0.7" d="M109.76 127.573L75.4639 107.774L109.76 87.9749L144.057 107.774L109.76 127.573Z" fill="url(#paint2_linear_452_1100)"/>
<path d="M154.182 107.774V115.155L109.76 140.798V133.417L154.182 107.774Z" fill="url(#paint3_linear_452_1100)"/>
<path d="M65.3379 107.774V115.148L109.76 140.798V133.417L65.3379 107.774Z" fill="#192533"/>
<path opacity="0.7" d="M65.3379 107.774V115.148L109.76 140.798V133.417L65.3379 107.774Z" fill="url(#paint4_linear_452_1100)"/>
<path d="M109.76 79.1213L65.3379 53.4779L109.76 27.8281L154.182 53.4779L109.76 79.1213Z" fill="#192533"/>
<path d="M65.3379 46.0967V53.4778L109.76 79.1211V71.7465L65.3379 46.0967Z" fill="#192533"/>
<path opacity="0.3" d="M109.76 79.1211V133.417L65.3379 107.774V53.4778L109.76 79.1211Z" fill="#419586"/>
<path opacity="0.3" d="M75.4639 59.322V107.774L109.76 127.573L144.057 107.774V59.322L109.76 79.1212L75.4639 59.322Z" fill="#419586"/>
<path opacity="0.3" d="M109.76 79.1212V127.573L75.4639 107.774V59.322L109.76 79.1212Z" fill="#419586"/>
<path opacity="0.5" d="M65.3379 53.4778V107.774L109.76 133.417L154.182 107.774V53.4778L109.76 79.1211L65.3379 53.4778Z" fill="#EDE7D9"/>
<path d="M109.76 71.7465L65.3379 46.0967L109.76 20.4534L154.182 46.0967L109.76 71.7465Z" fill="#192533"/>
<path opacity="0.7" d="M109.76 71.7465L65.3379 46.0967L109.76 20.4534L154.182 46.0967L109.76 71.7465Z" fill="#55759A"/>
<path d="M154.182 46.0967V53.4778L109.76 79.1211V71.7465L154.182 46.0967Z" fill="#344E6C"/>
<path opacity="0.7" d="M65.3379 46.0967V53.4778L109.76 79.1211V71.7465L65.3379 46.0967Z" fill="#223040"/>
<path d="M66.3909 46.097L110.284 20.7571L109.76 20.4536L65.3447 46.097L109.76 71.7468L110.29 71.4432L66.3909 46.097Z" fill="#419586"/>
<path d="M109.76 69.3186L69.4062 46.0194L109.76 27.6538L150.114 46.0194L109.76 69.3186Z" fill="#192533"/>
<path d="M69.4062 44.2498V46.0192L109.76 69.3184V67.549L69.4062 44.2498Z" fill="#192533"/>
<path d="M109.76 67.549L69.4062 44.2498L109.76 20.957L150.114 44.2498L109.76 67.549Z" fill="#192533"/>
<path opacity="0.7" d="M109.76 67.549L69.4062 44.2498L109.76 20.957L150.114 44.2498L109.76 67.549Z" fill="#2A3A4C"/>
<path d="M150.114 44.25V46.0194L109.76 69.3186V67.5492L150.114 44.25Z" fill="#192533"/>
<path opacity="0.7" d="M69.4062 44.25V46.0194L109.76 69.3186V67.5492L69.4062 44.25Z" fill="#192533"/>
<path d="M70.362 44.2498L110.238 21.2283L109.76 20.957L69.4062 44.2498L109.76 67.549L110.238 67.2778L70.362 44.2498Z" fill="#435D7B"/>
<path d="M82.3345 45.1347L80.8105 44.25L109.76 27.5376L111.284 28.4158L82.3345 45.1347Z" fill="#419586"/>
<path d="M85.3834 46.891L83.8594 46.0128L112.809 29.2939L114.333 30.1722L85.3834 46.891Z" fill="#419586"/>
<path d="M88.4244 48.6542L86.9004 47.7695L115.857 31.0571L117.381 31.9354L88.4244 48.6542Z" fill="#419586"/>
<path d="M91.4723 50.4103L89.9482 49.5321L118.904 32.8132L120.428 33.6915L91.4723 50.4103Z" fill="#419586"/>
<path d="M94.5201 52.1733L92.9961 51.2886L121.952 34.5762L123.476 35.4544L94.5201 52.1733Z" fill="#419586"/>
<path d="M97.568 53.9301L96.0439 53.0519L125 36.333L126.524 37.2112L97.568 53.9301Z" fill="#419586"/>
<path d="M100.617 55.6928L99.0928 54.8081L128.049 38.0957L129.573 38.9739L100.617 55.6928Z" fill="#419586"/>
<path d="M103.665 57.4494L102.141 56.5712L131.097 39.8523L132.621 40.7305L103.665 57.4494Z" fill="#419586"/>
<path d="M106.711 59.2121L105.188 58.3274L134.144 41.615L135.668 42.4932L106.711 59.2121Z" fill="#419586"/>
<path d="M109.76 60.9687L108.236 60.0904L137.192 43.3716L138.716 44.2498L109.76 60.9687Z" fill="#419586"/>
<path d="M109.76 27.5376L111.284 28.4158L109.76 29.2941V27.5376Z" fill="#70B8A1"/>
<path d="M112.809 29.2939L114.333 30.1722L112.809 31.0569V29.2939Z" fill="#70B8A1"/>
<path d="M115.857 31.0571L117.381 31.9354L115.857 32.8136V31.0571Z" fill="#70B8A1"/>
<path d="M118.903 32.8132L120.427 33.6915L118.903 34.5762V32.8132Z" fill="#70B8A1"/>
<path d="M121.952 34.5764L123.476 35.4547L121.952 36.3329V34.5764Z" fill="#70B8A1"/>
<path d="M125 36.333L126.524 37.2112L125 38.0959V36.333Z" fill="#70B8A1"/>
<path d="M128.048 38.0957L129.572 38.9739L128.048 39.8522V38.0957Z" fill="#70B8A1"/>
<path d="M131.097 39.8523L132.621 40.7305L131.097 41.6152V39.8523Z" fill="#70B8A1"/>
<path d="M134.145 41.615L135.669 42.4932L134.145 43.3715V41.615Z" fill="#70B8A1"/>
<path d="M137.192 43.3716L138.716 44.2498L137.192 45.1345V43.3716Z" fill="#70B8A1"/>
<g opacity="0.4">
<path d="M82.3345 45.1347L80.8105 44.25L109.76 27.5376L111.284 28.4158L82.3345 45.1347Z" fill="#419586"/>
<path d="M85.3834 46.891L83.8594 46.0128L112.809 29.2939L114.333 30.1722L85.3834 46.891Z" fill="#419586"/>
<path d="M88.4244 48.6542L86.9004 47.7695L115.857 31.0571L117.381 31.9354L88.4244 48.6542Z" fill="#419586"/>
<path d="M91.4723 50.4103L89.9482 49.5321L118.904 32.8132L120.428 33.6915L91.4723 50.4103Z" fill="#419586"/>
<path d="M94.5201 52.1733L92.9961 51.2886L121.952 34.5762L123.476 35.4544L94.5201 52.1733Z" fill="#419586"/>
<path d="M97.568 53.9301L96.0439 53.0519L125 36.333L126.524 37.2112L97.568 53.9301Z" fill="#419586"/>
<path d="M100.617 55.6928L99.0928 54.8081L128.049 38.0957L129.573 38.9739L100.617 55.6928Z" fill="#419586"/>
<path d="M103.665 57.4494L102.141 56.5712L131.097 39.8523L132.621 40.7305L103.665 57.4494Z" fill="#419586"/>
<path d="M106.711 59.2121L105.188 58.3274L134.144 41.615L135.668 42.4932L106.711 59.2121Z" fill="#419586"/>
<path d="M109.76 60.9687L108.236 60.0904L137.192 43.3716L138.716 44.2498L109.76 60.9687Z" fill="#419586"/>
</g>
<path opacity="0.5" d="M65.3379 53.4778V107.774L65.9514 108.129V53.8265L65.3379 53.4778Z" fill="#419586"/>
<path opacity="0.5" d="M154.183 53.4778V107.774L153.569 108.129V53.8265L154.183 53.4778Z" fill="#419586"/>
<path opacity="0.5" d="M109.76 79.1212L108.714 78.5142V132.823L109.76 133.417L110.813 132.823V78.5142L109.76 79.1212Z" fill="#419586"/>
<path opacity="0.5" d="M65.9512 102.427L106.337 77.1452L77.5427 60.5232L65.9512 66.8581V102.427Z" fill="#EDE7D9"/>
<path opacity="0.5" d="M75.0107 113.353L108.713 94.1997V108.129L86.415 119.94L75.0107 113.353Z" fill="#EDE7D9"/>
<path d="M68.1016 60.1618L106.402 82.2599V80.5292L68.1016 58.4312V60.1618Z" fill="#419586"/>
<path d="M68.1016 64.2167L106.402 86.3148V84.5842L68.1016 62.4861V64.2167Z" fill="#419586"/>
<path d="M68.1016 68.2659L106.402 90.3705V88.6398L68.1016 66.5417V68.2659Z" fill="#419586"/>
<path d="M68.1016 72.3214L106.402 94.4259V92.6953L68.1016 70.5972V72.3214Z" fill="#419586"/>
<path d="M68.1016 76.3768L106.402 98.4813V96.7507L68.1016 74.6526V76.3768Z" fill="#419586"/>
<path d="M68.1016 80.4322L106.402 102.537V100.806L68.1016 78.708V80.4322Z" fill="#419586"/>
<path d="M68.1016 84.4876L106.402 106.592V104.862L68.1016 82.7634V84.4876Z" fill="#419586"/>
<path d="M68.1016 88.543L106.402 110.648V108.917L68.1016 86.8188V88.543Z" fill="#419586"/>
<path d="M68.1016 92.5982L106.402 114.703V112.972L68.1016 90.874V92.5982Z" fill="#419586"/>
<path d="M68.1016 96.6536L106.402 118.752V117.028L68.1016 94.9294V96.6536Z" fill="#419586"/>
<path d="M68.1016 100.709L106.402 122.807V121.083L68.1016 98.9851V100.709Z" fill="#419586"/>
<path d="M68.1016 104.765L106.402 126.863V125.139L68.1016 103.041V104.765Z" fill="#419586"/>
<path d="M136.43 48.7897C136.869 49.0415 136.869 49.4548 136.43 49.7067C135.991 49.9585 135.274 49.9585 134.835 49.7067C134.396 49.4548 134.396 49.0415 134.835 48.7897C135.281 48.5314 135.991 48.5314 136.43 48.7897Z" fill="#C46060"/>
<path d="M138.91 47.3561C139.349 47.6079 139.349 48.0212 138.91 48.2731C138.471 48.5249 137.754 48.5249 137.315 48.2731C136.876 48.0212 136.876 47.6079 137.315 47.3561C137.76 47.0978 138.471 47.0978 138.91 47.3561Z" fill="#C46060"/>
<path d="M141.396 45.9223C141.835 46.1741 141.835 46.5874 141.396 46.8393C140.957 47.0911 140.24 47.0911 139.801 46.8393C139.362 46.5874 139.362 46.1741 139.801 45.9223C140.24 45.6704 140.957 45.6704 141.396 45.9223Z" fill="#C46060"/>
<path d="M113.926 81.1097C113.926 81.5876 113.59 82.1688 113.177 82.4077C112.764 82.6466 112.428 82.4529 112.428 81.975C112.428 81.4972 112.764 80.916 113.177 80.677C113.59 80.4381 113.926 80.6318 113.926 81.1097Z" fill="#419586"/>
<path d="M116.386 79.6893C116.386 80.1672 116.05 80.7484 115.637 80.9873C115.223 81.2262 114.888 81.0325 114.888 80.5546C114.888 80.0768 115.223 79.4956 115.637 79.2566C116.057 79.0177 116.386 79.2114 116.386 79.6893Z" fill="#419586"/>
<path d="M118.853 78.2686C118.853 78.7465 118.517 79.3277 118.104 79.5666C117.69 79.8056 117.354 79.6118 117.354 79.134C117.354 78.6561 117.69 78.0749 118.104 77.836C118.517 77.597 118.853 77.7908 118.853 78.2686Z" fill="#419586"/>
<path d="M138.832 67.5937L119.982 78.4748V76.7442L138.832 65.863V67.5937Z" fill="#419586"/>
<path d="M113.926 85.1651C113.926 85.643 113.59 86.2242 113.177 86.4631C112.764 86.702 112.428 86.5083 112.428 86.0305C112.428 85.5526 112.764 84.9714 113.177 84.7325C113.59 84.4935 113.926 84.6873 113.926 85.1651Z" fill="#419586"/>
<path d="M116.386 83.7447C116.386 84.2226 116.05 84.8038 115.637 85.0427C115.223 85.2816 114.888 85.0879 114.888 84.61C114.888 84.1322 115.223 83.551 115.637 83.3121C116.057 83.0731 116.386 83.2668 116.386 83.7447Z" fill="#419586"/>
<path d="M118.853 82.3241C118.853 82.8019 118.517 83.3831 118.104 83.6221C117.69 83.861 117.354 83.6672 117.354 83.1894C117.354 82.7115 117.69 82.1303 118.104 81.8914C118.517 81.6525 118.853 81.8462 118.853 82.3241Z" fill="#419586"/>
<path d="M138.832 71.6493L119.982 82.5305V80.7998L138.832 69.9187V71.6493Z" fill="#419586"/>
<path d="M113.926 89.2205C113.926 89.6984 113.59 90.2796 113.177 90.5185C112.764 90.7575 112.428 90.5637 112.428 90.0859C112.428 89.608 112.764 89.0268 113.177 88.7879C113.59 88.5489 113.926 88.7427 113.926 89.2205Z" fill="#419586"/>
<path d="M116.386 87.7999C116.386 88.2778 116.05 88.8589 115.637 89.0979C115.223 89.3368 114.888 89.1431 114.888 88.6652C114.888 88.1874 115.223 87.6062 115.637 87.3672C116.057 87.1283 116.386 87.322 116.386 87.7999Z" fill="#419586"/>
<path d="M118.853 86.3792C118.853 86.8571 118.517 87.4383 118.104 87.6772C117.69 87.9162 117.354 87.7224 117.354 87.2446C117.354 86.7667 117.69 86.1855 118.104 85.9466C118.517 85.7076 118.853 85.9014 118.853 86.3792Z" fill="#419586"/>
<path d="M138.832 75.7048L119.982 86.5859V84.8553L138.832 73.9741V75.7048Z" fill="#419586"/>
<path d="M113.926 93.276C113.926 93.7538 113.59 94.335 113.177 94.5739C112.764 94.8129 112.428 94.6192 112.428 94.1413C112.428 93.6634 112.764 93.0822 113.177 92.8433C113.59 92.6044 113.926 92.7981 113.926 93.276Z" fill="#419586"/>
<path d="M116.386 91.8553C116.386 92.3332 116.05 92.9144 115.637 93.1533C115.223 93.3922 114.888 93.1985 114.888 92.7206C114.888 92.2428 115.223 91.6616 115.637 91.4226C116.057 91.1837 116.386 91.3774 116.386 91.8553Z" fill="#419586"/>
<path d="M118.853 90.4344C118.853 90.9123 118.517 91.4935 118.104 91.7324C117.69 91.9713 117.354 91.7776 117.354 91.2997C117.354 90.8219 117.69 90.2407 118.104 90.0017C118.517 89.7628 118.853 89.9565 118.853 90.4344Z" fill="#419586"/>
<path d="M138.832 79.7599L119.982 90.6411V88.9104L138.832 78.0293V79.7599Z" fill="#419586"/>
<path d="M113.926 97.3314C113.926 97.8092 113.59 98.3904 113.177 98.6294C112.764 98.8683 112.428 98.6746 112.428 98.1967C112.428 97.7188 112.764 97.1377 113.177 96.8987C113.59 96.6598 113.926 96.8535 113.926 97.3314Z" fill="#419586"/>
<path d="M116.386 95.9107C116.386 96.3886 116.05 96.9698 115.637 97.2087C115.223 97.4476 114.888 97.2539 114.888 96.7761C114.888 96.2982 115.223 95.717 115.637 95.4781C116.057 95.2391 116.386 95.4329 116.386 95.9107Z" fill="#419586"/>
<path d="M118.853 94.4837C118.853 94.9615 118.517 95.5427 118.104 95.7816C117.69 96.0206 117.354 95.8268 117.354 95.349C117.354 94.8711 117.69 94.2899 118.104 94.051C118.517 93.8185 118.853 94.0122 118.853 94.4837Z" fill="#419586"/>
<path d="M138.832 83.8159L119.982 94.697V92.9663L138.832 82.0852V83.8159Z" fill="#419586"/>
<path d="M113.926 101.387C113.926 101.865 113.59 102.446 113.177 102.685C112.764 102.924 112.428 102.73 112.428 102.252C112.428 101.774 112.764 101.193 113.177 100.954C113.59 100.715 113.926 100.909 113.926 101.387Z" fill="#419586"/>
<path d="M116.386 99.9659C116.386 100.444 116.05 101.025 115.637 101.264C115.223 101.503 114.888 101.309 114.888 100.831C114.888 100.353 115.223 99.7722 115.637 99.5332C116.057 99.2943 116.386 99.488 116.386 99.9659Z" fill="#419586"/>
<path d="M118.853 98.5388C118.853 99.0167 118.517 99.5979 118.104 99.8368C117.69 100.076 117.354 99.882 117.354 99.4042C117.354 98.9263 117.69 98.3451 118.104 98.1062C118.517 97.8737 118.853 98.0674 118.853 98.5388Z" fill="#419586"/>
<path d="M138.832 87.871L119.982 98.7522V97.0215L138.832 86.1404V87.871Z" fill="#419586"/>
<path d="M113.926 105.442C113.926 105.92 113.59 106.501 113.177 106.74C112.764 106.979 112.428 106.785 112.428 106.307C112.428 105.829 112.764 105.248 113.177 105.009C113.59 104.77 113.926 104.964 113.926 105.442Z" fill="#419586"/>
<path d="M116.386 104.021C116.386 104.499 116.05 105.08 115.637 105.319C115.223 105.558 114.888 105.365 114.888 104.887C114.888 104.409 115.223 103.828 115.637 103.589C116.057 103.35 116.386 103.543 116.386 104.021Z" fill="#419586"/>
<path d="M118.853 102.594C118.853 103.072 118.517 103.654 118.104 103.892C117.69 104.131 117.354 103.938 117.354 103.46C117.354 102.982 117.69 102.401 118.104 102.162C118.517 101.929 118.853 102.123 118.853 102.594Z" fill="#419586"/>
<path d="M138.832 91.9262L119.982 102.807V101.077L138.832 90.1956V91.9262Z" fill="#419586"/>
<path d="M113.926 109.498C113.926 109.976 113.59 110.557 113.177 110.796C112.764 111.035 112.428 110.841 112.428 110.363C112.428 109.885 112.764 109.304 113.177 109.065C113.59 108.826 113.926 109.02 113.926 109.498Z" fill="#419586"/>
<path d="M116.386 108.071C116.386 108.548 116.05 109.13 115.637 109.369C115.223 109.607 114.888 109.414 114.888 108.936C114.888 108.458 115.223 107.877 115.637 107.638C116.057 107.405 116.386 107.599 116.386 108.071Z" fill="#419586"/>
<path d="M118.853 106.65C118.853 107.128 118.517 107.709 118.104 107.948C117.69 108.187 117.354 107.993 117.354 107.515C117.354 107.037 117.69 106.456 118.104 106.217C118.517 105.985 118.853 106.179 118.853 106.65Z" fill="#419586"/>
<path d="M138.832 95.9819L119.982 106.863V105.132L138.832 94.2512V95.9819Z" fill="#419586"/>
<path d="M116.386 112.126C116.386 112.604 116.05 113.185 115.637 113.424C115.223 113.663 114.888 113.469 114.888 112.991C114.888 112.513 115.223 111.932 115.637 111.693C116.057 111.461 116.386 111.655 116.386 112.126Z" fill="#419586"/>
<path d="M118.853 110.705C118.853 111.183 118.517 111.764 118.104 112.003C117.69 112.242 117.354 112.048 117.354 111.571C117.354 111.093 117.69 110.512 118.104 110.273C118.517 110.04 118.853 110.227 118.853 110.705Z" fill="#419586"/>
<path d="M138.832 100.037L119.982 110.918V109.188L138.832 98.3066V100.037Z" fill="#419586"/>
<path d="M138.832 104.092L119.982 114.974V113.243L138.832 102.362V104.092Z" fill="#419586"/>
<path d="M138.832 108.141L119.982 119.029V117.298L138.832 106.417V108.141Z" fill="#419586"/>
<path d="M138.832 112.197L119.982 123.084V121.354L138.832 110.472V112.197Z" fill="#419586"/>
<path opacity="0.5" d="M151.677 104.855L140.608 111.248V65.0045L151.677 58.6179V104.855Z" fill="#419586"/>
</g>
<path opacity="0.4" d="M65.3379 83.906L109.702 109.259L154.182 83.906V86.954L109.702 112.636L65.3379 87.0186V83.906Z" fill="#419586"/>
<defs>
<linearGradient id="paint0_linear_452_1100" x1="197.143" y1="86.0335" x2="69.3844" y2="59.7559" gradientUnits="userSpaceOnUse">
<stop stop-color="#180D5B"/>
<stop offset="0.095" stop-color="#1A1660"/>
<stop offset="0.2466" stop-color="#1E2D6E"/>
<stop offset="0.436" stop-color="#255385"/>
<stop offset="0.6555" stop-color="#2F87A5"/>
<stop offset="0.8978" stop-color="#3CCACE"/>
<stop offset="1" stop-color="#42E8E0"/>
</linearGradient>
<linearGradient id="paint1_linear_452_1100" x1="158.255" y1="118.177" x2="71.4668" y2="61.8069" gradientUnits="userSpaceOnUse">
<stop stop-color="#180D5B"/>
<stop offset="0.095" stop-color="#1A1660"/>
<stop offset="0.2466" stop-color="#1E2D6E"/>
<stop offset="0.436" stop-color="#255385"/>
<stop offset="0.6555" stop-color="#2F87A5"/>
<stop offset="0.8978" stop-color="#3CCACE"/>
<stop offset="1" stop-color="#42E8E0"/>
</linearGradient>
<linearGradient id="paint2_linear_452_1100" x1="168.562" y1="140.021" x2="77.2555" y2="89.9473" gradientUnits="userSpaceOnUse">
<stop stop-color="#180D5B"/>
<stop offset="0.095" stop-color="#1A1660"/>
<stop offset="0.2466" stop-color="#1E2D6E"/>
<stop offset="0.436" stop-color="#255385"/>
<stop offset="0.6555" stop-color="#2F87A5"/>
<stop offset="0.8978" stop-color="#3CCACE"/>
<stop offset="1" stop-color="#42E8E0"/>
</linearGradient>
<linearGradient id="paint3_linear_452_1100" x1="94.9957" y1="124.286" x2="158.497" y2="124.286" gradientUnits="userSpaceOnUse">
<stop stop-color="#2B237C"/>
<stop offset="1" stop-color="#180D5B"/>
</linearGradient>
<linearGradient id="paint4_linear_452_1100" x1="114.409" y1="139.553" x2="56.5732" y2="106.675" gradientUnits="userSpaceOnUse">
<stop stop-color="#180D5B"/>
<stop offset="0.0951" stop-color="#1A1560"/>
<stop offset="0.2465" stop-color="#1E2D6E"/>
<stop offset="0.2819" stop-color="#1F3372"/>
<stop offset="0.3779" stop-color="#22447C"/>
<stop offset="0.5681" stop-color="#2B7097"/>
<stop offset="0.832" stop-color="#39B7C2"/>
<stop offset="1" stop-color="#42E8E0"/>
</linearGradient>
</defs>
</svg>
