<svg width="251" height="209" viewBox="0 0 251 209" fill="none" xmlns="http://www.w3.org/2000/svg">
<g opacity="0.3">
<path d="M250.283 126.865V123.864L249.452 123.401C249.218 124.822 247.549 125.753 246.156 125.947L236.662 131.502L232.515 132.996L219.289 126.168L219.597 125.994C218.465 125.465 217.855 124.259 217.246 123.153L216.354 123.683L215.825 123.83V126.912C215.825 127.502 216.214 128.091 216.991 128.533L230.243 136.185C231.798 137.083 234.317 137.083 235.871 136.185L249.124 128.533C249.888 128.091 250.276 127.515 250.29 126.939C250.283 126.912 250.283 126.892 250.283 126.865Z" fill="#55759A"/>
<path opacity="0.3" d="M246.156 125.947L236.662 131.502L233.058 132.801V136.862C234.076 136.862 235.094 136.64 235.872 136.192L249.124 128.54C249.888 128.098 250.276 127.522 250.29 126.946C250.29 126.919 250.29 126.892 250.29 126.865V123.864L249.533 123.442H249.452C249.191 124.835 247.536 125.753 246.156 125.947Z" fill="#0F054C"/>
<path d="M230.243 133.137L216.991 125.485C215.437 124.587 215.437 123.133 216.991 122.236L230.243 114.584C231.798 113.687 234.317 113.687 235.871 114.584L249.124 122.236C250.678 123.133 250.678 124.587 249.124 125.485L235.871 133.137C234.317 134.034 231.791 134.034 230.243 133.137Z" fill="#344E6C"/>
<g opacity="0.3">
<path d="M230.243 133.137L216.991 125.485C215.437 124.587 215.437 123.133 216.991 122.236L230.243 114.584C231.798 113.687 234.317 113.687 235.871 114.584L249.124 122.236C250.678 123.133 250.678 124.587 249.124 125.485L235.871 133.137C234.317 134.034 231.791 134.034 230.243 133.137Z" fill="#0F054C"/>
</g>
</g>
<path d="M233.058 123.469C232.154 123.469 231.249 123.268 230.559 122.872L217.307 115.221C216.616 114.826 216.241 114.29 216.241 113.714C216.241 113.137 216.623 112.601 217.307 112.206L230.559 104.555C231.932 103.757 234.177 103.757 235.557 104.555L248.81 112.206C249.5 112.601 249.875 113.137 249.875 113.714C249.875 114.29 249.493 114.826 248.81 115.221L235.557 122.872C234.867 123.268 233.963 123.469 233.058 123.469ZM233.058 104.18C232.194 104.18 231.336 104.367 230.68 104.749L217.42 112.4C216.804 112.755 216.469 113.218 216.469 113.707C216.469 114.196 216.804 114.658 217.42 115.013L230.673 122.665C231.986 123.422 234.123 123.422 235.437 122.665L248.689 115.013C249.299 114.658 249.64 114.196 249.64 113.707C249.64 113.218 249.305 112.755 248.689 112.4L235.437 104.749C234.78 104.374 233.916 104.18 233.058 104.18Z" fill="#419586"/>
<path opacity="0.4" d="M250.283 110.772V106.236L249.452 105.774C249.218 107.194 247.549 108.126 246.156 108.32L236.662 113.874L232.515 115.368L219.289 108.541L219.597 108.367C218.465 107.837 217.855 106.631 217.246 105.526L216.354 106.055L215.825 106.203V110.819C215.825 111.409 216.214 111.998 216.991 112.44L230.243 120.092C231.798 120.989 234.317 120.989 235.871 120.092L249.124 112.44C249.888 111.998 250.276 111.422 250.29 110.846C250.283 110.826 250.283 110.799 250.283 110.772Z" fill="#419586"/>
<path d="M250.283 106.739V103.737L249.452 103.275C249.218 104.695 247.549 105.627 246.156 105.821L236.662 111.375L232.515 112.869L219.289 106.042L219.597 105.868C218.465 105.338 217.855 104.132 217.246 103.027L216.354 103.556L215.825 103.704V106.786C215.825 107.375 216.214 107.965 216.991 108.407L230.243 116.058C231.798 116.956 234.317 116.956 235.871 116.058L249.124 108.407C249.888 107.965 250.276 107.389 250.29 106.812C250.283 106.792 250.283 106.766 250.283 106.739Z" fill="#55759A"/>
<path opacity="0.3" d="M246.156 105.821L236.662 111.375L233.058 112.675V116.735C234.076 116.735 235.094 116.514 235.872 116.065L249.124 108.414C249.888 107.972 250.276 107.396 250.29 106.819C250.29 106.793 250.29 106.766 250.29 106.739V103.737L249.533 103.315H249.452C249.191 104.709 247.536 105.627 246.156 105.821Z" fill="#0F054C"/>
<path d="M230.243 113.01L216.991 105.359C215.437 104.461 215.437 103.007 216.991 102.109L230.243 94.4577C231.798 93.5599 234.317 93.5599 235.871 94.4577L249.124 102.109C250.678 103.007 250.678 104.461 249.124 105.359L235.871 113.01C234.317 113.908 231.791 113.908 230.243 113.01Z" fill="#55759A"/>
<path d="M249.124 105.359L235.872 113.01C234.317 113.908 231.798 113.908 230.244 113.01L216.991 105.359C216.294 104.957 215.913 104.447 215.839 103.918C215.745 104.568 216.134 105.231 216.991 105.727L230.244 113.378C231.798 114.276 234.317 114.276 235.872 113.378L249.124 105.727C249.982 105.231 250.364 104.561 250.277 103.918C250.196 104.447 249.814 104.963 249.124 105.359Z" fill="#EDE7D9"/>
<g opacity="0.3">
<path d="M145.239 198.401V195.399L144.408 194.937C144.174 196.358 142.505 197.289 141.112 197.483L131.618 203.037L127.471 204.531L114.245 197.704L114.553 197.53C113.421 197.001 112.811 195.795 112.202 194.689L111.311 195.219L110.781 195.366V198.448C110.781 199.037 111.17 199.627 111.947 200.069L125.2 207.721C126.754 208.618 129.273 208.618 130.828 207.721L144.08 200.069C144.844 199.627 145.232 199.051 145.246 198.475C145.239 198.448 145.239 198.428 145.239 198.401Z" fill="#55759A"/>
<path opacity="0.3" d="M141.112 197.483L131.618 203.038L128.014 204.337V208.398C129.032 208.398 130.05 208.177 130.828 207.728L144.08 200.076C144.844 199.634 145.233 199.058 145.246 198.482C145.246 198.455 145.246 198.428 145.246 198.401V195.4L144.489 194.978H144.408C144.147 196.371 142.492 197.289 141.112 197.483Z" fill="#0F054C"/>
<path d="M125.2 204.673L111.947 197.021C110.393 196.123 110.393 194.669 111.947 193.772L125.2 186.12C126.754 185.223 129.273 185.223 130.828 186.12L144.08 193.772C145.634 194.669 145.634 196.123 144.08 197.021L130.828 204.673C129.273 205.57 126.747 205.57 125.2 204.673Z" fill="#344E6C"/>
<g opacity="0.3">
<path d="M125.2 204.673L111.947 197.021C110.393 196.123 110.393 194.669 111.947 193.772L125.2 186.12C126.754 185.223 129.273 185.223 130.828 186.12L144.08 193.772C145.634 194.669 145.634 196.123 144.08 197.021L130.828 204.673C129.273 205.57 126.747 205.57 125.2 204.673Z" fill="#0F054C"/>
</g>
</g>
<path d="M128.014 195.005C127.11 195.005 126.205 194.804 125.515 194.408L112.263 186.757C111.572 186.362 111.197 185.826 111.197 185.249C111.197 184.673 111.579 184.137 112.263 183.742L125.515 176.091C126.889 175.293 129.133 175.293 130.513 176.091L143.766 183.742C144.456 184.137 144.831 184.673 144.831 185.249C144.831 185.826 144.449 186.362 143.766 186.757L130.513 194.408C129.823 194.804 128.919 195.005 128.014 195.005ZM128.014 175.715C127.15 175.715 126.292 175.903 125.636 176.285L112.376 183.936C111.76 184.291 111.425 184.754 111.425 185.243C111.425 185.732 111.76 186.194 112.376 186.549L125.629 194.201C126.942 194.958 129.079 194.958 130.393 194.201L143.645 186.549C144.255 186.194 144.597 185.732 144.597 185.243C144.597 184.754 144.261 184.291 143.645 183.936L130.393 176.285C129.736 175.91 128.872 175.715 128.014 175.715Z" fill="#419586"/>
<path opacity="0.4" d="M145.239 182.308V177.772L144.408 177.31C144.174 178.73 142.505 179.662 141.112 179.856L131.618 185.41L127.471 186.904L114.245 180.077L114.553 179.903C113.421 179.373 112.811 178.168 112.202 177.062L111.311 177.591L110.781 177.739V182.355C110.781 182.945 111.17 183.534 111.947 183.976L125.2 191.628C126.754 192.525 129.273 192.525 130.828 191.628L144.08 183.976C144.844 183.534 145.232 182.958 145.246 182.382C145.239 182.362 145.239 182.335 145.239 182.308Z" fill="#419586"/>
<path d="M145.239 178.275V175.273L144.408 174.811C144.174 176.231 142.505 177.163 141.112 177.357L131.618 182.911L127.471 184.405L114.245 177.578L114.553 177.404C113.421 176.874 112.811 175.668 112.202 174.563L111.311 175.092L110.781 175.24V178.322C110.781 178.911 111.17 179.501 111.947 179.943L125.2 187.594C126.754 188.492 129.273 188.492 130.828 187.594L144.08 179.943C144.844 179.501 145.232 178.925 145.246 178.348C145.239 178.328 145.239 178.302 145.239 178.275Z" fill="#55759A"/>
<path opacity="0.3" d="M141.112 177.357L131.618 182.911L128.014 184.211V188.271C129.032 188.271 130.05 188.05 130.828 187.601L144.08 179.95C144.844 179.508 145.233 178.931 145.246 178.355C145.246 178.328 145.246 178.302 145.246 178.275V175.273L144.489 174.851H144.408C144.147 176.245 142.492 177.163 141.112 177.357Z" fill="#0F054C"/>
<path d="M125.2 184.546L111.947 176.895C110.393 175.997 110.393 174.543 111.947 173.645L125.2 165.994C126.754 165.096 129.273 165.096 130.828 165.994L144.08 173.645C145.634 174.543 145.634 175.997 144.08 176.895L130.828 184.546C129.273 185.444 126.747 185.444 125.2 184.546Z" fill="#55759A"/>
<path d="M144.08 176.895L130.828 184.546C129.273 185.444 126.754 185.444 125.2 184.546L111.947 176.895C111.251 176.493 110.869 175.984 110.795 175.454C110.701 176.104 111.09 176.767 111.947 177.263L125.2 184.915C126.754 185.812 129.273 185.812 130.828 184.915L144.08 177.263C144.938 176.767 145.32 176.097 145.233 175.454C145.152 175.984 144.77 176.499 144.08 176.895Z" fill="#EDE7D9"/>
<g opacity="0.3">
<path d="M80.4744 53.5329V50.5313L79.6436 50.069C79.4091 51.4894 77.7408 52.4207 76.3473 52.615L66.8534 58.1692L62.7062 59.6633L49.4805 52.8361L49.7887 52.6619C48.6564 52.1326 48.0467 50.9266 47.437 49.8211L46.5459 50.3504L46.0166 50.4978V53.5798C46.0166 54.1694 46.4052 54.759 47.1824 55.2012L60.4349 62.8525C61.9893 63.7503 64.5085 63.7503 66.0629 62.8525L79.3153 55.2012C80.0791 54.759 80.4677 54.1828 80.4811 53.6066C80.4744 53.5798 80.4744 53.5597 80.4744 53.5329Z" fill="#55759A"/>
<path opacity="0.3" d="M76.3474 52.615L66.8536 58.1693L63.249 59.4691V63.5292C64.2674 63.5292 65.2858 63.3081 66.063 62.8592L79.3155 55.2079C80.0793 54.7657 80.4679 54.1895 80.4813 53.6133C80.4813 53.5865 80.4813 53.5597 80.4813 53.5329V50.5314L79.7242 50.1093H79.6438C79.3825 51.5028 77.7276 52.4207 76.3474 52.615Z" fill="#0F054C"/>
<path d="M60.4349 59.8041L47.1824 52.1528C45.628 51.255 45.628 49.8011 47.1824 48.9033L60.4349 41.252C61.9893 40.3542 64.5085 40.3542 66.0629 41.252L79.3153 48.9033C80.8697 49.8011 80.8697 51.255 79.3153 52.1528L66.0629 59.8041C64.5085 60.7019 61.9826 60.7019 60.4349 59.8041Z" fill="#344E6C"/>
<g opacity="0.3">
<path d="M60.4349 59.8041L47.1824 52.1528C45.628 51.255 45.628 49.8011 47.1824 48.9033L60.4349 41.252C61.9893 40.3542 64.5085 40.3542 66.0629 41.252L79.3153 48.9033C80.8697 49.8011 80.8697 51.255 79.3153 52.1528L66.0629 59.8041C64.5085 60.7019 61.9826 60.7019 60.4349 59.8041Z" fill="#0F054C"/>
</g>
</g>
<path d="M63.2495 50.1362C62.345 50.1362 61.4405 49.9353 60.7504 49.54L47.4979 41.8886C46.8078 41.4933 46.4326 40.9573 46.4326 40.3811C46.4326 39.8049 46.8145 39.2689 47.4979 38.8736L60.7504 31.2223C62.1239 30.425 64.3684 30.425 65.7486 31.2223L79.0011 38.8736C79.6912 39.2689 80.0663 39.8049 80.0663 40.3811C80.0663 40.9573 79.6845 41.4933 79.0011 41.8886L65.7486 49.54C65.0585 49.9353 64.154 50.1362 63.2495 50.1362ZM63.2495 30.8471C62.3852 30.8471 61.5276 31.0347 60.871 31.4166L47.6118 39.0679C46.9954 39.423 46.6604 39.8853 46.6604 40.3744C46.6604 40.8635 46.9954 41.3258 47.6118 41.6809L60.8643 49.3323C62.1775 50.0894 64.3148 50.0894 65.628 49.3323L78.8804 41.6809C79.4901 41.3258 79.8319 40.8635 79.8319 40.3744C79.8319 39.8853 79.4968 39.423 78.8804 39.0679L65.628 31.4166C64.9714 31.0414 64.1071 30.8471 63.2495 30.8471Z" fill="#419586"/>
<path opacity="0.4" d="M80.4744 37.4397V32.9039L79.6436 32.4416C79.4091 33.862 77.7408 34.7932 76.3473 34.9875L66.8534 40.5418L62.7062 42.0359L49.4805 35.2086L49.7887 35.0344C48.6564 34.5052 48.0467 33.2992 47.437 32.1937L46.5459 32.723L46.0166 32.8704V37.4866C46.0166 38.0762 46.4052 38.6658 47.1824 39.108L60.4349 46.7594C61.9893 47.6571 64.5085 47.6571 66.0629 46.7594L79.3153 39.108C80.0791 38.6658 80.4677 38.0896 80.4811 37.5134C80.4744 37.4933 80.4744 37.4665 80.4744 37.4397Z" fill="#419586"/>
<path d="M80.4744 33.4063V30.4048L79.6436 29.9425C79.4091 31.3629 77.7408 32.2942 76.3473 32.4885L66.8534 38.0427L62.7062 39.5368L49.4805 32.7096L49.7887 32.5354C48.6564 32.0061 48.0467 30.8001 47.437 29.6946L46.5459 30.2239L46.0166 30.3713V33.4533C46.0166 34.0428 46.4052 34.6324 47.1824 35.0746L60.4349 42.726C61.9893 43.6238 64.5085 43.6238 66.0629 42.726L79.3153 35.0746C80.0791 34.6324 80.4677 34.0562 80.4811 33.48C80.4744 33.4599 80.4744 33.4331 80.4744 33.4063Z" fill="#55759A"/>
<path opacity="0.3" d="M76.3474 32.4886L66.8536 38.0429L63.249 39.3427V43.4029C64.2674 43.4029 65.2858 43.1818 66.063 42.7329L79.3155 35.0815C80.0793 34.6393 80.4679 34.0631 80.4813 33.4869C80.4813 33.4601 80.4813 33.4333 80.4813 33.4065V30.4049L79.7242 29.9828H79.6438C79.3825 31.3764 77.7276 32.2943 76.3474 32.4886Z" fill="#0F054C"/>
<path d="M60.4349 39.6775L47.1824 32.0262C45.628 31.1284 45.628 29.6745 47.1824 28.7767L60.4349 21.1254C61.9893 20.2276 64.5085 20.2276 66.0629 21.1254L79.3153 28.7767C80.8697 29.6745 80.8697 31.1284 79.3153 32.0262L66.0629 39.6775C64.5085 40.5753 61.9826 40.5753 60.4349 39.6775Z" fill="#55759A"/>
<path d="M79.3156 32.0262L66.0632 39.6776C64.5088 40.5754 61.9896 40.5754 60.4352 39.6776L47.1827 32.0262C46.4859 31.6242 46.104 31.1151 46.0303 30.5858C45.9365 31.2356 46.3251 31.8989 47.1827 32.3947L60.4352 40.0461C61.9896 40.9439 64.5088 40.9439 66.0632 40.0461L79.3156 32.3947C80.1732 31.8989 80.5551 31.2289 80.468 30.5858C80.3876 31.1151 80.0057 31.6309 79.3156 32.0262Z" fill="#EDE7D9"/>
<g opacity="0.3">
<path d="M57.3113 144.379V141.377L56.4806 140.915C56.2461 142.336 54.5778 143.267 53.1842 143.461L43.6904 149.015L39.5431 150.509L26.3174 143.682L26.6256 143.508C25.4933 142.979 24.8836 141.773 24.2739 140.667L23.3828 141.197L22.8535 141.344V144.426C22.8535 145.015 23.2421 145.605 24.0193 146.047L37.2718 153.699C38.8262 154.596 41.3454 154.596 42.8998 153.699L56.1523 146.047C56.9161 145.605 57.3047 145.029 57.3181 144.453C57.3114 144.433 57.3113 144.406 57.3113 144.379Z" fill="#55759A"/>
<path opacity="0.3" d="M53.1843 143.461L43.6905 149.015L40.0859 150.315V154.375C41.1043 154.375 42.1227 154.154 42.8999 153.705L56.1524 146.054C56.9162 145.612 57.3048 145.036 57.3182 144.459C57.3182 144.433 57.3182 144.406 57.3182 144.379V141.377L56.5611 140.955H56.4807C56.2127 142.349 54.5645 143.267 53.1843 143.461Z" fill="#0F054C"/>
<path d="M37.265 150.65L24.0125 142.999C22.4581 142.101 22.4581 140.647 24.0125 139.749L37.265 132.098C38.8194 131.2 41.3385 131.2 42.8929 132.098L56.1454 139.749C57.6998 140.647 57.6998 142.101 56.1454 142.999L42.8929 150.65C41.3452 151.548 38.8194 151.548 37.265 150.65Z" fill="#55759A"/>
<g opacity="0.3">
<path d="M37.265 150.65L24.0125 142.999C22.4581 142.101 22.4581 140.647 24.0125 139.749L37.265 132.098C38.8194 131.2 41.3385 131.2 42.8929 132.098L56.1454 139.749C57.6998 140.647 57.6998 142.101 56.1454 142.999L42.8929 150.65C41.3452 151.548 38.8194 151.548 37.265 150.65Z" fill="#0F054C"/>
</g>
</g>
<path opacity="0.4" d="M40.0794 153.096C31.9992 153.096 23.9124 151.32 17.7619 147.769C11.7788 144.312 8.48242 139.716 8.48242 134.818C8.48242 129.92 11.7788 125.324 17.7619 121.867C30.0697 114.765 50.0891 114.765 62.3969 121.867C68.38 125.324 71.6763 129.92 71.6763 134.818C71.6763 139.716 68.38 144.312 62.3969 147.769C56.2464 151.32 48.1662 153.096 40.0794 153.096ZM40.0794 116.762C32.0394 116.762 23.9995 118.531 17.8758 122.061C11.9664 125.472 8.71692 130.001 8.71692 134.811C8.71692 139.622 11.9731 144.151 17.8758 147.561C30.1166 154.63 50.0355 154.63 62.2763 147.561C68.1857 144.151 71.4351 139.622 71.4351 134.811C71.4351 130.001 68.179 125.472 62.2763 122.061C56.1592 118.531 48.1193 116.762 40.0794 116.762Z" fill="#419586"/>
<path opacity="0.2" d="M40.0858 157.993C29.8282 157.993 19.5706 155.742 11.7651 151.233C4.18078 146.851 0 141.022 0 134.818C0 128.614 4.18078 122.778 11.7651 118.403C27.3827 109.385 52.7889 109.385 68.4065 118.403C75.9908 122.785 80.1716 128.614 80.1716 134.818C80.1716 141.022 75.9908 146.858 68.4065 151.233C60.5943 155.742 50.3367 157.993 40.0858 157.993ZM40.0791 111.864C29.8617 111.864 19.6509 114.109 11.8723 118.598C4.36167 122.932 0.2211 128.694 0.2211 134.811C0.2211 140.935 4.35497 146.69 11.8723 151.025C27.4229 160.003 52.7286 160.003 68.2792 151.025C75.7898 146.69 79.9304 140.928 79.9304 134.811C79.9304 128.688 75.7965 122.932 68.2792 118.598C60.5072 114.109 50.2965 111.864 40.0791 111.864Z" fill="#419586"/>
<path d="M40.0795 149.236C33.7078 149.236 27.3429 147.836 22.4921 145.036C17.7754 142.309 15.1758 138.677 15.1758 134.811C15.1758 130.946 17.7754 127.314 22.4921 124.587C32.1869 118.986 47.972 118.986 57.6668 124.587C62.3836 127.314 64.9832 130.946 64.9832 134.811C64.9832 138.677 62.3836 142.309 57.6668 145.036C52.8228 147.836 46.4511 149.236 40.0795 149.236ZM40.0795 120.621C33.7547 120.621 27.4233 122.015 22.606 124.795C17.963 127.475 15.4036 131.033 15.4036 134.818C15.4036 138.597 17.963 142.155 22.606 144.841C32.2405 150.402 47.9184 150.402 57.553 144.841C62.196 142.161 64.7554 138.604 64.7554 134.818C64.7554 131.039 62.196 127.482 57.553 124.795C52.7357 122.015 46.4109 120.621 40.0795 120.621Z" fill="#419586"/>
<path d="M40.0796 139.522C39.1751 139.522 38.2706 139.321 37.5805 138.925L24.328 131.274C23.6379 130.879 23.2627 130.343 23.2627 129.767C23.2627 129.19 23.6446 128.654 24.328 128.259L37.5805 120.608C38.9607 119.81 41.1985 119.81 42.5786 120.608L55.8311 128.259C56.5212 128.654 56.8964 129.19 56.8964 129.767C56.8964 130.343 56.5145 130.879 55.8311 131.274L42.5786 138.925C41.8886 139.321 40.9841 139.522 40.0796 139.522ZM40.0796 120.233C39.2153 120.233 38.351 120.42 37.6944 120.802L24.4419 128.453C23.8322 128.808 23.4905 129.271 23.4905 129.76C23.4905 130.249 23.8255 130.711 24.4419 131.066L37.6944 138.718C39.0076 139.475 41.1449 139.475 42.4581 138.718L55.7105 131.066C56.3269 130.711 56.6619 130.249 56.6619 129.76C56.6619 129.271 56.3269 128.808 55.7105 128.453L42.4581 120.802C41.8082 120.427 40.9439 120.233 40.0796 120.233Z" fill="#419586"/>
<path opacity="0.4" d="M57.3113 126.825V122.289L56.4806 121.827C56.2461 123.247 54.5778 124.179 53.1842 124.373L43.6904 129.927L39.5431 131.421L26.3174 124.594L26.6256 124.42C25.4933 123.89 24.8836 122.684 24.2739 121.579L23.3828 122.108L22.8535 122.256V126.872C22.8535 127.462 23.2421 128.051 24.0193 128.493L37.2718 136.145C38.8262 137.042 41.3454 137.042 42.8998 136.145L56.1523 128.493C56.9161 128.051 57.3047 127.475 57.3181 126.899C57.3114 126.879 57.3113 126.852 57.3113 126.825Z" fill="#419586"/>
<path d="M57.3113 122.792V119.79L56.4806 119.328C56.2461 120.748 54.5778 121.68 53.1842 121.874L43.6904 127.428L39.5431 128.922L26.3174 122.095L26.6256 121.921C25.4933 121.392 24.8836 120.186 24.2739 119.08L23.3828 119.609L22.8535 119.757V122.839C22.8535 123.428 23.2421 124.018 24.0193 124.46L37.2718 132.111C38.8262 133.009 41.3454 133.009 42.8998 132.111L56.1523 124.46C56.9161 124.018 57.3047 123.442 57.3181 122.866C57.3114 122.845 57.3113 122.819 57.3113 122.792Z" fill="#55759A"/>
<path opacity="0.3" d="M53.1843 121.874L43.6905 127.428L40.0859 128.728V132.788C41.1043 132.788 42.1227 132.567 42.8999 132.118L56.1524 124.467C56.9162 124.025 57.3048 123.448 57.3182 122.872C57.3182 122.845 57.3182 122.819 57.3182 122.792V119.79L56.5611 119.368H56.4807C56.2127 120.762 54.5645 121.68 53.1843 121.874Z" fill="#0F054C"/>
<path d="M37.265 129.063L24.0125 121.412C22.4581 120.514 22.4581 119.06 24.0125 118.162L37.265 110.511C38.8194 109.613 41.3385 109.613 42.8929 110.511L56.1454 118.162C57.6998 119.06 57.6998 120.514 56.1454 121.412L42.8929 129.063C41.3452 129.961 38.8194 129.961 37.265 129.063Z" fill="#55759A"/>
<path d="M40.079 127.676C39.2616 127.676 38.4442 127.495 37.8211 127.14L27.4697 121.164C26.8466 120.802 26.5049 120.32 26.5049 119.79C26.5049 119.268 26.8466 118.779 27.4697 118.423L37.8211 112.447C39.0673 111.73 41.0907 111.73 42.3369 112.447L52.6883 118.423C53.3114 118.785 53.6531 119.268 53.6531 119.79C53.6531 120.313 53.3114 120.802 52.6883 121.157L42.3369 127.133C41.7138 127.495 40.8964 127.676 40.079 127.676ZM37.9417 126.939C39.1209 127.622 41.0438 127.622 42.223 126.939L52.5744 120.963C53.1238 120.648 53.4253 120.232 53.4253 119.797C53.4253 119.361 53.1238 118.946 52.5744 118.631L42.223 112.655C41.0438 111.971 39.1209 111.971 37.9417 112.655L27.5903 118.631C27.0409 118.946 26.7394 119.361 26.7394 119.797C26.7394 120.232 27.0409 120.648 27.5903 120.969L37.9417 126.939Z" fill="#70B8A1"/>
<path d="M56.1457 121.412L42.8932 129.063C41.3388 129.961 38.8196 129.961 37.2653 129.063L24.0128 121.412C23.316 121.01 22.9341 120.5 22.8604 119.971C22.7666 120.621 23.1552 121.284 24.0128 121.78L37.2653 129.431C38.8196 130.329 41.3388 130.329 42.8932 129.431L56.1457 121.78C57.0033 121.284 57.3852 120.614 57.2981 119.971C57.2244 120.5 56.8425 121.016 56.1457 121.412Z" fill="white"/>
<path d="M144.631 157.866C144.017 157.866 143.369 157.718 142.869 157.424L61.9096 110.564C61.4022 110.27 61.1084 109.868 61.1084 109.466C61.1084 109.125 61.3154 108.811 61.6959 108.596L110.007 80.6318C110.808 80.17 112.217 80.2235 113.138 80.759L194.097 127.619C194.605 127.913 194.899 128.315 194.899 128.716C194.899 129.058 194.692 129.372 194.311 129.586L146 157.551C145.633 157.758 145.145 157.866 144.631 157.866ZM62.0431 110.323L143.002 157.183C143.85 157.671 145.132 157.732 145.86 157.31L194.171 129.345C194.458 129.178 194.618 128.951 194.618 128.71C194.618 128.408 194.378 128.094 193.951 127.846L112.991 80.9866C112.143 80.498 110.862 80.4444 110.134 80.8594L61.8228 108.824C61.5357 108.991 61.3755 109.219 61.3755 109.46C61.3821 109.768 61.6225 110.082 62.0431 110.323Z" fill="#419586"/>
<path d="M195.069 120.333L190.593 119.69L113.088 74.9408C112.197 74.4249 110.85 74.3713 110.086 74.8135L63.9238 101.466L61.083 101.057V104.829H61.0897C61.0964 105.164 61.3376 105.519 61.82 105.801L143.064 152.707C143.955 153.223 145.301 153.277 146.065 152.834L194.546 124.842C194.901 124.634 195.062 124.36 195.055 124.078H195.062V120.333H195.069Z" fill="#223040"/>
<path d="M61.8138 102.056L143.057 148.962C143.948 149.478 145.295 149.531 146.059 149.089L194.54 121.097C195.31 120.655 195.216 119.877 194.325 119.362L113.082 72.4552C112.191 71.9394 110.844 71.8858 110.08 72.3279L61.5994 100.32C60.8289 100.763 60.9227 101.54 61.8138 102.056Z" fill="#344E6C"/>
<path opacity="0.3" d="M68.8483 102.973L141.469 144.902C142.266 145.357 143.466 145.411 144.156 145.016L187.491 119.998C188.181 119.603 188.094 118.906 187.297 118.45L114.676 76.522C113.879 76.0664 112.679 76.0128 111.989 76.4081L68.654 101.426C67.9706 101.821 68.0577 102.511 68.8483 102.973Z" fill="#223040"/>
<path d="M194.546 120.688L146.065 148.681C145.295 149.123 143.948 149.069 143.064 148.553L61.8203 101.647C61.4317 101.419 61.2039 101.145 61.1235 100.87C61.0029 101.265 61.2374 101.714 61.8203 102.056L143.064 148.962C143.955 149.478 145.302 149.532 146.065 149.089L194.546 121.097C194.982 120.849 195.129 120.494 195.029 120.139C194.962 120.34 194.808 120.534 194.546 120.688Z" fill="white"/>
<path d="M113.138 59.9547L123.056 1.12181L122.259 0.783688L123.455 0.0987714V0.10745C123.689 -0.0486058 124.019 -0.0399429 124.383 0.168131L203.642 45.927C204.292 46.2998 204.786 47.2622 204.673 47.9384L194.677 107.239C194.625 107.552 194.469 107.751 194.261 107.846L193.091 108.523L192.891 107.43L192.961 107.447L114.187 61.966C113.511 61.5932 113.026 60.6309 113.138 59.9547Z" fill="#344E6C"/>
<path d="M203.19 47.5309L204.491 46.9587C204.638 47.2882 204.708 47.6437 204.656 47.9384L194.659 107.239C194.607 107.552 194.451 107.751 194.243 107.846L193.073 108.523L192.874 107.43L192.943 107.448L188.955 105.15L203.19 47.5309Z" fill="#55759A"/>
<path d="M112.922 62.6857L192.181 108.445C192.796 108.8 193.316 108.592 193.42 107.959L203.417 48.658C203.529 47.9818 203.035 47.0194 202.385 46.6466L123.126 0.887753C122.511 0.532293 121.99 0.740365 121.886 1.37326L111.89 60.6743C111.777 61.3419 112.272 62.3042 112.922 62.6857Z" fill="#192533"/>
<g opacity="0.51">
<path d="M124.167 4.66766L200.564 48.7706L191.088 104.63L114.743 60.5441L124.167 4.66766Z" fill="#2A3A4D"/>
</g>
<path d="M63.0943 90.7579L67.4205 93.0207L110.795 67.9825C111.523 67.5663 112.789 67.6183 113.63 68.1038L188.433 111.288C189.152 110.889 192.412 109.32 192.412 109.32L190.826 113.447C190.826 113.447 190.817 113.447 190.817 113.438C190.748 113.62 190.609 113.793 190.375 113.932L144.694 140.305C143.966 140.722 142.7 140.67 141.859 140.184L65.3137 95.9857C64.9669 95.7863 64.7589 95.5436 64.6722 95.3008H64.6635L63.0943 90.7579Z" fill="#55759A"/>
<path d="M63.771 91.4692L142.223 136.76C143.082 137.254 144.382 137.306 145.128 136.881L191.944 109.849C192.69 109.416 192.595 108.67 191.736 108.176L113.284 62.8851C112.426 62.3909 111.125 62.3389 110.38 62.7637L63.563 89.7959C62.8174 90.2208 62.9127 90.975 63.771 91.4692Z" fill="#344E6C"/>
<path d="M63.7712 91.0181L142.224 136.309C143.082 136.803 144.382 136.855 145.128 136.43L191.945 109.398C192.187 109.259 192.335 109.077 192.396 108.895C192.517 109.251 192.369 109.606 191.945 109.857L145.128 136.89C144.382 137.323 143.082 137.262 142.224 136.768L63.7712 91.4775C63.1904 91.1481 62.9736 90.6973 63.1123 90.3071C63.1904 90.5586 63.4071 90.81 63.7712 91.0181Z" fill="#EDE7D9"/>
<path d="M165.883 126.963V126.105C165.883 126.027 165.831 125.983 165.77 126.018L162.736 127.769C162.675 127.804 162.623 127.899 162.623 127.977V128.836C162.623 128.914 162.675 128.957 162.736 128.922L165.77 127.171C165.831 127.145 165.883 127.05 165.883 126.963Z" fill="#010101"/>
<path d="M161.34 129.581V128.723C161.34 128.645 161.288 128.602 161.227 128.636L158.193 130.388C158.132 130.422 158.08 130.518 158.08 130.596V131.454C158.08 131.532 158.132 131.576 158.193 131.541L161.227 129.79C161.296 129.764 161.34 129.668 161.34 129.581Z" fill="#010101"/>
<g opacity="0.11">
<mask id="mask0_425_8070" style="mask-type:luminance" maskUnits="userSpaceOnUse" x="114" y="4" width="87" height="101">
<path d="M124.167 4.66766L200.564 48.7706L191.088 104.63L114.743 60.5441L124.167 4.66766Z" fill="white"/>
</mask>
<g mask="url(#mask0_425_8070)">
<path d="M206.391 63.1277L188.817 52.9754C188.132 52.5766 187.014 52.5766 186.329 52.9754L174.304 59.9112C174.096 60.0326 173.957 60.18 173.871 60.336C173.689 59.9893 173.827 59.5991 174.304 59.3217L186.329 52.3859C187.014 51.9871 188.132 51.9871 188.817 52.3859L206.4 62.5382C206.876 62.8156 207.015 63.2057 206.833 63.5525C206.746 63.3965 206.608 63.2491 206.391 63.1277Z" fill="#192533"/>
<path d="M194.383 91.6857L199.42 94.5987L197.174 95.8992L192.129 92.9861L194.383 91.6857Z" fill="#192533"/>
<path d="M189.926 96.0295L193.438 98.0583L191.192 99.3587L187.681 97.33L189.926 96.0295Z" fill="#192533"/>
</g>
</g>
<path d="M189.816 49.2583C189.648 49.2583 189.469 49.2064 189.296 49.1083C188.771 48.8083 188.448 48.1218 188.569 47.5794C188.627 47.3198 188.783 47.1236 189.002 47.0256C189.244 46.9217 189.544 46.9505 189.827 47.1121C190.352 47.4121 190.675 48.0987 190.554 48.641C190.496 48.9006 190.341 49.0968 190.121 49.1949C190.023 49.241 189.919 49.2583 189.816 49.2583ZM189.314 47.2044C189.239 47.2044 189.169 47.2159 189.1 47.2448C188.95 47.3083 188.846 47.4467 188.8 47.6314C188.696 48.0756 188.973 48.6468 189.412 48.9006C189.625 49.0218 189.844 49.0506 190.023 48.9756C190.173 48.9122 190.277 48.7737 190.323 48.5891C190.427 48.1448 190.15 47.5737 189.712 47.3198C189.579 47.2448 189.441 47.2044 189.314 47.2044Z" fill="#42E8E0"/>
<path d="M192.643 50.8911C192.475 50.8911 192.297 50.8392 192.123 50.7411C191.598 50.4411 191.275 49.7545 191.397 49.2122C191.454 48.9525 191.61 48.7564 191.829 48.6583C192.072 48.5545 192.372 48.5833 192.654 48.7448C193.179 49.0449 193.502 49.7314 193.381 50.2738C193.324 50.5334 193.168 50.7296 192.949 50.8276C192.85 50.8738 192.747 50.8911 192.643 50.8911ZM192.141 48.8372C192.066 48.8372 191.997 48.8487 191.927 48.8775C191.777 48.941 191.673 49.0795 191.627 49.2641C191.523 49.7083 191.8 50.2795 192.239 50.5334C192.452 50.6546 192.672 50.6834 192.85 50.6084C193 50.5449 193.104 50.4065 193.15 50.2218C193.254 49.7776 192.977 49.2064 192.539 48.9525C192.406 48.8775 192.268 48.8372 192.141 48.8372Z" fill="#42E8E0"/>
<path d="M196.093 51.8833C195.978 52.3795 195.493 52.5526 195.008 52.2699C194.524 51.993 194.224 51.3641 194.339 50.8679C194.455 50.3717 194.939 50.1986 195.424 50.4813C195.908 50.764 196.208 51.3872 196.093 51.8833Z" fill="#42E8E0"/>
<path d="M132.395 14.8729L130.884 14.0017L130.999 13.3036L132.511 14.1748L132.395 14.8729Z" fill="#42E8E0"/>
<path d="M134.594 16.1422L133.082 15.271L133.197 14.5729L134.709 15.4441L134.594 16.1422Z" fill="#42E8E0"/>
<path d="M130.221 13.6209L126.903 11.7054L127.019 11.0073L130.336 12.9228L130.221 13.6209Z" fill="#42E8E0"/>
<path opacity="0.8" d="M127.911 115.167L107.238 103.23C105.142 102.018 105.142 100.047 107.238 98.8351L127.911 86.8981C130.008 85.686 133.426 85.686 135.522 86.8981L156.195 98.8351C158.291 100.047 158.291 102.018 156.195 103.23L135.522 115.167C133.426 116.379 130.008 116.379 127.911 115.167Z" fill="#223040"/>
<path d="M157.836 98.3792V93.827L156.578 93.1289C156.22 95.2752 153.693 96.6887 151.582 96.9829L137.193 105.395L130.915 107.662L110.872 97.3176L111.334 97.0522C109.62 96.2502 108.697 94.4213 107.774 92.7539L106.424 93.5559L105.622 93.7809V98.4484C105.622 99.3427 106.211 100.231 107.388 100.912L127.465 112.503C129.814 113.859 133.644 113.859 135.993 112.503L156.07 100.912C157.224 100.243 157.813 99.3715 157.836 98.4945C157.836 98.4542 157.836 98.4195 157.836 98.3792Z" fill="#55759A"/>
<path opacity="0.3" d="M151.587 96.9887L137.198 105.401L131.734 107.374V113.524C133.281 113.524 134.821 113.184 135.998 112.509L156.076 100.918C157.23 100.248 157.818 99.3773 157.841 98.5003C157.841 98.4599 157.841 98.4195 157.841 98.3849V93.8328L156.693 93.1924H156.572C156.174 95.304 153.676 96.6945 151.587 96.9887Z" fill="#0F054C"/>
<path d="M111.34 97.058L130.368 86.0729C131.118 85.6402 132.347 85.6402 133.097 86.0729L151.79 96.8676L151.582 96.9888C153.694 96.6946 156.221 95.281 156.578 93.1348L135.595 81.4631L129.491 79.8477L124.517 82.767L107.769 92.754C108.703 94.4271 109.626 96.2561 111.34 97.058Z" fill="#C1D5ED"/>
<path opacity="0.3" d="M131.729 80.4362L129.491 79.8419L124.517 82.7613L107.769 92.7483C108.697 94.4156 109.621 96.2503 111.328 97.0465L130.356 86.0614C130.731 85.8422 131.227 85.7326 131.723 85.7383V80.4362H131.729Z" fill="#0F054C"/>
<path d="M127.471 107.882L107.393 96.2906C105.039 94.9348 105.039 92.7251 107.393 91.3693L127.471 79.7783C129.819 78.4225 133.65 78.4225 135.999 79.7783L156.076 91.3693C158.425 92.7251 158.43 94.9348 156.076 96.2906L135.999 107.882C133.645 109.243 129.819 109.243 127.471 107.882ZM133.096 81.4515C132.346 81.0188 131.118 81.0188 130.367 81.4515L110.29 93.0424C109.54 93.4751 109.54 94.1848 110.29 94.6175L130.367 106.208C131.118 106.641 132.346 106.641 133.096 106.208L153.174 94.6175C153.924 94.1848 153.924 93.4751 153.174 93.0424L133.096 81.4515Z" fill="#70B8A1"/>
<path d="M153.174 93.0424L133.096 81.4515C132.346 81.0188 131.117 81.0188 130.367 81.4515L110.289 93.0424C109.787 93.3309 109.62 93.7406 109.787 94.1156C109.874 93.9309 110.035 93.7579 110.289 93.6079L130.367 82.017C131.117 81.5842 132.346 81.5842 133.096 82.017L153.174 93.6079C153.422 93.7521 153.589 93.9252 153.676 94.1098C153.843 93.7406 153.676 93.3309 153.174 93.0424Z" fill="white"/>
<path d="M156.076 96.2906L135.998 107.882C133.65 109.237 129.819 109.237 127.471 107.882L107.393 96.2906C106.343 95.6848 105.76 94.9059 105.651 94.1097C105.512 95.0906 106.095 96.106 107.393 96.856L127.471 108.447C129.819 109.803 133.65 109.803 135.998 108.447L156.076 96.856C157.374 96.106 157.957 95.0963 157.818 94.1097C157.703 94.9059 157.126 95.6848 156.076 96.2906Z" fill="white"/>
<path d="M128.037 107.558L107.959 95.9675C105.922 94.7906 105.922 92.8751 107.959 91.6981L128.037 80.1072C130.074 78.9302 133.391 78.9302 135.428 80.1072L155.505 91.6981C157.542 92.8751 157.542 94.7906 155.505 95.9675L135.428 107.558C133.391 108.735 130.074 108.735 128.037 107.558ZM133.662 81.1226C132.595 80.5053 130.864 80.5053 129.797 81.1226L109.719 92.7136C108.651 93.3309 108.651 94.329 109.719 94.9463L129.797 106.537C130.864 107.155 132.595 107.155 133.662 106.537L153.74 94.9463C154.807 94.329 154.807 93.3309 153.74 92.7136L133.662 81.1226Z" fill="#2E585C"/>
<path opacity="0.4" d="M133.097 81.4516C132.347 81.0189 131.118 81.0189 130.368 81.4516L110.29 93.0425C109.54 93.4752 109.54 94.1849 110.29 94.6176L130.368 106.208C131.118 106.641 132.347 106.641 133.097 106.208L153.175 94.6176C153.925 94.1849 153.925 93.4752 153.175 93.0425L133.097 81.4516Z" fill="#419586"/>
<path opacity="0.4" d="M157.836 94.3234V87.4462L156.578 86.7481C156.22 88.8943 153.693 90.3078 151.582 90.6021L137.193 99.014L130.915 101.281L110.872 90.9367L111.334 90.6713C109.62 89.8694 108.697 88.0404 107.774 86.373L106.424 87.175L105.622 87.4V94.3926C105.622 95.2869 106.211 96.1754 107.388 96.8562L127.465 108.447C129.814 109.803 133.644 109.803 135.993 108.447L156.07 96.8562C157.224 96.1869 157.813 95.3157 157.836 94.4388C157.836 94.3984 157.836 94.3638 157.836 94.3234Z" fill="#419586"/>
<path d="M157.836 88.2135V83.6614L156.578 82.9633C156.22 85.1095 153.693 86.523 151.582 86.8173L137.193 95.2292L130.915 97.4966L110.872 87.1519L111.334 86.8865C109.62 86.0846 108.697 84.2556 107.774 82.5883L106.424 83.3902L105.622 83.6152V88.2827C105.622 89.177 106.211 90.0655 107.388 90.7463L127.465 102.337C129.814 103.693 133.644 103.693 135.993 102.337L156.07 90.7463C157.224 90.0771 157.813 89.2059 157.836 88.3289C157.836 88.2885 157.836 88.2481 157.836 88.2135Z" fill="#55759A"/>
<path opacity="0.3" d="M151.587 86.8173L137.198 95.2292L131.734 97.2024V103.353C133.281 103.353 134.821 103.012 135.998 102.337L156.076 90.7463C157.23 90.0771 157.818 89.2059 157.841 88.3289C157.841 88.2885 157.841 88.2482 157.841 88.2135V83.6614L156.693 83.021H156.572C156.174 85.1384 153.676 86.5288 151.587 86.8173Z" fill="#0F054C"/>
<path d="M111.34 86.8923L130.368 75.9072C131.118 75.4745 132.347 75.4745 133.097 75.9072L151.79 86.7019L151.582 86.823C153.694 86.5288 156.221 85.1153 156.578 82.969L135.595 71.2973L129.491 69.6819L124.517 72.6013L107.769 82.5882C108.703 84.2614 109.626 86.0903 111.34 86.8923Z" fill="#C1D5ED"/>
<path opacity="0.3" d="M131.729 70.2704L129.491 69.6761L124.517 72.5955L107.769 82.5825C108.697 84.2499 109.621 86.0846 111.328 86.8808L130.356 75.8957C130.731 75.6764 131.227 75.5668 131.723 75.5726V70.2704H131.729Z" fill="#0F054C"/>
<path d="M127.471 97.7159L107.393 86.125C105.039 84.7692 105.039 82.5595 107.393 81.2037L127.471 69.6128C129.819 68.2569 133.65 68.2569 135.999 69.6128L156.076 81.2037C158.425 82.5595 158.43 84.7692 156.076 86.125L135.999 97.7159C133.645 99.0775 129.819 99.0775 127.471 97.7159ZM133.096 71.2801C132.346 70.8474 131.118 70.8474 130.367 71.2801L110.29 82.871C109.54 83.3037 109.54 84.0134 110.29 84.4461L130.367 96.037C131.118 96.4697 132.346 96.4697 133.096 96.037L153.174 84.4461C153.924 84.0134 153.924 83.3037 153.174 82.871L133.096 71.2801Z" fill="#70B8A1"/>
<path d="M153.174 82.8767L133.096 71.2858C132.346 70.8531 131.117 70.8531 130.367 71.2858L110.289 82.8767C109.787 83.1652 109.62 83.5748 109.787 83.9499C109.874 83.7652 110.035 83.5921 110.289 83.4421L130.367 71.8512C131.117 71.4185 132.346 71.4185 133.096 71.8512L153.174 83.4421C153.422 83.5864 153.589 83.7595 153.676 83.9441C153.843 83.5748 153.676 83.1652 153.174 82.8767Z" fill="white"/>
<path d="M156.076 86.125L135.998 97.7159C133.65 99.0717 129.819 99.0717 127.471 97.7159L107.393 86.125C106.343 85.5192 105.76 84.7403 105.651 83.9441C105.512 84.9249 106.095 85.9403 107.393 86.6904L127.471 98.2813C129.819 99.6371 133.65 99.6371 135.998 98.2813L156.076 86.6904C157.374 85.9403 157.957 84.9307 157.818 83.9441C157.703 84.7403 157.126 85.5192 156.076 86.125Z" fill="white"/>
<path d="M128.037 97.3928L107.959 85.8019C105.922 84.6249 105.922 82.7094 107.959 81.5325L128.037 69.9416C130.074 68.7646 133.391 68.7646 135.428 69.9416L155.505 81.5325C157.542 82.7094 157.542 84.6249 155.505 85.8019L135.428 97.3928C133.391 98.564 130.074 98.564 128.037 97.3928ZM133.662 70.957C132.595 70.3397 130.864 70.3397 129.797 70.957L109.719 82.5479C108.651 83.1652 108.651 84.1634 109.719 84.7807L129.797 96.3716C130.864 96.9889 132.595 96.9889 133.662 96.3716L153.74 84.7807C154.807 84.1634 154.807 83.1652 153.74 82.5479L133.662 70.957Z" fill="#223040"/>
<path opacity="0.4" d="M133.097 71.2801C132.347 70.8474 131.118 70.8474 130.368 71.2801L110.29 82.871C109.54 83.3037 109.54 84.0134 110.29 84.4461L130.368 96.037C131.118 96.4697 132.347 96.4697 133.097 96.037L153.175 84.4461C153.925 84.0134 153.925 83.3037 153.175 82.871L133.097 71.2801Z" fill="#419586"/>
<path opacity="0.4" d="M157.836 84.1574V77.2802L156.578 76.5821C156.22 78.7284 153.693 80.1419 151.582 80.4361L137.193 88.848L130.915 91.1154L110.872 80.7708L111.334 80.5054C109.62 79.7034 108.697 77.8745 107.774 76.2071L106.424 77.0091L105.622 77.2341V84.2267C105.622 85.1209 106.211 86.0094 107.388 86.6902L127.465 98.2811C129.814 99.637 133.644 99.637 135.993 98.2811L156.07 86.6902C157.224 86.021 157.813 85.1498 157.836 84.2728C157.836 84.2324 157.836 84.1921 157.836 84.1574Z" fill="#419586"/>
<path d="M157.836 78.0475V73.4954L156.578 72.7973C156.22 74.9435 153.693 76.357 151.582 76.6513L137.193 85.0632L130.915 87.3306L110.872 76.9859L111.334 76.7205C109.62 75.9186 108.697 74.0896 107.774 72.4222L106.424 73.2242L105.622 73.4492V78.1167C105.622 79.011 106.211 79.8995 107.388 80.5803L127.465 92.1712C129.814 93.527 133.644 93.527 135.993 92.1712L156.07 80.5803C157.224 79.911 157.813 79.0398 157.836 78.1629C157.836 78.1225 157.836 78.0821 157.836 78.0475Z" fill="#55759A"/>
<path opacity="0.3" d="M151.587 76.6513L137.198 85.0632L131.734 87.0364V93.1867C133.281 93.1867 134.821 92.8463 135.998 92.1712L156.076 80.5803C157.23 79.9111 157.818 79.0399 157.841 78.1629C157.841 78.1225 157.841 78.0821 157.841 78.0475V73.4954L156.693 72.855H156.572C156.174 74.9666 153.676 76.3628 151.587 76.6513Z" fill="#0F054C"/>
<path d="M111.34 76.7206L130.368 65.7355C131.118 65.3028 132.347 65.3028 133.097 65.7355L151.79 76.5302L151.582 76.6514C153.694 76.3571 156.221 74.9436 156.578 72.7974L135.595 61.1257L129.491 59.5103L124.517 62.4296L107.769 72.4166C108.703 74.0897 109.626 75.9244 111.34 76.7206Z" fill="#C1D5ED"/>
<path opacity="0.3" d="M131.729 60.1045L129.491 59.5103L124.517 62.4296L107.769 72.4166C108.697 74.084 109.621 75.9187 111.328 76.7149L130.356 65.7298C130.731 65.5105 131.227 65.4009 131.723 65.4067V60.1045H131.729Z" fill="#0F054C"/>
<path d="M127.471 87.55L107.393 75.9591C105.039 74.6032 105.039 72.3935 107.393 71.0377L127.471 59.4468C129.819 58.091 133.65 58.091 135.999 59.4468L156.076 71.0377C158.425 72.3935 158.43 74.6032 156.076 75.9591L135.999 87.55C133.645 88.9058 129.819 88.9058 127.471 87.55ZM133.096 61.1142C132.346 60.6815 131.118 60.6815 130.367 61.1142L110.29 72.7051C109.54 73.1378 109.54 73.8474 110.29 74.2802L130.367 85.8711C131.118 86.3038 132.346 86.3038 133.096 85.8711L153.174 74.2802C153.924 73.8474 153.924 73.1378 153.174 72.7051L133.096 61.1142Z" fill="#70B8A1"/>
<path d="M153.174 72.7052L133.096 61.1143C132.346 60.6816 131.117 60.6816 130.367 61.1143L110.289 72.7052C109.787 72.9937 109.62 73.4091 109.787 73.7784C109.874 73.5937 110.035 73.4206 110.289 73.2706L130.367 61.6797C131.117 61.247 132.346 61.247 133.096 61.6797L153.174 73.2706C153.422 73.4149 153.589 73.588 153.676 73.7726C153.843 73.4091 153.676 72.9995 153.174 72.7052Z" fill="white"/>
<path d="M156.076 75.9592L135.998 87.5501C133.65 88.906 129.819 88.906 127.471 87.5501L107.393 75.9592C106.343 75.3535 105.76 74.5746 105.651 73.7784C105.512 74.7592 106.095 75.7746 107.393 76.5247L127.471 88.1156C129.819 89.4714 133.65 89.4714 135.998 88.1156L156.076 76.5247C157.374 75.7746 157.957 74.765 157.818 73.7784C157.703 74.5746 157.126 75.3535 156.076 75.9592Z" fill="white"/>
<path d="M128.037 87.221L107.959 75.6301C105.922 74.4532 105.922 72.5377 107.959 71.3607L128.037 59.7698C130.074 58.5928 133.391 58.5928 135.428 59.7698L155.505 71.3607C157.542 72.5377 157.542 74.4532 155.505 75.6301L135.428 87.221C133.391 88.398 130.074 88.398 128.037 87.221ZM133.662 60.7852C132.595 60.1679 130.864 60.1679 129.797 60.7852L109.719 72.3761C108.651 72.9935 108.651 73.9916 109.719 74.6089L129.797 86.1998C130.864 86.8172 132.595 86.8172 133.662 86.1998L153.74 74.6089C154.807 73.9916 154.807 72.9935 153.74 72.3761L133.662 60.7852Z" fill="#223040"/>
<path opacity="0.4" d="M133.097 61.1142C132.347 60.6815 131.118 60.6815 130.368 61.1142L110.29 72.7051C109.54 73.1378 109.54 73.8475 110.29 74.2802L130.368 85.8711C131.118 86.3038 132.347 86.3038 133.097 85.8711L153.175 74.2802C153.925 73.8475 153.925 73.1378 153.175 72.7051L133.097 61.1142Z" fill="#419586"/>
<path opacity="0.4" d="M157.836 73.9917V67.1144L156.578 66.4163C156.22 68.5626 153.693 69.9761 151.582 70.2704L137.193 78.6823L130.915 80.9497L110.872 70.605L111.334 70.3396C109.62 69.5376 108.697 67.7087 107.774 66.0413L106.424 66.8433L105.622 67.0683V74.0609C105.622 74.9552 106.211 75.8437 107.388 76.5245L127.465 88.1154C129.814 89.4712 133.644 89.4712 135.993 88.1154L156.07 76.5245C157.224 75.8552 157.813 74.984 157.836 74.1071C157.836 74.0667 157.836 74.0263 157.836 73.9917Z" fill="#419586"/>
<path d="M157.836 67.8759V63.3238L156.578 62.6257C156.22 64.7719 153.693 66.1855 151.582 66.4797L137.193 74.8916L130.915 77.159L110.872 66.8143L111.334 66.5489C109.62 65.747 108.697 63.9181 107.774 62.2507L106.424 63.0526L105.622 63.2776V67.9452C105.622 68.8394 106.211 69.7279 107.388 70.4087L127.465 81.9996C129.814 83.3555 133.644 83.3555 135.993 81.9996L156.07 70.4087C157.224 69.7395 157.813 68.8683 157.836 67.9913C157.836 67.9567 157.836 67.9163 157.836 67.8759Z" fill="#55759A"/>
<path opacity="0.3" d="M151.587 66.4855L137.198 74.8974L131.734 76.8706V83.0209C133.281 83.0209 134.821 82.6805 135.998 82.0054L156.076 70.4146C157.23 69.7453 157.818 68.8741 157.841 67.9971C157.841 67.9567 157.841 67.9164 157.841 67.8817V63.3296L156.693 62.6892H156.572C156.174 64.8008 153.676 66.1913 151.587 66.4855Z" fill="#0F054C"/>
<path d="M111.34 66.5549L130.368 55.5698C131.118 55.137 132.347 55.137 133.097 55.5698L151.79 66.3645L151.582 66.4856C153.694 66.1914 156.221 64.7779 156.578 62.6316L135.595 50.9599L129.491 49.3445L124.517 52.2638L107.769 62.2508C108.703 63.924 109.626 65.7529 111.34 66.5549Z" fill="#C1D5ED"/>
<path opacity="0.3" d="M131.729 49.9387L129.491 49.3445L124.517 52.2638L107.769 62.2508C108.697 63.9182 109.621 65.7529 111.328 66.5491L130.356 55.564C130.731 55.3448 131.227 55.2351 131.723 55.2409V49.9387H131.729Z" fill="#0F054C"/>
<path d="M127.471 77.384L107.393 65.7931C105.039 64.4373 105.039 62.2276 107.393 60.8718L127.471 49.2808C129.819 47.925 133.65 47.925 135.999 49.2808L156.076 60.8718C158.425 62.2276 158.43 64.4373 156.076 65.7931L135.999 77.384C133.645 78.7398 129.819 78.7398 127.471 77.384ZM133.096 50.9482C132.346 50.5155 131.118 50.5155 130.367 50.9482L110.29 62.5391C109.54 62.9718 109.54 63.6815 110.29 64.1142L130.367 75.7051C131.118 76.1378 132.346 76.1378 133.096 75.7051L153.174 64.1142C153.924 63.6815 153.924 62.9718 153.174 62.5391L133.096 50.9482Z" fill="#419586"/>
<path d="M153.174 62.5392L133.096 50.9483C132.346 50.5156 131.117 50.5156 130.367 50.9483L110.289 62.5392C109.787 62.8277 109.62 63.2431 109.787 63.6123C109.874 63.4277 110.035 63.2546 110.289 63.1046L130.367 51.5137C131.117 51.081 132.346 51.081 133.096 51.5137L153.174 63.1046C153.422 63.2489 153.589 63.4219 153.676 63.6066C153.843 63.2431 153.676 62.8277 153.174 62.5392Z" fill="white"/>
<path d="M156.076 65.7873L135.998 77.3782C133.65 78.734 129.819 78.734 127.471 77.3782L107.393 65.7873C106.343 65.1815 105.76 64.4026 105.651 63.6064C105.512 64.5873 106.095 65.6027 107.393 66.3527L127.471 77.9436C129.819 79.2995 133.65 79.2995 135.998 77.9436L156.076 66.3527C157.374 65.6027 157.957 64.593 157.818 63.6064C157.703 64.4084 157.126 65.1815 156.076 65.7873Z" fill="white"/>
<path d="M128.037 77.0553L107.959 65.4644C105.922 64.2874 105.922 62.3719 107.959 61.1949L128.037 49.604C130.074 48.4271 133.391 48.4271 135.428 49.604L155.505 61.1949C157.542 62.3719 157.542 64.2874 155.505 65.4644L135.428 77.0553C133.391 78.2322 130.074 78.2322 128.037 77.0553ZM133.662 50.6195C132.595 50.0021 130.864 50.0021 129.797 50.6195L109.719 62.2104C108.651 62.8277 108.651 63.8258 109.719 64.4432L129.797 76.0341C130.864 76.6514 132.595 76.6514 133.662 76.0341L153.74 64.4432C154.807 63.8258 154.807 62.8277 153.74 62.2104L133.662 50.6195Z" fill="#2E585C"/>
<path opacity="0.4" d="M133.097 50.9484C132.347 50.5157 131.118 50.5157 130.368 50.9484L110.29 62.5393C109.54 62.972 109.54 63.6817 110.29 64.1144L130.368 75.7053C131.118 76.138 132.347 76.138 133.097 75.7053L153.175 64.1144C153.925 63.6817 153.925 62.972 153.175 62.5393L133.097 50.9484Z" fill="#419586"/>
<path opacity="0.5" d="M153.74 25.6838H109.724V63.3124C109.713 63.6067 109.903 63.9009 110.29 64.1202L130.367 75.7111C131.117 76.1438 132.346 76.1438 133.096 75.7111L153.174 64.1202C153.549 63.9009 153.74 63.6182 153.74 63.3297V25.6838Z" fill="url(#paint0_linear_425_8070)"/>
<defs>
<linearGradient id="paint0_linear_425_8070" x1="131.732" y1="76.0355" x2="131.732" y2="25.6823" gradientUnits="userSpaceOnUse">
<stop stop-color="#42E8E0" stop-opacity="0.65"/>
<stop offset="1" stop-color="#37B6BF" stop-opacity="0"/>
</linearGradient>
</defs>
</svg>
