<svg width="42" height="41" viewBox="0 0 42 41" fill="none" xmlns="http://www.w3.org/2000/svg">
<path fill-rule="evenodd" clip-rule="evenodd" d="M21.0005 0C9.40419 0 0 9.40172 0 21.0005C0 30.2788 6.01706 38.1509 14.3615 40.9274C15.4109 41.1219 15.7964 40.4718 15.7964 39.917C15.7964 39.4165 15.7767 37.7619 15.7678 36.0076C9.92495 37.2777 8.69241 33.5297 8.69241 33.5297C7.73728 31.1021 6.36061 30.4565 6.36061 30.4565C4.45529 29.1534 6.50376 29.18 6.50376 29.18C8.61294 29.3281 9.72356 31.3445 9.72356 31.3445C11.5963 34.5549 14.6364 33.6265 15.8344 33.0899C16.0235 31.7325 16.5674 30.8055 17.1681 30.2813C12.5035 29.7507 7.60006 27.9495 7.60006 19.9027C7.60006 17.6099 8.42044 15.7367 9.76403 14.2657C9.54586 13.7366 8.82717 11.6002 9.9674 8.70771C9.9674 8.70771 11.7306 8.14402 15.7426 10.8613C17.4184 10.3958 19.2151 10.1624 20.9995 10.1545C22.7844 10.1629 24.5821 10.3963 26.2604 10.8613C30.2684 8.14451 32.0296 8.70821 32.0296 8.70821C33.1728 11.6007 32.4541 13.7366 32.236 14.2662C33.5825 15.7362 34.397 17.6099 34.397 19.9032C34.397 27.9687 29.4841 29.7447 24.8077 30.264C25.5609 30.9156 26.2322 32.194 26.2322 34.1536C26.2322 36.9632 26.2085 39.2244 26.2085 39.916C26.2085 40.4738 26.5866 41.1293 27.6509 40.9229C35.9908 38.143 42 30.2739 42 20.9985C42.001 9.40222 32.5988 0 21.0005 0Z" fill="#192533"/>
<path d="M7.95454 30.1515C7.90765 30.2562 7.74328 30.2873 7.59421 30.2157C7.44119 30.1466 7.35629 30.0049 7.40565 29.8998C7.45008 29.7932 7.61494 29.763 7.76747 29.8346C7.92049 29.9037 8.00687 30.0469 7.95454 30.1515ZM8.80503 31.1012C8.70483 31.1935 8.50886 31.1506 8.37559 31.0035C8.23837 30.8569 8.2127 30.6609 8.31438 30.5671C8.41705 30.4743 8.60709 30.5178 8.74382 30.6644C8.88203 30.8124 8.90918 31.0064 8.80453 31.1007L8.80503 31.1012ZM9.63281 32.3096C9.50447 32.3994 9.2937 32.3155 9.16388 32.1284C9.03456 31.9423 9.03456 31.7187 9.16635 31.6284C9.29666 31.5385 9.50397 31.6195 9.63527 31.8046C9.7646 31.9946 9.7646 32.2187 9.63281 32.3096ZM10.7671 33.4784C10.6521 33.6053 10.4068 33.5712 10.2276 33.398C10.044 33.2287 9.99314 32.9883 10.1081 32.8614C10.2251 32.7346 10.4714 32.7701 10.6521 32.9419C10.8347 33.1107 10.89 33.3521 10.7671 33.4784ZM12.3328 34.1566C12.2815 34.3215 12.0456 34.396 11.8076 34.3264C11.5697 34.2544 11.4147 34.0619 11.4621 33.896C11.5115 33.7302 11.7494 33.6527 11.9888 33.7272C12.2257 33.7983 12.3817 33.9888 12.3328 34.1566ZM14.0506 34.2825C14.057 34.4553 13.8551 34.5994 13.6054 34.6024C13.3546 34.6083 13.1512 34.4681 13.1483 34.2973C13.1483 34.1226 13.3457 33.9804 13.5965 33.9765C13.8462 33.9715 14.0506 34.1107 14.0506 34.2825ZM15.6499 34.0105C15.6795 34.1793 15.5067 34.3531 15.2584 34.399C15.0146 34.4444 14.7895 34.3398 14.7579 34.1719C14.7283 33.9992 14.9045 33.8264 15.1479 33.781C15.3962 33.7376 15.6183 33.8388 15.6499 34.0105Z" fill="#192533"/>
</svg>
