<svg width="72" height="48" viewBox="0 0 72 48" fill="none" xmlns="http://www.w3.org/2000/svg">
<path d="M64.6023 23.1781C65.0423 23.3681 65.4123 23.5182 65.7723 23.6682C70.8323 25.7082 72.7923 29.9481 71.0423 35.1181C70.7023 36.1181 70.3423 37.1282 69.8723 38.0681C67.5923 42.6381 63.9023 44.5281 58.3123 43.9881C57.0223 43.8681 55.7523 43.5881 54.4623 43.4881C53.9223 43.4481 53.2523 43.5281 52.8223 43.8181C45.9423 48.4581 38.4823 48.8082 30.7823 46.6482C23.9523 44.7282 17.2923 42.3482 11.4223 38.2082C5.78229 34.2382 1.41231 29.3081 0.32231 22.2481C-0.47769 16.9981 0.332295 11.7681 1.43229 6.61814C2.58229 1.25814 4.00232 0.308151 9.52232 0.0681513C20.2723 -0.391849 30.6323 1.51813 40.8923 4.54813C47.1723 6.39813 53.5523 7.90813 59.3623 11.0481C60.5023 11.6581 61.6423 12.3082 62.6723 13.0882C65.8923 15.5282 66.5623 18.2082 65.0123 21.9582C64.8623 22.3282 64.7623 22.7181 64.6023 23.1781ZM51.2723 41.9782C50.0323 40.5982 48.9123 40.1281 47.4023 41.1281C47.0823 41.3481 46.4723 41.1381 45.9923 41.1181C46.0223 40.7881 45.9423 40.4082 46.0923 40.1482C46.8923 38.7782 49.0423 37.9881 50.5923 38.5481C51.4123 38.8381 52.1823 39.2982 52.9623 39.7082C57.4023 42.0682 64.5423 42.5282 67.8823 36.9182C71.9123 30.1582 68.0923 25.0282 62.5723 24.4582C61.6923 24.3682 60.7323 24.4081 59.9623 24.0581C59.1323 23.6881 58.4323 22.9682 57.7923 22.2882C57.6523 22.1382 57.9923 21.5281 58.1123 21.1181C58.4523 21.2581 59.0023 21.3181 59.0923 21.5581C59.7223 23.1681 61.0623 23.1181 62.3623 23.2381C64.2723 17.2281 63.8223 16.1082 58.4623 13.2582C58.1023 13.0682 57.7223 12.8882 57.3523 12.7082C48.3423 8.29817 38.6823 5.79815 29.0623 3.18815C22.1423 1.30815 15.0923 1.11816 8.0023 1.76816C5.3023 2.01816 4.12232 2.96817 3.71232 5.64817C3.11232 9.54817 2.52232 13.4882 2.39232 17.4182C2.18232 24.0582 4.64227 29.5082 10.0323 33.7282C15.8623 38.2882 22.4623 41.1681 29.3923 43.3681C33.4923 44.6681 37.7123 45.5182 42.1023 44.9682C45.3223 44.6082 48.3723 43.8882 51.2723 41.9782Z" fill="#6F4F50"/>
<path d="M15.0002 3.51852C13.1602 3.63852 11.3202 3.66854 9.50017 3.91854C8.82017 4.00854 8.20017 4.60853 7.56017 4.96853C8.09017 5.51853 8.54017 6.21851 9.18017 6.57851C10.8102 7.50851 12.5102 7.60851 14.4402 7.25851C20.3402 6.17851 26.2102 7.00851 31.9902 8.25851C38.3702 9.63851 44.8602 10.7885 50.6202 14.1585C51.6902 14.7785 52.9602 15.2785 53.7002 16.1885C55.3202 18.1685 57.0401 17.5485 59.2901 16.7685C57.0602 15.2885 55.0902 13.9785 53.1202 12.6785C55.7802 13.1885 58.1402 14.3985 60.1502 16.1285C61.1202 16.9585 60.3002 18.1085 59.3902 18.3485C57.4902 18.8485 55.4902 19.2685 53.5401 19.2585C46.8102 19.2285 40.4102 17.1985 33.9402 15.6385C25.7402 13.6685 17.5902 11.5385 9.81017 8.19851C8.63017 7.69851 7.4602 7.06854 6.4602 6.28854C5.5002 5.54854 5.54016 4.5185 6.55016 3.7485C8.31016 2.3985 12.8802 2.13852 15.0002 3.51852ZM34.6702 11.5385C34.6702 11.2585 34.6702 10.9685 34.6702 10.6885C31.6602 10.6885 28.6402 10.6885 25.6302 10.6885C25.6202 10.7885 25.6001 10.8885 25.5901 10.9885C28.6201 11.1685 31.6502 11.3585 34.6702 11.5385Z" fill="#6F4F50"/>
<path d="M49.9727 34.8379C51.2027 33.7879 52.5927 33.7279 54.4727 34.7579C56.5127 35.8879 56.8227 35.8579 58.1127 33.9379C58.9927 32.6279 59.7127 31.2179 60.6327 29.6379C59.2927 29.2579 58.1327 28.9279 56.9627 28.5979C58.8027 27.6279 62.0827 28.3479 63.6327 30.0579C65.3427 31.9479 65.6227 34.1479 64.0627 36.1579C63.1327 37.3579 61.8627 38.3879 60.5527 39.1879C59.9227 39.5679 58.7327 39.5379 58.0327 39.1979C55.3127 37.8579 52.6827 36.3279 49.9727 34.8379ZM62.2827 31.2579C61.1227 33.2279 60.0827 35.0079 58.9927 36.8579C61.8827 36.7479 63.6727 33.7579 62.2827 31.2579Z" fill="#6F4F50"/>
<path d="M45.1231 19.738C42.6031 19.608 40.0831 19.488 37.5631 19.358C37.5231 19.658 37.4731 19.958 37.4331 20.248C39.5731 20.738 41.7131 21.228 43.8531 21.718C41.1631 21.608 38.5031 21.398 36.2031 19.708C39.1931 18.388 42.1531 18.998 45.1231 19.738Z" fill="#6F4F50"/>
</svg>
