<svg width="14" height="14" viewBox="0 0 14 14" fill="none" xmlns="http://www.w3.org/2000/svg">
<g filter="url(#filter0_i_1064_2023)">
<path fill-rule="evenodd" clip-rule="evenodd" d="M10.0324 8.38951C9.86071 8.30259 9.01906 7.88376 8.86237 7.82543C8.70568 7.76768 8.59162 7.73909 8.47698 7.91293C8.36291 8.08559 8.03512 8.47643 7.93546 8.59193C7.83523 8.70801 7.73556 8.72201 7.56447 8.63568C7.39337 8.54818 6.84149 8.36559 6.18765 7.77526C5.67897 7.3156 5.33505 6.74801 5.23539 6.57418C5.13573 6.40093 5.22444 6.30701 5.31028 6.22068C5.38747 6.1431 5.48137 6.01826 5.56721 5.91735C5.65305 5.81585 5.68127 5.74351 5.73831 5.62743C5.79591 5.51193 5.76711 5.41102 5.7239 5.3241C5.68127 5.23718 5.33908 4.38377 5.19622 4.03668C5.05738 3.69893 4.91624 3.74502 4.8114 3.73918C4.71116 3.73452 4.5971 3.73335 4.48303 3.73335C4.36897 3.73335 4.18347 3.77652 4.02678 3.95035C3.86951 4.1236 3.42766 4.54302 3.42766 5.39643C3.42766 6.24926 4.04061 7.07351 4.12644 7.1896C4.21228 7.30509 5.33332 9.05626 7.05061 9.80701C7.45962 9.98551 7.77819 10.0923 8.02648 10.1716C8.43665 10.304 8.80995 10.2853 9.1049 10.2404C9.43326 10.1908 10.1176 9.82101 10.2605 9.41617C10.4028 9.01134 10.4028 8.66426 10.3602 8.59193C10.3175 8.51959 10.2035 8.47643 10.0318 8.38951H10.0324ZM6.90889 12.7079H6.90659C5.8866 12.7081 4.88535 12.4305 4.00777 11.9041L3.80038 11.7793L1.6447 12.3521L2.2202 10.2241L2.08482 10.0059C1.51459 9.08679 1.21281 8.02305 1.21437 6.9376C1.21552 3.75843 3.76985 1.17194 6.9112 1.17194C8.43204 1.17194 9.86187 1.77277 10.9368 2.86244C11.467 3.39711 11.8873 4.03293 12.1732 4.73312C12.4592 5.43332 12.6052 6.18398 12.6028 6.94168C12.6017 10.1208 10.0474 12.7079 6.90889 12.7079ZM11.7549 2.03469C11.1201 1.38773 10.3649 0.874752 9.53298 0.52549C8.70104 0.176227 7.80892 -0.00237781 6.90832 2.39035e-05C3.13271 2.39035e-05 0.0587599 3.1121 0.0576077 6.93701C0.0570316 8.15968 0.372146 9.35317 0.971842 10.4049L0 14L3.63159 13.0352C4.6362 13.5894 5.76198 13.8798 6.90601 13.8798H6.90889C10.6845 13.8798 13.7585 10.7678 13.7596 6.94226C13.7624 6.03067 13.5866 5.12757 13.2425 4.2852C12.8984 3.44283 12.3928 2.67791 11.7549 2.03469Z" fill="#192533"/>
</g>
<defs>
<filter id="filter0_i_1064_2023" x="0" y="0" width="13.7596" height="14.3491" filterUnits="userSpaceOnUse" color-interpolation-filters="sRGB">
<feFlood flood-opacity="0" result="BackgroundImageFix"/>
<feBlend mode="normal" in="SourceGraphic" in2="BackgroundImageFix" result="shape"/>
<feColorMatrix in="SourceAlpha" type="matrix" values="0 0 0 0 0 0 0 0 0 0 0 0 0 0 0 0 0 0 127 0" result="hardAlpha"/>
<feOffset dy="0.349075"/>
<feGaussianBlur stdDeviation="0.654515"/>
<feComposite in2="hardAlpha" operator="arithmetic" k2="-1" k3="1"/>
<feColorMatrix type="matrix" values="0 0 0 0 0 0 0 0 0 0 0 0 0 0 0 0 0 0 0.2 0"/>
<feBlend mode="normal" in2="shape" result="effect1_innerShadow_1064_2023"/>
</filter>
</defs>
</svg>
