<svg width="223" height="106" viewBox="0 0 223 106" fill="none" xmlns="http://www.w3.org/2000/svg">
<line y1="-1.06019" x2="127.631" y2="-1.06019" transform="matrix(-0.571088 0.820889 -0.901826 -0.432099 5.36328 0)" stroke="#6F4F50" stroke-width="2.12038"/>
<line y1="-1.06019" x2="127.631" y2="-1.06019" transform="matrix(-0.571088 0.820889 -0.901826 -0.432099 29.3047 0)" stroke="#6F4F50" stroke-width="2.12038"/>
<line y1="-1.06019" x2="127.631" y2="-1.06019" transform="matrix(-0.571088 0.820889 -0.901826 -0.432099 53.2461 0)" stroke="#6F4F50" stroke-width="2.12038"/>
<line y1="-1.06019" x2="127.631" y2="-1.06019" transform="matrix(-0.571088 0.820889 -0.901826 -0.432099 77.1875 0)" stroke="#6F4F50" stroke-width="2.12038"/>
<line y1="-1.06019" x2="127.631" y2="-1.06019" transform="matrix(-0.571088 0.820889 -0.901826 -0.432099 101.127 0)" stroke="#6F4F50" stroke-width="2.12038"/>
<line y1="-1.06019" x2="127.631" y2="-1.06019" transform="matrix(-0.571088 0.820889 -0.901826 -0.432099 125.07 0)" stroke="#6F4F50" stroke-width="2.12038"/>
<line y1="-1.06019" x2="127.631" y2="-1.06019" transform="matrix(-0.571088 0.820889 -0.901826 -0.432099 149.01 0)" stroke="#6F4F50" stroke-width="2.12038"/>
<line y1="-1.06019" x2="127.631" y2="-1.06019" transform="matrix(-0.571088 0.820889 -0.901826 -0.432099 172.953 0)" stroke="#6F4F50" stroke-width="2.12038"/>
<line y1="-1.06019" x2="127.631" y2="-1.06019" transform="matrix(-0.571088 0.820889 -0.901826 -0.432099 196.895 0)" stroke="#6F4F50" stroke-width="2.12038"/>
<line y1="-1.06019" x2="127.631" y2="-1.06019" transform="matrix(-0.571088 0.820889 -0.901826 -0.432099 220.834 0)" stroke="#6F4F50" stroke-width="2.12038"/>
</svg>
