<svg width="160" height="41" viewBox="0 0 160 41" fill="none" xmlns="http://www.w3.org/2000/svg">
<path d="M57.0881 18.3809C59.0019 18.3809 60.6451 19.0826 62.0146 20.486C63.3839 21.8929 64.0703 23.5723 64.0703 25.5276C64.0703 27.5203 63.3806 29.2099 62.001 30.5998C60.6215 31.993 58.9444 32.6879 56.9697 32.6879C55.0087 32.6879 53.335 31.9896 51.9486 30.5929C50.5623 29.1929 49.8691 27.5067 49.8691 25.5276C49.8691 23.5314 50.5657 21.8418 51.9622 20.4588C53.3586 19.0724 55.0695 18.3809 57.0881 18.3809ZM56.9697 22.4073C56.1448 22.4073 55.4414 22.7139 54.8598 23.3236C54.2783 23.9334 53.9875 24.6725 53.9875 25.5344C53.9875 26.3962 54.2783 27.1354 54.8632 27.7451C55.4482 28.3549 56.1515 28.6615 56.9697 28.6615C57.8015 28.6615 58.5082 28.3583 59.0864 27.7485C59.6646 27.1422 59.952 26.403 59.952 25.5344C59.952 24.6657 59.6646 23.9265 59.0864 23.3202C58.5082 22.7105 57.8015 22.4073 56.9697 22.4073ZM70.0247 25.1256V28.7841H68.6857V32.3404H64.6688V23.8823C64.6688 22.2914 65.1557 20.98 66.1295 19.941C67.1033 18.902 68.3307 18.3809 69.8083 18.3809C71.438 18.3809 72.8007 19.086 73.8996 20.4962L70.5995 22.925C70.4135 22.4175 70.0855 22.162 69.6189 22.162C68.9968 22.162 68.6857 22.5878 68.6857 23.4428V25.1256H70.0247ZM78.7787 25.1256V28.7841H77.4397V32.3404H73.4228V23.8823C73.4228 22.2914 73.9097 20.98 74.8835 19.941C75.8573 18.902 77.0847 18.3809 78.5623 18.3809C80.192 18.3809 81.5547 19.086 82.6536 20.4962L79.3535 22.925C79.1675 22.4175 78.8395 22.162 78.3729 22.162C77.7508 22.162 77.4397 22.5878 77.4397 23.4428V25.1256H78.7787ZM89.6629 24.0219V27.0468H87.0492C86.6941 27.0468 86.4405 27.1013 86.2951 27.207C86.1464 27.3159 86.072 27.4965 86.072 27.752C86.072 28.0415 86.1464 28.2289 86.2986 28.3208C86.4507 28.4128 86.7584 28.4571 87.225 28.4571H89.9266V32.3404H86.7719C85.2841 32.3404 84.1447 31.9827 83.3568 31.2708C82.569 30.5555 82.1768 29.5233 82.1768 28.1744V22.8331C82.1768 21.525 82.5488 20.5099 83.2926 19.7877C84.0399 19.069 85.0846 18.7079 86.4372 18.7079H89.9266V22.6321H87.3636C86.6772 22.6321 86.3357 22.8603 86.3357 23.3134C86.3357 23.5791 86.4169 23.763 86.5791 23.8652C86.7449 23.9708 87.0356 24.0219 87.4515 24.0219H89.6629ZM98.427 24.0219V27.0468H95.8133C95.4583 27.0468 95.2047 27.1013 95.0593 27.207C94.9106 27.3159 94.8362 27.4965 94.8362 27.752C94.8362 28.0415 94.9106 28.2289 95.0627 28.3208C95.2148 28.4128 95.5225 28.4571 95.9891 28.4571H98.6907V32.3404H95.5361C94.0483 32.3404 92.9088 31.9827 92.121 31.2708C91.3332 30.5555 90.941 29.5233 90.941 28.1744V22.8331C90.941 21.525 91.3129 20.5099 92.0568 19.7877C92.804 19.069 93.8488 18.7079 95.2013 18.7079H98.6907V22.6321H96.1278C95.4414 22.6321 95.0999 22.8603 95.0999 23.3134C95.0999 23.5791 95.181 23.763 95.3433 23.8652C95.509 23.9708 95.7998 24.0219 96.2157 24.0219H98.427Z" fill="#6F4F50"/>
<path d="M121.67 18.3804C123.584 18.3804 125.227 19.0821 126.597 20.4856C127.966 21.8924 128.652 23.5718 128.652 25.5271C128.652 27.5198 127.963 29.2094 126.583 30.5993C125.204 31.9925 123.526 32.6874 121.552 32.6874C119.591 32.6874 117.917 31.9891 116.531 30.5924C115.144 29.1924 114.451 27.5062 114.451 25.5271C114.451 23.5309 115.148 21.8413 116.544 20.4583C117.941 19.0719 119.652 18.3804 121.67 18.3804ZM121.552 22.4068C120.727 22.4068 120.023 22.7134 119.442 23.3231C118.86 23.9329 118.57 24.672 118.57 25.5339C118.57 26.3957 118.86 27.1349 119.445 27.7447C120.03 28.3544 120.734 28.661 121.552 28.661C122.384 28.661 123.09 28.3578 123.668 27.7481C124.247 27.1417 124.534 26.4025 124.534 25.5339C124.534 24.6653 124.247 23.926 123.668 23.3197C123.09 22.71 122.384 22.4068 121.552 22.4068ZM133.552 22.6316V32.3399H129.535V18.7074H134.766C137.061 18.7074 138.86 19.232 140.162 20.2846C141.707 21.5449 142.478 23.2516 142.478 25.4113C142.478 27.4755 141.819 29.1583 140.497 30.463C139.178 31.7676 137.477 32.4217 135.398 32.4217C135.155 32.4217 134.756 32.4081 134.201 32.3808V28.3749H134.843C137.187 28.3749 138.36 27.387 138.36 25.4147C138.36 23.5582 137.207 22.6316 134.904 22.6316H133.552ZM150.573 24.0214V27.0463H147.959C147.604 27.0463 147.351 27.1008 147.205 27.2065C147.056 27.3154 146.982 27.496 146.982 27.7515C146.982 28.041 147.056 28.2284 147.209 28.3203C147.361 28.4123 147.668 28.4566 148.135 28.4566H150.837V32.3399H147.682C146.194 32.3399 145.055 31.9823 144.267 31.2703C143.479 30.555 143.087 29.5228 143.087 28.1739V22.8326C143.087 21.5245 143.459 20.5094 144.203 19.7872C144.95 19.0685 145.995 18.7074 147.347 18.7074H150.837V22.6316H148.274C147.587 22.6316 147.246 22.8598 147.246 23.3129C147.246 23.5786 147.327 23.7625 147.489 23.8647C147.655 23.9703 147.946 24.0214 148.362 24.0214H150.573Z" fill="#27405C"/>
<path d="M115.394 13.1117L110.637 21.848L115.367 32.3643H109.343L105.263 21.7326L109.884 13.1117H115.394ZM105.101 13.1117V32.3643H99.7441V13.1117H105.101Z" fill="#27405C"/>
<path fill-rule="evenodd" clip-rule="evenodd" d="M53.8939 11.7833L46.9597 25.0212L53.8545 40.9562H45.0734L39.125 24.8463L45.8621 11.7833H53.8939ZM38.8884 11.7833V40.9562H31.0801V31.5837H31.7006H35.7835V30.1617V20.3998V18.9778V18.9778H31.0801V11.7833H38.8884ZM31.0801 30.1617V20.3998H31.7006V30.1617H31.0801Z" fill="#6F4F50"/>
<path d="M8.57617 27.3009V25.9238L12.9151 22.5652V24.043L9.47703 26.6208L12.9151 29.2321V30.7099L8.57617 27.3009ZM13.4298 32.7587L15.3419 20.3317H15.993L14.081 32.7587H13.4298ZM20.8375 27.3009L16.4986 30.7099V29.2321L19.9274 26.6208L16.4986 24.043V22.5652L20.8375 25.9238V27.3009Z" fill="#6F4F50"/>
<path fill-rule="evenodd" clip-rule="evenodd" d="M0 40.8423H29.4136V31.5837H26.2832V30.1617H29.4136V20.3997H26.2832V18.9778H29.4136V11.4648L20.084 11.4807L20.0627 14.3611L22.2236 14.3684V37.9391H7.18998V14.368L9.36335 14.3663L9.34277 11.4751L0 11.4646V40.8423Z" fill="#27405C"/>
<path d="M35.5547 31.3571H26.541V30.3875H31.9344V20.1736H26.541V19.204H35.5547V31.3571Z" fill="#27405C"/>
<path d="M12.8905 11.3807C12.5005 11.036 12.1484 10.6168 11.8351 10.1219C11.5219 9.62699 11.3181 9.09511 11.2228 8.52744C11.1387 8.02657 11.142 7.53413 11.2326 7.05019C11.3397 6.48732 11.5532 5.91008 11.873 5.31841L12.2949 5.25244C12.105 5.73092 11.9821 6.07073 11.9288 6.27141C11.8446 6.58193 11.7905 6.90102 11.7676 7.22849C11.7398 7.63632 11.7593 8.03898 11.826 8.43647C11.9958 9.44791 12.4912 10.4073 13.3123 11.3148L12.8905 11.3807Z" fill="#6F4F50"/>
<path d="M14.1248 6.48027C14.3821 6.03436 14.5791 5.52933 14.7145 4.96431C14.8499 4.39923 14.8692 3.83241 14.774 3.26478C14.6899 2.76388 14.5258 2.29762 14.2815 1.86601C13.9958 1.36459 13.6044 0.881899 13.1074 0.417969L12.6855 0.48389C13.0223 0.880051 13.25 1.16505 13.3662 1.33922C13.5476 1.60819 13.7033 1.89448 13.8322 2.19824C13.9919 2.57674 14.1051 2.96475 14.1719 3.36224C14.3416 4.37368 14.1853 5.43504 13.703 6.54623L14.1248 6.48027Z" fill="#6F4F50"/>
<path d="M12.6852 4.4544V3.79968H13.3636V4.4544H12.6852ZM12.6852 7.19773V6.54301H13.3636V7.19773C13.3636 7.43889 13.3195 7.63422 13.2302 7.78261C13.142 7.93104 13.0007 8.0467 12.8073 8.12743L12.6445 7.88085C12.7712 7.82737 12.8639 7.74878 12.9227 7.64511C12.9826 7.54145 13.0165 7.39195 13.0233 7.19773H12.6852Z" fill="#6F4F50"/>
<path d="M17.1815 14.894C16.7915 14.5493 16.4394 14.1301 16.1262 13.6352C15.8129 13.1403 15.6091 12.6084 15.5138 12.0407C15.4298 11.5399 15.433 11.0474 15.5236 10.5635C15.6307 10.0006 15.8442 9.42339 16.1641 8.83171L16.5859 8.76575C16.396 9.24427 16.2732 9.58403 16.2198 9.78472C16.1356 10.0952 16.0815 10.4143 16.0586 10.7418C16.0309 11.1496 16.0503 11.5523 16.117 11.9498C16.2868 12.9612 16.7822 13.9207 17.6034 14.8281L17.1815 14.894Z" fill="#6F4F50"/>
<path d="M18.4158 9.99358C18.6731 9.54767 18.8701 9.04263 19.0055 8.47762C19.1409 7.91253 19.1603 7.34572 19.065 6.77808C18.981 6.27718 18.8168 5.81093 18.5726 5.37931C18.2868 4.8779 17.8954 4.3952 17.3984 3.93127L16.9766 3.9972C17.3133 4.39336 17.541 4.67835 17.6573 4.85252C17.8387 5.12149 17.9944 5.40778 18.1232 5.71154C18.283 6.09005 18.3962 6.47806 18.4629 6.87555C18.6326 7.88698 18.4763 8.94835 17.994 10.0595L18.4158 9.99358Z" fill="#6F4F50"/>
<path d="M16.9763 7.96783V7.31311H17.6546V7.96783H16.9763ZM16.9763 10.7112V10.0564H17.6546V10.7112C17.6546 10.9523 17.6105 11.1476 17.5212 11.296C17.433 11.4445 17.2917 11.5601 17.0984 11.6409L16.9355 11.3943C17.0622 11.3408 17.1549 11.2622 17.2137 11.1585C17.2736 11.0549 17.3075 10.9054 17.3143 10.7112H16.9763Z" fill="#6F4F50"/>
<path d="M62.7408 40.8689L61.2168 35.2732H62.4037L63.5111 39.422L64.7117 35.2732H65.6944L66.9005 39.4113L67.9928 35.2732H69.0865L67.5734 40.8689H66.2824L65.1914 37.1558L64.1087 40.8689H62.7408ZM71.8003 39.8137H74.2261V40.8689H70.6654V35.2732H74.185V36.3284H71.8003V37.5195H73.9794V38.5587H71.8003V39.8137ZM84.3573 35.2732V40.8689H83.2307V37.2397L81.608 39.835L81.475 39.8403L79.8592 37.253V40.8689H78.7243V35.2732H79.892L81.5422 37.9151L83.1855 35.2732H84.3573ZM90.0328 40.8689L89.6669 39.8616H87.3013L86.9559 40.8689H85.7307L87.7454 35.2732H89.1516L91.1827 40.8689H90.0328ZM87.6714 38.8304H89.2913L88.4608 36.5442L87.6714 38.8304ZM97.0624 40.8689H95.7549L93.6991 38.2482V40.8689H92.5642V35.2732H93.6991V37.7393L95.6727 35.2732H96.9802L94.8503 37.9911L97.0624 40.8689ZM99.5787 39.8137H102.005V40.8689H98.4439V35.2732H101.964V36.3284H99.5787V37.5195H101.758V38.5587H99.5787V39.8137ZM128.157 35.2732H129.283V40.8689H128.157V38.5507H126.019V40.8689H124.884V35.2732H126.019V37.4955H128.157V35.2732ZM134.959 40.8689L134.593 39.8616H132.227L131.882 40.8689H130.657L132.671 35.2732H134.077L136.109 40.8689H134.959ZM132.597 38.8304H134.217L133.387 36.5442L132.597 38.8304ZM139.636 35.2732C140.19 35.2732 140.656 35.4544 141.034 35.8168C141.413 36.1791 141.602 36.6242 141.602 37.1517C141.602 37.6793 141.413 38.1243 141.034 38.4867C140.656 38.8491 140.19 39.0303 139.636 39.0303H138.625V40.8689H137.49V35.2732H139.636ZM139.636 37.9991C139.878 37.9991 140.078 37.9178 140.237 37.7553C140.396 37.5927 140.475 37.3916 140.475 37.1517C140.475 36.9066 140.396 36.7041 140.237 36.5442C140.078 36.3843 139.878 36.3044 139.636 36.3044H138.625V37.9991H139.636ZM145.311 35.2732C145.864 35.2732 146.33 35.4544 146.709 35.8168C147.087 36.1791 147.276 36.6242 147.276 37.1517C147.276 37.6793 147.087 38.1243 146.709 38.4867C146.33 38.8491 145.864 39.0303 145.311 39.0303H144.299V40.8689H143.164V35.2732H145.311ZM145.311 37.9991C145.552 37.9991 145.752 37.9178 145.911 37.7553C146.07 37.5927 146.149 37.3916 146.149 37.1517C146.149 36.9066 146.07 36.7041 145.911 36.5442C145.752 36.3843 145.552 36.3044 145.311 36.3044H144.299V37.9991H145.311ZM149.973 39.8137H152.399V40.8689H148.838V35.2732H152.358V36.3284H149.973V37.5195H152.152V38.5587H149.973V39.8137ZM157.35 35.2732H158.484V40.8689H157.621L155.154 37.4475V40.8689H154.019V35.2732H154.881L157.35 38.6826V35.2732ZM109.329 34.3025H111.259V40.8689H109.329V34.3025ZM117.724 34.3025V36.1223H116.132V40.8689H114.202V36.1223H112.61V34.3025H117.724Z" fill="#1A1A1A"/>
<path d="M152.013 25.3386C151.709 24.7526 151.558 24.0491 151.558 23.2288V22.8204C151.558 21.5123 151.945 20.4954 152.723 19.775C153.501 19.0546 154.593 18.6952 156.005 18.6952H159.647V22.5787H157.081C156.594 22.5787 156.27 22.6198 156.114 22.715C155.77 22.9241 155.796 23.4373 156.11 23.6569C156.458 23.9002 157.137 24.0488 157.791 24.4024C158.538 24.8059 159.049 25.3532 159.337 26.1372C159.518 26.6316 159.609 27.1963 159.609 27.8308V28.2392C159.609 29.5473 159.222 30.5642 158.444 31.2845C157.666 32.005 156.573 32.3644 155.162 32.3644H151.52V28.4808H154.086C154.573 28.4808 154.896 28.4398 155.053 28.3445C155.397 28.1355 155.37 27.6222 155.056 27.4027C154.765 27.1985 154.24 27.0611 153.693 26.8135C152.983 26.4926 152.361 26.0122 152.013 25.3386Z" fill="#27405C"/>
</svg>
