<svg width="25" height="29" viewBox="0 0 25 29" fill="none" xmlns="http://www.w3.org/2000/svg">
<path d="M14.5822 27.5994C18.134 24.4735 24.4531 18.0872 24.4531 12.2266C24.4531 8.98388 23.165 5.87401 20.8721 3.58108C18.5791 1.28815 15.4693 0 12.2266 0C8.98388 0 5.87401 1.28815 3.58108 3.58108C1.28815 5.87401 4.83198e-08 8.98388 0 12.2266C0 18.0872 6.31706 24.4735 9.87092 27.5994C10.5192 28.178 11.3577 28.4978 12.2266 28.4978C13.0955 28.4978 13.934 28.178 14.5822 27.5994ZM8.15105 12.2266C8.15105 11.1457 8.58043 10.109 9.34474 9.34474C10.109 8.58043 11.1457 8.15105 12.2266 8.15105C13.3075 8.15105 14.3441 8.58043 15.1084 9.34474C15.8727 10.109 16.3021 11.1457 16.3021 12.2266C16.3021 13.3075 15.8727 14.3441 15.1084 15.1084C14.3441 15.8727 13.3075 16.3021 12.2266 16.3021C11.1457 16.3021 10.109 15.8727 9.34474 15.1084C8.58043 14.3441 8.15105 13.3075 8.15105 12.2266Z" fill="#C76969"/>
</svg>
