<svg width="53" height="52" viewBox="0 0 53 52" fill="none" xmlns="http://www.w3.org/2000/svg">
<path d="M26.2436 0C21.0531 0 15.9792 1.50957 11.6634 4.33779C7.34771 7.16602 3.98398 11.1859 1.99767 15.8891C0.0113548 20.5922 -0.508334 25.7675 0.504281 30.7603C1.5169 35.7532 4.01637 40.3394 7.6866 43.939C11.3568 47.5387 16.033 49.9901 21.1237 50.9832C26.2145 51.9764 31.4912 51.4667 36.2866 49.5185C41.082 47.5704 45.1807 44.2714 48.0644 40.0387C50.948 35.8059 52.4872 30.8296 52.4872 25.7389C52.4872 18.9125 49.7222 12.3657 44.8006 7.53875C39.879 2.71177 33.2038 0 26.2436 0ZM15.1212 45.646L19.6696 37.9198C21.6697 38.9715 23.8992 39.534 26.1685 39.5593C28.4378 39.5847 30.6797 39.0721 32.7037 38.0654L37.2134 45.727C33.8153 47.5185 30.0148 48.4494 26.1569 48.4353C22.2989 48.4212 18.5056 47.4624 15.1212 45.646ZM15.2142 25.7399C15.2143 23.9206 15.6785 22.1302 16.5647 20.5318C17.4508 18.9335 18.7307 17.578 20.2876 16.589C21.8446 15.5999 23.6292 15.0086 25.4787 14.8691C27.3283 14.7296 29.184 15.0462 30.8769 15.7901C32.5698 16.534 34.0459 17.6815 35.1709 19.1281C36.2959 20.5747 37.0338 22.2745 37.3176 24.0724C37.6014 25.8703 37.4219 27.7093 36.7956 29.4218C36.1692 31.1343 35.1159 32.6659 33.7316 33.877L27.891 23.9552L26.1443 20.9839L18.6887 33.6495C17.5904 32.6322 16.7157 31.4055 16.1184 30.0446C15.5211 28.6837 15.2137 27.2174 15.2153 25.7358L15.2142 25.7399ZM26.1443 26.9223L31.215 35.5378C29.6449 36.29 27.9161 36.6687 26.1688 36.6432C24.4215 36.6178 22.705 36.1889 21.1583 35.3913L26.1443 26.9223ZM39.779 44.1492L35.2442 36.4445C37.4873 34.65 39.1127 32.2216 39.8992 29.4894C40.6858 26.7572 40.5955 23.8537 39.6406 21.1736C38.6856 18.4935 36.9124 16.1668 34.5619 14.5098C32.2114 12.8528 29.3977 11.9458 26.5032 11.9122C23.6087 11.8785 20.7739 12.7199 18.384 14.3218C15.9942 15.9237 14.1652 18.2086 13.1457 20.8657C12.1263 23.5229 11.9659 26.4234 12.6862 29.1732C13.4066 31.9229 14.9727 34.3884 17.1719 36.2345L12.5755 44.0488C8.63369 41.2162 5.70729 37.2326 4.21569 32.6687C2.72409 28.1049 2.74381 23.195 4.27206 18.6428C5.80031 14.0907 8.75864 10.1298 12.7231 7.32785C16.6875 4.5259 21.4546 3.02669 26.3411 3.04509C31.2276 3.06349 35.9828 4.59856 39.9252 7.43028C43.8676 10.262 46.7948 14.245 48.2873 18.8086C49.7799 23.3722 49.7612 28.282 48.234 32.8345C46.7067 37.387 43.7492 41.3484 39.7854 44.1512L39.779 44.1492Z" fill="#05ADF1"/>
</svg>
