<svg width="43" height="47" viewBox="0 0 43 47" fill="none" xmlns="http://www.w3.org/2000/svg">
<path fill-rule="evenodd" clip-rule="evenodd" d="M18.6976 0.17933C13.2479 0.874392 8.28663 3.34103 4.45012 7.263C2.79772 8.95224 -0.168457 12.9646 0.00749014 13.2726C0.0473389 13.3424 2.05858 14.5516 4.47668 15.9596C6.89458 17.3677 8.87312 18.5839 8.87312 18.6626C8.87312 18.7413 8.67776 19.5664 8.43908 20.4961C7.56608 23.8966 8.28234 27.8439 10.3154 30.8381C14.9303 37.6346 24.4589 38.7741 30.512 33.2536L31.9088 31.9799L34.4914 33.5026C35.9116 34.3402 37.0738 35.1359 37.0738 35.2712C37.0738 35.6096 33.7199 38.7918 32.5112 39.6002C31.065 40.5676 28.4295 41.7252 26.4474 42.2637C24.9706 42.6648 24.2361 42.7355 21.543 42.7351C18.867 42.7347 18.106 42.6622 16.6385 42.2681C14.5701 41.7123 12.0394 40.577 10.3814 39.4615C9.0129 38.5404 6.15135 35.7072 5.30165 34.4322C4.98818 33.9616 4.68308 33.5767 4.62361 33.5767C4.53145 33.5767 1.37134 35.3366 1.12346 35.526C0.914817 35.6856 3.16474 38.5969 4.59888 40.0229C11.8601 47.243 22.8098 49.0484 32.0671 44.5518C34.6824 43.2814 36.5314 41.9551 38.6501 39.8292C40.1047 38.3699 43 34.4018 43 33.8678C43 33.7269 42.3792 33.2534 41.6206 32.8158C40.8621 32.378 38.1722 30.8216 35.6433 29.357C33.1144 27.8924 30.895 26.6146 30.7113 26.5176C30.4401 26.3741 30.2502 26.585 29.7018 27.6384C26.9403 32.9414 19.655 34.1745 15.2548 30.0835C12.6974 27.7056 11.7261 24.1262 12.7509 20.8577C13.9503 17.0329 17.4925 14.4634 21.5759 14.4564C24.1744 14.4517 26.4701 15.4669 28.3254 17.4407L29.4473 18.6344L31.214 17.6269L32.9806 16.6195L32.626 16.0218C32.0205 15.0011 29.2693 12.5747 27.9192 11.8706C26.183 10.9652 24.2466 10.435 22.156 10.2928C18.5852 10.0499 14.0972 11.8084 11.9887 14.2766C11.7163 14.5957 11.3589 14.8565 11.1946 14.8565C10.7593 14.8565 6.01219 12.0495 6.01219 11.7921C6.01219 11.6721 6.49282 11.0672 7.08013 10.4476C13.2172 3.97389 22.4789 2.33939 30.5345 6.30807C33.0378 7.54139 35.6082 9.71454 37.4306 12.1391C37.93 12.8034 38.3712 13.3801 38.4111 13.4205C38.4707 13.4813 41.6756 11.754 41.9625 11.5066C42.1763 11.3223 39.8828 8.38279 38.37 6.90269C33.1633 1.80859 25.761 -0.721251 18.6976 0.17933Z" fill="#FE7152"/>
</svg>
