<svg width="155" height="44" viewBox="0 0 155 44" fill="none" xmlns="http://www.w3.org/2000/svg">
<path fill-rule="evenodd" clip-rule="evenodd" d="M81.1125 35.0593C81.6413 31.2751 82.0627 19.6331 84.9794 20.228C87.6813 20.5833 85.9213 30.3579 86.4749 34.5057C87.1772 34.5966 89.8543 35.1502 90.3087 34.6297C90.9945 33.8365 91.6721 20.8395 95.4728 21.2361C98.8687 21.6162 96.7205 31.1511 96.9518 35.1337L100.976 35.6955C102.083 31.2007 102.017 24.128 100.1 20.3189C96.0843 12.3373 90.284 20.2776 89.9369 20.4759C89.656 20.0215 86.4997 10.7674 80.7572 18.1046L80.5094 15.3531L76.5847 15.411C76.3698 18.2946 76.6838 31.6717 76.7003 35.208L81.1125 35.0593Z" fill="black"/>
<path fill-rule="evenodd" clip-rule="evenodd" d="M58.4081 4.82553L54.1529 4.69332L52.7731 22.5652L43.676 22.5322C43.6264 21.9538 43.4116 5.2056 43.2381 4.26367L39.082 4.40414C39.1977 14.8149 39.3216 25.2258 39.4704 35.6366C40.9081 35.7605 42.2218 35.7605 43.6595 35.6366L43.7008 27.0187L52.3352 27.0518C52.3599 27.4814 52.1451 35.8514 52.1534 35.9588L56.2764 36.0828L58.4081 4.82553Z" fill="black"/>
<path fill-rule="evenodd" clip-rule="evenodd" d="M141.034 26.9952C141.703 22.6243 148.628 18.3856 149.627 22.4095C150.602 26.3177 144.852 29.9697 141.034 26.9952ZM139.547 31.6388C141.158 31.6801 142.389 32.6633 145.025 32.5229C146.967 32.4154 148.305 31.804 149.578 30.9778C151.85 29.5153 153.99 26.7391 154.064 23.1944C154.147 19.468 151.693 16.7001 147.95 16.7497C143.339 16.8158 139.448 21.1123 139.464 21.5006L139.34 15.1798C138.299 15.1302 135.275 15.2541 135.16 15.2872C135.184 19.4019 135.135 43.6029 135.135 43.6029L139.481 43.7351L139.547 31.6388Z" fill="black"/>
<path fill-rule="evenodd" clip-rule="evenodd" d="M107.305 23.0296C106.81 21.1375 107.537 17.5185 109.991 17.4442C112.403 17.8573 113.131 21.2119 112.759 23.0296H107.305ZM117.295 26.9544C118.27 17.973 112.395 9.57822 106.223 14.4201C101.431 18.1713 101.927 30.1024 106.38 34.4567C110.197 38.1914 116.328 35.9357 115.502 29.3174L111.569 29.6975C110.338 35.6135 107.595 28.4995 107.553 27.3923L117.295 26.9544Z" fill="black"/>
<path fill-rule="evenodd" clip-rule="evenodd" d="M64.077 25.5325C63.3168 19.5586 70.1665 17.9887 70.7366 24.3757C71.3067 30.804 64.8206 31.3906 64.077 25.5325ZM74.9092 26.6975C75.8346 21.8887 73.0832 17.2534 69.3237 16.1297C64.3001 14.6259 60.4828 18.815 59.954 22.9215C58.4006 35.0509 72.6535 38.5542 74.9092 26.6975Z" fill="black"/>
<path fill-rule="evenodd" clip-rule="evenodd" d="M130.457 34.5875C130.457 34.5875 133.729 32.7036 133.877 32.5301C133.786 32.2739 130.283 27.019 129.341 24.9864L133.629 19.3596L130.746 17.0956C130.746 17.0956 127.028 20.8386 126.854 20.946L123.458 15.9224C122.211 16.2446 121.112 17.1039 120.228 17.955C120.228 17.955 123.929 24.2345 123.822 24.8046L118.848 31.3651C119.269 32.4227 121.054 33.7695 122.004 33.9182C122.169 33.7529 125.97 29.2168 126.375 28.7954C126.796 29.192 130.382 34.5048 130.457 34.5875Z" fill="black"/>
<path d="M64.5055 40.0997C64.5055 40.3888 64.4394 40.6285 64.3072 40.8185C64.175 41.0003 63.9932 41.1407 63.7618 41.2316C63.5305 41.3225 63.2578 41.3638 62.9521 41.3638H62.4729V42.8676H61.5723V38.9099H62.9521C63.3405 38.9099 63.6462 38.9594 63.8775 39.0503C64.1006 39.1495 64.2659 39.2817 64.3567 39.4552C64.4559 39.6287 64.5055 39.8435 64.5055 40.0997ZM62.4729 40.7276H62.8034C63.0678 40.7276 63.2578 40.678 63.3818 40.5789C63.514 40.488 63.5718 40.3393 63.5718 40.1327C63.5718 39.9344 63.514 39.7857 63.3983 39.6948C63.2826 39.6039 63.1008 39.5543 62.853 39.5543H62.4729V40.7276ZM69.1408 40.0336C69.1408 40.298 69.0664 40.521 68.9094 40.7028C68.7607 40.8846 68.5293 41.0168 68.2154 41.0994C68.2897 41.1242 68.3641 41.149 68.4302 41.1903C68.4963 41.2316 68.5624 41.2977 68.6533 41.3969C68.7359 41.496 68.8185 41.6282 68.9094 41.81L69.5126 42.8676H68.4963L67.951 41.9174C67.8188 41.6943 67.7196 41.5373 67.6452 41.4465C67.5626 41.3473 67.4965 41.2812 67.4387 41.2564C67.3808 41.2316 67.2982 41.2151 67.1991 41.2151H67.0008V42.8676H66.1001V38.9099H67.6287C68.1493 38.9099 68.5293 39.009 68.7772 39.199C69.0168 39.3891 69.1408 39.67 69.1408 40.0336ZM68.2319 40.0749C68.2319 39.8848 68.1658 39.7526 68.0336 39.6783C67.9096 39.5956 67.7113 39.5543 67.4552 39.5543H67.0008V40.6202H67.3808C67.6783 40.6202 67.8931 40.5706 68.0253 40.4797C68.1575 40.3888 68.2319 40.2566 68.2319 40.0749ZM74.057 40.9424C74.057 41.3556 74.0074 41.7026 73.9 42C73.8008 42.2892 73.6191 42.5206 73.3712 42.6858C73.115 42.8511 72.768 42.9337 72.3384 42.9337C71.8839 42.9337 71.5286 42.8346 71.2725 42.6363C71.0164 42.4462 70.8428 42.1983 70.752 41.8926C70.6611 41.5869 70.6198 41.2316 70.6198 40.835C70.6198 39.513 71.1899 38.8438 72.3301 38.8438C72.9167 38.8438 73.3464 39.0173 73.6356 39.356C73.9165 39.6948 74.057 40.2236 74.057 40.9424ZM71.5534 40.835C71.5534 41.1986 71.5782 41.4795 71.6278 41.6861C71.6856 41.9009 71.7682 42.0496 71.8839 42.1405C71.9996 42.2314 72.1483 42.281 72.3466 42.281C72.5697 42.281 72.735 42.2231 72.8506 42.1075C72.9663 41.9918 73.0407 41.8265 73.0737 41.6282C73.1068 41.4217 73.1233 41.149 73.1233 40.8102C73.1233 40.3888 73.0655 40.0583 72.9498 39.8353C72.8341 39.6122 72.6276 39.4965 72.3384 39.4965C72.1153 39.4965 71.9418 39.5626 71.8261 39.7031C71.7104 39.8353 71.636 39.9922 71.603 40.1823C71.5699 40.3806 71.5534 40.5954 71.5534 40.835ZM78.6014 40.0997C78.6014 40.3888 78.5353 40.6285 78.4113 40.8185C78.2791 41.0003 78.0974 41.1407 77.866 41.2316C77.6264 41.3225 77.362 41.3638 77.048 41.3638H76.5688V42.8676H75.6764V38.9099H77.0563C77.4364 38.9099 77.7421 38.9594 77.9734 39.0503C78.2048 39.1495 78.3618 39.2817 78.4609 39.4552C78.5601 39.6287 78.6014 39.8435 78.6014 40.0997ZM76.5688 40.7276H76.9076C77.1637 40.7276 77.362 40.678 77.4859 40.5789C77.6099 40.488 77.676 40.3393 77.676 40.1327C77.676 39.9344 77.6181 39.7857 77.5025 39.6948C77.3868 39.6039 77.1967 39.5543 76.9489 39.5543H76.5688V40.7276ZM81.0967 39.5378V40.4715H82.5343V41.0994H81.0967V42.2397H82.7657V42.8676H80.2043V38.9099H82.6831V39.5378H81.0967ZM87.3762 40.0336C87.3762 40.298 87.3018 40.521 87.1531 40.7028C86.9961 40.8846 86.7648 41.0168 86.4508 41.0994C86.5334 41.1242 86.5995 41.149 86.6656 41.1903C86.7317 41.2316 86.8061 41.2977 86.8887 41.3969C86.9713 41.496 87.0622 41.6282 87.1531 41.81L87.748 42.8676H86.74L86.1947 41.9174C86.0625 41.6943 85.955 41.5373 85.8807 41.4465C85.8063 41.3473 85.7402 41.2812 85.6824 41.2564C85.6163 41.2316 85.5419 41.2151 85.4428 41.2151H85.2362V42.8676H84.3438V38.9099H85.8642C86.393 38.9099 86.773 39.009 87.0126 39.199C87.2605 39.3891 87.3762 39.67 87.3762 40.0336ZM86.4673 40.0749C86.4673 39.8848 86.4012 39.7526 86.2773 39.6783C86.1451 39.5956 85.955 39.5543 85.6989 39.5543H85.2362V40.6202H85.6245C85.9137 40.6202 86.1286 40.5706 86.2608 40.4797C86.4012 40.3888 86.4673 40.2566 86.4673 40.0749ZM90.6069 39.5295V42.8676H89.7062V39.5295H88.6156V38.9099H91.681V39.5295H90.6069ZM93.1021 42.8676V38.9099H94.0028V42.8676H93.1021ZM96.6881 39.5378V40.4715H98.1175V41.0994H96.6881V42.2397H98.3489V42.8676H95.7957V38.9099H98.2662V39.5378H96.6881ZM101.232 39.4634C101.092 39.4634 100.976 39.4965 100.885 39.5709C100.795 39.637 100.745 39.7361 100.745 39.8518C100.745 39.9261 100.77 40.0005 100.803 40.0583C100.844 40.1244 100.919 40.1823 101.034 40.2566C101.15 40.3227 101.315 40.4054 101.538 40.488C101.885 40.6285 102.15 40.7524 102.331 40.8763C102.513 41.0003 102.645 41.1325 102.72 41.2647C102.786 41.4051 102.827 41.5621 102.827 41.7439C102.827 41.9753 102.761 42.1818 102.637 42.3553C102.513 42.5371 102.331 42.6776 102.1 42.785C101.877 42.8841 101.604 42.9337 101.29 42.9337C100.803 42.9337 100.431 42.818 100.167 42.5949C99.9022 42.3719 99.7618 42.0331 99.737 41.5869L100.646 41.5208C100.654 41.7191 100.687 41.8678 100.745 41.9835C100.795 42.0992 100.877 42.1818 100.968 42.2314C101.067 42.2727 101.183 42.2975 101.332 42.2975C101.456 42.2975 101.571 42.2727 101.662 42.2314C101.753 42.1818 101.827 42.124 101.877 42.0414C101.918 41.967 101.943 41.8926 101.943 41.8017C101.943 41.7109 101.918 41.6282 101.86 41.5539C101.811 41.4712 101.712 41.3969 101.571 41.3225C101.431 41.2399 101.232 41.1573 100.976 41.0581C100.588 40.9176 100.307 40.7524 100.125 40.5706C99.9518 40.3888 99.8692 40.174 99.8692 39.9179C99.8692 39.7113 99.927 39.5213 100.043 39.3643C100.15 39.199 100.315 39.0751 100.53 38.9842C100.737 38.8933 100.985 38.8438 101.257 38.8438C101.72 38.8438 102.067 38.9429 102.29 39.1495C102.521 39.356 102.654 39.6452 102.695 40.0253L101.803 40.0666C101.77 39.6617 101.58 39.4634 101.232 39.4634ZM105.777 41.81V41.0581H107.553V41.81H105.777ZM113.411 42.2397V42.8676H110.718V38.9099H111.619V42.2397H113.411ZM117.906 40.9424C117.906 41.3556 117.857 41.7026 117.749 42C117.65 42.2892 117.468 42.5206 117.221 42.6858C116.964 42.8511 116.617 42.9337 116.188 42.9337C115.733 42.9337 115.378 42.8346 115.122 42.6363C114.866 42.4462 114.692 42.1983 114.601 41.8926C114.51 41.5869 114.469 41.2316 114.469 40.835C114.469 39.513 115.039 38.8438 116.179 38.8438C116.766 38.8438 117.196 39.0173 117.485 39.356C117.766 39.6948 117.906 40.2236 117.906 40.9424ZM115.403 40.835C115.403 41.1986 115.428 41.4795 115.477 41.6861C115.535 41.9009 115.618 42.0496 115.733 42.1405C115.849 42.2314 115.998 42.281 116.196 42.281C116.419 42.281 116.584 42.2231 116.7 42.1075C116.816 41.9918 116.89 41.8265 116.923 41.6282C116.956 41.4217 116.973 41.149 116.973 40.8102C116.973 40.3888 116.915 40.0583 116.799 39.8353C116.683 39.6122 116.477 39.4965 116.188 39.4965C115.965 39.4965 115.791 39.5626 115.675 39.7031C115.56 39.8353 115.485 39.9922 115.452 40.1823C115.419 40.3806 115.403 40.5954 115.403 40.835ZM120.088 42.0827L119.873 42.8676H118.939L120.294 38.9099H121.269L122.608 42.8676H121.674L121.451 42.0827H120.088ZM120.782 39.6452L120.278 41.4382H121.277L120.782 39.6452ZM126.136 42.8676L124.673 40.2732H124.665L124.715 42.8676H123.897V38.9099H124.814L126.169 41.4051H126.177V38.9099H127.012V42.8676H126.136ZM130.102 39.4634C129.97 39.4634 129.854 39.4965 129.755 39.5709C129.664 39.637 129.623 39.7361 129.623 39.8518C129.623 39.9261 129.639 40.0005 129.672 40.0583C129.713 40.1244 129.788 40.1823 129.904 40.2566C130.019 40.3227 130.184 40.4054 130.416 40.488C130.755 40.6285 131.019 40.7524 131.201 40.8763C131.383 41.0003 131.515 41.1325 131.589 41.2647C131.655 41.4051 131.697 41.5621 131.697 41.7439C131.697 41.9753 131.63 42.1818 131.506 42.3553C131.383 42.5371 131.201 42.6776 130.978 42.785C130.746 42.8841 130.474 42.9337 130.16 42.9337C129.672 42.9337 129.3 42.818 129.036 42.5949C128.772 42.3719 128.631 42.0331 128.615 41.5869L129.515 41.5208C129.523 41.7191 129.557 41.8678 129.614 41.9835C129.672 42.0992 129.747 42.1818 129.837 42.2314C129.937 42.2727 130.061 42.2975 130.201 42.2975C130.325 42.2975 130.441 42.2727 130.531 42.2314C130.622 42.1818 130.697 42.124 130.746 42.0414C130.788 41.967 130.812 41.8926 130.812 41.8017C130.812 41.7109 130.788 41.6282 130.73 41.5539C130.68 41.4712 130.581 41.3969 130.441 41.3225C130.3 41.2399 130.102 41.1573 129.846 41.0581C129.457 40.9176 129.176 40.7524 129.003 40.5706C128.821 40.3888 128.739 40.174 128.739 39.9179C128.739 39.7113 128.796 39.5213 128.912 39.3643C129.019 39.199 129.185 39.0751 129.4 38.9842C129.606 38.8933 129.854 38.8438 130.127 38.8438C130.589 38.8438 130.936 38.9429 131.168 39.1495C131.391 39.356 131.523 39.6452 131.573 40.0253L130.672 40.0666C130.639 39.6617 130.449 39.4634 130.102 39.4634Z" fill="black"/>
<path fill-rule="evenodd" clip-rule="evenodd" d="M0 13.9554C0 17.8884 1.30548 20.8464 2.96625 24.1762L4.80054 27.4317C5.80031 28.985 6.70919 30.5219 7.82463 32.0504L10.9727 36.5453C11.9724 37.9995 13.1788 39.5693 14.1455 41.0153C14.3686 40.8666 14.5256 40.5609 14.6991 40.2964C16.4425 37.6524 18.7229 34.711 20.4746 32.067C20.8299 31.5216 21.1439 31.092 21.5074 30.5466C21.8627 30.0178 22.1849 29.5386 22.5237 29.0181C24.3084 26.341 25.837 23.8209 27.0433 20.8051C28.3984 17.4422 28.7041 14.3603 27.9687 10.8239C27.7787 9.92332 27.4069 9.06402 27.0764 8.26255C26.6467 7.2132 25.7957 5.98209 25.0768 5.08973C24.9364 4.91622 24.8372 4.84185 24.6968 4.65181C24.548 4.46178 24.4489 4.37089 24.2671 4.18911C23.5235 3.44548 22.2841 2.45398 21.3504 1.93344C20.9538 1.71035 20.6481 1.52031 20.2267 1.33853C19.4005 0.983243 18.632 0.661004 17.6901 0.42139C15.4344 -0.140463 12.9226 -0.140463 10.667 0.42139C9.25405 0.784942 8.21297 1.26417 7.00664 1.93344C6.09776 2.43745 4.28826 3.84209 3.69336 4.6105C3.52811 4.83359 3.43722 4.89969 3.28023 5.08973C2.7349 5.759 2.28046 6.36216 1.86734 7.13058C0.718842 9.25405 0 11.4188 0 13.9554ZM14.1785 3.7512C20.0449 3.7512 24.7959 8.51869 24.7959 14.3934C24.7959 20.268 20.0449 25.0355 14.1785 25.0355C8.31212 25.0355 3.56116 20.268 3.56116 14.3934C3.56116 8.51869 8.31212 3.7512 14.1785 3.7512Z" fill="black"/>
<path d="M19.6728 21.2841H16.6322V15.0211H11.7242V21.2841H8.68359V7.5022H11.7242V12.7985H16.6322V7.5022H19.6728V21.2841Z" fill="black"/>
</svg>
