<svg width="238" height="47" viewBox="0 0 238 47" fill="none" xmlns="http://www.w3.org/2000/svg">
<path fill-rule="evenodd" clip-rule="evenodd" d="M18.6976 0.17933C13.2479 0.874392 8.28663 3.34103 4.45012 7.263C2.79772 8.95224 -0.168457 12.9646 0.00749014 13.2726C0.0473389 13.3424 2.05858 14.5516 4.47668 15.9596C6.89458 17.3677 8.87312 18.5839 8.87312 18.6626C8.87312 18.7413 8.67776 19.5664 8.43908 20.4961C7.56608 23.8966 8.28234 27.8439 10.3154 30.8381C14.9303 37.6346 24.4589 38.7741 30.512 33.2536L31.9088 31.9799L34.4914 33.5026C35.9116 34.3402 37.0738 35.1359 37.0738 35.2712C37.0738 35.6096 33.7199 38.7918 32.5112 39.6002C31.065 40.5676 28.4295 41.7252 26.4474 42.2637C24.9706 42.6648 24.2361 42.7355 21.543 42.7351C18.867 42.7347 18.106 42.6622 16.6385 42.2681C14.5701 41.7123 12.0394 40.577 10.3814 39.4615C9.0129 38.5404 6.15135 35.7072 5.30165 34.4322C4.98818 33.9616 4.68308 33.5767 4.62361 33.5767C4.53145 33.5767 1.37134 35.3366 1.12346 35.526C0.914817 35.6856 3.16474 38.5969 4.59888 40.0229C11.8601 47.243 22.8098 49.0484 32.0671 44.5518C34.6824 43.2814 36.5314 41.9551 38.6501 39.8292C40.1047 38.3699 43 34.4018 43 33.8678C43 33.7269 42.3792 33.2534 41.6206 32.8158C40.8621 32.378 38.1722 30.8216 35.6433 29.357C33.1144 27.8924 30.895 26.6146 30.7113 26.5176C30.4401 26.3741 30.2502 26.585 29.7018 27.6384C26.9403 32.9414 19.655 34.1745 15.2548 30.0835C12.6974 27.7056 11.7261 24.1262 12.7509 20.8577C13.9503 17.0329 17.4925 14.4634 21.5759 14.4564C24.1744 14.4517 26.4701 15.4669 28.3254 17.4407L29.4473 18.6344L31.214 17.6269L32.9806 16.6195L32.626 16.0218C32.0205 15.0011 29.2693 12.5747 27.9192 11.8706C26.183 10.9652 24.2466 10.435 22.156 10.2928C18.5852 10.0499 14.0972 11.8084 11.9887 14.2766C11.7163 14.5957 11.3589 14.8565 11.1946 14.8565C10.7593 14.8565 6.01219 12.0495 6.01219 11.7921C6.01219 11.6721 6.49282 11.0672 7.08013 10.4476C13.2172 3.97389 22.4789 2.33939 30.5345 6.30807C33.0378 7.54139 35.6082 9.71454 37.4306 12.1391C37.93 12.8034 38.3712 13.3801 38.4111 13.4205C38.4707 13.4813 41.6756 11.754 41.9625 11.5066C42.1763 11.3223 39.8828 8.38279 38.37 6.90269C33.1633 1.80859 25.761 -0.721251 18.6976 0.17933Z" fill="#FE7152"/>
<path d="M74.2273 20.4545H67.8182C67.7727 19.9242 67.6515 19.4432 67.4545 19.0114C67.2652 18.5795 67 18.2083 66.6591 17.8977C66.3258 17.5795 65.9205 17.3371 65.4432 17.1705C64.9659 16.9962 64.4242 16.9091 63.8182 16.9091C62.7576 16.9091 61.8598 17.1667 61.125 17.6818C60.3977 18.197 59.8447 18.9356 59.4659 19.8977C59.0947 20.8598 58.9091 22.0152 58.9091 23.3636C58.9091 24.7879 59.0985 25.9811 59.4773 26.9432C59.8636 27.8977 60.4205 28.6174 61.1477 29.1023C61.875 29.5795 62.75 29.8182 63.7727 29.8182C64.3561 29.8182 64.8788 29.7462 65.3409 29.6023C65.803 29.4508 66.2045 29.2348 66.5455 28.9545C66.8864 28.6742 67.1629 28.3371 67.375 27.9432C67.5947 27.5417 67.7424 27.0909 67.8182 26.5909L74.2273 26.6364C74.1515 27.6212 73.875 28.625 73.3977 29.6477C72.9205 30.6629 72.2424 31.6023 71.3636 32.4659C70.4924 33.322 69.4129 34.0114 68.125 34.5341C66.8371 35.0568 65.3409 35.3182 63.6364 35.3182C61.5 35.3182 59.5833 34.8598 57.8864 33.9432C56.197 33.0265 54.8598 31.678 53.875 29.8977C52.8977 28.1174 52.4091 25.9394 52.4091 23.3636C52.4091 20.7727 52.9091 18.5909 53.9091 16.8182C54.9091 15.0379 56.2576 13.6932 57.9545 12.7841C59.6515 11.8674 61.5455 11.4091 63.6364 11.4091C65.1061 11.4091 66.4583 11.6098 67.6932 12.0114C68.928 12.4129 70.0114 13 70.9432 13.7727C71.875 14.5379 72.625 15.4811 73.1932 16.6023C73.7614 17.7235 74.1061 19.0076 74.2273 20.4545ZM85.5938 35.3182C83.6998 35.3182 82.0786 34.9432 80.7301 34.1932C79.3816 33.4356 78.3475 32.3826 77.6278 31.0341C76.9081 29.678 76.5483 28.1061 76.5483 26.3182C76.5483 24.5303 76.9081 22.9621 77.6278 21.6136C78.3475 20.2576 79.3816 19.2045 80.7301 18.4545C82.0786 17.697 83.6998 17.3182 85.5938 17.3182C87.4877 17.3182 89.1089 17.697 90.4574 18.4545C91.8059 19.2045 92.84 20.2576 93.5597 21.6136C94.2794 22.9621 94.6392 24.5303 94.6392 26.3182C94.6392 28.1061 94.2794 29.678 93.5597 31.0341C92.84 32.3826 91.8059 33.4356 90.4574 34.1932C89.1089 34.9432 87.4877 35.3182 85.5938 35.3182ZM85.6392 30.6818C86.1695 30.6818 86.6278 30.5038 87.0142 30.1477C87.4006 29.7917 87.6998 29.2841 87.9119 28.625C88.1241 27.9659 88.2301 27.1818 88.2301 26.2727C88.2301 25.3561 88.1241 24.572 87.9119 23.9205C87.6998 23.2614 87.4006 22.7538 87.0142 22.3977C86.6278 22.0417 86.1695 21.8636 85.6392 21.8636C85.0786 21.8636 84.5975 22.0417 84.196 22.3977C83.7945 22.7538 83.4877 23.2614 83.2756 23.9205C83.0634 24.572 82.9574 25.3561 82.9574 26.2727C82.9574 27.1818 83.0634 27.9659 83.2756 28.625C83.4877 29.2841 83.7945 29.7917 84.196 30.1477C84.5975 30.5038 85.0786 30.6818 85.6392 30.6818ZM97.1847 35V17.5455H103.276V20.8636H103.457C103.776 19.6364 104.279 18.7386 104.969 18.1705C105.666 17.6023 106.48 17.3182 107.412 17.3182C107.685 17.3182 107.954 17.3409 108.219 17.3864C108.491 17.4242 108.753 17.4811 109.003 17.5568V22.9091C108.692 22.803 108.31 22.7235 107.855 22.6705C107.401 22.6174 107.01 22.5909 106.685 22.5909C106.071 22.5909 105.518 22.7311 105.026 23.0114C104.541 23.2841 104.158 23.6705 103.878 24.1705C103.598 24.6629 103.457 25.2424 103.457 25.9091V35H97.1847ZM118.423 35.3182C116.56 35.3182 114.954 34.9621 113.605 34.25C112.264 33.5303 111.23 32.5 110.503 31.1591C109.783 29.8106 109.423 28.197 109.423 26.3182C109.423 24.5152 109.787 22.9394 110.514 21.5909C111.241 20.2424 112.268 19.1932 113.594 18.4432C114.92 17.6932 116.484 17.3182 118.287 17.3182C119.605 17.3182 120.798 17.5227 121.866 17.9318C122.935 18.3409 123.848 18.9356 124.605 19.7159C125.363 20.4886 125.946 21.428 126.355 22.5341C126.764 23.6402 126.969 24.8864 126.969 26.2727V27.7273H111.378V24.2727H121.196C121.188 23.7727 121.06 23.3333 120.81 22.9545C120.567 22.5682 120.238 22.2689 119.821 22.0568C119.412 21.8371 118.946 21.7273 118.423 21.7273C117.916 21.7273 117.45 21.8371 117.026 22.0568C116.601 22.2689 116.26 22.5644 116.003 22.9432C115.753 23.322 115.62 23.7652 115.605 24.2727V28C115.605 28.5606 115.723 29.0606 115.957 29.5C116.192 29.9394 116.529 30.2841 116.969 30.5341C117.408 30.7841 117.938 30.9091 118.56 30.9091C118.991 30.9091 119.385 30.8485 119.741 30.7273C120.105 30.6061 120.416 30.4318 120.673 30.2045C120.931 29.9697 121.12 29.6894 121.241 29.3636H126.969C126.772 30.5758 126.306 31.6288 125.571 32.5227C124.836 33.4091 123.863 34.0985 122.651 34.5909C121.446 35.0758 120.037 35.3182 118.423 35.3182ZM141.722 35L134.858 11.7273H141.903L145.085 26.0455H145.267L149.04 11.7273H154.585L158.358 26.0909H158.54L161.722 11.7273H168.767L161.903 35H155.858L151.903 22H151.722L147.767 35H141.722ZM173.736 35.2727C172.622 35.2727 171.637 35.0909 170.781 34.7273C169.933 34.3561 169.266 33.7955 168.781 33.0455C168.296 32.2955 168.054 31.3409 168.054 30.1818C168.054 29.2273 168.217 28.4129 168.543 27.7386C168.868 27.0568 169.323 26.5 169.906 26.0682C170.49 25.6364 171.168 25.3068 171.94 25.0795C172.721 24.8523 173.562 24.7045 174.463 24.6364C175.44 24.5606 176.224 24.4697 176.815 24.3636C177.414 24.25 177.846 24.0947 178.111 23.8977C178.376 23.6932 178.509 23.4242 178.509 23.0909V23.0455C178.509 22.5909 178.334 22.2424 177.986 22C177.637 21.7576 177.19 21.6364 176.645 21.6364C176.046 21.6364 175.558 21.7689 175.179 22.0341C174.808 22.2917 174.584 22.6894 174.509 23.2273H168.736C168.812 22.1667 169.149 21.1894 169.747 20.2955C170.353 19.3939 171.236 18.6742 172.395 18.1364C173.554 17.5909 175.001 17.3182 176.736 17.3182C177.986 17.3182 179.107 17.4659 180.099 17.7614C181.092 18.0492 181.937 18.4545 182.634 18.9773C183.33 19.4924 183.861 20.0985 184.224 20.7955C184.596 21.4848 184.781 22.2348 184.781 23.0455V35H178.918V32.5455H178.781C178.433 33.197 178.009 33.7235 177.509 34.125C177.016 34.5265 176.452 34.8182 175.815 35C175.187 35.1818 174.493 35.2727 173.736 35.2727ZM175.781 31.3182C176.259 31.3182 176.705 31.2197 177.122 31.0227C177.546 30.8258 177.891 30.5417 178.156 30.1705C178.421 29.7992 178.554 29.3485 178.554 28.8182V27.3636C178.387 27.4318 178.209 27.4962 178.02 27.5568C177.838 27.6174 177.641 27.6742 177.429 27.7273C177.224 27.7803 177.005 27.8295 176.77 27.875C176.543 27.9205 176.304 27.9621 176.054 28C175.569 28.0758 175.171 28.2008 174.861 28.375C174.558 28.5417 174.33 28.75 174.179 29C174.035 29.2424 173.963 29.5152 173.963 29.8182C173.963 30.303 174.134 30.6742 174.474 30.9318C174.815 31.1894 175.251 31.3182 175.781 31.3182ZM194.051 11.7273V35H187.778V11.7273H194.051ZM203.52 11.7273V35H197.247V11.7273H203.52ZM215.08 35.3182C213.216 35.3182 211.61 34.9621 210.261 34.25C208.92 33.5303 207.886 32.5 207.159 31.1591C206.439 29.8106 206.08 28.197 206.08 26.3182C206.08 24.5152 206.443 22.9394 207.17 21.5909C207.898 20.2424 208.924 19.1932 210.25 18.4432C211.576 17.6932 213.14 17.3182 214.943 17.3182C216.261 17.3182 217.455 17.5227 218.523 17.9318C219.591 18.3409 220.504 18.9356 221.261 19.7159C222.019 20.4886 222.602 21.428 223.011 22.5341C223.42 23.6402 223.625 24.8864 223.625 26.2727V27.7273H208.034V24.2727H217.852C217.845 23.7727 217.716 23.3333 217.466 22.9545C217.223 22.5682 216.894 22.2689 216.477 22.0568C216.068 21.8371 215.602 21.7273 215.08 21.7273C214.572 21.7273 214.106 21.8371 213.682 22.0568C213.258 22.2689 212.917 22.5644 212.659 22.9432C212.409 23.322 212.277 23.7652 212.261 24.2727V28C212.261 28.5606 212.379 29.0606 212.614 29.5C212.848 29.9394 213.186 30.2841 213.625 30.5341C214.064 30.7841 214.595 30.9091 215.216 30.9091C215.648 30.9091 216.042 30.8485 216.398 30.7273C216.761 30.6061 217.072 30.4318 217.33 30.2045C217.587 29.9697 217.777 29.6894 217.898 29.3636H223.625C223.428 30.5758 222.962 31.6288 222.227 32.5227C221.492 33.4091 220.519 34.0985 219.307 34.5909C218.102 35.0758 216.693 35.3182 215.08 35.3182ZM236.594 17.5455V22.0909H225.094V17.5455H236.594ZM227.321 13.3636H233.594V29.3864C233.594 29.6288 233.635 29.8333 233.719 30C233.802 30.1591 233.931 30.2803 234.105 30.3636C234.279 30.4394 234.503 30.4773 234.776 30.4773C234.965 30.4773 235.185 30.4545 235.435 30.4091C235.692 30.3636 235.882 30.3258 236.003 30.2955L236.912 34.7045C236.632 34.7879 236.23 34.8902 235.707 35.0114C235.192 35.1326 234.579 35.2121 233.866 35.25C232.427 35.3258 231.219 35.178 230.241 34.8068C229.264 34.428 228.529 33.8333 228.037 33.0227C227.545 32.2121 227.306 31.197 227.321 29.9773V13.3636Z" fill="#131414"/>
</svg>
