<svg width="222" height="106" viewBox="0 0 222 106" fill="none" xmlns="http://www.w3.org/2000/svg">
<line y1="-1.06019" x2="127.631" y2="-1.06019" transform="matrix(-0.571088 -0.820889 -0.901826 0.432099 72.8887 105.771)" stroke="#6F4F50" stroke-width="2.12038"/>
<line y1="-1.06019" x2="127.631" y2="-1.06019" transform="matrix(-0.571088 -0.820889 -0.901826 0.432099 96.8281 105.771)" stroke="#6F4F50" stroke-width="2.12038"/>
<line y1="-1.06019" x2="127.631" y2="-1.06019" transform="matrix(-0.571088 -0.820889 -0.901826 0.432099 120.773 105.771)" stroke="#6F4F50" stroke-width="2.12038"/>
<line y1="-1.06019" x2="127.631" y2="-1.06019" transform="matrix(-0.571088 -0.820889 -0.901826 0.432099 144.713 105.771)" stroke="#6F4F50" stroke-width="2.12038"/>
<line y1="-1.06019" x2="127.631" y2="-1.06019" transform="matrix(-0.571088 -0.820889 -0.901826 0.432099 168.654 105.771)" stroke="#6F4F50" stroke-width="2.12038"/>
<line y1="-1.06019" x2="127.631" y2="-1.06019" transform="matrix(-0.571088 -0.820889 -0.901826 0.432099 192.596 105.771)" stroke="#6F4F50" stroke-width="2.12038"/>
<line y1="-1.06019" x2="127.631" y2="-1.06019" transform="matrix(-0.571088 -0.820889 -0.901826 0.432099 216.537 105.771)" stroke="#6F4F50" stroke-width="2.12038"/>
<line y1="-1.06019" x2="127.631" y2="-1.06019" transform="matrix(-0.571088 -0.820889 -0.901826 0.432099 240.479 105.771)" stroke="#6F4F50" stroke-width="2.12038"/>
<line y1="-1.06019" x2="127.631" y2="-1.06019" transform="matrix(-0.571088 -0.820889 -0.901826 0.432099 264.42 105.771)" stroke="#6F4F50" stroke-width="2.12038"/>
<line y1="-1.06019" x2="127.631" y2="-1.06019" transform="matrix(-0.571088 -0.820889 -0.901826 0.432099 288.363 105.771)" stroke="#6F4F50" stroke-width="2.12038"/>
</svg>
