<svg width="259" height="279" viewBox="0 0 259 279" fill="none" xmlns="http://www.w3.org/2000/svg">
<path fill-rule="evenodd" clip-rule="evenodd" d="M132.207 53.9413C131.789 53.6285 131.501 53.1726 131.4 52.6611C131.298 52.1496 131.389 51.6186 131.655 51.1701C131.922 50.7216 132.345 50.3872 132.844 50.2312C133.343 50.0751 133.882 50.1085 134.357 50.3248C135.248 50.8458 136.108 51.3975 136.968 51.9798L139.486 53.7574C139.728 53.9209 139.933 54.1332 140.088 54.3808C140.243 54.6283 140.344 54.9055 140.384 55.1944C140.425 55.4833 140.404 55.7774 140.323 56.0578C140.243 56.3382 140.104 56.5986 139.916 56.8221C139.749 57.06 139.535 57.2609 139.287 57.4125C139.039 57.5642 138.762 57.6632 138.474 57.7034C138.186 57.7437 137.893 57.7243 137.612 57.6465C137.332 57.5687 137.071 57.4342 136.845 57.2512C136.077 56.6689 135.309 56.1172 134.511 55.5962C133.712 55.0752 132.914 54.5542 132.084 54.0638L132.207 53.9413ZM100.265 154.772C111.569 154.765 122.521 150.848 131.255 143.687C139.989 136.527 145.965 126.566 148.165 115.502C150.366 104.438 148.654 92.9554 143.321 83.0097C137.989 73.0639 129.366 65.2705 118.921 60.9572C108.476 56.6438 96.856 56.0773 86.0396 59.3541C75.2232 62.6309 65.8799 69.5483 59.6012 78.9279C53.3226 88.3076 50.4969 99.5693 51.6057 110.795C52.7145 122.02 57.6891 132.514 65.6821 140.49C70.2181 145.029 75.609 148.627 81.5442 151.078C87.4794 153.529 93.8419 154.785 100.265 154.772ZM137.121 142.728C145.61 134.207 150.876 123.014 152.024 111.054C153.171 99.094 150.128 87.107 143.414 77.1341C136.699 67.1612 126.728 59.8191 115.198 56.358C103.668 52.8969 91.2927 53.5308 80.1786 58.1518C69.0645 62.7728 59.8991 71.0952 54.2433 81.7017C48.5875 92.3082 46.7909 104.543 49.1594 116.323C51.528 128.103 57.9152 138.699 67.2335 146.308C76.5518 153.916 88.225 158.066 100.265 158.052C107.119 158.057 113.906 156.705 120.232 154.075C126.558 151.444 132.299 147.587 137.121 142.728ZM123.669 30.649V9.53268C123.669 7.00478 122.663 4.58042 120.871 2.79293C119.08 1.00544 116.65 0.001232 114.117 0.001232H86.475C85.2078 -0.0191006 83.9492 0.212422 82.7725 0.682311C81.5958 1.1522 80.5246 1.85106 79.6213 2.73817C78.718 3.62528 78.0007 4.6829 77.5111 5.84941C77.0215 7.01592 76.7694 8.26799 76.7696 9.53268V30.649C65.4412 34.15 55.0486 40.1523 46.3633 48.2101L28.2425 37.5447C26.0577 36.2864 23.4618 35.9447 21.0248 36.5946C18.6242 37.2831 16.5863 38.8769 15.3428 41.0386L1.39898 64.8825C0.771208 65.967 0.363789 67.1644 0.200008 68.4061C0.0362273 69.6478 0.119297 70.9095 0.444467 72.1192C0.769637 73.3289 1.33053 74.4627 2.09509 75.456C2.85965 76.4492 3.81288 77.2824 4.9003 77.9078L23.1133 88.3893C22.4988 90.9959 22.0373 93.6361 21.7312 96.2964C20.9544 102.678 20.9544 109.131 21.7312 115.513C22.0347 118.183 22.4962 120.834 23.1133 123.45L4.99244 133.871C3.86338 134.483 2.86966 135.316 2.07077 136.32C1.27187 137.324 0.684227 138.479 0.342996 139.715C0.00176613 140.951 -0.0860318 142.243 0.0848581 143.514C0.255748 144.784 0.681812 146.008 1.33755 147.11L15.1279 170.954C16.4002 173.141 18.4864 174.738 20.9327 175.398C23.3184 176.109 25.8885 175.856 28.0889 174.693L46.3019 164.181C50.6338 168.209 55.4156 171.726 60.5529 174.663C65.6855 177.546 71.1248 179.849 76.7696 181.528V202.491C76.7781 205.017 77.782 207.439 79.5645 209.233C80.452 210.118 81.5056 210.82 82.6649 211.299C83.8243 211.777 85.0668 212.023 86.3214 212.022H113.963C116.497 212.022 118.926 211.018 120.718 209.231C122.509 207.443 123.515 205.019 123.515 202.491V181.528C129.148 179.776 134.567 177.402 139.671 174.448C144.803 171.503 149.584 167.987 153.922 163.967L172.135 174.479C173.221 175.105 174.421 175.512 175.666 175.675C176.91 175.839 178.175 175.756 179.387 175.431C180.599 175.107 181.735 174.547 182.731 173.784C183.726 173.021 184.561 172.07 185.188 170.985L199.132 147.11C199.759 146.026 200.167 144.829 200.331 143.587C200.494 142.345 200.411 141.083 200.086 139.874C199.761 138.664 199.2 137.53 198.436 136.537C197.671 135.544 196.718 134.711 195.63 134.085L177.417 123.604C178.02 120.984 178.481 118.334 178.799 115.666C179.91 106.613 179.443 97.4364 177.417 88.5426L195.507 78.1223C196.595 77.4969 197.548 76.6637 198.313 75.6705C199.077 74.6773 199.638 73.5434 199.963 72.3337C200.288 71.1241 200.372 69.8623 200.208 68.6206C200.044 67.3789 199.637 66.1815 199.009 65.097L185.219 41.2531C183.946 39.0662 181.86 37.4691 179.414 36.8092C177.023 36.1711 174.477 36.49 172.319 37.698L154.106 48.2101C149.761 44.1893 144.981 40.6635 139.855 37.698C134.74 34.7522 129.311 32.3878 123.669 30.649ZM137.705 41.345C132.472 38.304 126.88 35.9258 121.058 34.2654C120.598 34.1543 120.19 33.8907 119.9 33.5176C119.609 33.1445 119.455 32.6842 119.461 32.212V9.53268C119.461 8.83238 119.323 8.13894 119.054 7.49194C118.786 6.84495 118.392 6.25707 117.896 5.76189C117.4 5.2667 116.811 4.87389 116.162 4.6059C115.514 4.33791 114.819 4.19997 114.117 4.19997H86.475C85.7681 4.19186 85.0665 4.32381 84.411 4.58817C83.7556 4.85253 83.1591 5.24405 82.6564 5.74005C82.1536 6.23605 81.7544 6.82666 81.482 7.47768C81.2096 8.1287 81.0694 8.82719 81.0695 9.53268V32.0588C81.0723 32.5176 80.9234 32.9645 80.6457 33.3303C80.3681 33.696 79.9772 33.9601 79.5338 34.0815C73.6899 35.7767 68.0703 38.1637 62.795 41.1918C57.5238 44.2225 52.6449 47.8867 48.2676 52.1024C47.945 52.4392 47.5186 52.6584 47.0566 52.7251C46.5945 52.7918 46.1233 52.702 45.7184 52.4702L26.1232 41.1918C24.8891 40.5025 23.4325 40.3263 22.0691 40.7014C20.7657 41.0909 19.6646 41.9699 18.9977 43.1533L5.05387 66.9665C4.36827 68.199 4.18144 69.6465 4.53174 71.012C4.90881 72.3674 5.80151 73.5221 7.01952 74.2301L26.4611 85.4471C26.8891 85.6622 27.2314 86.0156 27.4322 86.4497C27.633 86.8839 27.6805 87.3731 27.5668 87.8377C26.8476 90.7757 26.304 93.7538 25.939 96.7561C25.566 99.8067 25.3814 102.877 25.3861 105.95C25.3791 109.024 25.5637 112.094 25.939 115.145C26.3255 118.148 26.8896 121.126 27.6282 124.063C27.7375 124.505 27.7009 124.971 27.5238 125.391C27.3468 125.81 27.0387 126.162 26.6454 126.393L7.05024 137.579C5.85688 138.243 4.96591 139.341 4.56245 140.644C4.21215 142.009 4.39898 143.457 5.08458 144.689L18.9056 168.533C19.5612 169.732 20.6651 170.625 21.9769 171.016C23.3081 171.372 24.7253 171.208 25.939 170.556L45.5341 159.278C45.9247 159.048 46.3803 158.954 46.8301 159.009C47.28 159.065 47.6989 159.267 48.0219 159.584C52.4192 163.82 57.3184 167.505 62.6107 170.556C67.8612 173.561 73.4487 175.937 79.2574 177.636C79.7205 177.734 80.1354 177.989 80.4319 178.358C80.7285 178.726 80.8886 179.186 80.8852 179.658V202.215C80.8811 202.915 81.0167 203.609 81.2842 204.256C81.5517 204.903 81.9457 205.491 82.4431 205.984C82.9406 206.478 83.5316 206.868 84.1817 207.131C84.8318 207.394 85.5278 207.525 86.2293 207.517H113.871C114.573 207.525 115.269 207.394 115.919 207.131C116.569 206.868 117.16 206.478 117.658 205.984C118.155 205.491 118.549 204.903 118.816 204.256C119.084 203.609 119.22 202.915 119.215 202.215V179.934C119.218 179.477 119.369 179.032 119.645 178.667C119.922 178.303 120.31 178.037 120.751 177.911C132.515 174.559 143.266 168.358 152.048 159.86C152.383 159.553 152.806 159.358 153.258 159.303C153.71 159.249 154.167 159.336 154.567 159.553L174.162 170.832C174.762 171.185 175.428 171.414 176.12 171.503C176.811 171.593 177.514 171.542 178.185 171.353C178.867 171.178 179.506 170.868 180.066 170.441C180.625 170.015 181.092 169.481 181.441 168.87L195.231 145.026C195.637 144.443 195.919 143.784 196.062 143.089C196.204 142.393 196.204 141.676 196.06 140.981C195.679 139.676 194.796 138.574 193.603 137.916L174.131 126.454C173.703 126.239 173.361 125.885 173.16 125.451C172.959 125.017 172.912 124.528 173.025 124.063C173.77 121.119 174.323 118.13 174.684 115.114C175.059 112.064 175.244 108.993 175.237 105.92C175.241 102.847 175.057 99.7761 174.684 96.7255C174.323 93.7202 173.769 90.7412 173.025 87.807C172.919 87.3616 172.96 86.8937 173.143 86.4737C173.325 86.0537 173.64 85.7042 174.039 85.4778L193.48 74.4139C194.699 73.7034 195.586 72.5409 195.948 71.1801C196.311 69.8194 196.119 68.3708 195.415 67.1504L181.625 43.3065C181.271 42.704 180.801 42.1772 180.242 41.7564C179.684 41.3357 179.047 41.0292 178.369 40.8547C177.717 40.6642 177.032 40.6067 176.357 40.6857C175.682 40.7647 175.029 40.9785 174.438 41.3144L154.843 52.5928C154.445 52.8148 153.986 52.9048 153.534 52.8497C153.081 52.7947 152.657 52.5973 152.324 52.2863C147.933 48.0433 143.033 44.3581 137.736 41.3144L137.705 41.345ZM100.265 64.3615C109.923 64.3337 119.292 67.649 126.775 73.7422C134.258 79.8355 139.392 88.3296 141.301 97.7769C143.211 107.224 141.778 117.04 137.247 125.551C132.716 134.062 125.367 140.742 116.454 144.452C107.54 148.162 97.6124 148.673 88.3635 145.897C79.1146 143.121 71.1167 137.23 65.7329 129.229C60.349 121.228 57.9125 111.611 58.8385 102.018C59.7645 92.425 63.9958 83.4492 70.8112 76.6206C74.6658 72.7371 79.2534 69.6542 84.3089 67.55C89.3644 65.4459 94.7877 64.3622 100.265 64.3615ZM126.74 79.6854C132.865 85.7968 136.677 93.8385 137.527 102.44C138.376 111.042 136.21 119.671 131.398 126.858C126.587 134.045 119.426 139.345 111.137 141.854C102.849 144.363 93.9445 143.927 85.9418 140.62C77.9392 137.313 71.3333 131.339 67.2498 123.717C63.1662 116.094 61.8576 107.295 63.547 98.8173C65.2363 90.3399 69.8191 82.7094 76.5145 77.2257C83.2098 71.7421 91.6035 68.7446 100.265 68.7441C105.184 68.7321 110.056 69.6928 114.6 71.5708C119.144 73.4487 123.271 76.2067 126.74 79.6854ZM144.339 63.5033C144.131 63.3058 143.965 63.0681 143.852 62.8047C143.739 62.5413 143.68 62.2576 143.68 61.971C143.68 61.6843 143.739 61.4007 143.852 61.1372C143.965 60.8738 144.131 60.6361 144.339 60.4386C144.535 60.2268 144.772 60.0578 145.036 59.9423C145.301 59.8267 145.586 59.767 145.875 59.767C146.163 59.767 146.449 59.8267 146.713 59.9423C146.977 60.0578 147.215 60.2268 147.41 60.4386C151.677 64.8268 155.278 69.8138 158.099 75.2414C160.987 80.627 163.057 86.4111 164.241 92.4042C164.61 94.3043 164.886 96.2964 165.071 98.3192C165.283 100.355 165.385 102.402 165.378 104.449C165.378 105.01 165.154 105.547 164.757 105.944C164.36 106.341 163.82 106.563 163.258 106.563C162.982 106.563 162.707 106.509 162.452 106.402C162.197 106.295 161.965 106.139 161.771 105.942C161.576 105.745 161.423 105.512 161.32 105.256C161.217 104.999 161.166 104.725 161.17 104.449C161.173 102.576 161.081 100.704 160.894 98.8402C160.601 96.9697 160.201 95.1176 159.696 93.293C158.629 87.7198 156.756 82.3308 154.137 77.2948C151.548 72.2542 148.248 67.6098 144.339 63.5033Z" fill="#419586"/>
<path fill-rule="evenodd" clip-rule="evenodd" d="M83.957 19.4012C84.9399 19.6464 85.3698 19.1867 86.6905 18.114C87.5198 17.4091 88.2262 16.6736 89.0247 16.03L92.5261 12.812C94.2153 11.157 92.8946 10.6053 91.7889 11.4941L90.5297 12.5361C88.2946 14.3155 86.2374 16.3067 84.387 18.4818C84.2521 18.5942 84.1437 18.7348 84.0694 18.8937C83.9951 19.0526 83.9567 19.2259 83.957 19.4012Z" fill="#419586"/>
<path fill-rule="evenodd" clip-rule="evenodd" d="M16.1416 72.7591C17.3087 73.3721 17.3701 72.5752 18.2915 71.4106L21.7621 66.8135C22.4071 65.9553 23.3592 65.1278 22.0386 64.4229C21.3515 64.8777 20.7488 65.4481 20.2572 66.1086C19.9808 66.415 19.7044 66.7215 19.4279 67.0893L17.1551 70.1541C16.5225 70.8775 16.1639 71.7992 16.1416 72.7591Z" fill="#419586"/>
<path fill-rule="evenodd" clip-rule="evenodd" d="M86.2909 192.837V193.235C87.5808 193.572 89.5465 191.366 90.56 190.6C91.5736 189.833 93.9692 187.535 93.9385 186.738V186.34C93.7208 186.268 93.4876 186.259 93.2651 186.314C93.0426 186.368 92.8397 186.483 92.6793 186.646C91.2718 187.64 89.9653 188.769 88.7787 190.017C88.103 190.722 88.1951 190.232 87.3965 191.335C87.277 191.518 87.1322 191.683 86.9666 191.825C86.7823 191.917 86.2294 192.469 86.2909 192.837Z" fill="#419586"/>
<path fill-rule="evenodd" clip-rule="evenodd" d="M160.647 154.558C161.692 154.865 162.091 153.792 162.582 153.148C163.606 151.79 164.539 150.367 165.377 148.888C165.917 148.163 166.198 147.278 166.176 146.375C165.978 146.282 165.753 146.266 165.543 146.328C165.334 146.39 165.154 146.527 165.04 146.712C163.685 148.369 162.483 150.143 161.446 152.014C161.016 152.781 160.402 153.7 160.647 154.558Z" fill="#419586"/>
<path fill-rule="evenodd" clip-rule="evenodd" d="M154.321 153.24C155.058 153.24 155.918 152.229 156.256 151.769C156.594 151.309 157.239 150.604 157.792 149.93C158.344 149.256 158.222 149.317 158.529 148.949C158.836 148.582 160.494 146.589 160.126 145.639C158.989 145.302 157.054 147.999 156.379 148.949C156.072 149.195 152.755 153.24 154.321 153.24Z" fill="#419586"/>
<path fill-rule="evenodd" clip-rule="evenodd" d="M26.9831 66.17C26.7856 66.1189 26.5777 66.1234 26.3826 66.1829C26.1874 66.2424 26.0126 66.3546 25.8774 66.5072L23.6353 69.3574C23.2361 69.909 20.8097 73.1271 21.7004 73.6787C22.5911 74.2304 24.4646 71.1656 24.9867 70.614C25.5089 70.0623 25.816 69.388 26.2767 68.6218C26.7374 67.8557 27.4131 66.9362 26.9831 66.17Z" fill="#419586"/>
<path fill-rule="evenodd" clip-rule="evenodd" d="M84.7549 188.209C84.7256 188.371 84.7256 188.537 84.7549 188.7C85.2463 188.945 85.3692 188.7 85.7992 188.516C86.1093 188.298 86.4066 188.062 86.6899 187.811C87.6727 186.83 91.0819 183.122 90.9897 182.325C90.8976 181.528 90.4676 181.773 90.0683 181.988C89.1061 182.678 88.2297 183.481 87.4577 184.378C86.3999 185.537 85.4919 186.825 84.7549 188.209Z" fill="#419586"/>
<path fill-rule="evenodd" clip-rule="evenodd" d="M32.2968 133.104C31.4591 134.078 30.8131 135.201 30.3925 136.414C30.1775 136.905 28.6419 140.46 30.3925 139.724C31.2218 139.356 34.7846 131.541 32.2968 133.104Z" fill="#419586"/>
<path fill-rule="evenodd" clip-rule="evenodd" d="M18.4141 143.188C18.4141 145.088 19.5197 143.892 19.6426 143.678C20.58 141.876 21.2031 139.927 21.4854 137.916C21.4854 137.364 21.1783 137.334 20.6561 137.303C20.0537 138.091 19.6056 138.985 19.3355 139.939C18.9245 140.99 18.6159 142.078 18.4141 143.188Z" fill="#419586"/>
<path fill-rule="evenodd" clip-rule="evenodd" d="M24.066 140.981C24.066 141.594 24.066 142.82 24.7724 142.789C25.4788 142.759 26.0317 137.855 26.0317 136.66C25.9927 136.381 25.8633 136.123 25.6631 135.924H25.0488C24.3293 137.51 23.9927 139.242 24.066 140.981Z" fill="#419586"/>
<path fill-rule="evenodd" clip-rule="evenodd" d="M155.119 143.188V142.697C154.014 142.238 153.43 143.402 152.57 144.444C152.232 144.873 150.85 146.835 150.912 147.509C150.973 148.183 151.495 148.398 152.355 147.509C153.528 146.245 154.464 144.782 155.119 143.188Z" fill="#419586"/>
<path fill-rule="evenodd" clip-rule="evenodd" d="M85.9835 181.895C86.8128 182.171 86.8128 182.11 87.3349 181.466C87.6172 181.049 87.9249 180.65 88.2563 180.271C88.6556 179.873 90.2834 178.463 90.2834 177.881C90.2834 177.298 89.2084 177.329 88.7784 177.605C88.3047 177.906 87.8712 178.267 87.4885 178.677C86.7514 179.444 85.6764 180.823 85.9835 181.895Z" fill="#419586"/>
<path fill-rule="evenodd" clip-rule="evenodd" d="M88.8707 23.6919C88.8893 23.4982 88.8893 23.3032 88.8707 23.1096C87.9493 22.8644 87.5501 23.2935 86.8436 24.0597C86.1372 24.8258 86.5979 24.4274 86.3522 24.7033C86.1065 24.9791 84.5709 26.6034 84.8166 27.3696C85.308 28.9939 87.7343 25.7146 88.2257 25.071C88.5442 24.667 88.7649 24.195 88.8707 23.6919Z" fill="#419586"/>
<path fill-rule="evenodd" clip-rule="evenodd" d="M89.0551 29.5148C84.3252 30.9553 84.3867 34.0507 86.9359 32.4264L88.9015 31.3231C91.5122 29.9439 89.7922 29.331 89.0551 29.5148Z" fill="#419586"/>
<path fill-rule="evenodd" clip-rule="evenodd" d="M89.9764 9.41016H89.055C88.2355 9.72231 87.4527 10.1231 86.7207 10.6054C85.9529 11.1571 85.0929 11.6781 85.3079 12.6588C85.9836 12.9959 86.3215 12.6588 86.9357 12.4136C89.7307 10.728 90.6828 10.8506 89.9764 9.41016Z" fill="#419586"/>
<path fill-rule="evenodd" clip-rule="evenodd" d="M28.9793 78.8272C30.085 79.3482 30.6993 77.969 31.16 77.3254C31.7974 76.564 32.2401 75.6595 32.45 74.6897C31.9893 74.1381 31.7128 73.9848 31.0986 74.6897L29.7165 76.4673C29.3172 77.1109 28.6415 77.9384 28.9793 78.8272Z" fill="#419586"/>
<path fill-rule="evenodd" clip-rule="evenodd" d="M167.282 153.669C166.177 153.669 163.074 158.236 164.794 158.389C165.501 158.389 166.422 157.01 166.821 156.335C167.221 155.661 168.48 153.669 167.282 153.669Z" fill="#419586"/>
<path fill-rule="evenodd" clip-rule="evenodd" d="M125.911 162.128C125.745 163.256 125.829 164.407 126.156 165.499H126.955C127.38 164.536 127.549 163.481 127.446 162.434C127.446 159.676 125.911 159.829 125.911 162.128Z" fill="#419586"/>
<path fill-rule="evenodd" clip-rule="evenodd" d="M25.9391 74.2302C26.7069 74.7818 26.7683 74.7818 28.0276 73.4027C30.6075 70.5525 28.949 70.1847 28.2426 70.675C27.5393 71.2655 26.9285 71.9576 26.4305 72.7284C26.2471 72.93 26.1085 73.1681 26.0238 73.4269C25.9391 73.6857 25.9102 73.9594 25.9391 74.2302Z" fill="#419586"/>
<path fill-rule="evenodd" clip-rule="evenodd" d="M64.2388 58.2319C64.2388 59.182 64.2388 59.6111 65.3445 59.4578C66.1263 58.1723 66.3794 56.6347 66.0509 55.1671C65.1602 54.7687 64.9145 54.9833 64.638 55.9333C64.4429 56.6875 64.3094 57.4562 64.2388 58.2319Z" fill="#419586"/>
<path fill-rule="evenodd" clip-rule="evenodd" d="M19.1203 61.2972C18.2296 60.7149 18.0146 60.6843 17.1854 62.0021C16.909 62.4312 15.9261 63.9023 16.0183 64.5152C16.0702 64.6164 16.1417 64.7062 16.2286 64.7796C16.3156 64.8529 16.4162 64.9083 16.5248 64.9425C16.6334 64.9767 16.7477 64.9891 16.8611 64.9789C16.9745 64.9686 17.0847 64.9361 17.1854 64.883C18.179 63.9106 18.8537 62.6603 19.1203 61.2972Z" fill="#419586"/>
<path fill-rule="evenodd" clip-rule="evenodd" d="M89.2393 20.5045C89.2393 22.0369 91.2356 20.3206 91.6349 19.9528C92.0342 19.5851 94.5527 17.7769 92.5256 17.7769C91.4813 17.7769 89.2393 19.4012 89.2393 20.5045Z" fill="#419586"/>
<path fill-rule="evenodd" clip-rule="evenodd" d="M39.2378 111.559C39.2378 112.601 40.1285 112.816 41.142 111.222C41.7889 110.487 42.1295 109.533 42.0941 108.556C41.3263 108.372 41.1727 108.096 40.2513 109.414C39.7862 110.062 39.4428 110.789 39.2378 111.559Z" fill="#419586"/>
<path fill-rule="evenodd" clip-rule="evenodd" d="M113.964 168.564C113.964 169.207 113.964 170.035 114.67 170.035C115.377 170.035 115.438 168.84 115.653 168.319C116.544 166.051 115.407 164.273 114.64 166.388C114.286 167.067 114.058 167.804 113.964 168.564Z" fill="#419586"/>
<path fill-rule="evenodd" clip-rule="evenodd" d="M109.265 50.0184C110.09 49.0637 110.547 47.8467 110.555 46.5859C110.555 46.31 109.603 45.1148 108.681 47.5053C108.405 48.3941 107.637 49.9265 109.265 50.0184Z" fill="#419586"/>
<path fill-rule="evenodd" clip-rule="evenodd" d="M176.035 59.3966C176.988 59.8257 177.203 59.3966 177.633 58.7224C179.199 55.6576 177.633 54.5236 176.465 57.0981C176.108 57.8087 175.959 58.6053 176.035 59.3966Z" fill="#419586"/>
<path fill-rule="evenodd" clip-rule="evenodd" d="M104.227 46.8003C104.183 47.0812 104.198 47.3683 104.272 47.6429C104.346 47.9175 104.477 48.1735 104.657 48.394C106.101 48.394 105.394 47.9343 105.978 46.8616C106.561 45.789 106.961 45.5744 106.654 44.6243C105.732 44.4711 105.609 44.9002 105.149 45.3599C104.688 45.8196 104.227 46.1261 104.227 46.8003Z" fill="#419586"/>
<path fill-rule="evenodd" clip-rule="evenodd" d="M129.565 143.433C130.364 143.433 130.425 143.096 130.64 142.238C130.855 141.379 131.377 139.387 130.057 139.633C128.736 139.878 128.398 143.433 129.565 143.433Z" fill="#419586"/>
<path fill-rule="evenodd" clip-rule="evenodd" d="M120.014 166.204C120.014 168.074 121.979 167.43 121.979 164.273C122.014 164.04 122.014 163.802 121.979 163.568C121.211 163.231 120.843 163.293 120.567 164.151C120.29 164.807 120.104 165.498 120.014 166.204Z" fill="#419586"/>
<path fill-rule="evenodd" clip-rule="evenodd" d="M170.661 58.9368V59.8562L171.213 60.3772C172.104 60.224 172.288 59.4272 172.442 58.4158C172.596 57.4044 172.841 56.5156 171.613 56.5156C171.286 56.8248 171.031 57.202 170.867 57.6204C170.702 58.0388 170.632 58.4882 170.661 58.9368Z" fill="#419586"/>
<path fill-rule="evenodd" clip-rule="evenodd" d="M71.1491 164.15H71.9477C72.9612 162.312 71.7327 163.783 73.2684 162.833C73.9133 162.434 74.2819 161.515 73.0841 161.453C70.9341 161.392 70.0434 162.434 71.1491 164.15Z" fill="#419586"/>
<path fill-rule="evenodd" clip-rule="evenodd" d="M89.0546 194.461C88.2254 194.737 87.9489 195.197 87.4575 195.963C86.9661 196.729 86.6283 197.986 87.8261 197.741C88.3175 197.741 89.9453 195.902 89.8225 195.013C89.8115 194.925 89.7825 194.84 89.7372 194.764C89.6919 194.688 89.6313 194.622 89.5592 194.57C89.4872 194.518 89.4051 194.482 89.3183 194.463C89.2315 194.444 89.1417 194.444 89.0546 194.461Z" fill="#419586"/>
<path fill-rule="evenodd" clip-rule="evenodd" d="M164.579 119.527V120.324C164.579 121.428 166.238 122.408 166.821 121.244C166.821 120.232 166.391 120.845 166.207 119.834C166.133 119.299 165.945 118.787 165.654 118.332C164.978 118.118 164.579 118.302 164.579 119.527Z" fill="#419586"/>
<path fill-rule="evenodd" clip-rule="evenodd" d="M165.193 59.5192C165.193 61.5113 166.299 61.1435 166.545 60.7144L167.159 57.9255C167.159 56.9754 166.299 57.0367 165.9 57.6803C165.534 58.2351 165.293 58.8625 165.193 59.5192Z" fill="#419586"/>
<path fill-rule="evenodd" clip-rule="evenodd" d="M113.625 48.3022C113.103 48.5167 113.195 48.3022 112.858 49.0378C112.52 49.7733 111.967 50.5701 112.243 51.0912C113.042 52.6542 114.946 49.4668 114.455 48.6393C114.377 48.4962 114.252 48.3844 114.1 48.3229C113.949 48.2615 113.781 48.2541 113.625 48.3022Z" fill="#419586"/>
<path fill-rule="evenodd" clip-rule="evenodd" d="M13.8682 143.034V144.046C14.6053 144.475 14.9738 144.383 15.4653 143.678C17.0624 141.318 15.4653 140.613 14.7589 141.502C14.3596 141.931 14.206 142.574 13.8682 143.034Z" fill="#419586"/>
<path fill-rule="evenodd" clip-rule="evenodd" d="M169.155 157.316C167.006 159.829 167.896 160.902 168.787 160.565C169.094 160.442 171.49 157.623 169.155 157.316Z" fill="#419586"/>
<path fill-rule="evenodd" clip-rule="evenodd" d="M88.7483 200.775H89.5162C89.9769 200.284 90.3454 200.223 90.7754 199.61C91.2054 198.997 91.3589 198.537 90.5911 198.047C89.8233 197.557 88.5333 199.181 88.3798 199.947C88.2262 200.713 88.564 200.468 88.7483 200.775Z" fill="#419586"/>
<path fill-rule="evenodd" clip-rule="evenodd" d="M124.498 145.578V146.283C124.959 146.283 125.297 146.62 125.665 146.283C125.904 145.942 126.072 145.557 126.157 145.149C126.402 144.077 126.617 143.218 125.082 143.433C124.713 144.089 124.513 144.826 124.498 145.578Z" fill="#419586"/>
<path fill-rule="evenodd" clip-rule="evenodd" d="M69.4902 55.4428C69.4902 56.5154 69.4902 56.638 70.7188 56.5767C71.1732 55.8643 71.3983 55.0301 71.3638 54.1862C71.3638 53.6039 70.9031 53.4813 70.3195 53.512C69.8094 54.0285 69.5133 54.718 69.4902 55.4428Z" fill="#419586"/>
<path fill-rule="evenodd" clip-rule="evenodd" d="M182.178 59.5502V58.2324C181.441 57.8033 181.042 57.6807 180.673 58.5695C180.345 59.2342 180.248 59.9889 180.397 60.7148C180.525 60.8659 180.699 60.9714 180.893 61.0156C181.087 61.0598 181.29 61.0403 181.472 60.96C181.932 60.6229 181.902 60.0406 182.178 59.5502Z" fill="#419586"/>
<path fill-rule="evenodd" clip-rule="evenodd" d="M139.855 132.277C140.224 131.725 141.299 129.212 139.855 129.212C138.934 129.212 138.688 131.051 138.75 131.725C138.811 132.4 139.272 132.369 139.855 132.277Z" fill="#419586"/>
<path fill-rule="evenodd" clip-rule="evenodd" d="M59.1399 61.5422C60.5527 62.7375 61.0749 60.2243 60.8906 58.9678C59.0785 57.8032 59.0171 61.0518 59.1399 61.5422Z" fill="#419586"/>
<path fill-rule="evenodd" clip-rule="evenodd" d="M38.1934 105.399C36.627 106.012 36.627 108.464 37.9784 107.943C38.4569 107.575 38.8454 107.103 39.1148 106.563C39.4526 105.736 38.7769 105.184 38.1934 105.399Z" fill="#419586"/>
<path fill-rule="evenodd" clip-rule="evenodd" d="M147.779 144.321C147.779 145.088 148.639 145.302 149.192 144.781C149.675 144.334 149.972 143.721 150.021 143.065C149.314 141.44 147.779 143.402 147.779 144.321Z" fill="#419586"/>
<path fill-rule="evenodd" clip-rule="evenodd" d="M134.389 134.116C134.398 134.417 134.467 134.714 134.594 134.988C134.721 135.262 134.902 135.507 135.126 135.71C135.74 136.353 135.863 136.292 136.6 135.71C136.754 134.422 135.126 132.583 134.389 134.116Z" fill="#419586"/>
<path fill-rule="evenodd" clip-rule="evenodd" d="M73.9746 167.215C73.9746 168.472 75.8788 168.318 75.8174 166.326C75.8089 166.187 75.7652 166.052 75.6904 165.934C75.6155 165.816 75.5119 165.719 75.3893 165.651C75.2667 165.584 75.129 165.549 74.989 165.549C74.8491 165.549 74.7114 165.585 74.5889 165.652C74.199 166.08 73.9804 166.637 73.9746 167.215Z" fill="#419586"/>
<path fill-rule="evenodd" clip-rule="evenodd" d="M170.384 116.095C170.325 116.54 170.412 116.991 170.63 117.383H171.49C172.319 117.383 172.043 115.82 171.828 115.268C171.152 115.023 170.384 115.084 170.384 116.095Z" fill="#419586"/>
<path fill-rule="evenodd" clip-rule="evenodd" d="M219.417 182.984C222.123 183.886 224.729 185.063 227.193 186.497C229.675 187.911 232.003 189.581 234.137 191.478L242.809 186.465C243.495 186.07 244.253 185.816 245.039 185.717C245.824 185.618 246.622 185.677 247.385 185.89C248.15 186.08 248.869 186.425 249.496 186.903C250.123 187.381 250.646 187.981 251.033 188.668L258.104 201.025C258.504 201.707 258.765 202.462 258.87 203.245C258.975 204.029 258.924 204.825 258.719 205.588C258.513 206.352 258.158 207.067 257.674 207.692C257.189 208.318 256.585 208.841 255.896 209.231L247.289 214.117C247.545 215.233 247.738 216.363 247.865 217.501C248.067 219.186 248.174 220.881 248.185 222.578C248.176 224.275 248.069 225.97 247.865 227.655C247.738 228.804 247.545 229.945 247.289 231.072L255.992 236.085C256.678 236.477 257.28 237.001 257.764 237.625C258.247 238.25 258.602 238.963 258.808 239.725C259.011 240.515 259.054 241.337 258.933 242.143C258.812 242.949 258.53 243.723 258.104 244.419L251.001 256.648C250.61 257.332 250.086 257.929 249.459 258.407C248.832 258.884 248.116 259.231 247.353 259.426C245.817 259.82 244.187 259.603 242.809 258.82L234.233 253.87C229.961 257.677 224.951 260.568 219.513 262.364V272.39C219.51 273.972 218.877 275.488 217.753 276.605C216.622 277.728 215.093 278.359 213.498 278.361H199.098C197.512 278.357 195.993 277.726 194.874 276.605C193.751 275.488 193.118 273.972 193.114 272.39V262.428C190.396 261.492 187.78 260.283 185.306 258.82C182.824 257.394 180.496 255.714 178.363 253.807L169.691 258.82C168.304 259.611 166.661 259.829 165.115 259.426C164.354 259.226 163.639 258.877 163.013 258.4C162.387 257.923 161.862 257.328 161.467 256.648L154.395 244.419C154 243.734 153.745 242.978 153.646 242.194C153.547 241.41 153.606 240.614 153.819 239.853C154.014 239.09 154.361 238.375 154.839 237.749C155.317 237.124 155.917 236.601 156.603 236.213L165.307 231.2C165.062 230.131 164.905 229.032 164.752 227.961L164.731 227.815C164.347 224.43 164.347 221.013 164.731 217.629C164.891 216.479 165.051 215.362 165.307 214.244L156.699 209.327C156.575 209.276 156.457 209.211 156.347 209.135C155.093 208.326 154.182 207.085 153.786 205.648C153.391 204.211 153.539 202.679 154.203 201.344L154.427 200.993L161.467 188.572C161.856 187.888 162.38 187.289 163.007 186.812C163.634 186.334 164.351 185.988 165.115 185.794C165.878 185.581 166.675 185.522 167.461 185.621C168.247 185.72 169.005 185.974 169.691 186.369L178.363 191.382C180.497 189.485 182.824 187.815 185.306 186.401C187.774 184.973 190.379 183.796 193.082 182.888V172.99C193.08 172.201 193.234 171.42 193.536 170.691C193.838 169.962 194.282 169.3 194.842 168.743H195.002C196.108 167.697 197.574 167.114 199.098 167.115H213.306C214.901 167.117 216.43 167.748 217.561 168.871C218.121 169.427 218.565 170.089 218.867 170.818C219.169 171.547 219.324 172.329 219.321 173.117V183.112L219.417 182.984ZM206.641 241.013C217.014 241.013 225.422 232.604 225.422 222.232C225.422 211.86 217.014 203.451 206.641 203.451C196.269 203.451 187.861 211.86 187.861 222.232C187.861 232.604 196.269 241.013 206.641 241.013Z" fill="#C46060"/>
</svg>
