<svg width="283" height="284" viewBox="0 0 283 284" fill="none" xmlns="http://www.w3.org/2000/svg">
<path fill-rule="evenodd" clip-rule="evenodd" d="M251.089 68.4798C269.192 95.6544 276.547 128.588 271.723 160.883C266.899 193.176 250.241 222.524 224.987 243.221C199.732 263.919 167.685 274.487 135.072 272.875C102.46 271.261 71.6109 257.581 48.5223 234.493C25.4336 211.404 11.7534 180.555 10.1401 147.943C8.52683 115.33 19.096 83.2825 39.7932 58.028C60.4907 32.7732 89.8381 16.1151 122.132 11.2913C154.426 6.46754 187.361 13.822 214.535 31.9262C216.019 30.8405 217.626 29.9326 219.323 29.221C198.838 15.0191 174.854 6.69625 149.975 5.1553C125.096 3.61487 100.269 8.91481 78.1878 20.4809C56.1064 32.0469 37.6132 49.4378 24.7127 70.7673C11.8125 92.0965 4.99791 116.551 5.00781 141.478C4.99501 162.901 10.0246 184.026 19.6906 203.145C29.3563 222.264 43.3867 238.838 60.6465 251.528C77.9064 264.219 97.9109 272.669 119.042 276.194C140.173 279.718 161.837 278.22 182.282 271.819C202.726 265.418 221.377 254.295 236.726 239.348C252.073 224.402 263.687 206.054 270.63 185.786C277.571 165.518 279.643 143.902 276.681 122.684C273.717 101.467 265.802 81.2452 253.574 63.6547C252.911 65.3568 252.053 66.9761 251.015 68.4798H251.089ZM211.391 34.3387L210.587 35.1063L195.965 49.7277C173.581 36.4291 147.111 31.7616 121.529 36.6019C95.9453 41.4424 73.0103 55.4574 57.0317 76.0144C41.053 96.5718 33.1303 122.256 34.7523 148.242C36.3741 174.228 47.4287 198.727 65.8396 217.139C84.2504 235.55 108.75 246.604 134.736 248.226C160.722 249.848 186.406 241.925 206.963 225.946C227.52 209.967 241.535 187.033 246.376 161.45C251.216 135.867 246.549 109.397 233.251 87.0127L247.872 72.3913L248.639 71.587C265.927 98.0855 272.782 130.05 267.881 161.307C262.98 192.564 246.672 220.897 222.105 240.834C197.537 260.77 166.454 270.897 134.857 269.257C103.261 267.618 73.393 254.329 51.0209 231.958C28.6487 209.585 15.3599 179.717 13.7202 148.121C12.0808 116.524 22.2074 85.4405 42.1441 60.873C62.0809 36.3058 90.4134 19.9968 121.671 15.0965C152.928 10.196 184.893 17.0514 211.391 34.3387ZM255.255 57.4043C268.568 75.3999 277.422 96.2983 281.089 118.38C284.755 140.463 283.131 163.1 276.348 184.433C269.565 205.766 257.818 225.185 242.072 241.095C226.325 257.005 207.028 268.952 185.767 275.956C164.505 282.958 141.885 284.818 119.767 281.38C97.6465 277.94 76.6588 269.304 58.5264 256.177C40.3939 243.051 25.634 225.81 15.46 205.87C5.28564 185.931 -0.0124285 163.863 2.18929e-05 141.478C0.0111079 115.291 7.2864 89.6215 21.0168 67.3235C34.7472 45.0255 54.3947 26.974 77.773 15.1767C101.152 3.37951 127.345 -1.70076 153.438 0.501421C179.532 2.70326 204.503 12.1011 225.574 27.6491C226.786 27.4911 228.007 27.4058 229.23 27.3934C232.692 27.3885 236.121 28.0667 239.321 29.3897C242.521 30.7127 245.428 32.6538 247.876 35.1021C250.324 37.5502 252.266 40.4576 253.588 43.6574C254.911 46.8571 255.589 50.2863 255.585 53.7487C255.572 54.9713 255.487 56.1918 255.329 57.4043H255.255ZM230.619 82.48C222.651 70.5166 212.388 60.2537 200.426 52.2865L214.059 38.6521C218.063 34.6479 223.493 32.3988 229.156 32.3988C234.818 32.3988 240.249 34.6479 244.253 38.6521C248.257 42.6559 250.507 48.0863 250.507 53.7487C250.507 59.4109 248.257 64.8414 244.253 68.8455L230.619 82.48ZM141.5 39.6023C165.059 39.6108 187.887 47.7873 206.094 62.7392C224.301 77.6909 236.761 98.4921 241.351 121.6C245.941 144.708 242.377 168.693 231.267 189.468C220.157 210.243 202.186 226.524 180.418 235.535C158.651 244.547 134.432 245.733 111.888 238.891C89.3442 232.049 69.8694 217.603 56.7823 198.012C43.6953 178.422 37.805 154.901 40.1153 131.455C42.4255 108.009 52.7936 86.0893 69.4524 69.4305C78.9061 59.9595 90.1374 52.4492 102.501 47.3304C114.865 42.2121 128.118 39.5856 141.5 39.6023Z" fill="#419586"/>
<path fill-rule="evenodd" clip-rule="evenodd" d="M217.057 44.4274L216.802 44.61C216.546 44.8294 216.326 44.9757 216.326 45.3775C216.411 45.8082 216.66 46.1887 217.021 46.4377C221.225 50.6048 222.468 48.302 219.836 46.2187C220.384 46.2187 222.394 47.644 222.833 46.6937C223.272 45.7432 219.178 43.4037 218.191 43.0382C215.997 42.1244 216.07 43.8424 217.057 44.4274Z" fill="#419586"/>
<path fill-rule="evenodd" clip-rule="evenodd" d="M22.3359 131.243V132.412C23.4691 133.07 23.7248 131.937 25.2599 130.073C26.6339 128.588 27.8579 126.973 28.9155 125.247C29.1714 124.261 28.1844 124.261 27.4899 124.736C25.9436 125.99 24.5673 127.44 23.3959 129.05C23.0057 129.762 22.652 130.494 22.3359 131.243Z" fill="#419586"/>
<path fill-rule="evenodd" clip-rule="evenodd" d="M22.4446 123.238V123.713C22.6204 123.856 22.8398 123.933 23.0659 123.933C23.2924 123.933 23.5117 123.856 23.6876 123.713C24.6364 122.923 25.5166 122.055 26.3192 121.118C26.831 120.46 29.3534 117.9 29.0242 116.914C28.5124 115.342 25.3689 118.851 25.3689 119.18C25.3689 119.509 22.4446 122.177 22.4446 123.238Z" fill="#419586"/>
<path fill-rule="evenodd" clip-rule="evenodd" d="M31.8024 105.692C29.224 106.852 26.957 108.605 25.1865 110.81C25.1643 110.918 25.1703 111.03 25.2039 111.136C25.237 111.243 25.297 111.338 25.3772 111.415C25.4571 111.491 25.5555 111.547 25.663 111.575C25.7703 111.603 25.8827 111.604 25.9903 111.577C26.9041 111.577 32.3874 107.702 32.5701 106.46C32.5897 106.354 32.5835 106.246 32.5518 106.144C32.5201 106.042 32.4642 105.949 32.3884 105.873C32.3129 105.798 32.2201 105.742 32.1178 105.709C32.0158 105.678 31.9073 105.672 31.8024 105.692Z" fill="#419586"/>
<path fill-rule="evenodd" clip-rule="evenodd" d="M26.0273 103.645C26.0273 106.203 30.5968 101.305 31.5836 100.574C33.3014 99.2214 33.0089 96.9191 28.44 100.574C27.9648 100.94 26.0273 103.023 26.0273 103.645Z" fill="#419586"/>
<path fill-rule="evenodd" clip-rule="evenodd" d="M233.507 115.671H233.032C232.191 115.671 228.096 122.653 229.998 122.981C231.204 122.981 232.958 118.888 233.361 117.9C233.763 116.914 233.946 116.512 233.507 115.671Z" fill="#419586"/>
<path fill-rule="evenodd" clip-rule="evenodd" d="M22.3359 138.882V139.321C22.8474 139.979 23.3228 140.016 24.0904 139.103C24.8579 138.188 25.0406 138.006 25.5524 137.384C26.0642 136.763 27.5264 134.679 27.4169 133.729C27.4271 133.619 27.4271 133.509 27.4169 133.4C26.8319 133.4 26.6856 133.4 26.3567 133.582C24.8647 135.007 23.6286 136.675 22.7014 138.517L22.3359 138.882Z" fill="#419586"/>
<path fill-rule="evenodd" clip-rule="evenodd" d="M49.5308 128.281C50.7008 128.281 52.9671 124.626 53.5154 123.712C54.0636 122.798 54.3927 121.812 53.1498 121.812C51.9071 121.812 47.2281 128.281 49.5308 128.281Z" fill="#419586"/>
<path fill-rule="evenodd" clip-rule="evenodd" d="M52.0171 157.16C50.9569 157.598 49.4949 160.084 48.8005 161.181C47.5943 163.008 48.1061 163.922 49.0563 163.52C50.1002 162.617 51.0108 161.571 51.7613 160.413C52.2364 159.718 54.2834 156.758 52.1998 157.087L52.0171 157.16Z" fill="#419586"/>
<path fill-rule="evenodd" clip-rule="evenodd" d="M230.912 109.421C230.181 109.64 228.829 111.577 228.28 112.454C227.732 113.331 227.549 113.514 227.184 114.209C226.972 114.55 226.858 114.941 226.854 115.342C226.854 115.817 227.44 116 227.951 115.781C228.463 115.561 232.228 110.956 231.899 109.823C231.863 109.729 231.809 109.644 231.738 109.573C231.668 109.502 231.585 109.446 231.493 109.408C231.4 109.371 231.3 109.352 231.201 109.355C231.101 109.356 231.003 109.379 230.912 109.421Z" fill="#419586"/>
<path fill-rule="evenodd" clip-rule="evenodd" d="M48.5811 135.922C48.5811 136.835 48.5811 136.982 49.2389 136.982C49.8969 136.982 50.1527 136.287 50.445 135.812C51.4585 134.37 52.3858 132.868 53.2233 131.316C53.2233 130.914 52.9675 130.768 52.675 130.585C52.3827 130.402 51.2862 131.024 50.4087 132.193C49.5073 133.271 48.8804 134.55 48.5811 135.922Z" fill="#419586"/>
<path fill-rule="evenodd" clip-rule="evenodd" d="M190.52 65.044C191.032 65.4091 191.178 65.8115 192.128 64.7515C193.079 63.6913 195.089 60.438 194.723 59.3049C194.54 58.7567 193.81 58.6832 193.115 59.597C191.777 61.1468 190.881 63.0284 190.52 65.044Z" fill="#419586"/>
<path fill-rule="evenodd" clip-rule="evenodd" d="M92.7748 57.3307C92.7137 58.6655 92.977 59.9951 93.5424 61.2057C94.7854 63.6547 96.3565 63.3622 96.247 62.2657C95.7234 61.2303 95.2836 60.1546 94.9316 59.0489C94.7704 58.2659 94.5504 57.4958 94.2736 56.7461C93.9447 56.1248 92.7748 56.1248 92.7748 57.3307Z" fill="#419586"/>
<path fill-rule="evenodd" clip-rule="evenodd" d="M83.0874 66.6155C83.0874 65.665 82.1736 65.738 81.5523 66.1404C80.9309 66.5424 77.4215 69.1012 77.3483 70.1245C77.2753 71.1482 77.9701 71.1118 78.8839 70.6C79.4268 70.2526 79.94 69.8613 80.4191 69.4302C81.1134 68.9913 83.0874 67.4199 83.0874 66.6155Z" fill="#419586"/>
<path fill-rule="evenodd" clip-rule="evenodd" d="M231.314 145.206C231.314 148.57 238.332 140.418 235.664 140.308C235.497 140.31 235.332 140.345 235.181 140.415C235.03 140.484 234.895 140.585 234.786 140.71C234.567 140.929 234.274 141.112 234.091 141.331C233.909 141.552 231.314 144.476 231.314 145.206Z" fill="#419586"/>
<path fill-rule="evenodd" clip-rule="evenodd" d="M50.4819 118.412V119.107C51.2863 119.582 51.6151 119.107 52.0906 118.705C53.0774 117.535 55.7459 116 55.7459 114.282C55.7459 113.442 54.6491 113.879 53.9179 114.282C53.1869 114.684 53.0407 114.976 52.6021 115.342C52.1632 115.707 50.4819 117.608 50.4819 118.412Z" fill="#419586"/>
<path fill-rule="evenodd" clip-rule="evenodd" d="M232.812 41.9057C232.641 40.5503 232.068 39.277 231.167 38.2501C230.84 37.7696 230.473 37.317 230.07 36.8974C229.157 36.0934 227.219 36.6054 230.07 40.5531C230.436 41.0282 231.313 42.2712 231.898 42.3444C232.483 42.4175 232.812 42.2345 232.812 41.9057Z" fill="#419586"/>
<path fill-rule="evenodd" clip-rule="evenodd" d="M26.32 173.536C27.6358 173.536 28.5131 172.367 29.3171 171.562C29.7569 171.146 30.1606 170.693 30.5234 170.209C31.3277 169.149 31.0352 166.993 27.4894 170.502C27.0643 170.91 26.6844 171.364 26.3563 171.854C26.1441 172.09 26.0046 172.382 25.9543 172.695C25.8811 173.243 26.1006 173.171 26.32 173.536Z" fill="#419586"/>
<path fill-rule="evenodd" clip-rule="evenodd" d="M178.895 256.695C179.627 256.695 179.882 256.074 179.334 255.27C178.786 254.466 176.227 251.614 175.423 251.614C174.619 251.614 174.546 252.455 174.875 253.004C175.203 253.552 177.872 256.695 178.895 256.695Z" fill="#419586"/>
<path fill-rule="evenodd" clip-rule="evenodd" d="M53.2234 229.134C53.2234 230.523 54.3565 229.975 54.5759 229.792C54.9211 229.396 55.2272 228.968 55.4897 228.513C55.8554 227.891 57.8292 224.529 56.0012 224.529C55.1972 224.529 54.7952 225.516 54.2467 226.43C53.7594 227.269 53.4139 228.183 53.2234 229.134Z" fill="#419586"/>
<path fill-rule="evenodd" clip-rule="evenodd" d="M234.786 147.4C233.836 147.4 232.848 148.752 232.228 149.556C231.606 150.36 231.094 151.165 231.313 151.713C232.008 153.285 233.836 150.872 234.347 150.215C234.685 149.787 234.991 149.335 235.262 148.861C235.59 148.277 235.554 147.4 234.786 147.4Z" fill="#419586"/>
<path fill-rule="evenodd" clip-rule="evenodd" d="M245.533 191.337C245.533 192.653 249.188 194.993 249.773 194.993C251.346 194.335 249.773 192.909 249.152 192.47C248.53 192.032 246.886 190.607 246.154 190.753C245.424 190.899 245.533 190.972 245.533 191.337Z" fill="#419586"/>
<path fill-rule="evenodd" clip-rule="evenodd" d="M253.136 111.504C254.525 111.504 256.792 107.849 256.792 107.154C256.792 106.46 255.768 106.533 255.183 107.154C254.598 107.775 252.478 110.005 252.588 110.81C252.576 110.973 252.626 111.134 252.728 111.263C252.829 111.391 252.975 111.478 253.136 111.504Z" fill="#419586"/>
<path fill-rule="evenodd" clip-rule="evenodd" d="M229.523 130.109C229.523 131.316 230.509 131.243 231.46 130.109L231.972 129.561C232.374 129.159 235.006 125.906 232.813 125.906C231.898 126.162 229.523 129.342 229.523 130.109Z" fill="#419586"/>
<path fill-rule="evenodd" clip-rule="evenodd" d="M207.517 54.8086C207.517 55.8686 208.249 56.3806 209.162 57.1117C212.525 59.8164 212.817 57.8426 212.05 57.1117C211.282 56.3806 208.358 53.3098 207.517 54.8086Z" fill="#419586"/>
<path fill-rule="evenodd" clip-rule="evenodd" d="M24.126 163.776C24.1053 163.925 24.1285 164.076 24.193 164.212C24.2576 164.348 24.36 164.461 24.4884 164.538C24.6168 164.617 24.7652 164.655 24.9153 164.65C25.065 164.644 25.2104 164.594 25.3323 164.507C26.1366 164.105 28.5491 161.181 28.2568 160.267C27.9643 159.353 27.5623 159.572 26.941 159.975C26.5286 160.289 26.1491 160.644 25.8078 161.034C25.1222 161.866 24.5561 162.788 24.126 163.776Z" fill="#419586"/>
<path fill-rule="evenodd" clip-rule="evenodd" d="M159.594 260.937H160.435C160.757 260.604 160.973 260.184 161.057 259.73C161.35 258.67 162.043 255.709 160.728 255.526C160.07 255.526 159.924 255.891 159.777 256.33C159.424 257.369 159.215 258.452 159.156 259.547C159.118 259.797 159.138 260.052 159.213 260.293C159.289 260.534 159.42 260.753 159.594 260.937Z" fill="#419586"/>
<path fill-rule="evenodd" clip-rule="evenodd" d="M53.6983 69.4301C54.2467 69.4301 54.283 69.4301 54.6122 69.0281C54.6122 67.6391 54.2467 68.4068 53.077 66.5791C52.7115 66.0673 51.7977 64.459 50.9202 65.1166C50.0427 65.7748 50.9202 67.1636 51.432 67.7854C51.652 68.2195 51.9728 68.5951 52.3668 68.8811C52.7606 69.1671 53.2172 69.3554 53.6983 69.4301Z" fill="#419586"/>
<path fill-rule="evenodd" clip-rule="evenodd" d="M182.77 61.4614V62.1192C183.611 62.7042 184.378 62.4117 185.549 61.6809C186.132 61.2789 187.412 60.2916 187.412 59.5239C187.39 59.2212 187.26 58.9362 187.047 58.7201C185.695 58.7201 184.817 59.7069 183.391 60.5841C183.355 60.8034 182.77 61.0227 182.77 61.4614Z" fill="#419586"/>
<path fill-rule="evenodd" clip-rule="evenodd" d="M247.799 105.984C247.799 106.752 247.799 106.972 248.458 106.972C249.116 106.972 249.664 106.131 250.322 105.107C250.979 104.084 251.82 103.352 251.381 102.658C250.322 101.013 247.799 104.814 247.799 105.984Z" fill="#419586"/>
<path fill-rule="evenodd" clip-rule="evenodd" d="M145.339 260.936H146.216C146.874 260.315 146.838 259.072 146.838 258.121C146.838 254.721 145.229 255.197 145.01 256.33C144.791 257.463 144.462 260.132 145.339 260.936Z" fill="#419586"/>
<path fill-rule="evenodd" clip-rule="evenodd" d="M226.124 41.7958C226.124 42.1248 227.33 45.4511 229.56 44.9029C231.789 44.3548 231.094 43.4773 229.742 43.1848C228.389 42.8926 228.024 41.1744 226.598 41.1744C226.196 41.1744 226.124 41.3939 226.124 41.7958Z" fill="#419586"/>
<path fill-rule="evenodd" clip-rule="evenodd" d="M65.9805 239.626C65.9805 240.319 65.9805 241.489 66.931 241.489C67.8816 241.489 67.5891 240.502 67.9543 239.991L69.1243 238.674C69.5629 238.163 69.9649 237.761 69.6724 236.92C68.3931 236.518 65.9805 238.638 65.9805 239.626Z" fill="#419586"/>
<path fill-rule="evenodd" clip-rule="evenodd" d="M257.669 121.702V121.227C256.681 120.57 256.353 120.57 255.073 122.726C253.245 125.723 254.781 126.747 256.462 124.334C257.046 123.552 257.457 122.655 257.669 121.702Z" fill="#419586"/>
<path fill-rule="evenodd" clip-rule="evenodd" d="M211.391 48.2656C209.93 48.9968 212.525 51.2631 213.146 51.7382C214.828 53.0544 215.705 51.7382 214.389 50.2394C213.84 49.6181 212.306 47.7905 211.391 48.2656Z" fill="#419586"/>
<path fill-rule="evenodd" clip-rule="evenodd" d="M249.919 185.416C250.619 186.735 251.669 187.835 252.953 188.595C253.09 188.635 253.235 188.639 253.374 188.607C253.512 188.575 253.64 188.509 253.746 188.414C253.852 188.319 253.932 188.198 253.979 188.064C254.026 187.929 254.038 187.786 254.014 187.645C253.291 186.328 252.215 185.239 250.906 184.502C250.285 184.356 249.919 184.868 249.919 185.416Z" fill="#419586"/>
<path fill-rule="evenodd" clip-rule="evenodd" d="M49.3123 149.337C49.3123 148.935 49.0563 149.337 49.3123 148.679C49.5681 148.021 50.6281 147.509 50.2626 146.815C49.8973 146.121 48.5812 147.034 48.2887 147.217C44.9259 149.593 46.9365 150.617 48.2887 150.252C48.691 150.141 49.3123 149.849 49.3123 149.337Z" fill="#419586"/>
<path fill-rule="evenodd" clip-rule="evenodd" d="M29.2439 191.776C29.2439 192.288 29.2439 193.056 30.2676 192.836C31.2909 192.617 33.338 188.121 31.181 188.193C30.1577 188.23 29.2439 191.265 29.2439 191.776Z" fill="#419586"/>
<path fill-rule="evenodd" clip-rule="evenodd" d="M92.9569 225.588C93.7244 225.588 93.9071 224.784 94.2362 224.09C94.6774 223.337 94.905 222.477 94.8937 221.604C94.8937 220.982 93.9802 220.727 93.5051 221.129C93.0299 221.531 90.7636 225.588 92.9569 225.588Z" fill="#419586"/>
<path fill-rule="evenodd" clip-rule="evenodd" d="M104.436 28.7824C104.384 29.7964 104.64 30.8023 105.166 31.6704C105.679 32.4744 106.081 32.9499 107.067 32.4012C107.118 31.4125 106.903 30.4281 106.446 29.5503C105.386 26.9183 104.436 28.2709 104.436 28.7824Z" fill="#419586"/>
<path fill-rule="evenodd" clip-rule="evenodd" d="M145.887 47.4976C145.886 48.5919 146.11 49.6745 146.545 50.6779C146.578 50.779 146.631 50.8725 146.7 50.9535C146.77 51.0342 146.854 51.1002 146.949 51.1476C147.045 51.1954 147.149 51.2235 147.255 51.2307C147.361 51.2378 147.468 51.2238 147.569 51.1897C148.628 50.9339 148.154 49.0331 147.898 48.0826C147.313 45.7798 145.887 46.5474 145.887 47.4976Z" fill="#419586"/>
<path fill-rule="evenodd" clip-rule="evenodd" d="M221.956 39.4558C220.933 39.9677 221.956 41.2472 222.249 41.8322C222.541 42.4172 223.565 43.6961 224.369 43.3308C225.172 42.9653 224.588 41.6128 224.15 40.9547L223.309 39.9313C222.979 39.6388 222.504 39.1638 221.956 39.4558Z" fill="#419586"/>
<path fill-rule="evenodd" clip-rule="evenodd" d="M113.318 27.1372C113.318 31.67 115.547 31.1218 115.547 30.208C115.402 24.7977 113.318 26.0409 113.318 27.1372Z" fill="#419586"/>
<path fill-rule="evenodd" clip-rule="evenodd" d="M254.269 116.95C254.269 117.828 255.221 118.34 256.317 116.95C256.682 116.474 257.67 115.451 257.67 114.537C257.67 113.623 257.267 113.807 256.755 113.807C256.244 113.807 254.269 115.891 254.269 116.95Z" fill="#419586"/>
<path fill-rule="evenodd" clip-rule="evenodd" d="M208.76 50.9339C207.189 51.7016 209.747 54.5893 210.333 54.5893C210.443 54.6534 210.569 54.6873 210.697 54.6873C210.826 54.6873 210.952 54.6534 211.063 54.5893C212.561 54.0043 210.588 51.8115 210.04 51.2265C209.492 50.6415 209.382 50.6414 208.76 50.9339Z" fill="#419586"/>
<path fill-rule="evenodd" clip-rule="evenodd" d="M231.935 103.973C231.96 103.837 231.947 103.696 231.898 103.567C231.849 103.436 231.765 103.322 231.657 103.236C231.548 103.149 231.418 103.095 231.28 103.077C231.142 103.058 231.003 103.078 230.875 103.132C230.29 103.132 228.426 105.545 228.573 106.386C228.608 106.599 228.721 106.791 228.89 106.926C229.058 107.061 229.27 107.129 229.486 107.117C230.107 107.117 231.094 105.801 231.387 105.29C231.672 104.901 231.86 104.45 231.935 103.973Z" fill="#419586"/>
<path fill-rule="evenodd" clip-rule="evenodd" d="M250.102 169.807C250.102 171.087 254.671 171.123 254.671 169.807C254.671 168.492 251.016 168.82 250.504 169.003C249.992 169.186 250.102 169.405 250.102 169.807Z" fill="#419586"/>
<path fill-rule="evenodd" clip-rule="evenodd" d="M28.5495 153.504C27.8511 153.636 27.1866 153.908 26.5958 154.304C26.0052 154.7 25.5009 155.212 25.1135 155.807C25.1135 156.283 25.5155 157.928 28.0743 155.807C28.6957 155.149 29.8288 154.235 28.5495 153.504Z" fill="#419586"/>
<path fill-rule="evenodd" clip-rule="evenodd" d="M86.0854 222.153C86.0854 224.346 89.3753 222.153 89.3753 219.411C88.6439 218.935 88.1324 219.119 87.2918 219.996C86.6943 220.587 86.2763 221.334 86.0854 222.153Z" fill="#419586"/>
<path fill-rule="evenodd" clip-rule="evenodd" d="M129.693 26.2602C128.926 26.7357 129.401 27.9052 129.693 28.5997C129.986 29.2942 130.534 30.4273 131.558 29.879C132.581 29.3309 130.973 25.5657 129.693 26.2602Z" fill="#419586"/>
<path fill-rule="evenodd" clip-rule="evenodd" d="M34.6536 195.468C34.6536 195.066 34.6536 194.371 33.8126 194.335C32.972 194.298 33.0818 194.664 32.8256 195.066C32.3716 195.757 32.0496 196.525 31.8755 197.332C31.8755 198.283 33.0818 198.465 33.63 197.698C34.1087 197.026 34.4561 196.269 34.6536 195.468Z" fill="#419586"/>
<path fill-rule="evenodd" clip-rule="evenodd" d="M258.62 132.01V131.023C258.254 130.841 258.62 131.023 258.181 130.73C257.742 130.439 257.12 130.73 256.755 131.425C256.289 132.078 255.977 132.827 255.842 133.619C255.842 134.313 256.975 135.374 258.144 133.034C258.327 132.742 258.474 132.23 258.62 132.01Z" fill="#419586"/>
<path fill-rule="evenodd" clip-rule="evenodd" d="M149.872 23.5551H149.141C148.593 24.0302 148.3 24.0669 149.141 25.6752C150.274 28.3435 152.138 27.5395 151.297 25.4559C150.973 24.7218 150.486 24.0717 149.872 23.5551Z" fill="#419586"/>
<path fill-rule="evenodd" clip-rule="evenodd" d="M231.935 136.36C231.935 136.689 233.032 138.371 234.421 135.337C234.607 134.934 234.718 134.5 234.749 134.057C234.749 133.655 233.762 132.266 232.593 134.459C232.282 135.058 232.061 135.698 231.935 136.36Z" fill="#419586"/>
<path fill-rule="evenodd" clip-rule="evenodd" d="M168.148 255.526C167.6 255.782 166.942 255.782 167.929 257.756C169.135 260.278 171.073 259.547 169.757 256.952C169.318 256.293 168.807 255.197 168.148 255.526Z" fill="#419586"/>
<path fill-rule="evenodd" clip-rule="evenodd" d="M228.865 217.657C228.865 218.424 229.084 218.496 229.851 218.789C230.619 219.081 232.593 219.63 232.593 218.205C232.593 217.766 232.411 217.583 232.009 217.364C231.678 217.183 231.32 217.059 230.948 216.998C230.29 216.816 228.865 216.596 228.865 217.657Z" fill="#419586"/>
<path fill-rule="evenodd" clip-rule="evenodd" d="M235.517 58.4643C235.347 58.53 235.205 58.6545 235.118 58.8153C235.031 58.9761 235.004 59.1627 235.042 59.3418C235.042 59.89 235.371 59.9995 235.736 60.1458C236.516 60.5359 237.397 60.6764 238.259 60.5481C238.624 60.5481 238.807 60.0726 238.77 59.5611C238.735 59.0493 236.102 58.245 235.517 58.4643Z" fill="#419586"/>
<path fill-rule="evenodd" clip-rule="evenodd" d="M49.4219 141.149C49.4219 142.502 50.3357 142.502 50.7377 142.319C51.1397 142.136 51.6884 140.053 51.6152 138.993C51.1765 138.882 51.1765 138.882 50.6282 138.882C50.08 138.882 49.4219 140.527 49.4219 141.149Z" fill="#419586"/>
<path fill-rule="evenodd" clip-rule="evenodd" d="M152.138 260.937H153.016C153.637 260.424 153.637 260.242 153.344 258.962C153.344 258.267 152.942 257.281 152.247 257.281C152.076 257.281 151.906 257.316 151.748 257.386C151.591 257.455 151.45 257.556 151.334 257.682C150.932 258.267 151.553 260.314 152.138 260.937Z" fill="#419586"/>
<path fill-rule="evenodd" clip-rule="evenodd" d="M155.355 48.9964C155.355 49.8371 155.355 51.2627 156.489 51.1529C157.621 51.0434 157.365 50.239 157.365 49.4351C157.365 48.6307 157.365 47.6439 156.598 47.5344C155.83 47.4246 155.355 48.1557 155.355 48.9964Z" fill="#419586"/>
<path fill-rule="evenodd" clip-rule="evenodd" d="M96.905 227.708C96.905 228.988 96.905 229.938 98.0015 229.938C99.098 229.938 98.9517 228.805 98.9517 228.037C98.916 225.552 96.905 225.954 96.905 227.708Z" fill="#419586"/>
<path fill-rule="evenodd" clip-rule="evenodd" d="M237.162 66.506C237.162 65.8115 235.371 64.5322 234.676 64.861C234.485 64.9359 234.317 65.0597 234.189 65.2202C234.06 65.3803 233.976 65.5718 233.945 65.7748C233.945 66.3965 234.823 67.0541 235.371 67.3103C235.711 67.5153 236.117 67.5806 236.504 67.493C236.691 67.4019 236.852 67.2625 236.967 67.0891C237.083 66.9155 237.15 66.7142 237.162 66.506Z" fill="#419586"/>
<path fill-rule="evenodd" clip-rule="evenodd" d="M195.418 69.2115C194.705 69.4132 194.062 69.805 193.554 70.3446C193.422 70.4816 193.334 70.6552 193.302 70.8428C193.27 71.0304 193.294 71.2235 193.374 71.3968C193.452 71.5702 193.581 71.7157 193.744 71.8148C193.906 71.914 194.095 71.9621 194.285 71.9528C194.614 71.9528 196.916 70.9291 196.332 69.8328C196.274 69.6401 196.151 69.4733 195.985 69.3602C195.819 69.2468 195.619 69.1942 195.418 69.2115Z" fill="#419586"/>
<path fill-rule="evenodd" clip-rule="evenodd" d="M58.7795 55.9054C58.7795 56.9287 60.3515 57.733 60.9365 57.733C61.1212 57.7124 61.2967 57.6396 61.4419 57.5233C61.5874 57.4073 61.6972 57.2523 61.7583 57.0764C61.8197 56.9006 61.8295 56.7111 61.7874 56.5296C61.7458 56.3483 61.6534 56.1825 61.521 56.0516C61.2246 55.721 60.8562 55.4635 60.4443 55.2987C60.0323 55.1338 59.5875 55.0664 59.1452 55.1011C58.9504 55.3298 58.8239 55.6083 58.7795 55.9054Z" fill="#419586"/>
<path fill-rule="evenodd" clip-rule="evenodd" d="M243.523 197.661C243.523 198.539 244.51 200.293 245.46 200.074C245.667 200 245.847 199.868 245.977 199.692C246.107 199.516 246.182 199.306 246.192 199.087C246.057 198.404 245.696 197.785 245.168 197.332C245.066 197.186 244.925 197.072 244.759 197.005C244.593 196.938 244.412 196.921 244.237 196.956C244.063 196.991 243.901 197.077 243.775 197.202C243.648 197.327 243.561 197.487 243.523 197.661Z" fill="#419586"/>
<path fill-rule="evenodd" clip-rule="evenodd" d="M227.11 224.418C228.609 224.418 228.865 222.189 226.05 222.189C225.393 222.189 225.063 223.176 225.393 223.651C225.863 224.092 226.468 224.362 227.11 224.418Z" fill="#419586"/>
<path fill-rule="evenodd" clip-rule="evenodd" d="M252.99 179.969C252.99 178.91 251.272 178.836 250.395 178.873C249.846 179.786 249.92 180.408 250.98 180.81C252.039 181.212 252.99 181.14 252.99 179.969Z" fill="#419586"/>
<path fill-rule="evenodd" clip-rule="evenodd" d="M163.615 51.9572C163.615 52.9808 164.237 52.9808 165.151 52.9442C165.639 52.3609 165.898 51.6209 165.882 50.8607C165.848 50.7048 165.777 50.5593 165.676 50.437C165.573 50.3142 165.442 50.2187 165.295 50.1573C165.148 50.0965 164.989 50.0721 164.829 50.086C164.671 50.1004 164.518 50.1531 164.384 50.2394C163.949 50.7149 163.68 51.3169 163.615 51.9572Z" fill="#419586"/>
<path fill-rule="evenodd" clip-rule="evenodd" d="M233.361 216.45C234.384 216.45 234.421 215.755 234.384 215.025C233.831 214.526 233.119 214.241 232.374 214.221C232.213 214.233 232.058 214.285 231.921 214.373C231.785 214.459 231.672 214.578 231.593 214.719C231.514 214.86 231.47 215.018 231.466 215.179C231.462 215.341 231.498 215.501 231.57 215.646C232.062 216.105 232.691 216.388 233.361 216.45Z" fill="#419586"/>
<path fill-rule="evenodd" clip-rule="evenodd" d="M187.961 250.445C187.961 249.604 187.632 248.617 187.047 248.434C185.183 247.923 185.804 250.664 186.499 251.176C186.639 251.255 186.797 251.298 186.959 251.302C187.12 251.306 187.279 251.271 187.424 251.198C187.568 251.127 187.693 251.02 187.786 250.889C187.88 250.758 187.94 250.605 187.961 250.445Z" fill="#419586"/>
<path fill-rule="evenodd" clip-rule="evenodd" d="M30.4133 177.776C30.4133 176.057 28.22 176.313 28.1837 178.653C28.1648 178.797 28.1893 178.944 28.2546 179.075C28.32 179.205 28.4223 179.312 28.5489 179.384C29.865 180.151 30.4133 178.434 30.4133 177.776Z" fill="#419586"/>
<path fill-rule="evenodd" clip-rule="evenodd" d="M117.192 234.289C117.192 233.228 116.023 233.265 115.73 233.448C115.238 233.974 114.965 234.665 114.962 235.385C114.981 235.543 115.037 235.694 115.126 235.826C115.215 235.957 115.335 236.066 115.475 236.14C115.615 236.216 115.771 236.256 115.931 236.258C116.089 236.26 116.246 236.224 116.388 236.153C116.862 235.642 117.146 234.983 117.192 234.289Z" fill="#419586"/>
<path fill-rule="evenodd" clip-rule="evenodd" d="M50.4084 224.346C51.0298 224.748 51.6148 225.003 52.0534 224.346C52.423 223.771 52.5903 223.089 52.5286 222.408C52.3093 221.932 51.2856 221.604 50.8836 222.189C50.4456 222.816 50.2747 223.592 50.4084 224.346Z" fill="#419586"/>
<path fill-rule="evenodd" clip-rule="evenodd" d="M216.437 52.2865C216.437 53.6759 219.689 54.151 219.324 52.2865C218.922 51.4096 216.437 50.6419 216.437 52.2865Z" fill="#419586"/>
<path fill-rule="evenodd" clip-rule="evenodd" d="M239.1 203.693C238.955 203.771 238.834 203.887 238.749 204.029C238.665 204.171 238.62 204.332 238.62 204.498C238.62 204.662 238.665 204.824 238.749 204.965C238.834 205.107 238.955 205.223 239.1 205.301C239.392 205.513 239.726 205.658 240.08 205.727C240.432 205.797 240.797 205.788 241.147 205.703C241.28 205.613 241.392 205.493 241.474 205.354C241.557 205.215 241.607 205.06 241.623 204.9C241.623 203.912 239.721 203.401 239.1 203.693Z" fill="#419586"/>
<path fill-rule="evenodd" clip-rule="evenodd" d="M49.2021 154.601C49.2021 155.625 49.4946 155.698 50.8471 155.698C52.1994 155.698 52.3823 153.651 50.8471 153.651C50.116 153.505 49.2021 153.505 49.2021 154.601Z" fill="#419586"/>
<path fill-rule="evenodd" clip-rule="evenodd" d="M110.466 233.667C111.672 233.667 111.782 233.228 111.782 232.533C111.782 231.839 110.977 231.181 110.101 231.73C109.223 232.278 109.845 233.301 110.466 233.667Z" fill="#419586"/>
<path fill-rule="evenodd" clip-rule="evenodd" d="M202.728 80.3966C216.83 94.608 225.571 113.268 227.46 133.199C229.349 153.131 224.271 173.102 213.09 189.709C201.909 206.317 185.316 218.535 166.138 224.283C146.96 230.032 126.383 228.954 107.91 221.235C89.4373 213.514 74.2118 199.629 64.8264 181.945C55.4416 164.259 52.4772 143.868 56.4381 124.242C60.3991 104.618 71.0406 86.9725 86.5505 74.312C102.06 61.6516 121.479 54.7594 141.5 54.8087C152.889 54.823 164.163 57.091 174.671 61.4826C185.18 65.8743 194.716 72.3025 202.728 80.3966ZM100.681 146.549V137.103L129.415 114.05V124.186L106.638 141.869L129.415 159.793V169.929L100.681 146.549ZM132.834 184.003L145.492 98.7331H149.809L137.151 184.003H132.834ZM181.893 146.549L153.159 169.947V159.811L175.867 141.886L153.159 124.204V114.067L181.893 137.12V146.549ZM71.1337 119.436C71.0261 119.774 70.8523 120.088 70.623 120.359C70.3936 120.631 70.1133 120.855 69.7976 121.018C69.4819 121.18 69.1374 121.279 68.7833 121.309C68.429 121.339 68.0728 121.298 67.7346 121.191C67.3607 121.115 67.0083 120.958 66.7008 120.733C66.3938 120.507 66.1392 120.218 65.955 119.883C65.7706 119.55 65.6611 119.18 65.634 118.8C65.6066 118.42 65.6622 118.038 65.7971 117.682C66.0896 116.767 66.4184 115.707 66.8571 114.574C67.2959 113.441 67.5884 112.564 68.0267 111.54C68.3189 110.924 68.8356 110.442 69.4716 110.196C70.1071 109.949 70.8134 109.955 71.4451 110.212C72.0765 110.469 72.5858 110.959 72.8679 111.58C73.1496 112.201 73.1832 112.906 72.9617 113.551L71.865 116.402C71.5725 117.28 71.2435 118.23 70.9143 119.29L71.1337 119.436ZM77.604 104.814C77.4331 105.124 77.202 105.395 76.9238 105.614C76.646 105.832 76.3267 105.992 75.9858 106.083C75.6446 106.176 75.2884 106.199 74.9384 106.149C74.5886 106.101 74.2519 105.982 73.9487 105.801C73.643 105.627 73.3747 105.394 73.1593 105.115C72.9443 104.837 72.7862 104.519 72.6946 104.179C72.6025 103.839 72.5789 103.485 72.625 103.136C72.6707 102.787 72.7851 102.45 72.9617 102.146C80.3696 89.2613 91.267 78.7313 104.398 71.7697C104.71 71.6066 105.051 71.5063 105.402 71.475C105.752 71.4436 106.106 71.4818 106.442 71.587C106.778 71.6923 107.09 71.8626 107.36 72.0881C107.63 72.3143 107.854 72.5911 108.017 72.9032C108.179 73.215 108.28 73.5559 108.312 73.9069C108.343 74.2575 108.305 74.6109 108.199 74.9469C108.094 75.2833 107.924 75.595 107.698 75.8653C107.473 76.1353 107.195 76.3586 106.884 76.5216C100.8 79.7396 95.2004 83.8009 90.2515 88.5847C85.285 93.284 80.992 98.647 77.4941 104.522L77.604 104.814Z" fill="#C46060"/>
</svg>
