<svg width="267" height="266" viewBox="0 0 267 266" fill="none" xmlns="http://www.w3.org/2000/svg">
<rect x="58.6572" y="196.581" width="19.8166" height="50.7306" fill="#C46060"/>
<rect x="118.9" y="196.581" width="19.8166" height="50.7306" fill="#C46060"/>
<rect x="179.935" y="196.581" width="19.8166" height="50.7306" fill="#C46060"/>
<rect x="196.581" y="27.7433" width="50.7306" height="21.402" fill="#C46060"/>
<rect x="87.1934" y="124.65" width="51.954" height="21.402" transform="rotate(-45 87.1934 124.65)" fill="#C46060"/>
<path d="M130.79 167.527L167.527 130.79L182.66 145.923L150.234 178.35H145.923L141.612 178.35L130.79 167.527Z" fill="#C46060"/>
<rect x="196.581" y="88.7785" width="50.7306" height="21.402" fill="#C46060"/>
<path d="M211.245 149.814H247.311V171.216H231.854L211.245 149.814Z" fill="#C46060"/>
<g opacity="0.6">
<path fill-rule="evenodd" clip-rule="evenodd" d="M261.77 221.915C261.764 219.523 261.545 217.136 261.115 214.782C261.131 214.652 261.131 214.52 261.115 214.389C259.334 205.278 254.446 197.068 247.285 191.16C240.124 185.252 231.134 182.012 221.85 181.995H16.3606C13.1931 181.995 10.1553 183.254 7.91546 185.494C5.67567 187.733 4.41737 190.771 4.41737 193.939V249.859C4.42603 253.021 5.68815 256.051 7.92701 258.283C10.1659 260.516 13.1987 261.77 16.3606 261.77H221.85C227.086 261.767 232.269 260.731 237.104 258.72C241.938 256.71 246.329 253.766 250.023 250.056L250.35 249.696L250.677 249.368L251.005 249.009L251.332 248.649L251.659 248.289L251.986 247.929L252.281 247.569L252.608 247.209L252.902 246.849L253.197 246.456L253.491 246.096L253.786 245.704L254.048 245.311C254.123 245.173 254.211 245.041 254.309 244.918L254.604 244.526C254.68 244.387 254.767 244.256 254.866 244.133L255.226 243.773L255.487 243.38L255.749 242.955L256.011 242.562C256.011 242.562 256.174 242.268 256.24 242.137L256.502 241.712L256.731 241.319L256.96 240.926C257.048 240.803 257.125 240.671 257.189 240.534L257.418 240.141C257.474 239.989 257.551 239.846 257.647 239.716L257.843 239.29L258.04 238.865L258.236 238.407L258.432 237.981L258.629 237.523C258.629 237.523 258.629 237.229 258.629 237.098L258.825 236.673L259.316 235.364C259.316 235.364 259.316 235.069 259.316 234.906C259.325 234.753 259.325 234.6 259.316 234.448C259.316 234.448 259.316 234.153 259.316 234.022L259.708 232.582C259.719 232.43 259.719 232.277 259.708 232.124C259.708 231.503 260.036 230.881 260.134 230.259V229.768C260.33 228.82 260.461 227.838 260.592 226.856C260.592 226.856 260.592 226.529 260.592 226.398C260.592 226.071 260.592 225.744 260.592 225.417C260.592 224.566 260.592 223.715 260.592 222.864V222.341L261.77 221.915ZM53.6628 253.982H23.3302C22.879 253.982 22.4462 253.803 22.1271 253.484C21.808 253.165 21.6287 252.732 21.6287 252.281V191.517C21.6244 191.291 21.6652 191.066 21.7487 190.856C21.8323 190.646 21.9569 190.454 22.1154 190.293C22.2738 190.131 22.4629 190.003 22.6714 189.916C22.88 189.828 23.104 189.783 23.3302 189.783H205.326C205.548 189.783 205.767 189.827 205.972 189.913C206.177 189.999 206.362 190.125 206.517 190.283C206.673 190.442 206.795 190.63 206.877 190.836C206.959 191.042 206.999 191.263 206.994 191.485V252.281C206.999 252.503 206.959 252.723 206.877 252.929C206.795 253.136 206.673 253.323 206.517 253.482C206.362 253.64 206.177 253.766 205.972 253.852C205.767 253.938 205.548 253.982 205.326 253.982H53.6955H53.6628ZM51.9286 250.71H24.999V193.055H51.9613V250.612L51.9286 250.71ZM55.2007 193.284H82.163V250.612H55.3316V193.055L55.2007 193.284ZM85.5333 193.284H112.496V250.612H85.6642V193.055L85.5333 193.284ZM115.866 193.284H142.828V250.612H115.997V193.055L115.866 193.284ZM146.198 193.284H173.423V250.612H146.329V193.055L146.198 193.284ZM176.695 193.055H203.657V250.612H176.695V193.055ZM236.411 179.967L178.2 121.756L104.872 48.4274C102.624 46.2053 99.5903 44.959 96.4295 44.959C94.8634 44.9537 93.3116 45.2573 91.863 45.8525C90.4144 46.4476 89.0974 47.3227 87.9874 48.4274L48.4274 87.9874C46.2054 90.2353 44.9592 93.2686 44.9592 96.4294C44.9592 99.5902 46.2054 102.624 48.4274 104.872L121.069 177.513H132.128L123.163 168.58L101.763 147.246L80.3633 125.846L58.8982 104.217C58.5845 103.899 58.4086 103.47 58.4086 103.023C58.4086 102.576 58.5845 102.147 58.8982 101.828L101.828 58.8982C101.981 58.7347 102.166 58.6044 102.372 58.5154C102.577 58.4263 102.799 58.3803 103.023 58.3803C103.247 58.3803 103.468 58.4263 103.674 58.5154C103.879 58.6044 104.064 58.7347 104.217 58.8982L125.65 80.3306L147.246 101.763L168.678 123.195L211.575 166.06L222.995 177.48C227.59 177.587 232.139 178.416 236.476 179.934L236.411 179.967ZM114.786 177.513L45.2535 107.98C43.72 106.459 42.5029 104.65 41.6723 102.656C40.8417 100.662 40.414 98.5238 40.414 96.364C40.414 94.2042 40.8417 92.0658 41.6723 90.0721C42.5029 88.0784 43.72 86.2689 45.2535 84.748L84.8134 45.2535C86.3395 43.7312 88.1513 42.5255 90.1447 41.7057C92.1382 40.8859 94.274 40.468 96.4295 40.4762C100.76 40.4771 104.914 42.195 107.98 45.2535L177.513 114.753V16.3606C177.513 12.0215 179.236 7.86012 182.305 4.79191C185.373 1.7237 189.534 0 193.873 0L249.827 0C254.166 0 258.327 1.7237 261.395 4.79191C264.463 7.86012 266.187 12.0215 266.187 16.3606V221.85C266.188 227.686 265.032 233.464 262.785 238.85C260.539 244.237 257.246 249.124 253.099 253.23C246.051 260.282 236.826 264.744 226.922 265.893H16.3606C12.0215 265.893 7.86012 264.169 4.79191 261.101C1.7237 258.033 0 253.871 0 249.532L0 193.939C0 189.6 1.7237 185.438 4.79191 182.37C7.86012 179.302 12.0215 177.578 16.3606 177.578L114.786 177.513ZM136.938 177.513L126.795 167.369L167.369 126.762L186.511 145.839L154.804 177.513H136.938ZM159.549 177.513L188.998 148.064L208.074 167.107L197.636 177.513H159.549ZM202.446 177.513L210.299 169.66L218.152 177.513H202.446ZM189.783 53.6955V83.9627V114.263V126.991L181.963 119.171V16.3606C181.98 13.1984 183.244 10.1705 185.48 7.93445C187.716 5.69837 190.744 4.43455 193.906 4.41737H249.859C253.021 4.42603 256.051 5.68815 258.283 7.92701C260.516 10.1659 261.77 13.1987 261.77 16.3606V202.413C259.761 198.299 257.123 194.523 253.949 191.223V23.3302C253.954 23.1083 253.914 22.8878 253.832 22.6816C253.75 22.4753 253.628 22.2875 253.472 22.129C253.317 21.9706 253.132 21.8447 252.927 21.7588C252.722 21.6729 252.503 21.6287 252.281 21.6287H191.517C191.294 21.6287 191.073 21.6727 190.866 21.7582C190.66 21.8438 190.472 21.9691 190.314 22.1271C190.156 22.2851 190.031 22.4727 189.945 22.6791C189.86 22.8855 189.816 23.1068 189.816 23.3302V53.6628L189.783 53.6955ZM193.055 51.9613V24.999H250.612V51.9613H193.055ZM250.481 55.2334V82.1957H193.055V55.3316L250.481 55.2334ZM250.481 85.566V112.528H193.055V85.6642L250.481 85.566ZM250.481 115.899V142.861H205.751L193.055 130.427V115.997L250.481 115.899ZM250.481 146.231V173.422H236.051L209.089 146.329L250.481 146.231ZM250.481 176.564V187.754L239.421 176.695L250.481 176.564ZM235.92 235.92C235.164 236.688 234.196 237.213 233.14 237.429C232.084 237.646 230.988 237.543 229.991 237.134C228.994 236.725 228.14 236.029 227.54 235.134C226.94 234.239 226.619 233.186 226.619 232.108C226.619 231.03 226.94 229.977 227.54 229.082C228.14 228.187 228.994 227.491 229.991 227.082C230.988 226.673 232.084 226.57 233.14 226.787C234.196 227.003 235.164 227.528 235.92 228.296C236.428 228.793 236.831 229.386 237.106 230.04C237.381 230.695 237.523 231.398 237.523 232.108C237.523 232.818 237.381 233.521 237.106 234.176C236.831 234.83 236.428 235.423 235.92 235.92ZM238.309 238.309C236.875 239.73 234.993 240.612 232.983 240.802C230.973 240.993 228.959 240.482 227.283 239.356C225.607 238.229 224.374 236.557 223.792 234.624C223.209 232.69 223.315 230.615 224.09 228.751C224.865 226.886 226.262 225.348 228.044 224.397C229.825 223.447 231.88 223.142 233.861 223.536C235.841 223.93 237.624 224.997 238.906 226.557C240.188 228.117 240.891 230.073 240.894 232.092C240.894 233.247 240.665 234.391 240.222 235.458C239.778 236.525 239.128 237.494 238.309 238.309ZM81.4759 122.083L62.4321 103.006L103.039 62.4321L122.083 81.4758L81.4759 122.083ZM124.341 83.8645L143.417 102.941L102.941 143.548L83.8645 124.341L124.341 83.8645ZM145.773 105.33L164.98 124.341L124.341 164.98L105.33 145.937L145.773 105.33Z" fill="#419586"/>
<path fill-rule="evenodd" clip-rule="evenodd" d="M223.976 106.311C224.892 106.311 226.463 105.101 227.248 104.512L230.062 102.09C231.633 100.651 233.89 98.8183 235.494 97.2477C236.443 96.3642 238.766 94.4336 238.439 93.4193C237.577 93.4826 236.771 93.8681 236.181 94.4991L234.25 96.0043C233.04 96.8877 229.898 99.9963 229.277 100.454C228.455 101.05 227.699 101.73 227.019 102.483C226.103 103.301 223.616 105.199 223.976 106.311Z" fill="#EDE7D9"/>
<path fill-rule="evenodd" clip-rule="evenodd" d="M60.6318 93.6481C60.6318 94.8915 61.3844 94.3679 61.8098 93.6481L62.2025 93.1572C63.5113 91.423 65.4746 87.7582 66.718 85.7295C67.9614 83.7008 68.714 82.0647 69.7283 80.1015C70.0228 79.5452 70.7427 78.3018 70.35 77.5819C69.7611 77.5819 69.7283 77.811 69.4011 78.1055C66.0151 83.0112 63.08 88.2132 60.6318 93.6481Z" fill="#419586"/>
<path fill-rule="evenodd" clip-rule="evenodd" d="M89.231 243.315C90.4744 243.511 91.9141 241.548 92.8303 240.632L100.258 232.026C100.883 231.449 101.259 230.651 101.305 229.801C100.291 229.801 99.7345 230.456 99.2764 230.914C97.3761 232.749 95.5843 234.694 93.9101 236.738L91.6523 239.356C90.8997 240.239 89.0019 242.366 89.231 243.315Z" fill="#419586"/>
<path fill-rule="evenodd" clip-rule="evenodd" d="M113.902 119.76C114.458 119.596 114.524 119.171 114.72 118.483C114.885 117.892 115.016 117.291 115.113 116.684C115.974 112.445 116.51 108.145 116.716 103.824C116.716 103.661 116.52 103.203 116.487 103.006C115.309 103.006 115.211 105.101 114.916 106.606C114.393 109.387 113.967 112.692 113.64 115.506C113.476 116.749 113.051 119.236 113.902 119.76Z" fill="#EDE7D9"/>
<path fill-rule="evenodd" clip-rule="evenodd" d="M94.0075 247.307C95.12 247.307 96.4616 245.9 97.2796 244.984C98.0976 244.068 99.2429 243.021 100.192 242.006C100.552 241.614 101.337 240.828 101.566 240.501C102.482 239.061 105.231 237.033 105.198 235.299C104.282 235.299 104.02 235.298 103.071 236.476C102.063 237.375 101.102 238.325 100.192 239.323L97.3778 242.301L96.0035 243.806L94.8909 245.409C94.4001 245.933 93.7784 246.522 94.0075 247.307Z" fill="#419586"/>
<path fill-rule="evenodd" clip-rule="evenodd" d="M189.096 219.527C190.045 219.919 191.714 217.727 192.369 217.236C193.023 216.746 194.135 215.273 195.084 214.291C195.756 213.561 196.389 212.797 196.982 212.001C197.538 211.347 200.254 208.402 199.764 207.747C199.142 206.602 196.491 210.07 195.968 210.561C195.052 211.608 193.056 213.637 192.336 214.651C191.616 215.666 188.736 218.447 189.096 219.527Z" fill="#EDE7D9"/>
<path fill-rule="evenodd" clip-rule="evenodd" d="M119.661 112.463C119.661 113.379 120.413 113.674 120.839 113.117C121.44 111.444 121.91 109.726 122.246 107.98C122.891 105.424 123.21 102.796 123.195 100.16C123.195 99.538 122.769 98.6545 122.147 99.3744C121.526 100.094 120.479 107.587 120.282 108.667C120.001 109.919 119.793 111.187 119.661 112.463Z" fill="#EDE7D9"/>
<path fill-rule="evenodd" clip-rule="evenodd" d="M198.846 202.086C197.734 201.661 196.916 203.264 196.163 204.181C195.411 205.097 189.783 212.23 190.666 213.146C191.55 214.062 193.349 211.085 193.775 210.496L197.308 205.424C197.767 204.639 199.01 203.264 198.846 202.086Z" fill="#EDE7D9"/>
<path fill-rule="evenodd" clip-rule="evenodd" d="M230.39 66.424C229.457 67.0274 228.6 67.7416 227.838 68.5509C227.008 69.3045 226.242 70.1253 225.547 71.005C224.818 71.886 224.182 72.84 223.65 73.8517C223.333 74.4128 223.154 75.0406 223.126 75.6841C223.126 76.3713 223.584 77.5165 224.206 76.7639C224.327 76.492 224.415 76.2064 224.468 75.9132C225.658 73.6616 227.205 71.6174 229.049 69.8598C229.474 69.4773 229.868 69.0615 230.226 68.6163C230.648 68.2498 231.021 67.8321 231.339 67.3729C231.435 67.2517 231.486 67.1019 231.486 66.9476C231.486 66.7932 231.435 66.6434 231.339 66.5222C230.652 66.0314 230.39 66.424 230.39 66.424Z" fill="#419586"/>
<path fill-rule="evenodd" clip-rule="evenodd" d="M228.328 94.27C227.795 94.5237 227.317 94.8795 226.921 95.3171C226.724 95.5789 217.366 105.493 220.54 104.708C222.758 102.835 224.755 100.716 226.495 98.3929C226.823 97.9021 227.215 97.5094 227.542 97.0513C227.87 96.5932 229.997 93.7137 228.328 94.27Z" fill="#EDE7D9"/>
<path fill-rule="evenodd" clip-rule="evenodd" d="M99.146 225.024C98.2193 225.641 97.4196 226.429 96.79 227.347L94.6959 229.998C94.6959 229.998 89.5259 236.378 92.2418 235.397C93.8988 233.912 95.3808 232.244 96.6592 230.423L97.6735 229.081L98.6224 227.707C98.9649 227.27 99.2609 226.798 99.5059 226.3C99.735 225.777 100.128 224.566 99.146 225.024Z" fill="#419586"/>
<path fill-rule="evenodd" clip-rule="evenodd" d="M91.4229 228.394L91.6192 229.049C92.3718 229.245 92.6663 228.754 92.8953 228.361C94.1387 226.202 98.0325 219.592 97.509 217.989C96.5274 217.727 95.9711 218.872 95.4476 219.854C93.7975 222.545 92.4478 225.409 91.4229 228.394Z" fill="#419586"/>
<path fill-rule="evenodd" clip-rule="evenodd" d="M239.617 65.704C239.061 65.704 238.766 66.293 238.472 66.6529C238.177 67.0129 231.273 76.862 233.956 76.1421C234.774 75.9458 242.137 65.4423 239.617 65.704Z" fill="#419586"/>
<path fill-rule="evenodd" clip-rule="evenodd" d="M244.297 160.825C243.708 160.825 242.726 162.428 242.268 163.05L240.599 165.668C240.207 166.322 236.771 171.558 238.636 171.263C239.454 171.263 241.679 167.402 242.301 166.388C243.373 164.836 244.241 163.154 244.886 161.381C244.886 160.89 244.755 160.825 244.297 160.825Z" fill="#EDE7D9"/>
<path fill-rule="evenodd" clip-rule="evenodd" d="M58.701 86.4495C58.2646 86.71 57.8949 87.0684 57.6212 87.4966L54.938 91.2595C54.3818 92.0448 52.5166 94.2699 52.1567 94.8916C51.1751 96.6585 53.3019 96.8876 56.934 91.6195C57.5656 90.7857 58.1239 89.8989 58.6028 88.969C58.8318 88.5109 59.0936 88.0201 59.2899 87.562C59.4863 87.1039 59.6171 85.8605 58.701 86.4495Z" fill="#419586"/>
<path fill-rule="evenodd" clip-rule="evenodd" d="M237.555 37.2694C234.795 39.5447 232.371 42.1997 230.357 45.1552C230.095 45.7114 230.193 46.3986 231.011 46.0387C233.03 44.4838 234.835 42.6684 236.377 40.6397C237.051 39.8773 237.685 39.08 238.275 38.251C238.635 37.5966 238.439 36.844 237.555 37.2694Z" fill="#EDE7D9"/>
<path fill-rule="evenodd" clip-rule="evenodd" d="M89.7212 103.497V104.61C90.6047 104.61 90.801 104.152 91.2264 102.843C91.7977 101.083 92.2138 99.2764 92.4698 97.4438C92.7191 96.2274 92.8397 94.9881 92.8297 93.7463C92.8297 91.9467 91.8481 92.6011 91.4554 93.91C91.0628 95.2188 90.1466 99.9307 89.8521 101.73C89.9502 102.123 89.7212 103.039 89.7212 103.497Z" fill="#419586"/>
<path fill-rule="evenodd" clip-rule="evenodd" d="M240.533 210.234V210.823C241.678 211.15 243.805 207.551 244.656 206.536L246.455 204.017C246.881 203.461 248.124 202.217 247.862 201.203C245.964 200.745 240.533 209.056 240.533 210.234Z" fill="#419586"/>
<path fill-rule="evenodd" clip-rule="evenodd" d="M97.7052 89.0998C97.7052 87.3001 96.6909 87.6928 96.2655 89.0998C95.3714 92.0046 94.7363 94.983 94.3677 97.9999C94.3677 98.5235 94.3677 99.2106 95.0548 99.1125C95.742 99.0143 96.4618 95.8403 96.6254 95.1859C97.1263 93.1848 97.4871 91.1511 97.7052 89.0998Z" fill="#419586"/>
<path fill-rule="evenodd" clip-rule="evenodd" d="M243.151 157.651C242.202 157.422 241.581 158.403 240.893 159.221C239.781 160.53 238.603 162.297 237.621 163.77C237.36 164.162 236.116 165.962 236.672 166.42C237.229 166.878 239.945 163.672 240.632 162.657C241.319 161.643 241.613 161.185 242.202 160.367C242.48 159.975 242.721 159.559 242.922 159.123C243.217 158.6 243.413 158.305 243.151 157.651Z" fill="#EDE7D9"/>
<path fill-rule="evenodd" clip-rule="evenodd" d="M192.14 223.617C192.14 225.646 193.776 222.766 193.874 222.57C194.3 221.673 194.827 220.828 195.444 220.05C196.033 219.298 196.753 218.643 197.375 217.891C199.731 214.946 198.978 213.375 196.819 215.993C196.173 216.71 195.485 217.387 194.757 218.022C193.417 219.63 192.515 221.557 192.14 223.617Z" fill="#EDE7D9"/>
<path fill-rule="evenodd" clip-rule="evenodd" d="M239.192 12.3685C239.192 10.6342 236.901 12.8266 236.443 13.1538C235.134 14.1354 231.109 17.5384 231.044 18.5855C231.044 20.1561 232.876 18.5855 233.433 18.1274C235.615 16.4903 237.554 14.5513 239.192 12.3685Z" fill="#419586"/>
<path fill-rule="evenodd" clip-rule="evenodd" d="M45.8097 202.872C43.5002 205.175 41.548 207.811 40.0181 210.692C39.7563 211.445 40.0181 211.87 40.8361 211.543C42.1637 210.256 43.3485 208.83 44.37 207.289L45.9079 204.966C46.1847 204.562 46.4255 204.135 46.6278 203.69C46.8895 203.068 46.6278 202.381 45.8097 202.872Z" fill="#419586"/>
<path fill-rule="evenodd" clip-rule="evenodd" d="M223.878 45.5806C223.878 46.4314 224.566 46.1369 224.991 45.8751C225.715 45.3194 226.393 44.7066 227.02 44.0427C227.969 42.7011 231.306 39.6908 231.306 38.5128C231.306 35.8951 226.365 42.0467 226.202 42.2103C226.038 42.3739 223.878 44.7953 223.878 45.5806Z" fill="#EDE7D9"/>
<path fill-rule="evenodd" clip-rule="evenodd" d="M231.012 105.82V106.279C232.059 106.671 233.728 104.97 234.677 104.152C235.626 103.334 239.094 100.618 239.094 99.2762C239.094 97.9347 237.033 99.7343 236.706 99.9961C236.378 100.258 235.233 101.174 234.612 101.763C233.99 102.352 231.012 105.068 231.012 105.82Z" fill="#EDE7D9"/>
<path fill-rule="evenodd" clip-rule="evenodd" d="M220.934 96.6258C220.083 96.2985 218.676 97.2475 217.989 97.6728C215.633 99.1126 214.717 99.1126 213.473 101.796C213.277 102.156 212.393 103.497 212.917 103.857C213.441 104.217 213.342 103.857 213.539 103.857C213.972 103.69 214.324 103.362 214.52 102.941C215.846 101.282 217.438 99.8559 219.232 98.7199C219.658 98.3273 220.934 97.4438 220.934 96.6258Z" fill="#EDE7D9"/>
<path fill-rule="evenodd" clip-rule="evenodd" d="M41.5885 215.96V216.353C42.3411 216.713 42.93 216.058 43.7481 215.273C44.5661 214.488 49.1471 209.939 48.1 209.089C47.8971 209.034 47.6841 209.03 47.479 209.076C47.274 209.121 47.083 209.215 46.922 209.35C46.0044 210.142 45.1408 210.995 44.3371 211.903L42.7992 213.768C42.5374 214.193 41.523 215.371 41.5885 215.96Z" fill="#419586"/>
<path fill-rule="evenodd" clip-rule="evenodd" d="M234.35 8.60565H233.564L228.198 13.6447C227.74 14.1355 226.857 15.019 227.086 15.9352C228.362 16.3279 230.358 13.8738 231.438 12.8921C232.407 11.9817 233.304 10.9971 234.121 9.94722C234.481 9.39096 234.644 9.12919 234.35 8.60565Z" fill="#419586"/>
<path fill-rule="evenodd" clip-rule="evenodd" d="M243.053 198.814C241.876 198.814 240.469 201.105 239.552 202.283L237.524 205.555C237.327 205.882 237.066 206.7 237.524 206.896C238.669 207.355 242.366 201.465 243.053 200.156C243.205 199.965 243.287 199.729 243.287 199.485C243.287 199.242 243.205 199.005 243.053 198.814Z" fill="#419586"/>
<path fill-rule="evenodd" clip-rule="evenodd" d="M107.783 122.41C107.735 122.831 107.827 123.257 108.045 123.621C109.289 123.621 109.452 122.246 109.779 120.643C109.779 120.25 111.186 114.917 109.779 114.917C108.372 114.917 108.471 117.273 108.274 118.189C107.997 119.58 107.832 120.992 107.783 122.41Z" fill="#EDE7D9"/>
<path fill-rule="evenodd" clip-rule="evenodd" d="M238.636 75.8152C239.454 75.8152 239.617 75.8152 239.945 75.259C239.683 74.7354 239.552 74.8336 239.225 74.4736L242.039 71.7905C244.133 69.6963 243.086 68.9438 241.482 70.2199C240.435 71.0379 237.425 73.0339 237.229 74.4082C237.032 75.7825 237.818 75.8152 238.636 75.8152Z" fill="#419586"/>
<path fill-rule="evenodd" clip-rule="evenodd" d="M238.865 18.4546C238.865 20.516 241.188 17.9311 241.646 17.4075C242.104 16.884 242.17 16.884 242.497 16.4913C243.28 15.5691 244.001 14.5962 244.656 13.5791C244.853 13.0883 244.656 12.4993 244.231 12.4993C242.003 14.039 240.165 16.0784 238.865 18.4546Z" fill="#419586"/>
<path fill-rule="evenodd" clip-rule="evenodd" d="M162.952 245.736H163.378C164.261 245.736 166.388 241.45 166.879 240.403C167.108 239.945 167.729 238.538 166.879 238.44C166.028 238.341 163.607 242.693 163.214 243.675C162.821 244.657 162.461 245.017 162.952 245.736Z" fill="#419586"/>
<path fill-rule="evenodd" clip-rule="evenodd" d="M16.6873 198.16V197.342C15.8038 197.014 15.313 197.702 14.7894 198.552C14.2659 199.403 11.7791 203.46 12.2372 204.278C13.2515 206.144 16.6873 198.454 16.6873 198.16Z" fill="#419586"/>
<path fill-rule="evenodd" clip-rule="evenodd" d="M12.1074 218.414L12.4674 218.807C13.3508 219.2 14.6597 216.615 14.9869 216.026C15.3141 215.437 18.0627 210.725 15.8704 211.543C14.1121 213.519 12.8255 215.869 12.1074 218.414Z" fill="#419586"/>
<path fill-rule="evenodd" clip-rule="evenodd" d="M45.8095 217.073C44.9711 217.676 44.241 218.418 43.6499 219.265C42.7083 220.372 41.9464 221.619 41.3921 222.962C41.3921 223.486 41.6539 223.715 42.2101 223.584C42.7664 223.453 44.4024 221.261 44.9914 220.508C45.7403 219.679 46.2987 218.696 46.6275 217.629C46.7584 217.04 46.4966 216.876 45.8095 217.073Z" fill="#419586"/>
<path fill-rule="evenodd" clip-rule="evenodd" d="M10.5034 212.165V212.95L10.6997 213.212C11.6814 213.212 11.8123 212.688 12.2376 211.936C13.1211 210.398 15.2153 207.355 15.0189 206.144C14.6917 205.948 14.5936 205.849 14.1682 206.144C12.7155 207.546 11.5972 209.257 10.8961 211.15C10.8078 211.503 10.6759 211.844 10.5034 212.165Z" fill="#419586"/>
<path fill-rule="evenodd" clip-rule="evenodd" d="M160.335 214.324C160.33 214.427 160.352 214.529 160.398 214.621C160.445 214.712 160.515 214.79 160.601 214.846C160.687 214.902 160.786 214.935 160.888 214.941C160.991 214.947 161.093 214.926 161.185 214.881C163.093 213.253 164.595 211.203 165.57 208.893V208.434C164.588 208.107 164.359 208.434 163.803 209.122C162.376 210.659 161.205 212.416 160.335 214.324Z" fill="#419586"/>
<path fill-rule="evenodd" clip-rule="evenodd" d="M192.793 241.221C192.793 241.744 193.317 242.3 194.331 241.221C194.788 240.737 195.184 240.198 195.509 239.617C196.163 238.57 197.767 236.345 197.243 235.364C196.392 235.102 195.901 235.723 195.509 236.312C194.353 237.797 193.436 239.453 192.793 241.221Z" fill="#EDE7D9"/>
<path fill-rule="evenodd" clip-rule="evenodd" d="M254.408 215.96C254.408 215.207 253.819 214.913 252.936 215.96C251.591 217.515 250.558 219.315 249.893 221.261C249.893 221.784 250.383 222.373 251.332 221.261C252.693 219.711 253.738 217.91 254.408 215.96Z" fill="#419586"/>
<path fill-rule="evenodd" clip-rule="evenodd" d="M238.375 196.327C237.426 196.327 237.164 196.818 236.739 197.342C236.313 197.865 233.139 202.348 234.383 202.839C235.626 203.33 237.655 199.272 238.047 198.323C238.44 197.374 238.865 197.243 238.375 196.327Z" fill="#419586"/>
<path fill-rule="evenodd" clip-rule="evenodd" d="M10.5034 226.496V228.067C11.1906 228.492 11.5505 228.067 11.9432 227.151L12.7612 225.22C13.1538 224.402 15.2807 220.868 13.7428 221.065C13.4156 221.065 12.9902 221.556 12.7939 221.817C12.5976 222.079 12.1395 222.766 11.845 223.192C11.519 223.657 11.255 224.163 11.0597 224.697L10.5034 226.496Z" fill="#419586"/>
<path fill-rule="evenodd" clip-rule="evenodd" d="M164.849 146.788C164.849 147.246 165.765 154.346 167.303 152.808C167.581 150.36 167.015 147.89 165.7 145.806C165.078 145.675 164.849 146.133 164.849 146.788Z" fill="#EDE7D9"/>
<path fill-rule="evenodd" clip-rule="evenodd" d="M126.042 104.937C126.042 106.868 127.024 106.279 127.22 105.984C128.008 104.121 128.495 102.144 128.66 100.127C128.66 99.4399 128.332 98.6546 127.613 99.1454C126.736 100.963 126.204 102.926 126.042 104.937Z" fill="#EDE7D9"/>
<path fill-rule="evenodd" clip-rule="evenodd" d="M198.062 222.701C197.179 222.21 196.59 222.93 195.968 223.551L193.547 226.464C193.318 226.791 192.369 228.002 193.187 228.362C194.005 228.721 195.706 226.627 196.165 226.071C196.623 225.515 198.357 223.813 198.062 222.701Z" fill="#EDE7D9"/>
<path fill-rule="evenodd" clip-rule="evenodd" d="M102.384 91.9794C103.139 90.3067 103.487 88.4789 103.399 86.6459C103.399 85.5661 103.399 85.5006 103.072 84.7808C102.025 84.7808 102.09 85.108 101.861 86.0242C101.589 87.5142 101.446 89.025 101.436 90.5397C101.436 90.736 101.436 91.3577 101.599 91.5541C101.763 91.7504 101.828 92.0122 102.384 91.9794Z" fill="#419586"/>
<path fill-rule="evenodd" clip-rule="evenodd" d="M12.1074 232.321C12.1074 233.466 13.0236 233.106 13.4163 232.615C14.5911 230.987 15.4562 229.157 15.9685 227.216C15.9685 226.333 15.2487 226.365 14.7251 226.922C14.1443 227.695 13.6299 228.516 13.1872 229.376C12.685 230.299 12.3212 231.291 12.1074 232.321Z" fill="#419586"/>
<path fill-rule="evenodd" clip-rule="evenodd" d="M12.7949 241.221C12.7949 240.37 12.2713 239.978 12.7949 239.225C13.3184 238.472 14.5946 236.444 14.3328 235.593C14.071 234.742 13.0239 235.822 12.8276 236.051C11.9625 236.995 11.3049 238.11 10.8971 239.323C10.8713 240.01 11.0918 240.683 11.5188 241.221C12.2059 242.137 12.7949 241.646 12.7949 241.221Z" fill="#419586"/>
<path fill-rule="evenodd" clip-rule="evenodd" d="M104.707 242.301C103.758 242.301 98.3593 247.438 100.813 247.438C101.86 247.438 107.227 242.301 104.707 242.301Z" fill="#419586"/>
<path fill-rule="evenodd" clip-rule="evenodd" d="M163.279 218.054C164.097 218.054 164.981 216.713 165.602 215.895C166.464 214.997 167.024 213.853 167.206 212.622C166.191 212.001 165.537 213.015 164.915 213.899C164.301 214.694 163.733 215.525 163.214 216.385C163.008 216.685 162.853 217.017 162.756 217.367C162.69 217.727 162.854 218.054 163.279 218.054Z" fill="#419586"/>
<path fill-rule="evenodd" clip-rule="evenodd" d="M230.161 132.816C230.161 133.241 230.586 133.339 230.913 133.339C231.24 133.339 235.298 130.067 235.298 128.725C235.298 128.333 235.102 128.202 234.774 128.202C232.744 129.153 231.112 130.786 230.161 132.816Z" fill="#419586"/>
<path fill-rule="evenodd" clip-rule="evenodd" d="M85.6647 103.89C86.9587 102.052 87.5508 99.8116 87.3335 97.5746C86.5809 97.2801 86.2537 97.5746 85.9592 98.2291C85.3154 99.8366 84.9395 101.539 84.8467 103.268C85.0757 103.824 85.0757 103.857 85.6647 103.89Z" fill="#419586"/>
<path fill-rule="evenodd" clip-rule="evenodd" d="M121.461 221.294C121.461 222.243 122.312 222.144 122.738 221.719C123.882 220.314 124.748 218.704 125.29 216.974C125.345 216.771 125.345 216.556 125.29 216.353H124.668C123.85 216.68 123.327 217.825 122.836 218.61C122.237 219.426 121.773 220.331 121.461 221.294Z" fill="#EDE7D9"/>
<path fill-rule="evenodd" clip-rule="evenodd" d="M126.827 209.416C125.682 208.729 125.06 210.038 124.078 211.739C121.951 215.535 123.816 215.469 124.7 214.226L125.616 212.819C126.107 211.935 127.056 210.365 126.827 209.416Z" fill="#EDE7D9"/>
<path fill-rule="evenodd" clip-rule="evenodd" d="M157.324 156.407C157.324 157.291 157.324 159.68 157.978 160.039C159.483 160.923 159.123 156.538 159.123 155.622C159.158 154.954 158.986 154.292 158.633 153.724C157.716 153.724 157.651 153.888 157.487 154.64C157.324 155.393 157.324 156.08 157.324 156.407Z" fill="#EDE7D9"/>
<path fill-rule="evenodd" clip-rule="evenodd" d="M92.9614 210.888C92.9614 212.132 93.9431 211.673 94.2703 211.314C95.4323 209.93 96.2808 208.312 96.7571 206.569V206.144C95.8082 205.555 95.2192 206.504 94.4339 207.78C93.8117 208.748 93.3168 209.793 92.9614 210.888Z" fill="#419586"/>
<path fill-rule="evenodd" clip-rule="evenodd" d="M163.18 204.344C161.828 205.371 160.712 206.677 159.908 208.173C159.156 209.547 160.661 210.398 163.18 206.995L164.162 205.522C164.293 204.704 163.933 204.05 163.18 204.344Z" fill="#419586"/>
<path fill-rule="evenodd" clip-rule="evenodd" d="M92.5031 218.872C93.6484 218.872 94.6627 217.531 95.3172 216.778C97.5095 214.128 96.4624 214.226 96.397 213.8C95.2844 213.8 94.6627 214.749 93.6484 215.862C93.2815 216.29 92.953 216.75 92.6667 217.236C92.1759 218.021 91.9796 218.087 92.5031 218.872Z" fill="#419586"/>
<path fill-rule="evenodd" clip-rule="evenodd" d="M250.415 207.354C250.415 206.536 249.761 206.405 249.041 206.994C248.321 207.583 245.965 210.266 245.965 211.117C245.965 211.968 246.816 211.837 247.274 211.444C247.732 211.052 250.415 208.27 250.415 207.354Z" fill="#419586"/>
<path fill-rule="evenodd" clip-rule="evenodd" d="M217.956 132.39C218.872 132.39 220.476 128.3 220.476 127.417V126.991C220.335 126.866 220.167 126.774 219.986 126.723C219.805 126.672 219.614 126.663 219.429 126.697C218.801 127.549 218.274 128.472 217.858 129.445C217.4 130.492 216.484 132.39 217.956 132.39Z" fill="#419586"/>
<path fill-rule="evenodd" clip-rule="evenodd" d="M246.129 217.236C247.045 217.236 247.208 217.236 247.961 216.451L248.714 215.535C249.041 215.044 251.429 212.59 250.022 212.263C249.303 212.066 247.797 213.931 247.437 214.324C247.078 214.717 246.75 215.175 246.423 215.633C246.096 216.091 245.834 216.418 246.129 217.236Z" fill="#419586"/>
<path fill-rule="evenodd" clip-rule="evenodd" d="M256.141 165.7C256.141 166.944 257.09 166.551 257.417 166.126C258.085 165.115 258.603 164.013 258.955 162.854C259.281 162.266 259.375 161.577 259.217 160.923C258.17 160.465 257.875 161.152 257.221 162.526C256.682 163.515 256.316 164.588 256.141 165.7Z" fill="#419586"/>
<path fill-rule="evenodd" clip-rule="evenodd" d="M14.4952 192.826C14.4952 192.27 14.4952 192.205 14.2335 191.779C13.9717 191.354 13.2845 192.041 13.0555 192.532C12.3649 193.973 11.8064 195.473 11.3867 197.015C11.8121 198.749 14.4952 195.575 14.4952 192.826Z" fill="#419586"/>
<path fill-rule="evenodd" clip-rule="evenodd" d="M198.226 169.136C198.226 168.253 196.132 164.719 194.954 164.719C193.252 164.719 196.524 169.823 197.604 169.758C197.762 169.737 197.908 169.665 198.021 169.553C198.133 169.44 198.205 169.294 198.226 169.136Z" fill="#419586"/>
<path fill-rule="evenodd" clip-rule="evenodd" d="M222.929 132.619C222.929 133.535 223.845 133.339 224.173 133.077C224.5 132.816 228.132 128.202 226.038 128.202C225.285 128.202 222.929 131.605 222.929 132.619Z" fill="#419586"/>
<path fill-rule="evenodd" clip-rule="evenodd" d="M156.506 242.464C157.422 243.086 158.011 242.464 159.091 241.352C159.483 240.992 161.087 239.585 160.825 238.701C160.334 237.163 157.553 240.305 157.095 240.828C156.881 241.04 156.718 241.297 156.616 241.58C156.514 241.863 156.476 242.165 156.506 242.464Z" fill="#419586"/>
<path fill-rule="evenodd" clip-rule="evenodd" d="M137.822 134.942C137.822 136.906 137.822 137.2 138.902 137.135C139.335 136.48 139.594 135.725 139.655 134.942C139.786 133.987 139.786 133.018 139.655 132.063C139.655 131.67 139.36 131.408 138.804 131.539C138.248 131.67 137.822 134.55 137.822 134.942Z" fill="#419586"/>
<path fill-rule="evenodd" clip-rule="evenodd" d="M256.207 173.423C257.123 173.717 257.286 173.652 257.908 172.605C258.53 171.558 260.362 168.613 258.464 168.613C257.941 168.613 257.221 170.02 256.926 170.609C256.371 171.437 256.117 172.43 256.207 173.423Z" fill="#419586"/>
<path fill-rule="evenodd" clip-rule="evenodd" d="M222.504 252.968H222.929C224.042 251.953 225.613 248.845 225.089 248.19C224.565 247.536 224.042 247.929 223.649 248.518C222.793 249.646 222.241 250.976 222.046 252.379C222.177 252.771 222.308 252.771 222.504 252.968Z" fill="#419586"/>
<path fill-rule="evenodd" clip-rule="evenodd" d="M92.9283 204.409C94.1717 204.802 94.1717 204.409 95.7424 202.708C96.0472 202.331 96.3312 201.938 96.5931 201.53C97.0839 200.745 96.2986 199.534 95.0225 200.843C93.7464 202.152 92.503 203.133 92.9283 204.409Z" fill="#419586"/>
<path fill-rule="evenodd" clip-rule="evenodd" d="M240.043 42.5375C240.043 40.247 235.756 43.9445 235.724 44.7953C235.691 45.646 236.214 45.6787 236.803 45.4824C237.392 45.2861 240.043 43.1919 240.043 42.5375Z" fill="#EDE7D9"/>
<path fill-rule="evenodd" clip-rule="evenodd" d="M215.96 251.953L216.32 252.248C216.565 252.303 216.822 252.283 217.056 252.189C217.289 252.096 217.489 251.934 217.629 251.724L218.741 250.415L218.938 250.154C219.363 249.565 220.017 248.714 219.527 248.158C219.036 247.601 217.563 249.008 217.269 249.368C216.539 250.047 216.075 250.963 215.96 251.953Z" fill="#419586"/>
<path fill-rule="evenodd" clip-rule="evenodd" d="M245.965 17.0149C245.965 17.9965 247.078 17.5057 247.307 17.3421C247.536 17.1785 249.826 14.8553 249.597 13.5792C249.107 13.252 248.943 13.0884 248.354 13.5792C247.765 14.07 245.965 16.0005 245.965 17.0149Z" fill="#419586"/>
<path fill-rule="evenodd" clip-rule="evenodd" d="M221 68.0274C219.84 68.888 218.899 70.0088 218.251 71.2996C218.183 71.4282 218.155 71.5747 218.171 71.7196C218.188 71.8645 218.248 72.001 218.344 72.111C218.439 72.221 218.566 72.2992 218.708 72.3355C218.849 72.3717 218.998 72.3642 219.135 72.3139C219.625 72.3139 220.771 70.776 221.131 70.2852C221.491 69.7944 222.243 68.8127 221.785 68.2238C221.704 68.0969 221.577 68.0058 221.431 67.9693C221.285 67.9328 221.131 67.9536 221 68.0274Z" fill="#419586"/>
<path fill-rule="evenodd" clip-rule="evenodd" d="M41.4912 230.161V230.652C42.8001 231.175 43.5199 229.834 44.2398 228.852C46.3012 226.038 44.2398 226.169 43.3563 227.085C43.16 227.282 43.16 227.412 42.9309 227.674C42.7019 227.936 41.4912 229.245 41.4912 230.161Z" fill="#419586"/>
<path fill-rule="evenodd" clip-rule="evenodd" d="M227.216 252.968H228.001L228.23 252.706L228.459 252.51L229.8 250.972C230.16 250.481 231.404 248.714 229.997 248.681C229.244 248.681 228.23 249.957 227.935 250.416C227.641 250.874 226.463 251.953 227.216 252.968Z" fill="#419586"/>
<path fill-rule="evenodd" clip-rule="evenodd" d="M211.608 70.1543C212.59 71.6922 213.735 69.6307 214.226 68.78C214.716 67.9292 215.502 67.0785 214.586 66.5222C213.669 65.9659 213.179 66.9476 212.72 67.7002C212.2 68.4417 211.822 69.274 211.608 70.1543Z" fill="#419586"/>
<path fill-rule="evenodd" clip-rule="evenodd" d="M215.632 247.438V247.831C217.039 248.747 217.203 247.831 217.956 246.653C218.424 246.03 218.758 245.317 218.937 244.559C218.937 244.1 218.185 243.773 217.759 243.904C216.785 244.901 216.057 246.111 215.632 247.438Z" fill="#419586"/>
<path fill-rule="evenodd" clip-rule="evenodd" d="M181.93 56.3459C183.141 56.6731 184.319 54.9389 184.319 53.4337C184.319 52.7138 184.319 51.4704 183.534 51.4704C182.748 51.4704 182.683 53.2047 182.487 53.8591C182.29 54.5135 181.472 55.626 181.93 56.3459Z" fill="#419586"/>
<path fill-rule="evenodd" clip-rule="evenodd" d="M126.173 145.053C127.318 145.053 127.187 144.661 127.187 143.581C127.141 142.771 126.998 141.969 126.762 141.192C126.304 139.622 125.355 140.276 125.224 140.636C125.093 140.996 125.224 144.432 126.173 145.053Z" fill="#419586"/>
<path fill-rule="evenodd" clip-rule="evenodd" d="M160.563 152.743C160.563 153.79 160.301 156.015 161.381 156.015C161.905 156.015 162.101 155.72 162.199 155.197C162.297 154.673 162.461 151.925 161.905 151.303C161.348 150.681 160.563 151.957 160.563 152.743Z" fill="#EDE7D9"/>
<path fill-rule="evenodd" clip-rule="evenodd" d="M228.328 159.287C229.473 159.287 229.408 159.287 230.422 157.815L231.044 156.898C231.698 155.95 231.633 155.132 230.684 155.132C230.357 155.132 227.674 157.324 228.328 159.287Z" fill="#EDE7D9"/>
<path fill-rule="evenodd" clip-rule="evenodd" d="M42.1782 236.345C42.1782 236.902 42.8654 237.85 44.1088 236.083C44.8446 235.277 45.2631 234.23 45.2867 233.139C44.2397 232.451 43.9124 233.139 43.2907 233.957C42.7896 234.685 42.4136 235.493 42.1782 236.345Z" fill="#419586"/>
<path fill-rule="evenodd" clip-rule="evenodd" d="M250.611 17.6696C250.611 18.4877 251.462 18.5204 251.92 18.1277C252.378 17.7351 254.963 14.103 252.935 14.103C252.215 14.103 250.611 16.7534 250.611 17.6696Z" fill="#419586"/>
<path fill-rule="evenodd" clip-rule="evenodd" d="M194.364 234.71C195.182 234.71 196.687 231.732 196.687 231.143C196.687 230.554 195.771 229.67 194.429 231.896C194.167 232.321 192.695 234.71 194.364 234.71Z" fill="#EDE7D9"/>
<path fill-rule="evenodd" clip-rule="evenodd" d="M256.175 158.273C257.288 159.058 257.419 158.534 258.139 157.52C258.401 157.127 260.266 154.248 258.564 154.248C257.779 154.346 256.045 157.062 256.175 158.273Z" fill="#419586"/>
<path fill-rule="evenodd" clip-rule="evenodd" d="M124.504 225.057C124.504 224.239 124.111 223.911 123.49 224.239C122.51 225.115 121.796 226.249 121.428 227.511C121.428 228.1 122.214 228.656 122.901 227.838C123.595 227.013 124.138 226.071 124.504 225.057Z" fill="#EDE7D9"/>
<path fill-rule="evenodd" clip-rule="evenodd" d="M40.5093 203.461C41.3274 203.951 41.6546 204.017 42.6035 202.806C43.2104 202.045 43.5853 201.125 43.6833 200.156C43.6833 199.534 42.9962 199.534 42.6362 199.829C42.31 200.141 42.0242 200.492 41.7855 200.876C41.3274 201.465 40.3785 202.381 40.5093 203.461Z" fill="#419586"/>
<path fill-rule="evenodd" clip-rule="evenodd" d="M238.636 156.866V156.146C237.589 155.688 237.131 156.538 236.64 157.226C236.149 157.913 235.462 159.025 235.626 159.712C235.656 159.817 235.71 159.913 235.782 159.994C235.855 160.075 235.945 160.138 236.046 160.179C236.147 160.22 236.256 160.237 236.364 160.23C236.473 160.223 236.578 160.192 236.673 160.138C237.611 159.245 238.289 158.114 238.636 156.866Z" fill="#EDE7D9"/>
<path fill-rule="evenodd" clip-rule="evenodd" d="M159.613 204.017C159.596 204.139 159.614 204.263 159.664 204.376C159.715 204.488 159.796 204.584 159.898 204.653C160.001 204.721 160.121 204.759 160.244 204.762C160.367 204.766 160.489 204.734 160.595 204.671C161.184 204.442 163.213 202.61 163.245 201.792C163.278 200.974 162.918 200.941 162.329 201.072C161.914 201.268 161.529 201.522 161.184 201.825C160.824 202.119 159.613 203.362 159.613 204.017Z" fill="#419586"/>
<path fill-rule="evenodd" clip-rule="evenodd" d="M165.701 221.85C165.701 223.028 166.584 222.864 166.813 222.733C167.042 222.602 169.365 218.643 167.369 218.643C166.78 218.643 166.519 219.527 166.29 220.017C166.004 220.596 165.806 221.213 165.701 221.85Z" fill="#419586"/>
<path fill-rule="evenodd" clip-rule="evenodd" d="M101.697 52.8774C101.697 52.2557 101.206 52.2557 100.847 52.2557C100.487 52.2557 99.7668 53.401 99.5704 53.9572C99.3741 54.5135 98.7524 55.8224 99.5704 56.2804C100.814 57.0985 101.697 53.3355 101.697 52.8774Z" fill="#419586"/>
<path fill-rule="evenodd" clip-rule="evenodd" d="M68.9766 85.0752C68.9965 85.2061 69.048 85.3302 69.1265 85.4368C69.2051 85.5434 69.3083 85.6294 69.4274 85.6873C69.5464 85.7452 69.6778 85.7734 69.8102 85.7694C69.9425 85.7653 70.0719 85.7292 70.1873 85.6641C70.4817 85.5005 70.809 84.7479 71.0053 84.3553C71.2237 83.8474 71.3988 83.322 71.5288 82.7847C71.7579 81.5085 70.5799 81.1813 70.0236 82.163C69.4888 83.0565 69.1331 84.0456 68.9766 85.0752Z" fill="#419586"/>
<path fill-rule="evenodd" clip-rule="evenodd" d="M91.6191 53.2376C91.6191 54.7428 92.8298 55.4627 93.2552 53.7284C93.517 52.7468 93.8442 52.7795 94.2696 51.6343C94.6949 50.489 93.8442 50.26 93.0262 50.9471C92.651 51.2161 92.3333 51.5572 92.0917 51.9505C91.8501 52.3438 91.6895 52.7814 91.6191 53.2376Z" fill="#419586"/>
<path fill-rule="evenodd" clip-rule="evenodd" d="M105.297 121.756C105.297 122.77 105.494 122.934 106.508 122.868C107.261 121.821 107.686 119.596 107.13 119.007C105.854 117.797 105.297 121.069 105.297 121.756Z" fill="#EDE7D9"/>
<path fill-rule="evenodd" clip-rule="evenodd" d="M131.475 140.014C131.475 141.487 132.947 141.912 133.405 139.196C133.405 138.378 133.831 137.069 132.816 137.069C131.802 137.069 132.031 137.462 131.802 138.116C131.624 138.735 131.514 139.372 131.475 140.014Z" fill="#419586"/>
<path fill-rule="evenodd" clip-rule="evenodd" d="M152.611 161.676C151.793 161.97 152.087 163.246 152.251 163.999C152.415 164.752 152.611 165.864 153.593 165.668C154.574 165.471 153.887 162.788 153.593 162.101C153.56 162.005 153.509 161.918 153.44 161.843C153.372 161.769 153.289 161.71 153.196 161.67C153.104 161.63 153.004 161.61 152.903 161.611C152.802 161.612 152.703 161.634 152.611 161.676Z" fill="#EDE7D9"/>
<path fill-rule="evenodd" clip-rule="evenodd" d="M225.122 38.6112C225.136 38.5002 225.123 38.3873 225.084 38.2825C225.044 38.1777 224.98 38.0842 224.896 38.01C224.812 37.9358 224.711 37.8832 224.602 37.8569C224.494 37.8305 224.38 37.8311 224.272 37.8587C223.29 37.8587 220.999 41.4907 222.93 41.3925C223.715 41.3598 225.122 39.2657 225.122 38.6112Z" fill="#EDE7D9"/>
<path fill-rule="evenodd" clip-rule="evenodd" d="M190.274 202.283C191.059 202.283 191.746 201.334 192.073 200.745C192.333 200.411 192.533 200.035 192.662 199.632C192.662 198.978 191.942 197.702 190.208 200.221C189.783 201.006 189.227 202.283 190.274 202.283Z" fill="#EDE7D9"/>
<path fill-rule="evenodd" clip-rule="evenodd" d="M219.723 39.429C220.639 40.2143 220.999 39.7235 221.62 39.0691C221.974 38.7588 222.256 38.3761 222.448 37.9469C222.64 37.5178 222.737 37.0523 222.733 36.5822C221.784 35.9933 221.62 36.1569 220.508 37.4984C220.029 38.031 219.752 38.7137 219.723 39.429Z" fill="#EDE7D9"/>
<path fill-rule="evenodd" clip-rule="evenodd" d="M214.847 96.5277V96.0369C213.996 95.4807 213.898 95.5461 212.916 96.5932C212.589 96.9204 211.673 98.0002 211.836 98.7201C212 99.4399 212.687 99.7344 213.669 98.5565C214.18 97.9567 214.579 97.2694 214.847 96.5277Z" fill="#EDE7D9"/>
<path fill-rule="evenodd" clip-rule="evenodd" d="M186.315 58.2112C185.66 56.8696 184.449 58.2112 183.926 59.062C183.402 59.9127 182.846 60.5671 183.631 61.0907C184.417 61.6142 186.315 59.0947 186.315 58.2112Z" fill="#419586"/>
<path fill-rule="evenodd" clip-rule="evenodd" d="M234.644 195.509C234.644 194.953 234.055 194.135 232.779 195.509C232.484 195.836 231.568 197.047 231.601 197.603C231.625 197.803 231.722 197.987 231.873 198.119C232.024 198.252 232.218 198.325 232.419 198.323C233.139 198.291 234.644 196.327 234.644 195.509Z" fill="#419586"/>
<path fill-rule="evenodd" clip-rule="evenodd" d="M74.8339 211.412C73.9504 211.412 73.3941 212.262 72.936 212.884C71.4636 214.946 73.1324 216.156 74.7357 213.571C75.2592 212.688 75.8155 211.935 74.8339 211.412Z" fill="#EDE7D9"/>
<path fill-rule="evenodd" clip-rule="evenodd" d="M188.245 171.459C188.245 174.469 189.684 173.52 189.848 173.259C190.012 172.997 190.568 169.561 189.161 169.561C188.343 169.561 188.245 170.347 188.245 171.459Z" fill="#419586"/>
<path fill-rule="evenodd" clip-rule="evenodd" d="M224.369 12.1398C224.369 12.5979 225.154 13.5141 226.071 12.1398C226.564 11.4661 226.828 10.6516 226.823 9.81656C226.594 9.64148 226.324 9.52874 226.038 9.48935C225.285 9.35846 224.369 11.2563 224.369 12.1398Z" fill="#419586"/>
<path fill-rule="evenodd" clip-rule="evenodd" d="M96.9529 54.808C98.0327 54.35 99.3416 51.1433 97.5419 51.3723C96.9857 51.3723 96.4621 52.5503 96.2331 53.0738C96.004 53.5974 95.7423 54.7753 96.9529 54.808Z" fill="#419586"/>
<path fill-rule="evenodd" clip-rule="evenodd" d="M207.486 98.5562C208.239 98.5562 208.271 98.5562 208.762 98.1636C209.253 97.7709 210.104 96.9856 210.071 96.3966C210.038 95.8076 208.991 95.1205 207.65 96.7238C206.308 98.3272 207.29 98.1636 207.486 98.5562Z" fill="#EDE7D9"/>
<path fill-rule="evenodd" clip-rule="evenodd" d="M99.5053 127.286C99.4416 127.912 99.5431 128.543 99.7998 129.118C100.88 129.347 101.305 129.38 101.305 127.417C101.305 125.453 99.5053 125.421 99.5053 127.286Z" fill="#EDE7D9"/>
<path fill-rule="evenodd" clip-rule="evenodd" d="M183.239 67.5038C183.239 68.1255 184.09 69.2381 185.267 67.3402C185.472 67.0595 185.606 66.7343 185.66 66.3913C185.648 66.2267 185.589 66.0689 185.491 65.9358C185.394 65.8026 185.261 65.6996 185.107 65.6383C184.954 65.5769 184.787 65.5598 184.624 65.5888C184.461 65.6178 184.31 65.6918 184.188 65.8023C183.751 66.2937 183.427 66.8744 183.239 67.5038Z" fill="#419586"/>
<path fill-rule="evenodd" clip-rule="evenodd" d="M191.942 203.035C191.937 203.205 191.984 203.371 192.078 203.512C192.171 203.654 192.307 203.762 192.465 203.823C192.623 203.884 192.796 203.895 192.96 203.853C193.124 203.812 193.272 203.72 193.382 203.591C195.247 201.857 193.872 200.319 192.923 201.366C192.413 201.793 192.067 202.382 191.942 203.035Z" fill="#EDE7D9"/>
<path fill-rule="evenodd" clip-rule="evenodd" d="M73.0672 220.41C73.0479 220.581 73.0827 220.753 73.1666 220.903C73.2506 221.052 73.3795 221.172 73.5351 221.244C73.6906 221.316 73.8651 221.338 74.0336 221.306C74.2021 221.274 74.3563 221.189 74.4742 221.065C76.5684 219.167 74.7687 217.498 73.6235 219.232C73.3543 219.58 73.1644 219.982 73.0672 220.41Z" fill="#EDE7D9"/>
<path fill-rule="evenodd" clip-rule="evenodd" d="M123.196 237.949C123.722 237.633 124.126 237.149 124.341 236.575C124.636 235.888 124.341 235.102 123.556 235.168C122.771 235.233 121.069 237.884 123.196 237.949Z" fill="#EDE7D9"/>
<path fill-rule="evenodd" clip-rule="evenodd" d="M71.4624 209.416C71.5106 209.572 71.6 209.713 71.7211 209.823C71.8422 209.934 71.9907 210.01 72.1511 210.043C72.3115 210.076 72.4779 210.066 72.633 210.013C72.7882 209.961 72.9263 209.867 73.033 209.743C73.4847 209.264 73.7812 208.659 73.8838 208.009C73.7529 206.634 71.4951 207.845 71.4624 209.416Z" fill="#EDE7D9"/>
<path fill-rule="evenodd" clip-rule="evenodd" d="M70.71 205.456C70.7096 205.57 70.7327 205.682 70.7779 205.785C70.823 205.889 70.8892 205.982 70.9722 206.059C71.0552 206.136 71.1533 206.195 71.2603 206.232C71.3672 206.269 71.4806 206.283 71.5934 206.274C72.1497 206.274 74.0475 203.918 72.4442 203.493C71.9861 203.493 71.8552 203.493 71.6262 203.82C71.119 204.225 70.7902 204.812 70.71 205.456Z" fill="#EDE7D9"/>
<path fill-rule="evenodd" clip-rule="evenodd" d="M121.559 148.816C121.559 148.096 121.559 146.951 120.938 146.591C120.316 146.231 119.007 147.115 120.021 148.718C120.48 149.405 121.069 149.111 121.559 148.816Z" fill="#419586"/>
<path fill-rule="evenodd" clip-rule="evenodd" d="M83.538 101.73V101.174C83.538 100.487 81.8037 99.8327 81.5747 102.221C81.4765 103.563 83.538 103.432 83.538 101.73Z" fill="#419586"/>
<path fill-rule="evenodd" clip-rule="evenodd" d="M155.327 236.902C155.078 237.085 154.873 237.32 154.726 237.592C154.579 237.863 154.494 238.164 154.477 238.472C154.477 238.931 154.477 239.094 154.804 239.291C154.949 239.371 155.112 239.413 155.278 239.413C155.444 239.413 155.607 239.371 155.753 239.291C156.183 238.877 156.44 238.316 156.473 237.72C156.485 237.578 156.46 237.436 156.4 237.307C156.341 237.178 156.249 237.067 156.133 236.985C156.017 236.902 155.882 236.851 155.741 236.837C155.6 236.822 155.457 236.845 155.327 236.902Z" fill="#419586"/>
<path fill-rule="evenodd" clip-rule="evenodd" d="M230.161 193.382V192.826C228.231 191.583 228.002 194.364 228.329 194.757C228.656 195.149 230.161 194.757 230.161 193.382Z" fill="#419586"/>
<path fill-rule="evenodd" clip-rule="evenodd" d="M183.01 76.2403C183.01 77.1565 185.006 77.6146 185.006 75.1605C185.006 74.0807 183.01 73.9825 183.01 76.2403Z" fill="#419586"/>
<path fill-rule="evenodd" clip-rule="evenodd" d="M259.446 151.139V150.06C257.745 148.456 256.501 152.579 258.563 152.285C259.086 152.186 259.152 151.565 259.446 151.139Z" fill="#419586"/>
<path fill-rule="evenodd" clip-rule="evenodd" d="M122.869 209.416C124.21 209.416 124.439 206.406 122.869 206.864C122.116 207.191 121.331 209.416 122.869 209.416Z" fill="#EDE7D9"/>
<path fill-rule="evenodd" clip-rule="evenodd" d="M122.802 232.321C122.802 233.008 122.802 233.302 124.111 233.237C126.107 230.096 122.802 229.605 122.802 232.321Z" fill="#EDE7D9"/>
</g>
</svg>
