<svg width="239" height="324" viewBox="0 0 239 324" fill="none" xmlns="http://www.w3.org/2000/svg">
<g opacity="0.6">
<path fill-rule="evenodd" clip-rule="evenodd" d="M109.058 295.663H132.581C132.843 295.66 133.102 295.708 133.345 295.805C133.588 295.902 133.808 296.047 133.995 296.231C134.181 296.414 134.329 296.633 134.43 296.874C134.531 297.115 134.583 297.374 134.583 297.636C134.583 298.166 134.372 298.676 133.996 299.051C133.621 299.426 133.112 299.637 132.581 299.637H109.058C108.527 299.637 108.018 299.426 107.643 299.051C107.268 298.676 107.057 298.166 107.057 297.636C107.057 297.374 107.109 297.115 107.21 296.874C107.311 296.633 107.459 296.414 107.645 296.231C107.831 296.047 108.052 295.902 108.295 295.805C108.537 295.708 108.797 295.66 109.058 295.663ZM236.999 117.254H227.079C226.548 117.254 226.039 117.465 225.664 117.841C225.289 118.216 225.078 118.725 225.078 119.256C225.078 119.787 225.289 120.296 225.664 120.671C226.039 121.046 226.548 121.257 227.079 121.257H236.999C237.529 121.257 238.039 121.046 238.414 120.671C238.789 120.296 239 119.787 239 119.256C239 118.725 238.789 118.216 238.414 117.841C238.039 117.465 237.529 117.254 236.999 117.254ZM219.712 58.8387L211.01 63.7985C210.556 64.0601 210.225 64.4912 210.089 64.9971C209.953 65.5029 210.024 66.0421 210.285 66.496C210.547 66.9498 210.978 67.2812 211.484 67.4172C211.99 67.5532 212.529 67.4826 212.983 67.2211L221.684 62.2903C221.944 62.1797 222.178 62.0153 222.37 61.8079C222.561 61.6005 222.707 61.3549 222.797 61.0871C222.887 60.8194 222.92 60.5356 222.892 60.2544C222.865 59.9732 222.778 59.701 222.638 59.4557C222.498 59.2105 222.308 58.9976 222.079 58.8312C221.851 58.6649 221.59 58.5487 221.313 58.4904C221.037 58.4321 220.751 58.433 220.475 58.493C220.199 58.5531 219.939 58.6709 219.712 58.8387ZM175.595 17.0427L170.665 25.7442C170.535 25.9688 170.45 26.2168 170.417 26.4741C170.383 26.7314 170.4 26.9928 170.467 27.2434C170.535 27.4939 170.651 27.7288 170.809 27.9344C170.967 28.14 171.165 28.3124 171.39 28.4416C171.853 28.6689 172.387 28.7083 172.878 28.5515C173.37 28.3948 173.783 28.054 174.029 27.6005L178.989 18.899C179.241 18.4401 179.303 17.9007 179.162 17.3964C179.021 16.8921 178.688 16.4632 178.235 16.2016C178.01 16.0717 177.762 15.9874 177.505 15.9536C177.248 15.9197 176.986 15.937 176.736 16.0043C176.485 16.0717 176.25 16.1878 176.045 16.3461C175.839 16.5044 175.667 16.7017 175.537 16.9267L175.595 17.0427ZM116.425 2.83031V12.721C116.425 13.2518 116.636 13.7608 117.012 14.1361C117.387 14.5115 117.896 14.7223 118.427 14.7223C118.958 14.7223 119.467 14.5115 119.842 14.1361C120.217 13.7608 120.428 13.2518 120.428 12.721V2.83031C120.428 2.29953 120.217 1.79048 119.842 1.41516C119.467 1.03983 118.958 0.828979 118.427 0.828979C117.896 0.828979 117.387 1.03983 117.012 1.41516C116.636 1.79048 116.425 2.29953 116.425 2.83031ZM58.0097 20.0882L62.9695 28.7897C63.099 29.0144 63.2715 29.2114 63.4772 29.3695C63.6828 29.5275 63.9176 29.6435 64.1681 29.7109C64.4186 29.7782 64.6799 29.7956 64.937 29.7619C65.1942 29.7283 65.4423 29.6443 65.667 29.5148C65.8917 29.3853 66.0887 29.2128 66.2468 29.0071C66.4049 28.8015 66.5209 28.5667 66.5882 28.3162C66.6555 28.0658 66.6729 27.8045 66.6392 27.5473C66.6056 27.2901 66.5216 27.0421 66.3921 26.8173L61.5483 18.2319C61.4359 17.9836 61.2739 17.7608 61.0723 17.5773C60.8708 17.3938 60.6338 17.2534 60.376 17.1648C60.1183 17.0761 59.8451 17.0411 59.5733 17.0617C59.3015 17.0824 59.0368 17.1584 58.7954 17.285C58.554 17.4117 58.341 17.5863 58.1695 17.7982C57.998 18.01 57.8716 18.2547 57.798 18.5172C57.7245 18.7797 57.7053 19.0544 57.7417 19.3245C57.7781 19.5947 57.8693 19.8546 58.0097 20.0882ZM16.2137 64.2046L24.7701 69.1354C25.224 69.4008 25.7647 69.475 26.2733 69.3418C26.7819 69.2085 27.2167 68.8787 27.4821 68.4248C27.7475 67.9709 27.8217 67.4302 27.6885 66.9216C27.5552 66.4131 27.2253 65.9782 26.7715 65.7128L18.07 60.753C17.6111 60.5009 17.0717 60.4386 16.5674 60.5796C16.0631 60.7206 15.6342 61.0536 15.3726 61.5071C15.2427 61.7318 15.1584 61.9798 15.1246 62.2371C15.0907 62.4944 15.108 62.7558 15.1754 63.0063C15.2427 63.2569 15.3589 63.4918 15.5171 63.6974C15.6754 63.903 15.8727 64.0753 16.0977 64.2046H16.2137ZM13.8643 121.373C13.8682 121.112 13.82 120.852 13.7226 120.609C13.6252 120.367 13.4805 120.146 13.297 119.96C13.1135 119.773 12.8947 119.626 12.6535 119.525C12.4123 119.424 12.1535 119.372 11.892 119.372H2.00133C1.47055 119.372 0.961501 119.583 0.586177 119.958C0.210854 120.333 0 120.842 0 121.373C0 121.904 0.210854 122.413 0.586177 122.788C0.961501 123.164 1.47055 123.374 2.00133 123.374H11.892C12.1535 123.375 12.4123 123.323 12.6535 123.222C12.8947 123.121 13.1135 122.973 13.297 122.787C13.4805 122.6 13.6252 122.38 13.7226 122.137C13.82 121.894 13.8682 121.635 13.8643 121.373ZM98.6165 307.845C99.2504 312.073 101.457 315.906 104.795 318.577C109.002 321.865 114.189 323.652 119.529 323.652C124.869 323.652 130.056 321.865 134.263 318.577C137.593 315.903 139.789 312.07 140.412 307.845H145.024C146.859 307.844 148.656 307.333 150.217 306.368C151.777 305.404 153.039 304.025 153.86 302.384C154.682 300.744 155.031 298.908 154.869 297.081C154.707 295.254 154.04 293.508 152.943 292.038H154.248C156.11 292.036 157.934 291.509 159.51 290.516C161.086 289.524 162.349 288.107 163.155 286.428C163.962 284.749 164.277 282.877 164.066 281.027C163.855 279.176 163.126 277.423 161.963 275.969C163.774 275.539 165.431 274.616 166.749 273.301C167.67 272.384 168.4 271.295 168.899 270.095C169.398 268.896 169.654 267.609 169.654 266.31C169.654 265.011 169.398 263.725 168.899 262.525C168.4 261.326 167.67 260.237 166.749 259.32L165.966 258.624C171.477 255.202 171.767 248.559 172.115 239.539C172.229 234.684 172.646 229.84 173.362 225.037C175.508 211.897 189.837 187.852 196.856 176.656C202.337 168.803 206.582 160.156 209.444 151.016C213.867 136.88 214.902 121.902 212.465 107.292C210.028 92.6818 204.187 78.8502 195.416 66.915C186.644 54.9797 175.188 45.2758 161.972 38.5874C148.756 31.8991 134.152 28.4141 119.34 28.4141C104.529 28.4141 89.9247 31.8991 76.7089 38.5874C63.4932 45.2758 52.0365 54.9797 43.265 66.915C34.4935 78.8502 28.6532 92.6818 26.2163 107.292C23.7793 121.902 24.8141 136.88 29.2369 151.016C32.099 160.156 36.3442 168.803 41.825 176.656C48.8442 187.852 63.1726 211.897 65.3189 225.037C66.035 229.84 66.4516 234.684 66.5661 239.539C66.9432 248.559 67.2042 255.202 72.7152 258.624L71.932 259.32C70.6881 260.573 69.8012 262.136 69.3628 263.846C68.9244 265.556 68.9505 267.352 69.4383 269.049C69.926 270.746 70.8579 272.282 72.1376 273.499C73.4173 274.715 74.9984 275.568 76.7178 275.969C75.3598 277.748 74.6534 279.939 74.7165 282.176C74.7165 283.477 74.9733 284.766 75.4722 285.968C75.971 287.17 76.7021 288.261 77.6237 289.18C78.5452 290.099 79.6389 290.827 80.8423 291.322C82.0456 291.818 83.3349 292.071 84.6362 292.067H85.9124C84.815 293.537 84.148 295.283 83.9859 297.11C83.8239 298.937 84.1731 300.773 84.9947 302.413C85.8162 304.054 87.0777 305.433 88.6381 306.397C90.1985 307.362 91.9963 307.873 93.8307 307.874L98.6165 307.845ZM147.345 268.312H111.524C110.993 268.312 110.484 268.101 110.109 267.726C109.733 267.35 109.522 266.841 109.522 266.31C109.522 266.049 109.574 265.79 109.675 265.549C109.776 265.308 109.924 265.089 110.11 264.905C110.296 264.722 110.517 264.577 110.76 264.48C111.003 264.382 111.262 264.334 111.524 264.338H147.345C147.606 264.334 147.866 264.382 148.108 264.48C148.351 264.577 148.572 264.722 148.758 264.905C148.944 265.089 149.092 265.308 149.193 265.549C149.294 265.79 149.346 266.049 149.346 266.31C149.346 266.841 149.135 267.35 148.76 267.726C148.384 268.101 147.875 268.312 147.345 268.312ZM131.508 256.42H107.463V198.758C107.463 198.265 107.463 197.801 107.463 197.337C115.45 198.574 123.579 198.574 131.566 197.337C131.566 197.801 131.566 198.265 131.566 198.758V256.42H131.508ZM103.489 198.758V256.42H79.0962H77.936C71.3519 254.65 71.0909 248.443 70.7138 239.307C70.5767 234.287 70.1409 229.28 69.4086 224.311C67.1752 210.505 52.4698 185.822 45.3346 174.423C43.3042 171.145 41.883 168.999 41.622 168.622C38.1352 162.718 35.3419 156.43 33.2976 149.885C29.0566 136.343 28.0619 121.993 30.3938 107.996C32.7257 93.9981 38.3188 80.7458 46.7208 69.3101C55.1228 57.8744 66.098 48.5764 78.7589 42.1678C91.4198 35.7592 105.411 32.4199 119.602 32.4199C133.792 32.4199 147.783 35.7592 160.444 42.1678C173.105 48.5764 184.08 57.8744 192.482 69.3101C200.884 80.7458 206.477 93.9981 208.809 107.996C211.141 121.993 210.146 136.343 205.905 149.885C203.861 156.43 201.068 162.718 197.581 168.622C197.32 169.057 195.899 171.174 193.868 174.423C186.733 185.822 172.028 210.505 169.794 224.311C168.972 229.293 168.449 234.32 168.228 239.365C167.851 248.501 167.59 254.708 161.006 256.478H159.846H135.482V198.758C135.482 198.004 135.482 197.25 135.482 196.525C136.787 196.235 138.063 195.887 139.252 195.51C143.386 194.339 147.249 192.368 150.622 189.709C151.951 188.713 153.047 187.439 153.833 185.976C154.62 184.514 155.078 182.897 155.176 181.239C155.169 180.401 155.032 179.57 154.77 178.774C154.399 177.587 153.747 176.508 152.868 175.629C151.989 174.75 150.91 174.097 149.723 173.727C147.908 173.173 145.969 173.173 144.154 173.727C142.055 174.327 140.141 175.444 138.585 176.975C134.462 181.468 132.059 187.272 131.798 193.363C123.649 194.755 115.322 194.755 107.173 193.363C106.901 187.28 104.51 181.483 100.415 176.975C98.8445 175.449 96.9217 174.333 94.8169 173.727C93.0018 173.173 91.063 173.173 89.2479 173.727C88.0452 174.085 86.9485 174.732 86.0536 175.612C85.1587 176.492 84.4928 177.577 84.1141 178.774C83.8617 179.571 83.7345 180.403 83.737 181.239C83.8369 182.874 84.2907 184.468 85.0669 185.91C85.8431 187.352 86.9233 188.609 88.2328 189.593C91.5919 192.258 95.4467 194.229 99.5737 195.394C100.763 195.771 102.039 196.119 103.344 196.409C103.344 197.134 103.344 197.888 103.344 198.642L103.489 198.758ZM137.889 297.636C137.885 297.376 137.934 297.117 138.031 296.876C138.129 296.635 138.274 296.416 138.458 296.232C138.642 296.048 138.861 295.903 139.102 295.806C139.343 295.708 139.601 295.659 139.861 295.663H143.458C143.719 295.66 143.979 295.708 144.222 295.805C144.464 295.902 144.685 296.047 144.871 296.231C145.058 296.414 145.206 296.633 145.306 296.874C145.407 297.115 145.459 297.374 145.459 297.636C145.459 298.166 145.248 298.676 144.873 299.051C144.498 299.426 143.989 299.637 143.458 299.637H139.861C139.6 299.637 139.341 299.585 139.1 299.484C138.859 299.383 138.64 299.235 138.456 299.049C138.273 298.863 138.128 298.642 138.031 298.399C137.933 298.157 137.885 297.897 137.889 297.636ZM127.621 282.176C127.625 282.436 127.577 282.694 127.479 282.935C127.381 283.177 127.236 283.396 127.052 283.579C126.868 283.763 126.649 283.909 126.408 284.006C126.167 284.104 125.909 284.152 125.649 284.148H102.184C101.923 284.152 101.663 284.104 101.42 284.007C101.178 283.909 100.957 283.765 100.771 283.581C100.584 283.398 100.437 283.179 100.336 282.938C100.235 282.696 100.183 282.438 100.183 282.176C100.183 281.645 100.394 281.136 100.769 280.761C101.144 280.386 101.653 280.175 102.184 280.175H125.736C126.249 280.197 126.733 280.419 127.085 280.793C127.437 281.166 127.629 281.663 127.621 282.176ZM96.9052 282.176C96.9052 282.438 96.8533 282.696 96.7524 282.938C96.6514 283.179 96.5035 283.398 96.3173 283.581C96.1311 283.765 95.9102 283.909 95.6676 284.007C95.4249 284.104 95.1653 284.152 94.9039 284.148H91.3073C91.0472 284.152 90.789 284.104 90.5479 284.006C90.3068 283.909 90.0879 283.763 89.9039 283.579C89.72 283.396 89.5748 283.177 89.4771 282.935C89.3794 282.694 89.331 282.436 89.3349 282.176C89.3311 281.915 89.3793 281.655 89.4767 281.412C89.5741 281.17 89.7188 280.949 89.9023 280.763C90.0858 280.576 90.3045 280.429 90.5457 280.328C90.7869 280.227 91.0458 280.175 91.3073 280.175H94.9039C95.4347 280.175 95.9437 280.386 96.319 280.761C96.6944 281.136 96.9052 281.645 96.9052 282.176ZM154.625 268.341C154.094 268.341 153.585 268.13 153.21 267.755C152.834 267.379 152.624 266.87 152.624 266.339C152.624 266.078 152.675 265.819 152.776 265.578C152.877 265.337 153.025 265.118 153.211 264.934C153.398 264.751 153.619 264.606 153.861 264.509C154.104 264.411 154.363 264.363 154.625 264.367H158.221C158.483 264.363 158.743 264.411 158.985 264.509C159.228 264.606 159.449 264.751 159.635 264.934C159.821 265.118 159.969 265.337 160.07 265.578C160.171 265.819 160.223 266.078 160.223 266.339C160.223 266.87 160.012 267.379 159.637 267.755C159.261 268.13 158.752 268.341 158.221 268.341H154.625ZM148.07 186.46C145.128 188.815 141.745 190.561 138.121 191.594L135.917 192.232C136.253 187.536 138.164 183.09 141.341 179.615C142.399 178.542 143.719 177.762 145.169 177.353C146.246 177.018 147.399 177.018 148.476 177.353C149.066 177.538 149.601 177.865 150.036 178.305C150.47 178.745 150.791 179.284 150.97 179.876C151.11 180.277 151.179 180.699 151.173 181.123C151.067 182.183 150.735 183.207 150.2 184.128C149.665 185.049 148.938 185.844 148.07 186.46ZM103.054 192.261L100.879 191.623C97.2409 190.587 93.8479 188.832 90.9012 186.46C90.0327 185.844 89.3063 185.049 88.771 184.128C88.2356 183.207 87.9038 182.183 87.7977 181.123C87.7918 180.699 87.8606 180.277 88.0007 179.876C88.1798 179.284 88.5006 178.745 88.9353 178.305C89.37 177.865 89.9054 177.538 90.4951 177.353C91.5719 177.018 92.7249 177.018 93.8017 177.353C95.2627 177.758 96.5925 178.538 97.6593 179.615C100.82 183.109 102.719 187.561 103.054 192.261Z" fill="#419586"/>
<path fill-rule="evenodd" clip-rule="evenodd" d="M120.748 157.629C121.299 157.629 121.357 157.629 121.792 157.165L122.14 156.904C122.981 156.092 127.709 150.813 128.405 149.914C129.797 148.145 131.914 145.853 133.481 143.91C134.177 143.04 137.338 139.617 136.961 138.573C136.033 138.573 133.742 141.473 132.988 142.228L122.343 154.787C121.995 155.193 120.574 156.846 120.748 157.629Z" fill="#419586"/>
<path fill-rule="evenodd" clip-rule="evenodd" d="M46.4077 158.354C47.1039 158.528 47.8 157.658 48.235 157.165C49.7143 155.483 54.181 150.233 55.4863 148.464C56.1824 147.42 58.0097 145.302 57.8067 144.374C57.0525 144.2 56.3274 145.186 55.9213 145.621C55.5153 146.056 54.9062 146.723 54.4131 147.304L48.7571 154.381C48.0294 155.304 47.3609 156.273 46.7558 157.281C46.5277 157.592 46.4056 157.969 46.4077 158.354Z" fill="#419586"/>
<path fill-rule="evenodd" clip-rule="evenodd" d="M128.608 139.356C127.651 139.066 126.577 140.719 125.968 141.299C124.518 142.75 119.645 148.637 118.195 150.552C118.195 150.784 116.861 152.263 117.267 152.698C117.673 153.133 117.528 152.698 117.876 152.698C118.034 152.611 118.18 152.504 118.311 152.379L124.866 145.012C125.591 144.026 128.898 140.342 128.608 139.356Z" fill="#419586"/>
<path fill-rule="evenodd" clip-rule="evenodd" d="M145.024 140.69C143.743 141.604 142.592 142.687 141.602 143.91L140.297 145.36C139.571 146.114 136.439 149.943 136.004 150.523C135.569 151.103 135.134 152.35 136.004 152.06C137.287 151.136 138.422 150.021 139.368 148.754C139.571 148.493 139.861 148.319 140.036 148.058C140.21 147.796 140.036 147.855 140.326 147.651L140.993 146.926C141.751 146.112 142.467 145.26 143.139 144.374C144.012 143.414 144.78 142.364 145.43 141.241C145.633 140.835 145.488 140.516 145.024 140.69Z" fill="#419586"/>
<path fill-rule="evenodd" clip-rule="evenodd" d="M50.8169 166.157C50.8169 166.882 51.281 167.665 51.687 167.636H51.9771C52.2091 167.201 51.9771 167.288 51.9771 166.534C51.9771 164.764 58.9673 160.327 58.9673 158.702C58.9673 157.078 56.8499 159.457 56.6179 159.631L56.0088 160.037L54.3265 161.458C53.1663 162.444 50.8169 164.213 50.8169 166.157Z" fill="#419586"/>
<path fill-rule="evenodd" clip-rule="evenodd" d="M153.058 168.216C153.464 168.216 153.464 168.013 153.697 167.81C154.828 166.824 154.422 166.157 157.235 163.691L158.337 162.676C158.685 162.299 159.091 161.951 159.41 161.574C162.05 158.499 160.977 157.397 159.817 158.905C159.48 159.338 159.112 159.746 158.714 160.124C158.35 160.532 157.962 160.919 157.554 161.284C157.09 161.632 156.684 162.067 156.249 162.386C155.292 163.256 152.188 166.94 153.058 168.216Z" fill="#419586"/>
<path fill-rule="evenodd" clip-rule="evenodd" d="M55.1092 154.729C54.1231 154.729 49.8013 160.124 48.8152 161.4C48.8152 161.574 46.5818 164.126 47.974 164.01C48.5831 164.01 49.8303 162.502 50.2944 162.038C50.7585 161.574 53.949 157.861 54.2971 157.455C54.6451 157.049 56.5015 154.729 55.1092 154.729Z" fill="#419586"/>
<path fill-rule="evenodd" clip-rule="evenodd" d="M33.6167 112.063V112.643C34.3998 113.02 35.183 112.063 35.647 111.686C37.0393 110.496 38.2575 109.22 39.5627 107.915L41.651 105.624C42.2601 104.811 42.2892 104.782 42.2021 104.144C41.593 104.144 41.564 104.144 40.8389 104.637C38.9808 106.244 37.209 107.948 35.531 109.742L34.0808 111.396C33.9067 111.628 33.7907 111.86 33.6167 112.063Z" fill="#419586"/>
<path fill-rule="evenodd" clip-rule="evenodd" d="M43.2464 96.3707C42.1732 96.3707 36.8943 102.462 36.0532 103.709C35.7631 104.115 35.2701 105.101 36.0532 105.072C36.8363 105.043 37.9675 103.622 38.3446 103.216L41.4191 99.9963C41.9412 99.4452 44.6966 96.3707 43.2464 96.3707Z" fill="#419586"/>
<path fill-rule="evenodd" clip-rule="evenodd" d="M134.669 160.646C135.212 162.531 136.097 164.301 137.279 165.867C137.801 166.708 138.237 167.404 138.788 168.158C138.962 168.419 140.615 170.711 140.673 169.173C140.061 167.413 139.212 165.745 138.15 164.213C137.691 163.422 137.187 162.656 136.641 161.922C136.322 161.516 135.771 160.53 135.307 160.414C134.843 160.298 134.669 160.356 134.669 160.646Z" fill="#419586"/>
<path fill-rule="evenodd" clip-rule="evenodd" d="M35.0377 116.848C35.3133 116.862 35.5833 116.768 35.7918 116.587C36.418 116.207 36.9607 115.704 37.3871 115.108L42.5209 110.003C42.753 109.684 43.3331 108.901 42.5209 108.901C41.283 109.544 40.1328 110.344 39.0984 111.28C38.0072 112.113 37.0318 113.089 36.1979 114.18C35.7628 115.021 34.8057 116.065 35.0377 116.848Z" fill="#419586"/>
<path fill-rule="evenodd" clip-rule="evenodd" d="M187.11 151.422C188.039 151.422 191.577 147.796 192.157 147.042C192.737 146.288 193.404 145.882 193.288 145.012C192.534 144.519 192.157 145.012 191.229 145.824C190.138 146.719 189.111 147.688 188.155 148.725C187.98 148.928 187.835 149.015 187.69 149.218C187.545 149.421 185.863 151.422 187.11 151.422Z" fill="#419586"/>
<path fill-rule="evenodd" clip-rule="evenodd" d="M55.7764 174.858C55.7764 176.743 59.0539 174.858 59.0539 173.901C59.0539 172.944 58.6769 173.901 59.576 173.031L60.9102 171.958C61.0553 171.958 62.0994 171.204 62.0994 170.71C62.0994 170.217 61.8094 169.898 61.4613 169.898C61.1133 169.898 55.7764 173.698 55.7764 174.858Z" fill="#419586"/>
<path fill-rule="evenodd" clip-rule="evenodd" d="M152.536 142.518C152.536 140.342 147.402 146.027 147.025 146.52C146.648 147.013 145.575 147.97 146.039 148.522C146.503 149.073 148.418 147.187 148.94 146.781C150.1 145.737 150.274 145.447 151.347 144.403L152.043 143.562C152.188 143.243 152.536 142.953 152.536 142.518Z" fill="#419586"/>
<path fill-rule="evenodd" clip-rule="evenodd" d="M34.9512 120.126C34.9512 120.329 34.9512 120.3 34.9512 120.445C36.0534 120.822 38.1417 118.357 38.9248 117.545C39.7721 116.754 40.5486 115.89 41.2452 114.963C41.8833 114.035 41.2452 113.078 39.1859 115.137C38.6348 115.659 38.1417 116.094 37.5906 116.646C37.0395 117.197 36.6335 117.69 36.0824 118.241C35.5313 118.792 34.9512 119.546 34.9512 120.126Z" fill="#419586"/>
<path fill-rule="evenodd" clip-rule="evenodd" d="M115.7 146.636C115.7 147.274 116.077 147.303 116.512 147.071C116.821 146.863 117.087 146.597 117.295 146.288C118.78 144.524 120.028 142.574 121.008 140.487C121.008 139.82 120.544 139.298 119.355 140.748C118.891 141.328 118.456 141.88 118.021 142.518C117.016 143.747 116.231 145.14 115.7 146.636Z" fill="#419586"/>
<path fill-rule="evenodd" clip-rule="evenodd" d="M193.985 136.513V135.846C193.347 135.411 192.737 136.049 192.099 136.659L190.272 138.602C189.779 139.269 188.097 140.98 188.097 141.821C188.097 142.663 188.503 142.372 188.88 142.198C189.494 141.791 190.058 141.314 190.562 140.777L193.985 136.513Z" fill="#419586"/>
<path fill-rule="evenodd" clip-rule="evenodd" d="M157.322 171.784C158.424 172.132 161.209 169.724 162.166 168.883C162.485 168.593 164.66 166.824 163.442 166.505C162.224 166.186 158.105 169.927 157.496 170.74C156.887 171.552 157.119 171.32 157.322 171.784Z" fill="#419586"/>
<path fill-rule="evenodd" clip-rule="evenodd" d="M88.9863 163.662C88.997 165.198 89.3125 166.716 89.9145 168.129C90.0595 168.593 90.1755 168.883 90.6976 168.883C91.2197 168.883 91.1617 167.52 91.0747 166.911C90.6662 165.106 90.6662 163.233 91.0747 161.429C90.6396 160.066 88.9863 161.69 88.9863 163.662Z" fill="#419586"/>
<path fill-rule="evenodd" clip-rule="evenodd" d="M80.8948 159.196C80.7805 160.764 81.0806 162.334 81.765 163.749C82.1711 164.678 82.7802 166.418 83.7953 166.041C84.1434 164.881 82.9252 162.618 82.5481 161.081C82.3741 160.356 82.2291 159.573 82.055 158.906C81.881 158.238 80.8948 158.122 80.8948 159.196Z" fill="#419586"/>
<path fill-rule="evenodd" clip-rule="evenodd" d="M60.9103 163.836C60.0982 163.836 59.025 165.518 58.5899 166.011C58.1549 166.505 54.8773 170.478 56.5886 170.391C57.2557 170.362 62.8827 163.836 60.9103 163.836Z" fill="#419586"/>
<path fill-rule="evenodd" clip-rule="evenodd" d="M40.1427 92.9193C38.4283 94.6442 37.0944 96.7093 36.2271 98.9814C36.2271 99.4454 36.8071 99.4744 37.0972 99.2714C38.4229 97.7549 39.5983 96.1132 40.6068 94.3696C41.651 92.6293 40.3457 92.8323 40.1427 92.9193Z" fill="#419586"/>
<path fill-rule="evenodd" clip-rule="evenodd" d="M114.134 179.296C113.322 178.805 112.467 178.388 111.581 178.049C110.339 177.418 108.972 177.071 107.579 177.033L107.347 177.439C107.608 178.107 108.217 178.339 108.855 178.658C110.051 179.218 111.281 179.703 112.539 180.108C113.612 180.398 113.844 180.63 114.511 180.108C114.511 179.644 114.453 179.528 114.134 179.296Z" fill="#419586"/>
<path fill-rule="evenodd" clip-rule="evenodd" d="M141.022 159.689C140.326 160.095 140.239 163.024 140.355 163.807C140.471 164.59 140.819 167.143 141.631 167.462C142.443 167.781 142.211 166.418 142.153 165.896C142.095 165.374 142.153 164.416 141.921 163.72C141.911 162.596 141.843 161.473 141.718 160.356C141.631 159.892 141.515 159.689 141.022 159.689Z" fill="#419586"/>
<path fill-rule="evenodd" clip-rule="evenodd" d="M98.8486 168.303V168.854C99.4577 168.854 99.6318 169.057 100.415 168.158C100.85 167.694 101.256 167.201 101.633 166.708C104.07 163.343 102.648 161.197 101.633 163.256C101.382 163.865 101.071 164.448 100.705 164.996C99.9756 166.033 99.3536 167.14 98.8486 168.303Z" fill="#419586"/>
<path fill-rule="evenodd" clip-rule="evenodd" d="M94.3237 209.664C95.0488 209.258 95.1648 207.083 95.2808 206.125C95.3968 205.168 95.7739 202.297 94.6137 202.616C93.4535 202.935 93.5405 207.46 93.5405 208.417C93.5405 209.374 93.6566 209.664 94.3237 209.664Z" fill="#419586"/>
<path fill-rule="evenodd" clip-rule="evenodd" d="M78.7771 219.583C79.2702 218.597 78.371 218.278 77.6169 219.032C76.8628 219.786 76.7758 219.96 76.3987 220.396C75.6069 221.356 74.9167 222.396 74.3394 223.499C73.8173 224.63 74.8325 224.63 75.4996 224.05C76.7546 222.688 77.8539 221.189 78.7771 219.583Z" fill="#419586"/>
<path fill-rule="evenodd" clip-rule="evenodd" d="M103.606 165.983C102.793 166.36 101.807 169.84 101.575 170.914C101.499 171.256 101.479 171.609 101.517 171.958C101.528 172.038 101.558 172.114 101.603 172.18C101.649 172.246 101.709 172.301 101.779 172.341C101.849 172.38 101.928 172.402 102.008 172.407C102.088 172.411 102.169 172.396 102.242 172.364C103.491 170.593 104.242 168.52 104.418 166.36C104.401 166.274 104.365 166.193 104.311 166.124C104.257 166.055 104.188 166 104.108 165.963C104.029 165.926 103.942 165.909 103.855 165.912C103.767 165.916 103.682 165.94 103.606 165.983Z" fill="#419586"/>
<path fill-rule="evenodd" clip-rule="evenodd" d="M39.5047 118.792C38.5475 119.024 35.299 121.953 35.386 123.404C35.3815 123.495 35.4009 123.585 35.4423 123.666C35.4836 123.747 35.5455 123.816 35.6217 123.866C35.698 123.916 35.7859 123.945 35.8769 123.95C35.9678 123.956 36.0586 123.937 36.1401 123.897C36.4592 123.897 37.0683 122.881 37.3583 122.591C38.0834 121.837 40.2588 119.981 40.2588 119.285C40.2557 119.197 40.2315 119.11 40.1881 119.033C40.1448 118.956 40.0836 118.891 40.0096 118.843C39.9357 118.794 39.8513 118.765 39.7634 118.756C39.6755 118.747 39.5868 118.759 39.5047 118.792Z" fill="#419586"/>
<path fill-rule="evenodd" clip-rule="evenodd" d="M162.978 194.088C162.048 193.005 160.997 192.032 159.846 191.188C159.585 190.985 158.744 190.289 158.25 190.434C156.916 190.811 159.469 192.899 159.672 193.102C159.875 193.305 161.905 195.016 162.572 195.016H163.007C163.123 194.639 163.21 194.436 162.978 194.088Z" fill="#419586"/>
<path fill-rule="evenodd" clip-rule="evenodd" d="M75.6737 243.339H76.2538C77.1685 241.928 77.9826 240.455 78.6902 238.93C79.7344 236.841 77.24 236.784 75.6447 241.598C75.4126 242.381 75.4126 242.7 75.6737 243.339Z" fill="#419586"/>
<path fill-rule="evenodd" clip-rule="evenodd" d="M154.509 218.713C155.279 218.617 156.02 218.36 156.684 217.959C157.264 217.611 158.163 217.35 158.047 216.48C157.148 215.929 155.785 216.741 154.944 217.002C153.836 217.143 152.746 217.406 151.695 217.785V218.365C152.573 218.776 153.558 218.897 154.509 218.713Z" fill="#419586"/>
<path fill-rule="evenodd" clip-rule="evenodd" d="M122.197 218.104C122.951 218.104 122.922 218.104 123.647 217.263C124.022 216.858 124.362 216.421 124.663 215.958C124.953 215.552 126.635 213.376 125.649 213.057C124.663 212.738 122.748 215.958 122.371 216.596C121.994 217.234 121.82 217.495 122.197 218.104Z" fill="#419586"/>
<path fill-rule="evenodd" clip-rule="evenodd" d="M77.6172 163.575C77.76 165.133 78.2241 166.644 78.9805 168.013C79.3865 168.825 79.4736 168.883 80.1987 168.883C80.6047 168.274 80.4597 168.1 80.1987 167.317C80.0783 166.791 79.9133 166.277 79.7056 165.78C79.4155 165.054 78.9225 163.14 78.0233 163.14C77.9675 163.14 77.9122 163.151 77.8609 163.174C77.8097 163.196 77.7635 163.228 77.7254 163.269C77.6873 163.31 77.658 163.358 77.6394 163.411C77.6208 163.464 77.6133 163.519 77.6172 163.575Z" fill="#419586"/>
<path fill-rule="evenodd" clip-rule="evenodd" d="M40.752 149.653C41.5061 149.653 41.9992 148.812 42.2602 148.232C42.7243 147.187 44.4066 146.317 44.2906 144.896C43.3334 144.664 42.0862 146.143 41.3901 146.926C40.9421 147.286 40.5679 147.73 40.2879 148.232C39.8528 148.754 39.8818 149.653 40.752 149.653Z" fill="#419586"/>
<path fill-rule="evenodd" clip-rule="evenodd" d="M43.2168 152.147C43.2168 152.988 44.0289 152.901 44.435 152.466C44.761 152.067 45.0521 151.64 45.3051 151.19C47.9736 146.81 45.8272 147.622 45.5082 147.942C44.4768 149.18 43.6983 150.609 43.2168 152.147Z" fill="#419586"/>
<path fill-rule="evenodd" clip-rule="evenodd" d="M158.773 229.039C158.425 228.343 156.829 228.227 155.872 228.111C154.915 227.995 152.972 227.647 152.972 228.604C152.972 229.561 156.626 229.967 157.351 229.967C158.077 229.967 158.773 229.967 158.773 229.039Z" fill="#419586"/>
<path fill-rule="evenodd" clip-rule="evenodd" d="M85.9707 198.758C86.1448 198.352 87.1019 197.163 86.3478 196.844C85.5937 196.525 85.0716 197.511 84.7815 197.801C82.0261 200.527 83.7954 201.6 85.6517 200.237C86.0287 199.947 86.4348 199.744 86.4638 199.106C86.4928 198.468 86.2898 198.903 85.9707 198.758Z" fill="#419586"/>
<path fill-rule="evenodd" clip-rule="evenodd" d="M187.749 155.309C187.212 155.44 186.714 155.699 186.298 156.063C185.473 156.656 184.723 157.348 184.065 158.122C183.688 158.673 183.92 159.369 184.587 159.224C185.972 158.514 187.196 157.527 188.184 156.324C188.532 155.86 188.532 155.135 187.749 155.309Z" fill="#419586"/>
<path fill-rule="evenodd" clip-rule="evenodd" d="M64.7963 173.785C64.0132 173.553 63.6941 174.017 63.3751 174.452C63.0811 174.872 62.81 175.308 62.563 175.757C60.7066 178.657 61.8668 179.092 62.563 178.657C63.0509 178.067 63.4875 177.437 63.8682 176.772C64.5423 175.928 64.8737 174.862 64.7963 173.785Z" fill="#419586"/>
<path fill-rule="evenodd" clip-rule="evenodd" d="M133.219 165.635C133.219 166.505 134.756 168.187 135.336 168.825C136.873 170.536 138.469 169.753 135.568 166.65C135.252 166.271 134.913 165.913 134.553 165.576C134.379 165.576 134.176 165.199 133.886 165.17C133.596 165.141 133.219 165.315 133.219 165.635Z" fill="#419586"/>
<path fill-rule="evenodd" clip-rule="evenodd" d="M123.3 223.528C124.257 223.934 124.373 223.528 125.127 222.165C125.579 221.25 125.892 220.272 126.055 219.265C126.055 217.872 125.04 218.684 124.924 218.83C124.67 219.187 124.447 219.565 124.257 219.961C123.59 221.028 123.256 222.27 123.3 223.528Z" fill="#419586"/>
<path fill-rule="evenodd" clip-rule="evenodd" d="M150.506 43.2629C150.187 42.9729 150.1 42.5668 149.085 43.2629L147.316 44.6551C147.084 44.8872 146.939 44.9452 146.706 45.1772C146.474 45.4093 145.865 46.0474 145.981 46.5114C146.329 47.9907 149.578 44.8002 150.129 44.1621C150.68 43.5239 150.477 43.785 150.506 43.2629Z" fill="#419586"/>
<path fill-rule="evenodd" clip-rule="evenodd" d="M38.3447 142.953C38.3447 143.62 38.8958 143.823 39.4179 143.446C40.5037 142.427 41.2951 141.135 41.7093 139.704C41.7093 139.008 40.9552 139.008 40.5491 139.414C39.5826 140.433 38.8327 141.636 38.3447 142.953Z" fill="#419586"/>
<path fill-rule="evenodd" clip-rule="evenodd" d="M37.7061 135.354C37.7061 136.456 38.9823 136.224 40.1425 134.338C40.3455 133.961 41.2737 132.308 40.8966 131.757C40.1425 130.626 38.8372 133.352 38.3152 134.164C38.0445 134.522 37.8384 134.925 37.7061 135.354Z" fill="#419586"/>
<path fill-rule="evenodd" clip-rule="evenodd" d="M116.89 139.066C116.89 138.573 116.571 138.544 116.252 138.544C115.933 138.544 112.916 142.112 113.67 142.866C114.425 143.62 116.89 139.733 116.89 139.066Z" fill="#419586"/>
<path fill-rule="evenodd" clip-rule="evenodd" d="M164.341 175.641V176.308C165.624 176.921 167.039 177.21 168.46 177.149C169.04 177.149 169.301 176.917 169.301 176.395C169.301 175.873 165.849 175.293 165.095 175.293C164.809 175.312 164.541 175.436 164.341 175.641Z" fill="#419586"/>
<path fill-rule="evenodd" clip-rule="evenodd" d="M93.5405 168.651C93.5405 169.173 93.5405 170.014 93.9466 170.246C94.3527 170.478 94.9328 169.637 95.0488 168.999C95.2865 168.051 95.4035 167.076 95.3968 166.099C95.3968 165.025 94.4107 164.793 94.0046 166.099C93.7636 166.931 93.6081 167.787 93.5405 168.651Z" fill="#419586"/>
<path fill-rule="evenodd" clip-rule="evenodd" d="M156.829 52.6895C156.829 51.9644 156.191 51.9644 155.755 52.1964C155.32 52.4284 152.855 54.5458 152.855 55.2999C152.855 55.59 153.174 56.2571 153.986 55.793C154.368 55.5335 154.727 55.2425 155.059 54.9229C155.465 54.5458 156.829 53.2696 156.829 52.6895Z" fill="#419586"/>
<path fill-rule="evenodd" clip-rule="evenodd" d="M114.453 182.515C115.004 181.384 113.148 181.471 112.452 181.384C111.756 181.297 109.871 181.384 109.552 181.79C109.465 182.034 109.465 182.3 109.552 182.544C109.784 182.95 111.118 182.979 111.582 182.979C112.046 182.979 114.134 183.153 114.453 182.515Z" fill="#419586"/>
<path fill-rule="evenodd" clip-rule="evenodd" d="M150.651 50.2822C151.26 50.2822 152.073 49.296 152.45 49.006C152.827 48.7159 152.74 48.8029 153.291 48.7159C153.842 48.6289 154.712 48.7159 154.538 47.8748C154.364 47.0336 153.059 47.2367 152.45 47.2367C151.841 47.2367 151.202 48.0198 150.825 48.5709C150.448 49.122 149.52 50.2822 150.651 50.2822Z" fill="#419586"/>
<path fill-rule="evenodd" clip-rule="evenodd" d="M74.368 207.547C75.0641 207.547 75.2672 207.315 75.5572 206.908C75.8472 206.502 77.5585 203.544 76.6014 203.225C75.6442 202.906 75.6442 203.573 75.4412 203.863C74.9383 204.613 74.5292 205.421 74.223 206.27C73.9909 207.024 73.9619 206.966 74.368 207.547Z" fill="#419586"/>
<path fill-rule="evenodd" clip-rule="evenodd" d="M96.2378 226.284C95.3097 225.675 94.5845 226.284 93.3373 226.458C92.7862 226.458 90.4368 226.632 91.307 227.473C92.2232 227.854 93.2218 227.994 94.2075 227.879C94.6244 227.767 95.0175 227.58 95.3677 227.328C96.0348 227.067 96.2378 227.067 96.2378 226.284Z" fill="#419586"/>
<path fill-rule="evenodd" clip-rule="evenodd" d="M118.485 237.915C118.383 237.928 118.285 237.966 118.2 238.024C118.114 238.082 118.044 238.159 117.993 238.249C117.942 238.339 117.913 238.439 117.908 238.542C117.903 238.645 117.922 238.748 117.963 238.843C118.253 239.452 120.718 240.206 121.328 240.206C121.937 240.206 122.285 240.206 122.285 239.539C122.285 238.872 119.355 237.915 118.485 237.915Z" fill="#419586"/>
<path fill-rule="evenodd" clip-rule="evenodd" d="M94.9617 236.61C94.9617 236.029 93.6275 234.985 93.2214 234.695C92.8761 234.43 92.5072 234.197 92.1192 233.999C91.5971 233.767 89.8859 233.999 92.7283 236.319C93.0602 236.597 93.4198 236.84 93.8015 237.045C94.5846 237.451 94.9617 237.161 94.9617 236.61Z" fill="#419586"/>
<path fill-rule="evenodd" clip-rule="evenodd" d="M163.152 183.908C162.891 184.314 162.659 184.633 163.152 185.01C164.263 185.712 165.551 186.084 166.865 186.083C166.955 186.022 167.028 185.939 167.079 185.843C167.13 185.747 167.156 185.64 167.156 185.532C167.156 185.423 167.13 185.316 167.079 185.22C167.028 185.124 166.955 185.042 166.865 184.981C165.734 184.325 164.459 183.957 163.152 183.908Z" fill="#419586"/>
<path fill-rule="evenodd" clip-rule="evenodd" d="M152.363 222.513C152.363 223.093 153.9 223.325 154.567 223.412C155.234 223.499 156.83 223.789 156.655 222.687C156.655 222.107 155.176 221.846 154.509 221.759C153.842 221.672 152.131 221.266 152.363 222.513Z" fill="#419586"/>
<path fill-rule="evenodd" clip-rule="evenodd" d="M174.029 67.2209V67.54C174.187 67.6748 174.387 67.7488 174.595 67.7488C174.802 67.7488 175.003 67.6748 175.16 67.54C175.508 67.3266 175.829 67.0735 176.118 66.7858C176.657 66.1727 177.036 65.4352 177.22 64.6395C177.22 63.9433 176.553 64.1464 176.205 64.4074C175.351 65.2381 174.618 66.1853 174.029 67.2209Z" fill="#419586"/>
<path fill-rule="evenodd" clip-rule="evenodd" d="M167.328 170.391C162.542 170.391 163.181 172.247 164.573 172.247C165.412 172.238 166.248 172.14 167.067 171.957C167.444 171.957 167.85 171.725 167.937 171.319C167.98 171.218 167.998 171.108 167.988 170.999C167.978 170.889 167.941 170.784 167.881 170.692C167.821 170.6 167.739 170.525 167.643 170.472C167.546 170.42 167.438 170.392 167.328 170.391Z" fill="#419586"/>
<path fill-rule="evenodd" clip-rule="evenodd" d="M186.676 134.686V135.092C187.401 135.556 188.01 135.092 188.88 134.28C189.75 133.468 190.562 133.178 190.417 132.308C189.344 131.583 186.676 133.642 186.676 134.686Z" fill="#419586"/>
<path fill-rule="evenodd" clip-rule="evenodd" d="M120.747 230.17C120.747 230.867 123.038 231.186 123.212 231.186C124.923 231.186 125.068 231.36 125.039 230.228C124.682 229.952 124.265 229.764 123.821 229.677C123.096 229.503 120.747 228.894 120.747 230.17Z" fill="#419586"/>
<path fill-rule="evenodd" clip-rule="evenodd" d="M73.5567 54.4007C72.9186 54.7198 73.2087 56.141 73.3537 56.8661C73.4987 57.5912 73.7307 58.9835 74.6589 58.5484C75.5871 58.1133 74.9489 56.7211 74.8329 56.054C74.7169 55.3869 74.5139 53.9076 73.5567 54.4007Z" fill="#419586"/>
<path fill-rule="evenodd" clip-rule="evenodd" d="M67.2332 65.8578C67.2332 65.0456 67.2332 61.478 65.87 62.0581C65.0288 62.4352 65.6669 64.9586 65.87 65.4517C66.218 66.8439 67.2332 66.3509 67.2332 65.8578Z" fill="#419586"/>
<path fill-rule="evenodd" clip-rule="evenodd" d="M106.013 174.51C106.013 175.38 107.695 175.293 108.507 175.293H109.609C110.218 175.293 110.305 174.974 110.305 174.539C110.305 174.104 108.797 173.814 108.159 173.814C107.521 173.814 106.013 173.582 106.013 174.51Z" fill="#419586"/>
<path fill-rule="evenodd" clip-rule="evenodd" d="M181.251 66.9599C180.361 67.792 179.744 68.874 179.481 70.0634C179.481 70.8465 180.555 71.2236 181.86 68.6712C182.15 68.1201 182.672 66.8729 181.599 66.8729L181.251 66.9599Z" fill="#419586"/>
<path fill-rule="evenodd" clip-rule="evenodd" d="M151.347 197.569C151.633 198.323 152.003 199.043 152.45 199.715C152.45 199.947 153.03 200.498 153.262 200.556C153.494 200.614 154.161 200.353 154.132 199.802C154.103 199.251 152.856 196.902 152.159 196.902C152.061 196.88 151.958 196.88 151.86 196.904C151.761 196.927 151.669 196.973 151.591 197.037C151.513 197.102 151.45 197.183 151.408 197.275C151.366 197.367 151.345 197.468 151.347 197.569Z" fill="#419586"/>
<path fill-rule="evenodd" clip-rule="evenodd" d="M60.9102 65.2485C61.0503 66.0768 61.3997 66.8556 61.9253 67.5109C62.101 67.8666 62.3478 68.1825 62.6504 68.439C62.7383 68.498 62.8389 68.5353 62.9439 68.5477C63.049 68.5601 63.1555 68.5474 63.2546 68.5106C63.3538 68.4738 63.4428 68.4139 63.5142 68.3359C63.5857 68.2579 63.6376 68.164 63.6656 68.062C63.8106 67.3079 61.5193 63.3342 60.9102 65.2485Z" fill="#419586"/>
<path fill-rule="evenodd" clip-rule="evenodd" d="M157.613 197.888C158.338 197.888 158.396 197.163 158.077 196.67C157.821 196.303 157.53 195.963 157.207 195.655C156.877 195.311 156.507 195.009 156.104 194.756C155.669 194.494 154.973 194.755 154.973 195.22C155.477 196.415 156.422 197.371 157.613 197.888Z" fill="#419586"/>
<path fill-rule="evenodd" clip-rule="evenodd" d="M85.1871 192.261C85.4482 191.478 84.9841 190.463 83.8819 191.71C81.8516 194.001 82.4607 195.974 83.8819 194.32C84.4185 193.704 84.8586 193.01 85.1871 192.261Z" fill="#419586"/>
<path fill-rule="evenodd" clip-rule="evenodd" d="M73.4697 184.082C73.9628 184.459 74.1368 184.981 75.4421 183.763C77.9075 181.442 76.3122 181.094 75.7321 181.355C75.152 181.616 73.4987 183.095 73.4697 184.082Z" fill="#419586"/>
<path fill-rule="evenodd" clip-rule="evenodd" d="M161.296 189.738C161.296 190.26 162.457 191.246 162.776 191.565C164.023 192.812 164.69 192.116 164.574 191.565C164.417 191.196 164.191 190.861 163.907 190.579C163.572 190.088 163.137 189.673 162.631 189.361C161.702 188.607 161.238 189.361 161.296 189.738Z" fill="#419586"/>
<path fill-rule="evenodd" clip-rule="evenodd" d="M149.143 199.106C149.321 199.88 149.614 200.623 150.013 201.31C150.187 201.6 150.332 201.948 150.825 201.948C152.188 201.948 150.825 199.338 150.622 199.048C150.419 198.758 150.158 198.381 149.81 198.381C149.628 198.395 149.458 198.478 149.334 198.613C149.21 198.747 149.142 198.923 149.143 199.106Z" fill="#419586"/>
<path fill-rule="evenodd" clip-rule="evenodd" d="M75.064 169.695C75.064 170.449 75.7311 170.652 76.5432 170.971C79.1246 172.015 78.8346 170.623 78.6606 170.333C78.4865 170.043 75.064 168.274 75.064 169.695Z" fill="#419586"/>
<path fill-rule="evenodd" clip-rule="evenodd" d="M107.318 171.29C106.679 171.247 106.037 171.341 105.437 171.566C104.836 171.792 104.291 172.142 103.838 172.596C103.806 172.681 103.792 172.772 103.797 172.863C103.802 172.954 103.826 173.043 103.867 173.125C103.908 173.206 103.965 173.279 104.034 173.337C104.104 173.396 104.185 173.44 104.273 173.466C105.308 173.37 106.304 173.021 107.173 172.451C107.695 172.132 107.521 171.609 107.318 171.29Z" fill="#419586"/>
<path fill-rule="evenodd" clip-rule="evenodd" d="M73.411 200.063C73.7011 198.816 72.5989 198.613 72.0768 199.483C71.5547 200.353 70.5686 202.384 71.6997 202.645C72.1058 202.645 72.3959 202.413 72.5409 202.181C72.9513 201.531 73.2457 200.814 73.411 200.063Z" fill="#419586"/>
<path fill-rule="evenodd" clip-rule="evenodd" d="M78.9221 142.953C79.469 143.027 80.0243 142.903 80.4884 142.605C81.1555 142.112 81.1845 141.184 80.2274 141.184C80.0823 141.184 79.8503 141.184 79.6183 141.329H78.8351C78.313 141.329 77.82 141.329 77.4429 141.59C76.5728 142.344 77.82 142.953 78.9221 142.953Z" fill="#419586"/>
<path fill-rule="evenodd" clip-rule="evenodd" d="M165.675 178.252C165.356 178.252 164.08 177.99 163.79 178.252C163.704 178.361 163.644 178.488 163.614 178.623C163.584 178.759 163.584 178.899 163.616 179.035C163.753 179.249 163.957 179.412 164.196 179.499C164.741 179.692 165.305 179.828 165.878 179.905C167.067 179.905 167.27 179.905 167.183 178.861C166.731 178.55 166.216 178.342 165.675 178.252Z" fill="#419586"/>
<path fill-rule="evenodd" clip-rule="evenodd" d="M153.03 235.594C153.03 236.667 155.408 236.406 155.93 236.29C156.452 236.174 156.626 236.087 156.626 235.768C156.626 234.869 155.669 234.927 154.828 234.927C153.987 234.927 153.03 234.753 153.03 235.594Z" fill="#419586"/>
<path fill-rule="evenodd" clip-rule="evenodd" d="M79.9659 150.668C80.5996 150.713 81.2365 150.655 81.8512 150.494C82.2282 150.32 82.9824 149.073 80.4009 149.073C77.8195 149.073 78.5446 150.262 78.9507 150.465C79.2787 150.577 79.62 150.645 79.9659 150.668Z" fill="#419586"/>
<path fill-rule="evenodd" clip-rule="evenodd" d="M36.8941 126.942C36.8934 127.044 36.917 127.144 36.9629 127.234C37.0088 127.325 37.0756 127.403 37.1579 127.463C37.2402 127.523 37.3355 127.562 37.4359 127.577C37.5363 127.592 37.6389 127.583 37.7352 127.551C38.2283 127.551 39.6785 125.724 39.5915 124.97C39.5856 124.881 39.5603 124.794 39.5174 124.716C39.4745 124.638 39.415 124.571 39.3431 124.518C39.2712 124.465 39.1887 124.429 39.1013 124.412C39.0139 124.395 38.9238 124.397 38.8374 124.419C37.8978 124.988 37.2048 125.888 36.8941 126.942Z" fill="#419586"/>
<path fill-rule="evenodd" clip-rule="evenodd" d="M71.9904 194.987C71.9904 194.494 71.9904 194.262 71.6424 194.088C71.5683 194.038 71.4842 194.005 71.3959 193.991C71.3077 193.977 71.2174 193.983 71.1316 194.008C71.0458 194.033 70.9665 194.076 70.8994 194.135C70.8323 194.194 70.779 194.267 70.7432 194.349C68.9449 196.553 70.3082 197.743 71.1493 196.727C71.5601 196.22 71.848 195.624 71.9904 194.987Z" fill="#419586"/>
<path fill-rule="evenodd" clip-rule="evenodd" d="M111.727 136.485C111.321 136.746 110.276 138.486 110.653 139.153C110.754 139.305 110.909 139.414 111.087 139.457C111.264 139.5 111.451 139.474 111.611 139.385C112.081 138.962 112.431 138.421 112.626 137.819C112.699 137.644 112.737 137.457 112.737 137.268C112.737 137.079 112.699 136.891 112.626 136.717C112.568 136.514 111.988 136.282 111.727 136.485Z" fill="#419586"/>
<path fill-rule="evenodd" clip-rule="evenodd" d="M79.0089 192.261C79.7631 192.261 80.4882 190.375 80.4882 189.853C80.4882 189.331 79.7051 188.751 78.9799 189.853C78.2548 190.955 77.6457 192.261 79.0089 192.261Z" fill="#419586"/>
<path fill-rule="evenodd" clip-rule="evenodd" d="M144.531 41.4357H143.69C143.437 41.5594 143.175 41.666 142.907 41.7547C142.674 41.8827 142.451 42.0282 142.24 42.1898C141.689 42.5959 141.515 42.9439 142.24 43.582C142.741 43.5616 143.233 43.4407 143.686 43.2265C144.14 43.0122 144.546 42.709 144.88 42.3348C145.025 41.8997 144.676 41.6097 144.531 41.4357Z" fill="#419586"/>
<path fill-rule="evenodd" clip-rule="evenodd" d="M130.202 167.114C129.419 167.694 129.883 168.158 130.522 168.593C131.16 169.028 131.856 169.405 132.465 169.202C132.622 169.127 132.746 168.997 132.815 168.837C132.885 168.677 132.894 168.498 132.842 168.332C132.842 167.926 131.682 167.404 131.247 167.23C130.812 167.056 130.522 166.911 130.202 167.114Z" fill="#419586"/>
<path fill-rule="evenodd" clip-rule="evenodd" d="M58.0098 68.7872C58.0098 69.5994 59.373 70.7596 59.8661 70.7596C59.9677 70.756 60.0676 70.7318 60.1597 70.6886C60.2517 70.6454 60.3341 70.584 60.4019 70.5082C60.4696 70.4323 60.5213 70.3435 60.5538 70.2472C60.5864 70.1508 60.5991 70.0488 60.5912 69.9474C60.2778 69.2089 59.7265 68.5963 59.0249 68.2071C58.6189 68.0331 58.0098 68.2071 58.0098 68.7872Z" fill="#419586"/>
<path fill-rule="evenodd" clip-rule="evenodd" d="M106.506 136.832C106.501 136.924 106.516 137.015 106.55 137.1C106.584 137.185 106.635 137.262 106.701 137.325C106.767 137.388 106.846 137.436 106.933 137.467C107.019 137.497 107.111 137.508 107.202 137.5C107.753 137.5 109.116 136.136 109.116 135.527C109.116 134.918 108.623 134.454 107.637 135.266C107.318 135.556 106.506 136.194 106.506 136.832Z" fill="#419586"/>
<path fill-rule="evenodd" clip-rule="evenodd" d="M127.911 171.522C128.52 171.696 130.811 172.16 130.811 171.058C130.811 169.956 129.97 170.101 129.1 170.159C128.23 170.217 127.621 170.536 127.911 171.522Z" fill="#419586"/>
<path fill-rule="evenodd" clip-rule="evenodd" d="M169.214 142.75C169.214 143.591 169.823 143.678 170.781 143.678C171.738 143.678 172.086 143.678 172.086 142.924C172.086 142.17 171.564 142.083 170.172 142.083C169.736 142.083 169.214 142.315 169.214 142.75Z" fill="#419586"/>
<path fill-rule="evenodd" clip-rule="evenodd" d="M77.53 216.045C77.936 214.798 76.1667 214.45 75.5576 216.451C75.1516 217.669 76.8629 218.134 77.53 216.045Z" fill="#419586"/>
<path fill-rule="evenodd" clip-rule="evenodd" d="M184.442 74.8785C185.051 74.8785 185.834 73.5733 185.834 73.1672C185.834 72.7611 185.167 71.949 184.326 72.8772C183.485 73.8053 183.34 74.8785 184.442 74.8785Z" fill="#419586"/>
<path fill-rule="evenodd" clip-rule="evenodd" d="M126.752 180.108C126.798 179.968 126.794 179.816 126.741 179.679C126.688 179.541 126.59 179.426 126.462 179.354C126.353 179.247 126.208 179.188 126.056 179.188C125.904 179.188 125.758 179.247 125.65 179.354C125.256 179.722 124.94 180.166 124.721 180.659C124.46 181.587 125.882 182.602 126.752 180.108Z" fill="#419586"/>
<path fill-rule="evenodd" clip-rule="evenodd" d="M74.978 212.565C75.4711 212.565 76.3992 211.085 76.1672 210.563C76.1197 210.445 76.0417 210.34 75.941 210.262C75.8404 210.183 75.7207 210.132 75.5941 210.114C75.4674 210.097 75.3384 210.113 75.22 210.161C75.1016 210.209 74.9981 210.288 74.92 210.389C74.1658 211.172 73.4407 212.565 74.978 212.565Z" fill="#419586"/>
<path fill-rule="evenodd" clip-rule="evenodd" d="M123.213 209.664C123.28 209.525 123.302 209.368 123.277 209.216C123.252 209.064 123.181 208.923 123.074 208.812C122.966 208.702 122.828 208.627 122.676 208.597C122.525 208.568 122.368 208.586 122.227 208.649C121.764 209.007 121.412 209.49 121.212 210.041C120.98 210.737 121.821 212.361 123.213 209.664Z" fill="#419586"/>
<path fill-rule="evenodd" clip-rule="evenodd" d="M88.6676 202.731C88.6676 203.166 88.9576 203.979 89.4217 204.037C89.8858 204.095 90.4949 203.776 90.4079 203.079C90.1468 200.962 88.4355 201.629 88.6676 202.731Z" fill="#419586"/>
<path fill-rule="evenodd" clip-rule="evenodd" d="M80.5463 55.184C80.5463 52.7476 78.1389 53.2117 79.038 55.184C79.183 55.5031 79.2991 55.8801 79.7921 55.8801C80.2852 55.8801 80.5463 55.6771 80.5463 55.184Z" fill="#419586"/>
<path fill-rule="evenodd" clip-rule="evenodd" d="M167.126 154.816C167.126 155.657 167.823 155.57 168.461 155.57C169.621 155.57 169.679 153.975 168.2 153.975C167.62 153.975 167.126 154.178 167.126 154.816Z" fill="#419586"/>
<path fill-rule="evenodd" clip-rule="evenodd" d="M124.721 175.641C126.78 175.641 125.91 173.466 124.721 174.133C123.531 174.8 124.402 175.467 124.721 175.641Z" fill="#419586"/>
</g>
<path fill-rule="evenodd" clip-rule="evenodd" d="M53.6895 112.455V113.285C53.746 115.433 54.2312 117.547 55.1866 119.408C57.861 124.621 62.0398 127.183 68.2476 127.86H166.665C168.659 127.734 170.573 127.483 172.125 126.964C178.394 124.868 181.89 118.997 182.123 113.047V111.796C181.964 107.626 180.184 103.544 176.61 100.827C175.385 99.8957 174.753 99.5706 173.343 98.8246C174.92 92.0535 167.931 81.7615 158.042 81.7615C158.067 80.6268 158.293 80.7643 158.293 79.5032C158.293 77.2402 156.668 74.9469 154.775 76.9881C154.359 77.4368 154.275 77.8032 154.261 78.7327C154.171 84.9754 151.018 87.3165 151.018 88.5365C151.018 90.2132 153.254 91.244 154.72 89.4798C155.341 88.7323 156.772 85.5254 157.54 85.5254C164.004 85.5254 169.581 91.1038 169.581 97.5699C169.581 103.678 166.088 105.075 165.669 107.206C165.433 108.401 166.304 109.363 167.574 109.363C169.76 109.363 172.195 104.538 172.591 102.839C175.996 104.642 178.715 108.965 178.303 113.054C177.943 116.638 175.691 121.765 171.838 122.663C171.838 120.644 171.802 118.397 169.832 118.397C167.21 118.397 167.825 122.203 167.825 123.917H154.028C154.028 118.9 153.541 113.157 159.565 112.393C163.655 111.873 162.314 106.251 155.359 109.691C149.542 112.568 150.266 118.479 150.266 123.917H124.428V93.0532C124.428 90.9842 120.666 90.9884 120.666 93.5551V123.917H89.0589V107.858C89.0589 106.828 88.4063 105.039 88.0648 104.336C86.4357 100.981 82.9694 98.8246 79.025 98.8246C77.2493 98.8246 76.7259 100.647 77.561 101.776C78.7754 103.418 82.234 101.971 84.2908 105.602C84.9004 106.677 85.2962 108.172 85.2962 109.865V123.917H72.7538V120.404C72.7538 117.811 68.9911 117.811 68.9911 120.404V123.917C57.3993 123.917 53.1007 108.196 63.2217 102.839C63.6128 103.579 63.841 104.364 64.2176 105.105C68.3168 113.168 80.2792 115.745 80.2792 112.124C80.2792 109.319 77.7954 110.05 75.416 109.461C66.7983 107.325 63.7846 96.6808 68.5609 90.6155C73.8669 83.8779 79.2192 86.2604 81.1605 85.4205C84.1001 84.1487 79.4417 79.2525 83.6469 72.8349C84.4616 71.5916 85.764 70.1824 86.9991 69.4131C90.8159 67.0358 93.4908 67.0058 97.5876 67.9605C96.9984 69.189 94.4893 77.4958 98.0893 77.4958C102.313 77.4958 97.2206 69.3323 107.085 61.4016C114.951 55.0778 128.258 57.3207 132.957 66.204C132.436 66.9818 127.94 70.3889 127.94 72.7281C127.94 73.9557 129.413 74.9069 130.493 74.5469C131.809 74.108 133.437 69.9392 137.714 68.2028C145.698 64.9618 149.273 70.7207 151.52 70.7207C153.058 70.7207 153.875 69.3179 153.267 67.9929C152.21 65.6877 145.832 63.4438 143.242 63.4438C140.26 63.4438 138.903 63.8802 136.469 64.4476C134.183 60.1261 129.967 56.8429 125.405 55.1901C120.731 53.4972 114.988 53.4528 110.346 55.1281C105.855 56.7487 101.583 60.2149 99.3436 64.4476C98.3247 63.9585 96.1115 63.4438 94.5775 63.4438C89.3413 63.4438 85.7855 64.8721 82.2221 68.3985C78.5809 72.0019 77.7708 76.1185 77.7708 81.7615C73.4368 81.7615 68.5301 84.3027 66.334 87.1331C63.4621 90.8346 62.4691 93.7563 62.4691 98.8246C61.0185 99.5923 60.3793 99.9057 59.0594 100.934C55.708 103.545 53.7992 108.016 53.6895 112.455Z" fill="#C46060"/>
<path fill-rule="evenodd" clip-rule="evenodd" d="M107.872 76.743C110.017 76.743 109.849 79.2764 109.562 80.9408C108.056 89.6637 96.9387 93.5363 90.2416 87.1026C87.6793 84.641 86.8013 81.9567 86.8013 78.2485C86.8013 76.9716 90.1202 75.36 90.6138 79.2025C91.5987 86.8695 99.7404 88.6026 104.177 83.5851C106.083 81.4292 105.69 78.6947 106.174 77.804C106.477 77.245 107.132 76.743 107.872 76.743Z" fill="#C46060"/>
<path fill-rule="evenodd" clip-rule="evenodd" d="M134.462 99.0755C134.462 93.7527 133.713 83.1465 135.881 79.4171C136.319 78.6637 137.048 77.7566 137.651 77.1728C138.408 76.4405 139.265 75.9163 140.23 75.4864C146.704 72.6006 147.237 77.4443 144.832 78.3342C144.03 78.6312 138.498 78.5484 138.464 84.51C138.452 86.6249 138.661 100.099 138.362 100.969C138.012 101.985 136.827 102.564 135.747 102.083C134.714 101.624 134.462 100.558 134.462 99.0755Z" fill="#C46060"/>
<path fill-rule="evenodd" clip-rule="evenodd" d="M144.496 90.7949C147.83 90.7949 146.311 93.161 147.511 95.3064C149.587 99.0179 155.234 99.1069 157.218 95.2399C158.377 92.9799 157.093 90.7949 160.299 90.7949C163.601 90.7949 161.596 102.087 152.021 102.087C143.699 102.087 140.922 90.7949 144.496 90.7949Z" fill="#C46060"/>
<path fill-rule="evenodd" clip-rule="evenodd" d="M106.869 116.389C112.185 116.389 110.389 111.12 112.67 110.123C115.256 108.994 116.659 112.952 113.291 117.294C110.398 121.024 104.121 121.227 100.784 117.457C100.19 116.786 99.6436 115.869 99.2604 114.967C98.9513 114.239 98.5056 112.334 98.7179 111.515C99.1547 109.83 102.027 108.679 102.605 112.374C102.98 114.773 104.864 116.389 106.869 116.389Z" fill="#C46060"/>
<path fill-rule="evenodd" clip-rule="evenodd" d="M111.384 88.7874C116.595 88.7874 112.405 104.345 99.5945 104.345C98.1254 104.345 96.9761 101.24 99.7704 100.506C101.892 99.9487 103.624 100.688 106.809 97.5099C109.399 94.9251 109.177 93.3191 109.688 90.6036C109.824 89.8797 110.493 88.7874 111.384 88.7874Z" fill="#C46060"/>
<path fill-rule="evenodd" clip-rule="evenodd" d="M114.144 67.2078C117.263 67.2078 119.479 68.139 121.395 69.9911C121.432 70.0269 121.485 70.0791 121.522 70.1156C121.558 70.1522 121.609 70.2059 121.645 70.2432C125.237 73.9912 124.428 77.0647 124.428 82.7652C124.428 85.1135 121.153 85.1537 120.714 82.9675C120.21 80.453 122.262 73.6817 116.813 71.5634C114.8 70.7809 112.639 71.6432 112.639 68.7133C112.639 68.1092 113.54 67.2078 114.144 67.2078Z" fill="#C46060"/>
<path fill-rule="evenodd" clip-rule="evenodd" d="M77.269 90.293C79.5292 90.293 80.4206 93.2752 77.3278 94.1158C74.49 94.887 73.7653 95.9771 73.4966 98.564C73.1271 102.121 69.4927 100.951 69.4927 98.5736C69.4927 94.3311 73.0479 90.293 77.269 90.293Z" fill="#C46060"/>
<path fill-rule="evenodd" clip-rule="evenodd" d="M138.476 107.607V115.888C138.476 117.759 134.462 118.901 134.462 114.884C134.462 111.533 133.79 106.763 135.927 106.031C136.498 105.836 136.947 105.839 137.56 106.246C137.976 106.521 138.476 107.067 138.476 107.607Z" fill="#C46060"/>
</svg>
