<svg width="284" height="249" viewBox="0 0 284 249" fill="none" xmlns="http://www.w3.org/2000/svg">
<path fill-rule="evenodd" clip-rule="evenodd" d="M83.2236 46.4003C83.3389 46.3405 83.4451 46.2646 83.5391 46.1749C83.7566 46.0468 83.9541 45.8874 84.1251 45.7017L87.4603 42.389C88.2689 41.6975 89.0224 40.9441 89.7138 40.1355L93.9956 35.6284C94.4012 35.2002 94.6265 34.8396 95.0322 34.434L98.1646 31.0086C98.6829 30.4452 99.9449 29.1607 99.8548 28.4171C99.0435 28.4171 97.804 29.9044 97.3759 30.3326L94.4913 33.127C94.3195 33.3024 94.1613 33.4908 94.0181 33.6903L90.773 37.0256C90.6142 37.2542 90.4411 37.4724 90.2547 37.6791L86.5814 41.6003C86.018 42.3439 85.4096 42.8172 84.9589 43.358C84.5082 43.8989 82.7053 45.9045 82.7053 46.4454L83.2236 46.4003Z" fill="#419586"/>
<path fill-rule="evenodd" clip-rule="evenodd" d="M80.654 43.2228C81.5328 43.2228 83.3131 40.9693 84.1019 40.2932L95.3696 28.1692C97.6231 25.6677 97.6231 24.7213 95.0766 26.9297L94.5583 27.4706L92.9808 29.0481C91.8315 30.4678 89.3301 32.7439 88.7892 33.4425C88.2484 34.1411 86.9413 35.3805 86.1977 36.2368C85.792 36.665 85.5892 36.9354 85.2061 37.3411C84.823 37.7467 84.8455 37.6791 84.6653 37.8819C84.5294 38.0879 84.3788 38.2837 84.2146 38.4679C82.9785 39.7199 81.8267 41.0524 80.7666 42.4566C80.6962 42.5697 80.6498 42.6961 80.6304 42.828C80.611 42.9598 80.6191 43.0942 80.654 43.2228Z" fill="#419586"/>
<path fill-rule="evenodd" clip-rule="evenodd" d="M80.0227 38.7836C80.8565 39.009 82.4115 36.9808 83.2227 36.1245C84.8904 34.3667 87.1214 31.6174 88.7214 29.792C89.1721 29.2286 91.4482 26.7047 90.9749 26.2314C90.5017 25.7582 84.9354 32.2709 84.4171 32.8343L82.3664 35.223C81.8255 36.0569 80.0227 37.9724 80.0227 38.7836Z" fill="#419586"/>
<path fill-rule="evenodd" clip-rule="evenodd" d="M198.559 52.53C199.209 52.4354 199.814 52.1445 200.294 51.6962C203.546 49.3061 206.647 46.7171 209.579 43.9441C209.701 43.8399 209.807 43.7184 209.894 43.5835C210.661 41.9159 206.694 45.0258 206.672 45.0483C206.131 45.4314 205.703 45.8145 205.185 46.1976L200.813 49.7582C200.137 50.4793 198.311 51.6512 198.559 52.53Z" fill="#419586"/>
<path fill-rule="evenodd" clip-rule="evenodd" d="M271.146 190.492C270.357 190.492 269.568 191.664 269.118 192.204C268.903 192.411 268.7 192.629 268.509 192.858L265.151 197.004C264.656 197.613 261.929 200.971 262.402 201.512C262.875 202.052 263.011 201.331 263.146 201.219C263.642 200.858 263.416 200.993 263.777 200.565C264.137 200.137 264.205 200.159 264.385 199.912C266.481 197.388 268.554 194.909 270.47 192.25C270.763 191.799 271.304 191.123 271.146 190.492Z" fill="#419586"/>
<path fill-rule="evenodd" clip-rule="evenodd" d="M201.782 45.4313C202.929 45.0772 203.988 44.4861 204.892 43.6961C206.924 42.2777 208.745 40.5781 210.3 38.6482L210.886 38.0623C211.308 37.6841 211.594 37.1771 211.698 36.62C211.224 36.62 211.089 36.62 210.796 36.913C209.692 37.7242 208.114 39.3919 207.145 40.2482L203.405 43.4933L202.751 44.0116C202.253 44.3382 201.905 44.8487 201.782 45.4313Z" fill="#419586"/>
<path fill-rule="evenodd" clip-rule="evenodd" d="M25.4646 36.0566C26.4336 36.1918 27.1548 34.8847 27.7181 34.2087C28.2815 33.5326 31.7069 29.4762 32.5182 28.3044C32.9014 27.8789 33.1383 27.3419 33.1942 26.772C32.428 26.772 32.1801 27.1551 31.8196 27.5156C30.6928 28.6875 28.89 30.8283 27.8759 32.0227C27.5153 32.4734 27.2674 32.7439 26.9294 33.1946C26.5914 33.6453 25.4646 35.1777 25.4646 36.0566Z" fill="#419586"/>
<path fill-rule="evenodd" clip-rule="evenodd" d="M234.594 7.09863H234.098C233.67 7.41413 233.174 7.61695 232.746 7.90991L227.811 11.8536L225.85 14.3325C225.482 14.7741 225.255 15.3156 225.197 15.8874C225.94 15.8874 226.909 14.5804 227.675 13.8367C229.165 12.2845 230.761 10.8386 232.453 9.50992C233.016 9.01414 234.526 7.86484 234.594 7.09863Z" fill="#419586"/>
<path fill-rule="evenodd" clip-rule="evenodd" d="M155.494 52.9582C155.066 52.7554 155.111 52.7328 154.75 52.9582C154.39 53.1835 151.55 56.0681 150.987 56.6315L148.733 58.7273C148.08 59.3582 146.48 60.3723 146.705 60.7554C147.246 61.6794 150.311 58.9075 150.671 58.6371L154.908 54.3103C155.336 53.8145 155.719 53.7695 155.494 52.9582Z" fill="#419586"/>
<path fill-rule="evenodd" clip-rule="evenodd" d="M32.6992 7.09863H32.1584L27.3358 12.2818C27.0203 12.6874 26.7048 12.9578 26.4119 13.3635C25.8485 14.1071 24.7442 15.2114 24.9696 15.9325C25.6907 15.9325 26.502 14.9184 27.2231 14.1747C28.4626 12.9578 29.4767 11.6508 30.6711 10.3437C31.257 9.66767 32.7894 7.95498 32.6992 7.09863Z" fill="#419586"/>
<path fill-rule="evenodd" clip-rule="evenodd" d="M27.7866 7.09863H27.2457C24.7894 9.55499 24.7894 9.55499 22.7612 11.9212L21.071 14.1747C20.8006 14.5128 20.4175 14.9184 20.6429 15.5043C21.5668 15.5043 23.0767 13.4762 23.6851 12.8677L26.4119 9.66767C26.8401 9.01414 27.9218 7.93244 27.7866 7.09863Z" fill="#419586"/>
<path fill-rule="evenodd" clip-rule="evenodd" d="M50.6374 60.6652C51.3134 60.6652 51.5388 60.2821 51.8543 59.9666L55.5952 55.8652C56.2262 55.1215 57.8487 53.3638 57.8487 52.3947C56.5642 52.3947 52.3501 57.8708 51.0881 59.3131C50.9004 59.4788 50.7599 59.6911 50.6808 59.9285C50.6016 60.166 50.5866 60.4201 50.6374 60.6652Z" fill="#419586"/>
<path fill-rule="evenodd" clip-rule="evenodd" d="M202.3 37.8146C203.202 37.8146 203.923 37.1836 204.802 36.5301L207.889 34.1188C208.227 33.8483 208.543 33.4878 208.881 33.2174C209.219 32.9469 210.593 32.0004 210.593 31.099C209.647 31.099 208.723 31.9103 208.114 32.3385C206.341 33.6487 204.641 35.0556 203.021 36.5526C202.593 37.0033 202.323 37.116 202.3 37.8146Z" fill="#419586"/>
<path fill-rule="evenodd" clip-rule="evenodd" d="M99.268 45.8144C99.606 44.958 98.7046 45.4087 98.4116 45.6115C98.0818 45.8807 97.7729 46.1745 97.4877 46.4904C96.8341 47.1665 96.3834 47.5271 95.6398 48.2482C94.303 49.3506 93.1004 50.6061 92.0566 51.9891C91.8087 52.8905 92.6651 52.4623 92.9806 52.237C93.3178 51.9759 93.6412 51.6976 93.9496 51.4031L94.9186 50.5693C96.6259 49.2407 98.0964 47.6331 99.268 45.8144Z" fill="#419586"/>
<path fill-rule="evenodd" clip-rule="evenodd" d="M259.292 53.8369C259.292 53.2285 258.706 53.2285 258.278 53.5215C256.723 54.6257 252.531 58.0285 252.554 59.6511C252.554 59.944 252.554 60.2595 252.959 60.1919C253.365 60.1243 252.959 60.1919 253.207 60.0116C253.748 59.2844 254.351 58.6058 255.01 57.9835C255.281 57.6905 255.551 57.5102 255.889 57.1722C256.227 56.8342 256.498 56.6313 256.768 56.3609C257.051 56.0791 257.352 55.8157 257.669 55.5722C257.985 55.3468 259.292 54.0848 259.292 53.8369Z" fill="#419586"/>
<path fill-rule="evenodd" clip-rule="evenodd" d="M27.2901 28.1466C27.2901 27.9213 27.2901 28.1466 27.2901 27.8311C26.2985 27.8311 24.8112 30.0847 24.1126 30.9635C20.4619 35.1551 21.476 36.2143 23.3689 33.803C24.9007 32.0836 26.2174 30.1842 27.2901 28.1466Z" fill="#419586"/>
<path fill-rule="evenodd" clip-rule="evenodd" d="M57.691 58.9976C58.5699 59.4258 60.5756 56.7441 61.1615 56.1581C61.7474 55.5722 64.3164 53.0032 63.7305 52.4398C63.1446 51.8764 62.0854 53.4764 61.8601 53.6793C60.7503 54.7582 59.6972 55.8941 58.7051 57.0821C58.2544 57.668 57.4657 58.3892 57.691 58.9976Z" fill="#419586"/>
<path fill-rule="evenodd" clip-rule="evenodd" d="M232.971 14.8508C233.444 14.8508 233.624 14.693 233.962 14.4001C234.796 13.7015 235.495 12.8451 236.396 11.9888L237.861 10.2535C238.086 9.98312 239.371 8.67607 238.943 8.2479C238.515 7.81973 237.343 9.17185 237.072 9.3972L234.819 11.9212C234.368 12.5071 232.498 14.0395 232.971 14.8508Z" fill="#419586"/>
<path fill-rule="evenodd" clip-rule="evenodd" d="M28.8457 15.9549C29.4992 15.752 29.995 14.8957 30.4006 14.2872C31.032 13.2462 31.7165 12.2383 32.4514 11.2675L34.2767 9.71255C34.5472 9.46466 34.9077 9.08156 34.795 8.65339C34.119 8.49564 32.9922 9.39706 32.5415 9.69002C32.0382 10.0244 31.5767 10.4178 31.1668 10.8619C30.5584 11.6731 28.395 15.1887 28.8457 15.9549Z" fill="#419586"/>
<path fill-rule="evenodd" clip-rule="evenodd" d="M17.2401 197.681C18.1641 197.681 18.6373 196.689 19.0204 196.216C19.4035 195.742 23.1219 190.965 22.2205 190.492C21.319 190.018 19.674 193.196 19.2909 193.804C18.9078 194.413 17.1049 196.689 17.2401 197.681Z" fill="#419586"/>
<path fill-rule="evenodd" clip-rule="evenodd" d="M13.5218 196.486C13.8598 196.666 13.8598 196.486 13.8598 196.486C14.4682 196.486 16.1133 193.804 16.519 193.354C19.9218 188.554 18.4795 188.486 16.857 190.717C16.0457 191.821 13.2288 195.359 13.5218 196.486Z" fill="#419586"/>
<path fill-rule="evenodd" clip-rule="evenodd" d="M232.408 32.4061C232.408 31.8878 232.25 31.9103 231.912 31.6399C232.205 31.3018 232.993 30.8737 233.489 30.4455C234.528 29.644 235.46 28.7125 236.261 27.6736C236.644 25.8032 232.07 30.13 230.717 30.9413C229.365 31.7526 230.627 32.9244 232.408 32.4061Z" fill="#419586"/>
<path fill-rule="evenodd" clip-rule="evenodd" d="M220.847 15.3918C221.523 15.5495 222.312 14.5129 222.65 14.1749L226.526 9.91569C226.526 9.75794 227.135 9.05935 226.864 8.78892C226.594 8.5185 223.552 11.4481 223.439 11.5833C223.011 12.1692 222.357 12.665 221.884 13.3185C221.14 14.4228 220.599 14.7608 220.847 15.3918Z" fill="#419586"/>
<path fill-rule="evenodd" clip-rule="evenodd" d="M139.088 55.8651C139.269 55.4144 139.224 54.8961 138.57 55.189C136.683 56.9307 135.018 58.8986 133.612 61.0482C133.364 61.5665 133.387 62.0398 134.153 61.7017C134.468 61.4546 134.748 61.1666 134.987 60.8454C136.181 59.606 136.812 58.5919 137.804 57.5327C138.265 57.0033 138.694 56.4464 139.088 55.8651Z" fill="#419586"/>
<path fill-rule="evenodd" clip-rule="evenodd" d="M17.2392 203.675H17.6899L17.8927 203.427C17.9317 203.362 17.977 203.302 18.028 203.247L18.8618 201.872C19.1998 201.309 19.5153 200.655 19.8308 200.002C20.1463 199.348 22.0843 195.945 21.0026 195.945C19.9209 195.945 16.8561 202.525 17.2392 203.675Z" fill="#419586"/>
<path fill-rule="evenodd" clip-rule="evenodd" d="M89.961 56.3384C90.2088 55.775 89.8483 55.5496 89.33 55.8201C88.5331 56.5241 87.7805 57.2767 87.0764 58.0736C86.0979 59.0925 85.2083 60.1933 84.4172 61.3638C84.2595 61.8821 84.4173 62.1074 85.0482 61.8595C86.9244 60.2461 88.5765 58.3893 89.961 56.3384Z" fill="#419586"/>
<path fill-rule="evenodd" clip-rule="evenodd" d="M14.4455 187.742C13.7243 187.742 8.42851 194.323 9.93838 194.503C10.4567 194.503 11.268 193.376 11.5159 193.061C11.7638 192.745 15.7751 187.742 14.4455 187.742Z" fill="#419586"/>
<path fill-rule="evenodd" clip-rule="evenodd" d="M27.2233 196.824C27.5614 196.058 27.2233 195.314 26.1191 196.644C25.7811 197.094 21.0712 203.224 23.1444 202.571C24.7614 200.851 26.1339 198.918 27.2233 196.824Z" fill="#419586"/>
<path fill-rule="evenodd" clip-rule="evenodd" d="M260.126 59.0428C260.296 59.1023 260.48 59.1083 260.653 59.0599C260.826 59.0116 260.98 58.9112 261.095 58.7724C262.068 57.9124 262.966 56.9699 263.777 55.9554C264.295 55.2794 265.377 54.423 265.196 53.4765C264.317 53.2963 262.762 55.1667 262.177 55.8428C262.019 56.023 262.019 56.0681 261.861 56.2484L261.546 56.5864C261.298 56.8568 261.185 57.0597 260.937 57.3526C260.689 57.6456 259.968 58.4118 260.126 59.0428Z" fill="#419586"/>
<path fill-rule="evenodd" clip-rule="evenodd" d="M209.579 28.3945C208.588 28.1917 206.717 30.6481 206.041 31.4368L205.388 32.158C203.562 34.4115 204.802 34.9523 207.506 31.6396C208.069 30.8509 209.782 29.296 209.579 28.3945Z" fill="#419586"/>
<path fill-rule="evenodd" clip-rule="evenodd" d="M209.579 35.4707C208.835 35.2679 208.204 35.8989 207.754 36.2144C207.303 36.5299 203.404 39.3017 204.125 39.9553C204.846 40.6088 206.987 38.4003 207.258 38.1524C208.024 37.4313 209.692 36.3721 209.579 35.4707Z" fill="#419586"/>
<path fill-rule="evenodd" clip-rule="evenodd" d="M133.59 55.2118C133.793 54.7836 133.59 54.04 132.351 54.9188C130.83 55.9433 129.424 57.1296 128.159 58.4569C127.956 58.7724 128.001 59.133 128.52 59.133C130.404 58.0982 132.115 56.7752 133.59 55.2118Z" fill="#419586"/>
<path fill-rule="evenodd" clip-rule="evenodd" d="M83.5617 27.2454C82.6829 27.5158 77.0941 32.8342 79.4152 32.361C81.1336 31.0914 82.6527 29.5723 83.9223 27.8539C84.1477 27.5158 83.9899 27.0426 83.5617 27.2454Z" fill="#419586"/>
<path fill-rule="evenodd" clip-rule="evenodd" d="M217.602 13.1831C218.391 13.3859 219.067 12.5521 219.563 12.0788C219.671 11.9678 219.792 11.8695 219.923 11.7859L221.771 9.84782C221.996 9.5774 223.01 8.67598 222.56 8.24781C222.109 7.81964 220.712 9.28444 220.306 9.66754C219.901 10.0506 219.855 9.9605 219.608 10.2309L218.413 11.5605C218.075 11.9211 217.422 12.4619 217.602 13.1831Z" fill="#419586"/>
<path fill-rule="evenodd" clip-rule="evenodd" d="M85.0707 55.7751C85.2059 55.437 85.0707 55.0089 84.6876 55.0539C83.4184 55.9061 82.2668 56.9213 81.2623 58.0737C81.082 58.254 79.0087 60.3272 80.4961 60.192C80.7878 60.0677 81.0549 59.8921 81.2848 59.6737L83.2904 57.7807C83.926 57.1508 84.5206 56.4809 85.0707 55.7751Z" fill="#419586"/>
<path fill-rule="evenodd" clip-rule="evenodd" d="M147.292 55.054C146.03 54.8512 143.596 57.0597 142.942 58.1188C142.739 58.4569 142.266 59.5836 142.604 59.9667C142.942 60.3498 143.596 59.2231 143.844 58.885C144.619 57.9754 145.505 57.1655 146.48 56.4738C146.818 56.1132 147.449 55.8653 147.292 55.054Z" fill="#419586"/>
<path fill-rule="evenodd" clip-rule="evenodd" d="M96.4737 38.3101C96.8343 37.5439 96.1357 37.5439 95.2343 38.3101C94.9413 38.558 94.8286 38.5805 94.5131 38.8735C94.3117 39.0933 94.0932 39.2967 93.8596 39.4819C92.8681 40.2707 90.3216 43.4482 92.0568 42.7946C93.7316 41.5138 95.2185 40.0042 96.4737 38.3101Z" fill="#419586"/>
<path fill-rule="evenodd" clip-rule="evenodd" d="M205.072 59.8542C205.072 60.8007 206.447 59.5838 206.582 59.4711L209.151 57.0823C209.557 56.7218 210.21 56.3387 210.12 55.6626C209.264 55.4147 207.867 56.6542 207.168 57.195C206.529 57.7611 205.955 58.3959 205.455 59.088C205.237 59.2872 205.101 59.5602 205.072 59.8542Z" fill="#419586"/>
<path fill-rule="evenodd" clip-rule="evenodd" d="M27.0428 203.675H27.5611L30.1527 199.325C30.2916 199.064 30.412 198.793 30.5132 198.514C30.8062 197.635 30.5132 197.658 30.5132 197.658C29.9724 197.297 29.5442 198.266 29.2738 198.672C28.5995 199.727 27.9971 200.826 27.471 201.962C27.288 202.204 27.1558 202.48 27.0822 202.775C27.0086 203.069 26.9952 203.375 27.0428 203.675Z" fill="#419586"/>
<path fill-rule="evenodd" clip-rule="evenodd" d="M242.774 8.74373C241.805 9.03669 237.005 14.1072 239.484 13.2508L241.377 11.7409L241.962 11.155C242.233 10.7719 244.531 8.20288 242.774 8.74373Z" fill="#419586"/>
<path fill-rule="evenodd" clip-rule="evenodd" d="M19.4025 12.0565C20.2589 12.3044 21.0025 11.2903 21.7913 10.4565C22.4597 9.7 23.0699 8.89393 23.6166 8.04522C23.5599 7.90151 23.4718 7.7723 23.3587 7.66702C23.2457 7.56175 23.1105 7.48308 22.9631 7.43677C22.2427 8.06698 21.5651 8.74454 20.9349 9.46495C20.3941 10.0509 19.3124 11.2678 19.4025 12.0565Z" fill="#419586"/>
<path fill-rule="evenodd" clip-rule="evenodd" d="M225.173 32.2933C226.097 32.2933 226.773 31.1891 227.427 30.1975C227.675 29.837 229.162 27.7187 228.599 27.3581C228.035 26.9975 226.007 30.0173 225.624 30.6933C225.444 30.9152 225.311 31.1716 225.233 31.4467C225.156 31.7219 225.135 32.01 225.173 32.2933Z" fill="#419586"/>
<path fill-rule="evenodd" clip-rule="evenodd" d="M132.53 195.111C132.958 194.39 132.373 193.894 131.674 194.525C130.975 195.156 130.953 195.247 130.615 195.585C127.302 198.987 128.767 199.145 129.533 198.537C130.128 198.044 130.665 197.484 131.133 196.869C131.291 196.666 131.449 196.531 131.629 196.283L132.53 195.111Z" fill="#419586"/>
<path fill-rule="evenodd" clip-rule="evenodd" d="M34.2082 14.8283C34.3175 14.9039 34.4472 14.9444 34.5801 14.9444C34.7129 14.9444 34.8426 14.9039 34.9519 14.8283C35.1566 14.6908 35.3523 14.5402 35.5378 14.3776L36.0561 13.7241C36.642 13.048 38.6252 10.9297 38.0618 10.4114C37.4984 9.89308 35.042 12.9579 34.7265 13.3635C34.411 13.7692 33.9829 14.2649 34.2082 14.8283Z" fill="#419586"/>
<path fill-rule="evenodd" clip-rule="evenodd" d="M81.6905 196.576C82.4567 196.869 83.4708 195.495 84.1243 194.796C84.7779 194.097 86.0849 192.542 85.5891 192.159C85.0933 191.776 83.5835 193.557 83.1778 193.94C82.7722 194.323 81.375 195.878 81.6905 196.576Z" fill="#419586"/>
<path fill-rule="evenodd" clip-rule="evenodd" d="M94.356 58.7272C94.7616 57.9159 94.1532 57.5779 93.5222 58.0511C92.8912 58.5244 93.2517 58.3891 93.0489 58.637C92.2187 59.5341 91.5068 60.5337 90.9306 61.6117C90.6376 62.3554 91.1785 62.5582 91.7193 62.1751C92.3937 61.4737 93.0116 60.7202 93.5672 59.9216C93.7381 59.7318 93.8822 59.5195 93.9954 59.2906C93.9954 59.2906 94.356 58.7497 94.356 58.7272Z" fill="#419586"/>
<path fill-rule="evenodd" clip-rule="evenodd" d="M38.5349 15.3693H38.873C39.4589 15.3693 42.8167 11.3129 41.8927 10.8622C40.9688 10.4115 40.1349 12.2143 39.7744 12.7101C39.4138 13.2059 38.3096 14.5355 38.5349 15.3693Z" fill="#419586"/>
<path fill-rule="evenodd" clip-rule="evenodd" d="M46.8055 53.2512C46.9633 53.0259 47.3689 51.1554 44.9125 53.454C44.2013 54.0841 43.566 54.795 43.0196 55.5724C42.6139 56.271 43.1548 56.609 43.7632 56.2034C44.3717 55.7977 44.4618 55.5724 44.8449 55.2794C45.859 54.4231 45.1379 55.0541 45.8365 54.2653L46.8055 53.2512Z" fill="#419586"/>
<path fill-rule="evenodd" clip-rule="evenodd" d="M213.793 12.665C214.672 12.8903 215.754 11.5382 216.182 11.11C216.61 10.6818 218.436 9.19451 217.602 8.85648C216.768 8.51845 215.686 9.96072 215.348 10.4114C215.01 10.8621 213.478 11.8312 213.793 12.665Z" fill="#419586"/>
<path fill-rule="evenodd" clip-rule="evenodd" d="M34.1634 32.2933C34.9972 32.4736 35.6507 31.4369 36.3042 30.558C38.5578 27.6961 37.6113 27.0425 36.3042 28.5299C35.9887 28.913 35.7183 29.1383 35.3803 29.6116C35.0423 30.0848 33.938 31.3468 34.1634 32.2933Z" fill="#419586"/>
<path fill-rule="evenodd" clip-rule="evenodd" d="M21.8598 26.2311C20.8932 27.2328 20.1281 28.411 19.6063 29.7016C19.133 30.8058 19.9443 32.203 22.3781 27.2001C22.5359 26.7269 22.5359 25.9607 21.8598 26.2311Z" fill="#419586"/>
<path fill-rule="evenodd" clip-rule="evenodd" d="M10.8623 187.044C11.1327 186.436 10.8623 185.714 10.2989 186.165C9.38642 187.192 8.62737 188.346 8.04534 189.591C7.81999 190.131 8.04534 190.943 8.60873 190.492C9.53622 189.468 10.2967 188.305 10.8623 187.044Z" fill="#419586"/>
<path fill-rule="evenodd" clip-rule="evenodd" d="M9.50943 18.5692C10.3207 18.7495 10.3658 18.141 11.5827 16.9241C11.9883 16.5185 13.2503 15.572 13.0926 14.8058C13.0347 14.7453 12.9645 14.6979 12.8868 14.6668C12.809 14.6357 12.7255 14.6216 12.6419 14.6255C12.0109 14.6255 9.01365 17.2171 9.50943 18.5692Z" fill="#419586"/>
<path fill-rule="evenodd" clip-rule="evenodd" d="M270.628 197.748C270.989 197.005 270.38 196.779 269.839 197.162C269.507 197.461 269.191 197.777 268.893 198.109C266.279 200.79 267.203 201.376 268.014 200.836C269.038 199.946 269.919 198.905 270.628 197.748Z" fill="#419586"/>
<path fill-rule="evenodd" clip-rule="evenodd" d="M51.268 53.4991C50.6145 53.2737 50.2764 53.6118 49.8708 53.9723C49.4651 54.3329 49.2398 54.4681 48.8567 54.8512C46.9637 56.7442 47.437 58.4794 48.8567 56.6541C49.1473 56.3149 49.4557 55.9915 49.7806 55.685C50.0961 55.347 50.344 55.1442 50.7271 54.7386C51.1102 54.3329 51.4032 54.085 51.268 53.4991Z" fill="#419586"/>
<path fill-rule="evenodd" clip-rule="evenodd" d="M160.385 54.5357C159.596 54.3554 158.694 55.1667 157.996 55.8202C157.297 56.4737 156.013 57.4878 156.531 57.9611C157.049 58.4343 158.627 56.9019 158.785 56.6991C158.942 56.4963 160.632 55.5498 160.385 54.5357Z" fill="#419586"/>
<path fill-rule="evenodd" clip-rule="evenodd" d="M171.269 57.4429C171.652 56.7894 171.021 56.5189 170.458 56.8344C169.355 57.579 168.355 58.4655 167.483 59.4711C166.987 60.2823 167.708 60.3725 168.294 60.057C169.399 59.3234 170.4 58.4441 171.269 57.4429Z" fill="#419586"/>
<path fill-rule="evenodd" clip-rule="evenodd" d="M278.47 74.1414C278.628 73.4428 278.335 72.0907 277.231 74.2991C276.983 74.8175 274.842 78.1752 276.51 77.5893C276.825 77.5893 277.253 76.8231 277.366 76.6428C277.89 75.8868 278.265 75.0378 278.47 74.1414Z" fill="#419586"/>
<path fill-rule="evenodd" clip-rule="evenodd" d="M98.6604 194.841C98.2999 194.841 98.2323 194.841 98.052 195.066C97.8717 195.292 95.5506 198.987 96.5196 199.303C97.128 199.506 97.8492 197.883 98.1196 197.365C98.6379 196.418 99.1562 195.494 98.6604 194.841Z" fill="#419586"/>
<path fill-rule="evenodd" clip-rule="evenodd" d="M79.775 54.3327C79.0666 54.7306 78.4274 55.2405 77.882 55.8426C77.5665 56.1806 76.2369 57.3975 76.7102 57.8708C77.1834 58.344 77.7017 57.668 77.8595 57.5102C78.5806 56.8567 80.113 55.6849 80.3609 54.8736L79.775 54.3327Z" fill="#419586"/>
<path fill-rule="evenodd" clip-rule="evenodd" d="M143.01 196.576C143.19 196.035 142.829 195.675 142.266 196.035C141.33 196.942 140.566 198.011 140.012 199.19C139.787 199.934 140.328 200.069 140.779 199.731C141.713 198.828 142.469 197.758 143.01 196.576Z" fill="#419586"/>
<path fill-rule="evenodd" clip-rule="evenodd" d="M251.563 54.6257C250.909 54.4229 250.661 54.8736 250.391 55.1666C249.825 55.8126 249.326 56.5148 248.903 57.2624C248.137 58.4568 248.903 59.1103 249.805 57.961C250.413 57.2849 251.923 55.4145 251.563 54.6257Z" fill="#419586"/>
<path fill-rule="evenodd" clip-rule="evenodd" d="M5.61182 168.249C5.61182 168.97 6.24281 168.858 6.58084 168.249C6.91887 167.641 8.06818 165.117 7.68507 164.238C7.48499 164.19 7.27403 164.222 7.0972 164.327C6.92037 164.432 6.79168 164.603 6.73859 164.801C6.16584 165.877 5.78457 167.043 5.61182 168.249Z" fill="#419586"/>
<path fill-rule="evenodd" clip-rule="evenodd" d="M265.76 56.3385C265.309 56.0681 264.993 56.3385 264.633 56.5864C261.613 58.8399 261.433 61.4315 264.34 58.5019C264.746 58.0512 265.917 57.1498 265.76 56.3385Z" fill="#419586"/>
<path fill-rule="evenodd" clip-rule="evenodd" d="M76.6203 28.9581C77.6569 29.1609 77.0935 28.4849 78.1076 27.2229C78.333 26.9299 79.6626 25.5102 79.0992 25.1271C78.5358 24.744 75.6738 27.2229 76.6203 28.9581Z" fill="#419586"/>
<path fill-rule="evenodd" clip-rule="evenodd" d="M276.442 86.8514C277.005 86.9866 277.208 86.8514 277.501 86.3782C277.794 85.9049 279.416 83.5612 278.853 83.0429C278.29 82.5246 277.411 84.1697 277.208 84.5077C276.654 85.1577 276.379 85.9998 276.442 86.8514Z" fill="#419586"/>
<path fill-rule="evenodd" clip-rule="evenodd" d="M211.675 48.3386C212.149 47.009 208.115 48.5188 207.732 49.7583C207.349 50.9977 209.354 49.7583 209.647 49.6231C209.94 49.4879 211.495 48.8118 211.675 48.3386Z" fill="#419586"/>
<path fill-rule="evenodd" clip-rule="evenodd" d="M279.439 79.3697V78.7387C279.123 78.5359 279.439 78.7387 279.011 78.5584C278.582 78.3781 276.464 81.826 276.892 82.3894C277.32 82.9528 278.222 81.6457 278.447 81.2852C278.673 80.9246 279.236 79.7978 279.439 79.3697Z" fill="#419586"/>
<path fill-rule="evenodd" clip-rule="evenodd" d="M59.9215 60.1694C60.8455 60.3272 61.4314 59.2004 61.837 58.7272C62.2427 58.2539 63.0539 57.3751 62.6258 56.7215C61.9046 56.7215 61.0708 57.7131 60.7103 58.1413C60.0567 58.9525 59.5159 59.5159 59.9215 60.1694Z" fill="#419586"/>
<path fill-rule="evenodd" clip-rule="evenodd" d="M257.895 9.8481C257.332 10.1185 257.895 9.8481 257.647 9.8481C256.697 10.4261 255.877 11.1932 255.236 12.1016C255.033 12.7101 255.529 12.8453 256.002 12.62C256.671 12.2187 257.298 11.7505 257.873 11.2228C258.183 10.9986 258.438 10.7055 258.616 10.3664C258.842 9.91571 258.413 9.60021 257.895 9.8481Z" fill="#419586"/>
<path fill-rule="evenodd" clip-rule="evenodd" d="M138.187 195.742C138.458 194.751 137.759 194.278 136.993 195.742C134.852 199.461 136.948 200.25 138.187 195.742Z" fill="#419586"/>
<path fill-rule="evenodd" clip-rule="evenodd" d="M277.794 94.6487C278.245 93.274 277.456 92.9811 276.825 94.0628C274.639 97.6684 276.442 98.8628 277.794 94.6487Z" fill="#419586"/>
<path fill-rule="evenodd" clip-rule="evenodd" d="M125.455 194.683C126.063 193.511 124.914 193.399 124.193 194.368C124.193 194.368 121.939 197.094 123.336 197.117C123.81 197.117 123.99 196.689 124.17 196.441C124.351 196.193 125.117 195.292 125.455 194.683Z" fill="#419586"/>
<path fill-rule="evenodd" clip-rule="evenodd" d="M211.157 59.4483C211.405 58.7272 210.707 58.8624 210.346 59.0877L209.467 59.8089C208.994 60.192 207.935 60.8229 207.777 61.3187C207.394 62.5356 209.4 61.3187 209.692 61.2061C210.003 60.9961 210.271 60.7283 210.481 60.4173C210.764 60.1381 210.993 59.8097 211.157 59.4483Z" fill="#419586"/>
<path fill-rule="evenodd" clip-rule="evenodd" d="M6.918 156.215C7.6166 156.215 7.93209 155.855 8.54055 154.953C8.74337 154.638 9.75746 153.241 9.19408 152.858C8.63069 152.475 7.81942 153.759 7.54899 154.165C7.27857 154.57 6.55743 155.494 6.918 156.215Z" fill="#419586"/>
<path fill-rule="evenodd" clip-rule="evenodd" d="M147.292 11.4931C146.706 11.7861 144.227 15.3917 146.007 14.8734C146.846 14.1503 147.503 13.2392 147.923 12.2143C148.126 11.6283 147.833 11.2678 147.292 11.4931Z" fill="#419586"/>
<path fill-rule="evenodd" clip-rule="evenodd" d="M80.2042 52.4624C80.3844 52.0342 80.2042 51.6286 79.6408 51.7863C78.7391 52.3702 77.9711 53.1382 77.3872 54.0399C77.1844 54.5357 77.3872 54.9413 78.0182 54.761C78.9114 54.1701 79.6588 53.3842 80.2042 52.4624Z" fill="#419586"/>
<path fill-rule="evenodd" clip-rule="evenodd" d="M160.001 10.9745C159.596 10.8167 159.438 10.9745 159.1 11.1773C158.762 11.3801 157.072 13.521 157.5 14.1745C157.928 14.828 160.137 12.1012 160.001 10.9745Z" fill="#419586"/>
<path fill-rule="evenodd" clip-rule="evenodd" d="M10.4114 182.92C9.96064 182.739 9.8029 182.694 9.44233 183.123C9.08176 183.551 7.66203 185.376 7.88739 185.985C8.38316 187.202 10.5916 184.024 10.4114 182.92Z" fill="#419586"/>
<path fill-rule="evenodd" clip-rule="evenodd" d="M123.359 57.0822C123.555 57.1288 123.76 57.1197 123.951 57.056C124.142 56.9923 124.312 56.8765 124.441 56.7216C124.756 56.4512 124.936 56.361 125.252 56.0455C125.509 55.8088 125.788 55.5975 126.086 55.4146C126.424 55.1441 126.559 55.054 126.491 54.4906C126.083 54.459 125.673 54.5106 125.286 54.6423C124.899 54.774 124.542 54.9831 124.238 55.2568C123.607 55.7075 122.886 56.3385 123.359 57.0822Z" fill="#419586"/>
<path fill-rule="evenodd" clip-rule="evenodd" d="M6.76114 162.728C7.39213 162.728 7.27945 162.728 7.4372 162.03C7.59495 161.331 8.94707 160.407 8.63157 159.416C7.93298 159.213 7.14424 160.182 6.82874 160.565C6.53335 160.843 6.36035 161.227 6.34767 161.633C6.335 162.038 6.48369 162.432 6.76114 162.728Z" fill="#419586"/>
<path fill-rule="evenodd" clip-rule="evenodd" d="M107.381 9.4651C106.706 10.2448 106.241 11.1831 106.029 12.1919C106.029 12.7102 106.457 12.8003 106.795 12.5524C107.133 12.3046 109.048 9.082 107.719 9.28481C107.11 9.37496 107.561 9.30735 107.381 9.4651Z" fill="#419586"/>
<path fill-rule="evenodd" clip-rule="evenodd" d="M60.17 10.3889C60.17 9.69026 59.539 9.41983 58.8629 10.6142C58.4943 11.2441 58.2065 11.918 58.0066 12.6199C58.0066 13.2734 58.5925 13.679 59.3587 12.372C59.7328 11.7583 60.0067 11.0888 60.17 10.3889Z" fill="#419586"/>
<path fill-rule="evenodd" clip-rule="evenodd" d="M5.02539 35.6962V36.5074C5.27216 36.6195 5.54585 36.6586 5.81413 36.6201C6.08455 36.1469 7.54936 34.1863 7.14372 33.4426C6.73808 32.6989 5.22821 35.4032 5.02539 35.6962Z" fill="#419586"/>
<path fill-rule="evenodd" clip-rule="evenodd" d="M97.5334 51.4485C98.2545 51.7189 98.7954 51.1555 99.3362 50.7724C101.342 49.3076 100.463 47.7302 97.7813 50.4795C97.4432 50.84 97.3982 50.8851 97.5334 51.4485Z" fill="#419586"/>
<path fill-rule="evenodd" clip-rule="evenodd" d="M133.206 37.7692C133.341 37.3861 133.206 36.9579 132.688 37.0481C132.17 37.1382 130.84 38.896 130.705 39.3016C130.57 39.7073 130.705 40.0904 131.223 40.0002C131.741 39.9101 132.958 38.3101 133.206 37.7692Z" fill="#419586"/>
<path fill-rule="evenodd" clip-rule="evenodd" d="M74.5019 196.509C74.9301 196.689 75.0428 196.802 75.4709 196.509C75.8991 196.216 77.2963 194.616 76.9583 194.007C76.44 192.948 74.3667 195.404 74.5019 196.509Z" fill="#419586"/>
<path fill-rule="evenodd" clip-rule="evenodd" d="M136.88 38.8509C137.038 38.4977 137.093 38.1071 137.038 37.7242C135.686 37.3861 134.334 40.496 137.038 39.9777C137.624 39.9777 138.165 39.8199 137.962 39.0763C137.579 38.8509 137.466 38.8735 136.88 38.8509Z" fill="#419586"/>
<path fill-rule="evenodd" clip-rule="evenodd" d="M172.328 60.7104C172.981 60.7104 173.026 60.7104 173.364 60.2822C173.599 60.0579 173.818 59.8168 174.018 59.5611C174.288 59.2231 175.167 58.1188 174.446 57.8259C173.725 57.5329 173.139 58.6597 172.891 58.9752C172.643 59.2907 171.922 59.9893 172.328 60.7104Z" fill="#419586"/>
<path fill-rule="evenodd" clip-rule="evenodd" d="M91.8089 194.052C91.1103 193.264 90.8173 193.895 90.2539 194.48C89.6905 195.066 89.1497 195.788 89.1948 196.261C89.3525 197.545 91.3131 195.652 91.8089 194.052Z" fill="#419586"/>
<path fill-rule="evenodd" clip-rule="evenodd" d="M7.887 50.8623C8.26198 50.4075 8.54112 49.8816 8.70764 49.3162C8.87417 48.7508 8.92464 48.1575 8.85603 47.5721C8.24757 47.3918 8.13489 47.5721 7.90954 47.9327C7.68418 48.2933 6.48981 50.8398 7.887 50.8623Z" fill="#419586"/>
<path fill-rule="evenodd" clip-rule="evenodd" d="M9.53248 22.9861C10.0057 23.1213 10.1635 23.1439 10.479 22.8058C12.3494 20.71 11.448 18.9298 10.0733 21.1382C9.85228 21.3872 9.68913 21.682 9.59562 22.0015C9.5021 22.321 9.48054 22.6573 9.53248 22.9861Z" fill="#419586"/>
<path fill-rule="evenodd" clip-rule="evenodd" d="M40.8114 54.8286C40.9916 54.5807 41.0142 54.0173 40.6311 53.8821C40.248 53.7469 39.9776 54.0399 39.7297 54.1751C37.5888 55.3244 38.2423 57.1047 39.4367 56.0005L40.8114 54.8286Z" fill="#419586"/>
<path fill-rule="evenodd" clip-rule="evenodd" d="M7.09822 112.677C8.08977 112.474 9.23908 110.221 8.72076 109.815C8.20245 109.409 7.59399 110.288 7.36864 110.671C6.95485 111.151 6.74465 111.774 6.78272 112.407L7.09822 112.677Z" fill="#419586"/>
<path fill-rule="evenodd" clip-rule="evenodd" d="M8.22504 105.646C8.58561 104.722 7.70673 104.406 7.14334 105.218C5.00248 108.17 7.0532 108.666 8.22504 105.646Z" fill="#419586"/>
<path fill-rule="evenodd" clip-rule="evenodd" d="M141.973 38.5129C142.311 37.634 141.5 37.2734 140.914 38.0847C138.615 41.172 140.869 41.4199 141.973 38.5129Z" fill="#419586"/>
<path fill-rule="evenodd" clip-rule="evenodd" d="M51.8309 11.5382C51.0196 11.2227 50.7041 11.9213 50.3661 12.4396C50.028 12.9579 49.4647 13.8142 49.9604 14.2424C50.4562 14.6706 52.1689 12.372 51.8309 11.5382Z" fill="#419586"/>
<path fill-rule="evenodd" clip-rule="evenodd" d="M238.493 28.958C237.726 29.3186 236.239 32.2256 237.726 31.7524C238.042 31.7524 238.605 30.7834 238.808 30.3777C238.997 30.0849 239.121 29.7542 239.169 29.4087C239.169 28.9805 238.876 28.7777 238.493 28.958Z" fill="#419586"/>
<path fill-rule="evenodd" clip-rule="evenodd" d="M6.21924 40.9017C7.32347 41.5552 8.47278 39.0763 8.22489 38.2651C7.81925 38.1073 7.54883 38.1073 7.2784 38.4453C6.65624 39.1198 6.28263 39.9863 6.21924 40.9017Z" fill="#419586"/>
<path fill-rule="evenodd" clip-rule="evenodd" d="M47.5952 11.4478V10.9971C46.3107 10.4111 45.522 13.2506 45.522 13.2506C45.522 13.2506 46.0628 14.1745 46.8741 13.0478C47.1937 12.5538 47.4369 12.0144 47.5952 11.4478Z" fill="#419586"/>
<path fill-rule="evenodd" clip-rule="evenodd" d="M205.658 51.8314C204.87 51.6511 204.487 52.2371 204.058 52.6652C203.63 53.0934 202.842 53.7469 203.495 54.2202C204.149 54.6934 204.802 53.6568 205.05 53.4089C205.298 53.161 206.042 52.5075 205.658 51.8314Z" fill="#419586"/>
<path fill-rule="evenodd" clip-rule="evenodd" d="M38.6033 30.7158C39.5272 30.9411 41.0822 29.4087 40.8568 28.4622C40.5639 28.2819 40.4061 28.1242 39.9779 28.4622L38.6033 29.8369C38.5027 29.9612 38.4478 30.1164 38.4478 30.2763C38.4478 30.4363 38.5027 30.5914 38.6033 30.7158Z" fill="#419586"/>
<path fill-rule="evenodd" clip-rule="evenodd" d="M261.411 10.9972C260.802 11.3352 259.743 14.3099 261.163 13.724C261.546 13.5437 262.673 11.2902 261.929 10.9521C261.85 10.9017 261.756 10.8788 261.662 10.8869C261.569 10.8951 261.48 10.9338 261.411 10.9972Z" fill="#419586"/>
<path fill-rule="evenodd" clip-rule="evenodd" d="M8.81114 181.77C9.26185 180.463 8.13508 179.787 7.23366 182.401C6.76042 183.799 8.0224 184.204 8.81114 181.77Z" fill="#419586"/>
<path fill-rule="evenodd" clip-rule="evenodd" d="M6.91865 101.635C8.18063 101.995 8.76655 99.674 8.15809 98.8177C7.48203 98.8177 7.30175 99.3135 7.12147 99.9219C6.87646 100.458 6.80553 101.057 6.91865 101.635Z" fill="#419586"/>
<path fill-rule="evenodd" clip-rule="evenodd" d="M278.92 89.15C279.258 88.4063 278.47 88.0458 277.906 88.6091C275.698 90.8401 277.794 91.8092 278.92 89.15Z" fill="#419586"/>
<path fill-rule="evenodd" clip-rule="evenodd" d="M7.21153 152.835C8.09041 153.015 8.11294 152.835 8.31576 151.979C8.49709 151.418 8.53582 150.822 8.42844 150.243C7.70731 149.928 7.50449 150.243 7.27914 150.942C7.09946 151.557 7.07622 152.208 7.21153 152.835Z" fill="#419586"/>
<path fill-rule="evenodd" clip-rule="evenodd" d="M8.22555 122.998C8.72133 121.939 7.18892 121.668 6.31004 123.742C5.9044 124.688 7.07625 125.364 8.22555 122.998Z" fill="#419586"/>
<path fill-rule="evenodd" clip-rule="evenodd" d="M208.43 10.3211C207.89 10.5464 206.921 11.876 207.033 12.3493C207.259 13.2732 208.295 12.3493 208.904 11.4478C209.242 10.8845 209.242 10.0281 208.43 10.3211Z" fill="#419586"/>
<path fill-rule="evenodd" clip-rule="evenodd" d="M244.982 31.0987C243.021 32.0677 243.45 35.3579 245.433 32.2255C245.883 31.5494 245.635 30.7382 244.982 31.0987Z" fill="#419586"/>
<path fill-rule="evenodd" clip-rule="evenodd" d="M152.79 11.4479C151.55 11.9888 150.784 14.3324 152.114 13.7015C152.566 13.3656 152.949 12.9446 153.24 12.462C153.623 11.9437 153.488 11.1324 152.79 11.4479Z" fill="#419586"/>
<path fill-rule="evenodd" clip-rule="evenodd" d="M122.571 12.6423C123.089 12.8451 123.269 12.7775 123.923 12.0113C124.123 11.8175 124.278 11.5814 124.375 11.3202C124.473 11.0589 124.511 10.7792 124.486 10.5014C123.787 10.0733 123.495 10.5014 123.111 10.9747C122.728 11.4479 122.3 11.9662 122.571 12.6423Z" fill="#419586"/>
<path fill-rule="evenodd" clip-rule="evenodd" d="M90.5474 47.5045C89.7136 46.9637 87.8882 48.4285 88.2939 49.1045C88.6995 49.7806 90.7953 48.5637 90.5474 47.5045Z" fill="#419586"/>
<path fill-rule="evenodd" clip-rule="evenodd" d="M42.2993 31.0762C42.9753 31.5495 43.1556 31.0762 43.6063 30.6706C44.057 30.265 44.4852 29.6114 44.2599 29.1382C43.7866 28.1016 42.0965 30.1298 42.2993 31.0762Z" fill="#419586"/>
<path fill-rule="evenodd" clip-rule="evenodd" d="M8.27071 43.2906C7.5045 42.8173 7.30168 43.2906 6.87351 43.7413C6.44534 44.192 6.0397 44.7103 6.26506 45.2061C6.76083 46.2202 8.40592 44.2596 8.27071 43.2906Z" fill="#419586"/>
<path fill-rule="evenodd" clip-rule="evenodd" d="M206.717 26.2762C206.402 26.4339 206.717 25.9607 206.131 26.772C204.712 28.6199 205.816 28.7325 206.131 28.4621C206.131 28.4621 207.641 27.0874 207.348 26.4114C207.055 25.7353 207.01 26.0959 206.717 26.2762Z" fill="#419586"/>
<path fill-rule="evenodd" clip-rule="evenodd" d="M182.334 57.9612C181.996 57.8259 181.929 57.6682 181.546 57.9612C181.163 58.2541 180.126 59.4485 180.351 59.9894C180.779 60.8457 182.537 59.0429 182.334 57.9612Z" fill="#419586"/>
<path fill-rule="evenodd" clip-rule="evenodd" d="M61.5222 13.7916C61.8828 13.3184 62.649 12.4395 62.2884 11.5381C61.4095 11.3353 61.2968 11.7184 60.9588 12.417C60.6208 13.1156 60.3729 13.7691 61.5222 13.7916Z" fill="#419586"/>
<path fill-rule="evenodd" clip-rule="evenodd" d="M166.514 10.3662C165.41 10.8846 165.072 13.2508 166.289 12.6198C167.1 12.2141 167.596 9.87047 166.514 10.3662Z" fill="#419586"/>
<path fill-rule="evenodd" clip-rule="evenodd" d="M247.889 9.82536C247.461 9.98311 247.168 10.6366 246.988 11.0873C246.627 12.0113 247.191 12.2367 247.596 12.124C248.002 12.0113 248.52 10.8395 248.588 10.4338C248.655 10.0282 248.588 10.1859 248.588 10.0507C248.507 9.94752 248.398 9.87087 248.273 9.83069C248.148 9.79051 248.015 9.78866 247.889 9.82536Z" fill="#419586"/>
<path fill-rule="evenodd" clip-rule="evenodd" d="M126.739 39.1439C126.739 38.8509 126.919 38.603 126.739 38.3551C126.086 37.634 125.432 39.0086 125.252 39.5946C124.756 40.8791 126.198 40.9467 126.739 39.1439Z" fill="#419586"/>
<path fill-rule="evenodd" clip-rule="evenodd" d="M7.50474 57.9833C8.92447 56.1354 8.31601 55.3242 7.50474 55.7298C7.43713 55.7749 5.6343 57.9833 7.50474 57.9833Z" fill="#419586"/>
<path fill-rule="evenodd" clip-rule="evenodd" d="M7.50412 148.576C8.11257 147.742 8.99146 145.962 7.70694 146.323C7.43651 146.3 5.56607 148.576 7.50412 148.576Z" fill="#419586"/>
<path fill-rule="evenodd" clip-rule="evenodd" d="M203.81 9.66766C203.428 9.73138 203.072 9.90319 202.785 10.1628C202.497 10.4224 202.29 10.7588 202.187 11.1325C202.182 11.2582 202.22 11.382 202.293 11.4841C202.367 11.5862 202.472 11.6607 202.593 11.6958C202.999 11.6958 203.585 11.1325 203.81 10.9071C204.035 10.6818 204.328 10.186 203.81 9.66766Z" fill="#419586"/>
<path fill-rule="evenodd" clip-rule="evenodd" d="M54.3104 13.093C54.9188 13.6563 55.3921 13.093 55.7752 12.7099C56.1583 12.3268 56.3836 11.9211 56.1583 11.3803C55.8101 11.3407 55.4583 11.4134 55.1543 11.5877C54.8503 11.762 54.6099 12.0288 54.4681 12.3493C54.2428 12.6873 54.2428 12.5972 54.3104 13.093Z" fill="#419586"/>
<path fill-rule="evenodd" clip-rule="evenodd" d="M155.494 60.0342C154.818 59.7863 154.661 60.0342 154.187 60.4173C153.714 60.8004 153.331 61.1835 153.646 61.6568C153.962 62.13 155.787 61.206 155.494 60.0342Z" fill="#419586"/>
<path fill-rule="evenodd" clip-rule="evenodd" d="M7.41367 120.181C8.0672 120.474 8.29255 120.181 8.7658 119.753C9.23904 119.325 9.59961 118.964 9.21651 118.491C8.8334 118.018 7.14325 119.145 7.41367 120.181Z" fill="#419586"/>
<path fill-rule="evenodd" clip-rule="evenodd" d="M100.463 53.206C101.162 53.206 101.432 52.7102 101.793 52.3496C102.649 51.4482 101.793 50.4567 100.441 51.9665C99.9448 52.575 100.08 52.7102 100.463 53.206Z" fill="#419586"/>
<path fill-rule="evenodd" clip-rule="evenodd" d="M246.312 55.9103C247.033 55.9103 248.385 54.5356 247.642 53.9947C246.898 53.4539 245.861 54.8511 245.816 55.5497L246.312 55.9103Z" fill="#419586"/>
<path fill-rule="evenodd" clip-rule="evenodd" d="M7.25667 116.35C7.70737 116.102 7.82005 115.652 7.91019 115.088C8.00034 114.525 8.04541 114.119 7.25667 114.052C6.94117 114.142 5.76933 116.238 7.25667 116.35Z" fill="#419586"/>
<path fill-rule="evenodd" clip-rule="evenodd" d="M187.201 56.8793C186.998 57.3525 186.705 59.1328 187.719 59.1328C188.733 59.1328 188.26 57.3976 187.945 56.8793H187.201Z" fill="#419586"/>
<path fill-rule="evenodd" clip-rule="evenodd" d="M93.1845 9.26187C92.283 9.80272 92.0802 11.5154 93.1845 11.0422C93.5353 10.7786 93.8016 10.4183 93.9507 10.0055C94.1535 9.39708 93.6126 9.01398 93.1845 9.26187Z" fill="#419586"/>
<path fill-rule="evenodd" clip-rule="evenodd" d="M71.618 193.962C71.2124 193.669 71.0095 193.444 70.5138 193.962C70.356 194.165 69.8828 194.818 70.063 195.269C70.4461 196.171 71.7081 195.111 71.618 193.962Z" fill="#419586"/>
<path fill-rule="evenodd" clip-rule="evenodd" d="M78.153 50.3893C77.6122 50.0287 77.4093 49.9836 77.0037 50.5245C76.5981 51.0653 76.4178 51.3132 76.6206 51.7188C76.8234 52.1245 77.4544 51.9667 77.7023 51.7188C77.903 51.5688 78.0536 51.3614 78.134 51.124C78.2145 50.8866 78.2211 50.6305 78.153 50.3893Z" fill="#419586"/>
<path fill-rule="evenodd" clip-rule="evenodd" d="M179.066 58.7048C179.562 57.5329 178.187 57.4428 177.646 58.7048C177.421 59.2682 177.646 59.8992 178.277 59.6513C178.623 59.4152 178.896 59.0874 179.066 58.7048Z" fill="#419586"/>
<path fill-rule="evenodd" clip-rule="evenodd" d="M140.305 14.5805C141.567 15.5721 141.702 13.6115 141.612 13.3861C141.566 13.3 141.499 13.2263 141.418 13.1715C141.337 13.1167 141.243 13.0823 141.146 13.0712C141.049 13.0602 140.95 13.0728 140.859 13.108C140.767 13.1432 140.686 13.2 140.621 13.2735C140.349 13.6512 140.236 14.1203 140.305 14.5805Z" fill="#419586"/>
<path fill-rule="evenodd" clip-rule="evenodd" d="M97.781 12.4847C98.0226 12.6363 98.3091 12.7 98.5923 12.6649C98.7861 12.4563 98.9263 12.2038 99.0009 11.929C99.0754 11.6542 99.0822 11.3654 99.0204 11.0875C98.897 11.002 98.7569 10.9437 98.6092 10.9165C98.4616 10.8893 98.3099 10.8938 98.1641 10.9297C97.9816 11.14 97.8518 11.3907 97.7852 11.661C97.7186 11.9314 97.7171 12.2137 97.781 12.4847Z" fill="#419586"/>
<path fill-rule="evenodd" clip-rule="evenodd" d="M222.47 29.7241C222.47 31.0763 223.935 31.0537 223.709 29.5213C223.597 28.6875 222.47 28.7551 222.47 29.7241Z" fill="#419586"/>
<path fill-rule="evenodd" clip-rule="evenodd" d="M97.1048 61.6569C97.871 61.8372 98.1865 61.8147 98.1865 60.9133C98.1865 60.0119 97.9161 59.9443 97.1048 60.1471C96.9696 60.6413 96.9696 61.1627 97.1048 61.6569Z" fill="#419586"/>
<path d="M252.2 141.274H153.26V168.159H252.2V141.274Z" fill="#C46060" stroke="#419586" stroke-width="2" stroke-miterlimit="22.9256" stroke-linecap="round" stroke-linejoin="round"/>
<path d="M252.2 181.043H153.26V207.928H252.2V181.043Z" fill="#C46060" stroke="#419586" stroke-width="2" stroke-miterlimit="22.9256" stroke-linecap="round" stroke-linejoin="round"/>
<path d="M252.2 220.812H153.26V247.697H252.2V220.812Z" fill="#C46060" stroke="#419586" stroke-width="2" stroke-miterlimit="22.9256" stroke-linecap="round" stroke-linejoin="round"/>
<path d="M113.019 99.4149L140.227 99.4149" stroke="#C46060" stroke-width="6" stroke-miterlimit="22.9256" stroke-linecap="round" stroke-linejoin="round"/>
<path d="M150.692 99.4149L227.085 99.415" stroke="#EDE7D9" stroke-width="6" stroke-miterlimit="22.9256" stroke-linecap="round" stroke-linejoin="round"/>
<path d="M237.549 99.4149L253.246 99.415" stroke="#C46060" stroke-width="6" stroke-miterlimit="22.9256" stroke-linecap="round" stroke-linejoin="round"/>
<path d="M107.787 121.391L125.577 121.391" stroke="#EDE7D9" stroke-width="6" stroke-miterlimit="22.9256" stroke-linecap="round" stroke-linejoin="round"/>
<path d="M134.995 121.391L169.528 121.391" stroke="#C46060" stroke-width="6" stroke-miterlimit="22.9256" stroke-linecap="round" stroke-linejoin="round"/>
<path d="M178.947 121.391H198.469" stroke="#EDE7D9" stroke-width="6" stroke-miterlimit="22.9256" stroke-linecap="round" stroke-linejoin="round"/>
<path d="M208.248 121.407L252.2 121.391" stroke="#C46060" stroke-width="6" stroke-miterlimit="22.9256" stroke-linecap="round" stroke-linejoin="round"/>
<path d="M35.5801 144.413H55.1021" stroke="#C46060" stroke-width="6" stroke-miterlimit="22.9256" stroke-linecap="round" stroke-linejoin="round"/>
<path d="M132.825 144.413L140.15 144.413" stroke="#EDE7D9" stroke-width="6" stroke-miterlimit="22.9256" stroke-linecap="round" stroke-linejoin="round"/>
<path d="M65.5669 144.413H122.36" stroke="#C46060" stroke-width="6" stroke-miterlimit="22.9256" stroke-linecap="round" stroke-linejoin="round"/>
<path d="M35.5801 163.25L53.3701 163.25" stroke="#C46060" stroke-width="6" stroke-miterlimit="22.9256" stroke-linecap="round" stroke-linejoin="round"/>
<path d="M104.614 163.592H140.998" stroke="#C46060" stroke-width="6" stroke-miterlimit="22.9256" stroke-linecap="round" stroke-linejoin="round"/>
<path d="M163.25 171.38L163.25 178.705" stroke="#419586" stroke-width="6" stroke-miterlimit="22.9256" stroke-linecap="square" stroke-linejoin="round"/>
<path d="M241.735 171.38L241.735 178.705" stroke="#419586" stroke-width="6" stroke-miterlimit="22.9256" stroke-linecap="square" stroke-linejoin="round"/>
<path d="M163.25 211.146L163.25 218.471" stroke="#419586" stroke-width="6" stroke-miterlimit="22.9256" stroke-linecap="square" stroke-linejoin="round"/>
<path d="M241.735 211.146L241.735 218.471" stroke="#419586" stroke-width="6" stroke-miterlimit="22.9256" stroke-linecap="square" stroke-linejoin="round"/>
<path d="M67.092 163.635H94.5208" stroke="#EDE7D9" stroke-width="6" stroke-miterlimit="22.9256" stroke-linecap="round" stroke-linejoin="round"/>
<path d="M53.3701 126.623L69.0672 88.9502" stroke="#C46060" stroke-width="6" stroke-miterlimit="22.9256" stroke-linecap="round" stroke-linejoin="round"/>
<path d="M30.3477 108.318L44.98 94.07" stroke="#C46060" stroke-width="6" stroke-miterlimit="22.9256" stroke-linecap="round" stroke-linejoin="round"/>
<path d="M30.3477 108.318L44.98 122.566" stroke="#C46060" stroke-width="6" stroke-miterlimit="22.9256" stroke-linecap="round" stroke-linejoin="round"/>
<path d="M91.4678 108.318L76.8354 94.0699" stroke="#C46060" stroke-width="6" stroke-miterlimit="22.9256" stroke-linecap="round" stroke-linejoin="round"/>
<path d="M91.4678 108.318L76.8354 122.566" stroke="#C46060" stroke-width="6" stroke-miterlimit="22.9256" stroke-linecap="round" stroke-linejoin="round"/>
<path d="M164.296 154.636H175.807" stroke="#EDE7D9" stroke-width="6" stroke-miterlimit="22.9256" stroke-linecap="round" stroke-linejoin="round"/>
<path d="M164.296 194.402H175.807" stroke="#EDE7D9" stroke-width="6" stroke-miterlimit="22.9256" stroke-linecap="round" stroke-linejoin="round"/>
<path d="M186.272 154.636H218.713" stroke="#EDE7D9" stroke-width="6" stroke-miterlimit="22.9256" stroke-linecap="round" stroke-linejoin="round"/>
<path d="M186.272 194.402H188.365" stroke="#EDE7D9" stroke-width="6" stroke-miterlimit="22.9256" stroke-linecap="round" stroke-linejoin="round"/>
<path d="M164.296 234.168L218.713 234.168" stroke="#EDE7D9" stroke-width="6" stroke-miterlimit="22.9256" stroke-linecap="round" stroke-linejoin="round"/>
<path d="M229.177 154.636H240.689" stroke="#EDE7D9" stroke-width="6" stroke-miterlimit="22.9256" stroke-linecap="round" stroke-linejoin="round"/>
<path d="M198.83 194.402L240.689 194.402" stroke="#EDE7D9" stroke-width="6" stroke-miterlimit="22.9256" stroke-linecap="round" stroke-linejoin="round"/>
<path d="M229.177 234.168H240.689" stroke="#EDE7D9" stroke-width="6" stroke-miterlimit="22.9256" stroke-linecap="round" stroke-linejoin="round"/>
<path fill-rule="evenodd" clip-rule="evenodd" d="M22.5354 0H261.411C267.375 0.041325 273.083 2.42885 277.3 6.6461C281.517 10.8634 283.905 16.5714 283.946 22.5354V186.593C283.905 192.557 281.517 198.265 277.3 202.482C273.083 206.7 267.375 209.087 261.411 209.128H260.572V206.199H261.411C266.581 206.169 271.531 204.101 275.186 200.442C278.84 196.784 280.903 191.831 280.926 186.661V22.5354C280.879 17.3804 278.806 12.4509 275.154 8.81199C271.502 5.17303 266.566 3.11674 261.411 3.08736H22.5354C17.392 3.13437 12.4726 5.19845 8.83553 8.83556C5.19847 12.4726 3.13438 17.392 3.08735 22.5354V186.593C3.09306 191.764 5.13891 196.724 8.7804 200.395C12.4219 204.066 17.3648 206.151 22.5354 206.199H144.413V209.128H22.5354C16.5714 209.087 10.8634 206.7 6.64612 202.482C2.42884 198.265 0.041317 192.557 0 186.593V22.5354C0.041317 16.5714 2.42884 10.8634 6.64612 6.6461C10.8634 2.42885 16.5714 0.041325 22.5354 0ZM260.572 184.61H261.411C264.591 184.592 267.636 183.321 269.884 181.072C272.133 178.824 273.404 175.779 273.422 172.599V31.5495C273.41 28.3655 272.142 25.3149 269.892 23.0613C267.643 20.8077 264.595 19.5335 261.411 19.5157H22.5354C20.9597 19.5185 19.4 19.8325 17.9459 20.4396C16.4918 21.0467 15.1719 21.9351 14.0621 23.0537H14.1297C13.0104 24.1678 12.1218 25.4915 11.5147 26.9494C10.9076 28.4072 10.5939 29.9704 10.5916 31.5495V172.621C10.6151 175.786 11.8795 178.815 14.1131 181.057C16.3467 183.299 19.3709 184.575 22.5354 184.61H144.413V177.9H26.1618C21.5382 177.9 17.79 174.152 17.79 169.529V72.2066H265.804V169.529C265.804 173.042 263.64 176.05 260.572 177.292V184.61ZM123.945 30.8059H186.728C187.106 30.7602 187.453 30.578 187.705 30.2936C187.957 30.0091 188.096 29.6423 188.096 29.2622C188.096 28.8822 187.957 28.5153 187.705 28.2309C187.453 27.9465 187.106 27.7642 186.728 27.7186H123.945C123.726 27.6921 123.505 27.7123 123.295 27.7778C123.085 27.8433 122.891 27.9526 122.727 28.0985C122.562 28.2444 122.43 28.4236 122.34 28.6242C122.25 28.8248 122.203 29.0422 122.203 29.2622C122.203 29.4822 122.25 29.6997 122.34 29.9002C122.43 30.1009 122.562 30.28 122.727 30.4259C122.891 30.5718 123.085 30.6811 123.295 30.7466C123.505 30.8121 123.726 30.8323 123.945 30.8059ZM192.362 30.8059H195.157C195.375 30.8323 195.596 30.8121 195.806 30.7466C196.016 30.6811 196.21 30.5718 196.375 30.4259C196.539 30.28 196.671 30.1009 196.761 29.9002C196.852 29.6997 196.898 29.4822 196.898 29.2622C196.898 29.0422 196.852 28.8248 196.761 28.6242C196.671 28.4236 196.539 28.2444 196.375 28.0985C196.21 27.9526 196.016 27.8433 195.806 27.7778C195.596 27.7123 195.375 27.6921 195.157 27.7186H192.362C191.985 27.7642 191.637 27.9465 191.385 28.2309C191.133 28.5153 190.994 28.8822 190.994 29.2622C190.994 29.6423 191.133 30.0091 191.385 30.2936C191.637 30.578 191.985 30.7602 192.362 30.8059ZM215.438 42.0736H227.315C227.52 41.2634 227.941 40.5238 228.531 39.9327C229.414 39.0597 230.603 38.5663 231.844 38.5581H255.935C257.17 38.5625 258.353 39.0569 259.225 39.9327C259.819 40.5162 260.246 41.2474 260.464 42.051H271.056V31.5495C271.015 29.0056 269.979 26.579 268.171 24.789C266.381 22.9873 263.951 21.9666 261.411 21.9495H215.438V42.0736ZM227.315 44.3271H215.438V64.609H271.056V44.3271H260.464C260.247 45.1376 259.819 45.8762 259.225 46.468C258.799 46.9089 258.287 47.2582 257.721 47.4945C257.156 47.7309 256.548 47.8494 255.935 47.8427H231.844C230.634 47.8421 229.472 47.3737 228.599 46.5356C228.003 45.9487 227.581 45.2075 227.382 44.3948L227.315 44.3271ZM213.117 64.609V21.8368H70.8513V64.5189L213.117 64.609ZM68.5301 44.3271H56.654C56.455 45.1399 56.0336 45.8812 55.4371 46.468C54.5741 47.3068 53.418 47.7757 52.2145 47.775H28.034C27.4333 47.7845 26.8368 47.6737 26.2795 47.4492C25.7222 47.2248 25.2154 46.8912 24.7889 46.468C24.1924 45.8812 23.7711 45.1399 23.572 44.3271H12.9128V64.609H68.5301V44.3271ZM56.654 42.0736H68.5301V21.7917H22.5354C19.9691 21.8214 17.5184 22.8633 15.7163 24.6907C13.9142 26.518 12.9067 28.9831 12.9128 31.5495V42.0285H23.527C23.7325 41.2184 24.1529 40.4787 24.7439 39.8876C25.6133 39.0588 26.7653 38.5915 27.9664 38.5806H52.0793C53.3138 38.5899 54.4953 39.0836 55.3695 39.9553C55.9624 40.5359 56.3835 41.2689 56.5864 42.0736H56.654Z" fill="#419586"/>
<path fill-rule="evenodd" clip-rule="evenodd" d="M227.869 89.0557C228.077 88.5782 228.258 88.0892 228.41 87.5909C229.685 85.5696 231.198 83.7085 232.917 82.0472C233.413 81.5289 234.607 80.5598 234.629 79.7936C233.998 79.3655 233.953 79.4782 233.39 80.019C232.827 80.5599 233.052 80.2669 232.804 80.4922C231.272 81.7317 227.305 85.9909 227.305 87.9965C227.305 88.4472 227.328 89.0331 227.869 89.0557Z" fill="#419586"/>
<path fill-rule="evenodd" clip-rule="evenodd" d="M172.024 166.148C172.173 165.833 172.302 165.51 172.41 165.182C173.322 163.849 174.403 162.622 175.63 161.527C175.985 161.185 176.838 160.546 176.854 160.041C176.403 159.759 176.371 159.833 175.968 160.19C175.566 160.546 175.727 160.353 175.55 160.502C174.455 161.319 171.622 164.127 171.622 165.449C171.622 165.746 171.638 166.133 172.024 166.148Z" fill="#419586"/>
<path fill-rule="evenodd" clip-rule="evenodd" d="M240.985 87.3881C241.525 87.3881 241.954 86.2839 242.247 85.6754C243.599 82.9486 246.213 81.9796 245.965 80.2895C245.311 80.2895 244.568 81.236 244.207 81.5965C243.373 82.4078 242.968 82.5205 242.494 82.9712C242.021 83.4219 240.399 86.4191 240.985 87.3881Z" fill="#419586"/>
<path fill-rule="evenodd" clip-rule="evenodd" d="M229.303 188.943C229.844 188.943 230.272 187.839 230.565 187.231C231.918 184.504 234.532 183.535 234.284 181.845C233.63 181.845 232.887 182.791 232.526 183.152C231.692 183.963 231.287 184.076 230.813 184.526C230.34 184.977 228.717 187.974 229.303 188.943Z" fill="#419586"/>
<path fill-rule="evenodd" clip-rule="evenodd" d="M178.87 227.889C178.538 227.889 178.276 227.238 178.096 226.88C177.268 225.272 175.666 224.7 175.817 223.704C176.218 223.704 176.674 224.262 176.895 224.474C177.406 224.953 177.654 225.019 177.944 225.285C178.234 225.551 179.229 227.318 178.87 227.889Z" fill="#419586"/>
<path fill-rule="evenodd" clip-rule="evenodd" d="M251.868 80.7401C251.035 80.6049 249.908 82.25 249.187 82.9936C248.758 83.4669 246.933 85.7204 247.406 86.1711C247.88 86.6218 248.736 85.4951 248.939 85.2922L251.192 82.3852C251.643 82.0246 252.206 81.3936 251.868 80.7401Z" fill="#419586"/>
<path fill-rule="evenodd" clip-rule="evenodd" d="M240.187 182.295C239.354 182.16 238.227 183.805 237.506 184.549C237.078 185.022 235.252 187.276 235.725 187.726C236.199 188.177 237.055 187.05 237.258 186.847L239.511 183.94C239.962 183.58 240.525 182.949 240.187 182.295Z" fill="#419586"/>
<path fill-rule="evenodd" clip-rule="evenodd" d="M170.668 222.664C171.42 222.537 172.436 224.089 173.086 224.791C173.472 225.238 175.118 227.365 174.691 227.79C174.264 228.215 173.492 227.152 173.309 226.96L171.278 224.217C170.871 223.877 170.363 223.281 170.668 222.664Z" fill="#419586"/>
<path fill-rule="evenodd" clip-rule="evenodd" d="M215.97 83.2192C216.331 82.3403 215.61 82.16 215.114 82.6558C214.124 83.8908 213.256 85.2191 212.523 86.622C212.207 87.5009 212.793 87.7263 213.379 87.1629C214.378 85.9426 215.247 84.6208 215.97 83.2192Z" fill="#419586"/>
<path fill-rule="evenodd" clip-rule="evenodd" d="M164.693 161.75C165.054 160.871 164.333 160.691 163.837 161.187C162.846 162.422 161.978 163.75 161.245 165.153C160.93 166.032 161.516 166.257 162.102 165.694C163.101 164.474 163.97 163.152 164.693 161.75Z" fill="#419586"/>
<path fill-rule="evenodd" clip-rule="evenodd" d="M219.057 87.3655C219.711 87.5909 219.981 87.2303 220.364 86.8472C220.747 86.4641 223.361 83.85 223.068 83.1289C222.775 82.4077 220.544 84.8641 220.184 85.3824C220.008 85.5602 219.842 85.7483 219.688 85.9458C219.492 86.127 219.334 86.3463 219.226 86.5905C219.117 86.8346 219.06 87.0984 219.057 87.3655Z" fill="#419586"/>
<path fill-rule="evenodd" clip-rule="evenodd" d="M165.343 165.283C165.996 165.509 166.267 165.148 166.65 164.765C167.033 164.382 169.647 161.768 169.354 161.047C169.061 160.326 166.83 162.782 166.47 163.3C166.293 163.478 166.128 163.666 165.974 163.864C165.777 164.045 165.62 164.264 165.512 164.508C165.403 164.752 165.346 165.016 165.343 165.283Z" fill="#419586"/>
<path fill-rule="evenodd" clip-rule="evenodd" d="M251.261 86.419C251.982 86.6895 252.23 86.2162 252.681 85.8782C253.066 85.5918 253.42 85.2671 253.74 84.9092C254.081 84.5808 254.404 84.2348 254.709 83.8725C254.889 83.6246 255.565 82.9711 255.205 82.588C254.844 82.2049 254.033 82.9035 253.83 83.1063C253.627 83.3091 253.199 83.6246 252.771 84.0528C252.343 84.481 251.126 85.5627 251.261 86.419Z" fill="#419586"/>
<path fill-rule="evenodd" clip-rule="evenodd" d="M240.699 188.928C241.42 189.198 241.668 188.725 242.119 188.387C242.504 188.101 242.859 187.776 243.178 187.418C243.519 187.09 243.842 186.744 244.147 186.381C244.327 186.134 245.003 185.48 244.643 185.097C244.282 184.714 243.471 185.412 243.268 185.615C243.065 185.818 242.637 186.134 242.209 186.562C241.781 186.99 240.564 188.072 240.699 188.928Z" fill="#419586"/>
<path fill-rule="evenodd" clip-rule="evenodd" d="M170.567 226.78C170.009 226.991 169.818 226.622 169.469 226.359C169.171 226.135 168.897 225.882 168.65 225.602C168.386 225.346 168.136 225.076 167.9 224.794C167.76 224.6 167.238 224.09 167.516 223.792C167.795 223.493 168.423 224.038 168.58 224.196C168.737 224.354 169.068 224.6 169.399 224.934C169.73 225.268 170.672 226.112 170.567 226.78Z" fill="#419586"/>
<path fill-rule="evenodd" clip-rule="evenodd" d="M236.297 83.6021C235.395 83.3317 235.26 83.85 234.854 84.6162C234.629 85.0218 233.953 86.2612 234.268 86.712C234.584 87.1627 235.485 86.1035 235.711 85.6979C236.14 85.0867 236.347 84.3471 236.297 83.6021Z" fill="#419586"/>
<path fill-rule="evenodd" clip-rule="evenodd" d="M178.965 162.034C178.063 161.764 177.928 162.282 177.522 163.048C177.297 163.454 176.621 164.693 176.936 165.144C177.252 165.595 178.153 164.536 178.379 164.13C178.808 163.519 179.014 162.779 178.965 162.034Z" fill="#419586"/>
</svg>
