<svg width="89" height="32" viewBox="0 0 89 32" fill="none" xmlns="http://www.w3.org/2000/svg">
<path fill-rule="evenodd" clip-rule="evenodd" d="M5.50276 15.5176C5.48756 18.4076 7.6067 20.1305 10.9884 19.3472V11.6881C7.56395 10.6452 5.51708 12.7551 5.50276 15.5176ZM11.0919 0.61322H15.7494V22.6592C11.285 23.3891 7.00913 23.8521 3.95023 22.1417C0.0116088 19.9396 -0.305026 12.9417 2.81161 9.82496C4.39179 8.24489 7.57298 7.13249 10.9884 7.8584V0.923797C10.9795 0.776827 10.9712 0.630516 11.0919 0.61322Z" fill="#192533"/>
<path fill-rule="evenodd" clip-rule="evenodd" d="M23.3055 5.47772H18.6479V0.613113H23.3055V5.47772Z" fill="#192533"/>
<path fill-rule="evenodd" clip-rule="evenodd" d="M79.1966 19.5541C84.274 21.5273 84.8358 10.4659 79.7142 11.4809C76.5335 12.1113 76.6357 18.5589 79.1966 19.5541ZM79.4036 7.65133C83.2811 7.23675 86.2063 8.94782 87.3734 11.5844C89.3646 16.0831 87.2639 21.245 84.0613 22.7627C82.4015 23.5494 80.6634 23.6243 79.0931 23.4872C74.2397 23.0639 71.1787 18.1177 72.883 12.6194C73.1497 11.7588 73.4494 11.2324 73.6076 10.9634C74.6626 9.1696 76.4437 7.96785 79.4036 7.65133Z" fill="#192533"/>
<path fill-rule="evenodd" clip-rule="evenodd" d="M29.7226 17.7945C28.4344 19.9595 31.6711 20.4781 33.759 19.8646V16.656C32.1547 16.8799 30.3286 16.7757 29.7226 17.7945ZM37.8992 22.8661C34.0518 23.0874 28.2048 24.398 26.0999 21.8311C24.8634 20.3229 24.9964 17.4462 26.0999 16.0349C27.5261 14.2114 30.6393 13.8137 33.4486 13.5509C33.7036 12.9229 33.5316 11.9012 33.2416 11.4807C30.6719 10.8262 28.1188 11.8404 26.3071 12.6192V8.99675C29.0435 7.73948 35.3819 6.41567 37.2782 9.30722C38.2742 10.8259 37.8992 13.4746 37.8992 15.8278V22.8661Z" fill="#192533"/>
<path fill-rule="evenodd" clip-rule="evenodd" d="M54.2522 23.0732H49.5946V17.0699C49.5946 15.0934 49.9143 12.5871 48.8699 11.7913C48.052 11.1677 46.1115 11.4806 44.937 11.7913V23.0732H40.2793V8.68624C45.0406 7.44946 53.6349 6.12344 54.2522 12.1018C54.5566 15.0493 54.0267 19.4714 54.2522 23.0732Z" fill="#192533"/>
<path fill-rule="evenodd" clip-rule="evenodd" d="M61.1871 18.1049C61.9708 19.3729 64.0932 19.8484 65.8446 19.0364C65.7484 16.614 65.7148 14.1291 65.7411 11.5842C61.7159 10.5207 59.317 15.08 61.1871 18.1049ZM72.8828 8.27221C72.4683 9.51373 71.8616 10.5629 71.3303 11.6878C70.8503 11.7954 70.4343 11.497 70.1917 11.6878C70.0855 16.7331 71.2662 23.5728 69.2602 27.2131C68.0524 29.4048 65.8287 30.8109 62.429 31.0427C59.9525 31.2116 58.0303 30.8069 56.2189 30.1112V25.7641C58.3436 27.0046 63.7123 28.016 65.2236 25.4535C65.6683 24.6996 65.6401 23.9204 65.8446 22.7625C64.8715 22.8136 63.9269 23.2642 62.7396 23.2801C57.8583 23.3448 54.8384 19.4581 56.0119 14.0682C56.4658 11.9833 57.6874 10.3047 59.3241 9.30716C62.7233 7.23539 67.9484 7.39271 72.8828 8.27221Z" fill="#192533"/>
<path fill-rule="evenodd" clip-rule="evenodd" d="M23.3049 7.94107C23.2997 11.3708 23.3004 13.8353 23.3001 18.002C23.1022 22.0967 23.1483 25.3575 21.649 27.3168C21.3533 27.7031 20.7253 28.2668 20.1999 28.6624C19.7586 28.9946 18.9177 29.6681 18.4403 29.6975C17.9591 29.727 16.7228 29.0294 16.1632 28.7658C15.4285 28.4198 14.7493 27.9603 13.9897 27.7309C15.7614 26.633 17.4432 25.81 18.1298 23.5908C18.7269 21.6608 18.6473 18.8641 18.6473 16.1386C18.6473 13.4473 18.6594 10.3185 18.6594 7.94229L23.3049 7.94107Z" fill="#192533"/>
</svg>
