<svg width="66" height="59" viewBox="0 0 66 59" fill="none" xmlns="http://www.w3.org/2000/svg">
<g style="mix-blend-mode:luminosity" clip-path="url(#clip0_425_12123)">
<path d="M20.9334 49.0089L9.39355 29.0221L20.9334 9.0351H44.0121L55.5518 29.0221L44.0119 49.0089H20.9334Z" fill="#CAC9C2"/>
<path d="M32.8584 38.1454C27.8986 38.1454 23.8638 34.1103 23.8638 29.1506C23.8638 24.191 27.8986 20.1562 32.8584 20.1562C37.8179 20.1562 41.8528 24.191 41.8528 29.1506C41.8528 34.1103 37.8179 38.1454 32.8584 38.1454Z" fill="white"/>
<path d="M50.9534 2.33451C50.246 1.10965 48.5101 0.107681 47.096 0.107681H18.659C17.2446 0.107681 15.5087 1.10991 14.8018 2.33451L6.49253 16.7267C6.42731 17.6566 6.59781 18.6277 7.00789 19.3375L12.6325 28.954L22.673 11.608H54.4089C55.1598 11.608 56 11.8923 56.7303 12.3401L50.9534 2.33451Z" fill="#5072AA"/>
<path d="M6.85369 16.0967L6.49009 16.7266C6.42486 17.6564 6.59537 18.6275 7.0052 19.3373L12.6298 28.9538L15.6224 23.7845L6.85369 16.0967Z" fill="#4D6796"/>
<path d="M19.3921 7.50126C18.932 7.50071 18.4909 7.31771 18.1656 6.99238C17.8403 6.66706 17.6573 6.22598 17.6567 5.76591C17.6573 5.30583 17.8403 4.86476 18.1656 4.53943C18.4909 4.21411 18.932 4.03111 19.3921 4.03056C19.8522 4.03097 20.2934 4.21392 20.6188 4.53927C20.9442 4.86461 21.1272 5.30577 21.1277 5.76591C21.1271 6.22603 20.9441 6.66714 20.6187 6.99247C20.2933 7.3178 19.8522 7.50078 19.3921 7.50126ZM47.8289 5.76591C47.8315 5.97863 47.792 6.18977 47.7124 6.38707C47.6329 6.58438 47.5149 6.76393 47.3655 6.91531C47.216 7.06668 47.038 7.18687 46.8417 7.2689C46.6454 7.35093 46.4348 7.39318 46.222 7.39318C46.0093 7.39318 45.7987 7.35093 45.6024 7.2689C45.4061 7.18687 45.2281 7.06668 45.0786 6.91531C44.9291 6.76393 44.8112 6.58438 44.7316 6.38707C44.6521 6.18977 44.6125 5.97863 44.6152 5.76591C44.6205 5.34327 44.7922 4.93975 45.0929 4.64277C45.3937 4.3458 45.7994 4.17927 46.222 4.17927C46.6447 4.17927 47.0504 4.3458 47.3511 4.64277C47.6519 4.93975 47.8235 5.34327 47.8289 5.76591Z" fill="white"/>
<path d="M65.172 26.962L56.7302 12.3397C56 11.8918 55.1598 11.6078 54.4089 11.6078H42.9646L52.8603 29.0496L37.1933 56.7294C36.8485 57.3261 36.2589 57.8692 35.582 58.2701H47.096C48.5103 58.2701 50.2462 57.2679 50.9534 56.0433L65.172 31.4159C65.8795 30.191 65.8795 28.1868 65.172 26.962Z" fill="#CC4232"/>
<path d="M57.1114 12.9958L56.7329 12.3397C56.0032 11.8919 55.163 11.6079 54.4121 11.6079H42.9678L45.9465 16.8584L57.1114 12.9958Z" fill="#B23F33"/>
<path d="M46.2222 54.0162C45.762 54.0157 45.3209 53.8326 44.9956 53.5073C44.6703 53.1819 44.4873 52.7407 44.4868 52.2806C44.4874 51.8205 44.6704 51.3795 44.9957 51.0541C45.321 50.7288 45.7621 50.5458 46.2222 50.5453C46.6823 50.5457 47.1234 50.7287 47.4488 51.054C47.7742 51.3794 47.9572 51.8205 47.9578 52.2806C47.9573 52.7408 47.7743 53.182 47.4489 53.5073C47.1235 53.8327 46.6823 54.0157 46.2222 54.0162ZM59.728 30.8861C59.2678 30.8857 58.8266 30.7027 58.5012 30.3773C58.1759 30.0519 57.9928 29.6107 57.9924 29.1505C57.9929 28.6904 58.176 28.2493 58.5013 27.924C58.8267 27.5986 59.2679 27.4157 59.728 27.4152C60.188 27.4157 60.6291 27.5987 60.9544 27.9241C61.2798 28.2494 61.4628 28.6905 61.4633 29.1505C61.4629 29.6107 61.28 30.0519 60.9546 30.3773C60.6293 30.7026 60.1881 30.8857 59.728 30.8861Z" fill="white"/>
<path d="M22.8913 46.4946L7.00737 19.3372C6.59754 18.6274 6.42704 17.6563 6.492 16.7264L0.582633 26.9618C-0.12455 28.1867 -0.12455 30.1909 0.582633 31.4158L14.8013 56.0431C15.5082 57.2677 17.2441 58.2697 18.6584 58.2697H35.5815C36.2584 57.8691 36.848 57.326 37.1928 56.729L42.9856 46.4944H22.8913" fill="#ECB02A"/>
<path d="M34.6196 58.27H35.6039C36.281 57.8694 36.8703 57.3263 37.2149 56.7293L43.008 46.4947H36.839L34.6196 58.27Z" fill="#C79732"/>
<path d="M19.3918 54.0164C18.9316 54.0159 18.4905 53.8328 18.1652 53.5075C17.8399 53.1821 17.6569 52.7409 17.6564 52.2808C17.657 51.8207 17.84 51.3797 18.1653 51.0543C18.4906 50.729 18.9317 50.546 19.3918 50.5455C19.8519 50.5459 20.2931 50.7288 20.6185 51.0542C20.9439 51.3795 21.1269 51.8207 21.1274 52.2808C21.127 52.741 20.944 53.1822 20.6186 53.5076C20.2932 53.833 19.8519 54.016 19.3918 54.0164ZM5.86207 30.8864C5.4019 30.8859 4.96072 30.7029 4.63534 30.3775C4.30995 30.0521 4.12694 29.6109 4.12646 29.1508C4.12701 28.6906 4.31005 28.2495 4.63543 27.9242C4.9608 27.5989 5.40195 27.4159 5.86207 27.4154C6.32214 27.4159 6.76322 27.599 7.08854 27.9243C7.41386 28.2496 7.59687 28.6907 7.59741 29.1508C7.59694 29.6109 7.41396 30.052 7.08863 30.3774C6.7633 30.7028 6.32219 30.8858 5.86207 30.8864Z" fill="white"/>
</g>
<defs>
<clipPath id="clip0_425_12123">
<rect width="65.7367" height="58.2953" fill="white" transform="translate(-0.00927734 0.0962524)"/>
</clipPath>
</defs>
</svg>
