<svg width="62" height="69" viewBox="0 0 62 69" fill="none" xmlns="http://www.w3.org/2000/svg">
<g style="mix-blend-mode:luminosity">
<path fill-rule="evenodd" clip-rule="evenodd" d="M61.5786 61.3964H54.1409V53.6931H56.4652V59.6035H61.5786V61.3964ZM12.7726 28.5776C13.8871 26.742 14.5964 25.412 15.9913 23.6952C16.9754 22.4839 19.2098 20.1107 20.9403 20.1107C21.4873 20.1107 22.1357 20.5874 22.1357 21.1068V32.7946C22.1232 34.1791 20.4956 34.0099 19.6785 33.7243C20.0457 34.4181 21.1303 35.3805 21.728 35.8585C24.3175 37.9293 27.765 38.7484 30.978 39.2047L34.4584 35.509C34.6581 35.6369 37.6544 38.1764 37.7415 38.3064C41.2827 36.2935 44.9141 31.9417 46.4408 28.478C45.8728 28.8585 44.895 30.2402 42.9003 31.3126C42.0264 31.7824 40.5535 32.1887 39.9084 31.189C39.9084 26.6549 39.6821 21.9906 39.8618 17.5161C39.88 17.0649 40.1448 16.7301 40.3391 16.4203C41.2717 14.9337 42.4385 13.5606 43.5228 12.1912C43.7624 11.8887 43.9454 11.6972 44.1913 11.3739C40.1267 12.2145 37.6551 13.9277 35.3668 15.943C35.1996 16.1124 35.074 16.266 34.886 16.3919C33.8676 15.853 33.2664 15.7942 31.9641 15.7942C32.8336 16.5099 33.4094 17.1536 33.7053 18.3029C33.9802 19.3704 33.8234 21.1941 33.8234 22.5014V31.068C33.3889 31.184 30.5275 34.0448 28.5994 32.1166C28.0404 31.5576 28.1352 31.3454 28.1352 30.3022L28.0688 16.5703C27.9235 16.6448 27.4889 16.9571 26.9635 16.7165C26.1048 16.3232 26.1658 14.8777 26.1658 14.08C26.1658 13.2195 26.9293 12.0301 27.3579 11.5533C28.4812 10.3039 28.4162 10.4936 29.2799 9.88665C28.6718 9.93723 26.6977 10.7463 26.1481 10.9744C22.444 12.5108 16.8021 17.4197 14.3052 21.9478C13.099 24.1352 12.5442 26.4511 12.7726 28.5776ZM30.5909 48.4944C43.8174 48.4944 54.5397 37.7722 54.5397 24.5457C54.5397 11.3191 43.8174 0.596848 30.5909 0.596848C17.3644 0.596848 6.64215 11.3191 6.64215 24.5457C6.64215 37.7722 17.3644 48.4944 30.5909 48.4944ZM30.5909 45.3821C42.0985 45.3821 51.4273 36.0532 51.4273 24.5457C51.4273 13.038 42.0985 3.70924 30.5909 3.70924C19.0833 3.70924 9.75449 13.038 9.75449 24.5457C9.75449 36.0532 19.0833 45.3821 30.5909 45.3821ZM4.63388 61.4708C2.81095 61.4579 -0.0478516 61.6149 -0.0478516 59.1066V53.6931H2.27639V58.1264C2.27639 59.1891 2.46751 59.679 3.91205 59.679H5.48853C6.93307 59.679 7.12419 59.1891 7.12419 58.1264V53.6931H9.44843V59.1066C9.44843 61.6148 6.58969 61.4579 4.7667 61.4708H4.63388ZM21.1362 61.3964H17.683L13.2337 55.6606V61.3964H10.9758V53.6931H14.4955L18.8784 59.3434V53.6931H21.1362V61.3964ZM31.854 61.3964H29.5701V60.6457C29.5701 59.7036 29.3462 59.2657 27.7318 59.2678L24.99 59.2714V61.3964H22.6636V53.6931H28.7019C31.3034 53.6931 31.862 54.1865 31.8513 56.352C31.843 58.0417 30.995 58.1853 30.3625 58.3401C31.7408 58.4782 31.8333 59.0447 31.8423 60.0661L31.854 61.3964ZM24.99 57.5448H28.3083C29.3167 57.5448 29.5058 57.2304 29.507 56.7615L29.508 56.3726C29.5098 55.6962 29.3214 55.4197 28.2633 55.4197H24.99V57.5448ZM33.2889 61.3964V53.6931H41.5899V55.4197H35.5468V56.6815H41.2578V58.3417H35.5468V59.6035H41.7226V61.3964H33.2889ZM50.0803 60.0019H45.3823L44.6669 61.3964H42.1765L46.3022 53.6931C47.2514 53.6857 48.2112 53.6857 49.1603 53.6931L53.286 61.3964H50.7957L50.0803 60.0019ZM47.7313 55.4233L46.234 58.3417H49.2285L47.7313 55.4233ZM42.2722 68.3693V63.8536H47.1383V64.8657H43.5958V65.6053H46.9437V66.5786H43.5958V67.3182H47.2162V68.3693H42.2722ZM14.3146 68.3693V63.8536H19.1806V64.8657H15.6382V65.6053H18.986V66.5786H15.6382V67.3182H19.2585V68.3693H14.3146ZM25.9153 68.3693H23.8911L21.2828 65.0069V68.3693H19.9592V63.8536H22.0225L24.5917 67.1657V63.8536H25.9153V68.3693ZM28.6454 63.7824H30.5823C32.269 63.7824 32.3735 64.5602 32.3762 65.3809H31.0493V65.3661C31.0493 65.0727 30.8695 64.8335 30.3853 64.8335H28.9109C28.3255 64.8335 28.0542 65.1587 28.0542 65.5574V66.5428C28.0542 67.0871 28.2745 67.3323 29.373 67.3323H30.387C30.8599 67.3323 31.1203 67.1103 31.1203 66.6427H29.3891V65.7794H32.4483C32.4535 67.6214 32.5848 68.3834 30.254 68.3834H29.2367C27.8785 68.3834 26.7306 68.396 26.7306 66.6661V65.4719C26.7306 65.0027 26.8678 64.4999 27.0927 64.2501C27.351 63.9633 27.9132 63.7824 28.6454 63.7824ZM34.569 68.3693H33.1744V63.8536H34.569V68.3693ZM41.3884 68.3693H39.3641L36.7558 65.0069V68.3693H35.4322V63.8536H37.4955L40.0648 67.1657V63.8536H41.3884V68.3693Z" fill="#192533"/>
</g>
</svg>
