<svg width="88" height="54" viewBox="0 0 88 54" fill="none" xmlns="http://www.w3.org/2000/svg">
<path d="M21.1133 14.5654H37.6059V15.8763H22.6251V25.7422H36.7125V27.053H22.6251V37.8848H37.7777V39.1956H21.1133V14.5654ZM39.0833 14.5654H40.8357L48.6009 25.3972L56.5379 14.5654L67.3336 0.80661L49.5973 26.5356L58.7369 39.1956H56.9159L48.6009 27.6739L40.2515 39.1956H38.4648L47.6732 26.5356L39.0833 14.5654ZM59.3898 15.8763V14.5654H78.1844V15.8763H69.5258V39.1956H68.014V15.8763H59.3898ZM0.480469 14.5654H2.37024L28.4291 53.56L17.6602 39.1956L2.061 16.4282L1.99229 39.1956H0.480469V14.5654ZM78.0321 37.4892C77.7232 37.4892 77.4915 37.2499 77.4915 36.9406C77.4915 36.6313 77.7232 36.392 78.0321 36.392C78.3446 36.392 78.5726 36.6313 78.5726 36.9406C78.5726 37.2499 78.3446 37.4892 78.0321 37.4892ZM79.5176 36.0459H80.3266C80.3376 36.484 80.6575 36.7786 81.1282 36.7786C81.654 36.7786 81.9518 36.4619 81.9518 35.8692V32.1136H82.7755V35.8728C82.7755 36.9406 82.1578 37.5555 81.1355 37.5555C80.1758 37.5555 79.5176 36.959 79.5176 36.0459ZM83.8529 35.998H84.6692C84.7391 36.5024 85.2318 36.8228 85.9415 36.8228C86.6033 36.8228 87.0887 36.4803 87.0887 36.0091C87.0887 35.6041 86.7798 35.3611 86.0775 35.1954L85.3936 35.0297C84.4339 34.8051 83.9963 34.3412 83.9963 33.5606C83.9963 32.6144 84.7685 31.9848 85.9268 31.9848C87.0041 31.9848 87.791 32.6144 87.8388 33.5091H87.0372C86.96 33.0194 86.5335 32.7138 85.9157 32.7138C85.2649 32.7138 84.831 33.0267 84.831 33.5054C84.831 33.8846 85.1105 34.1019 85.8017 34.2639L86.3864 34.4074C87.4748 34.6615 87.9234 35.1033 87.9234 35.9023C87.9234 36.9185 87.1365 37.5555 85.879 37.5555C84.7023 37.5555 83.9117 36.9479 83.8529 35.998Z" fill="#192533"/>
</svg>
