<svg width="88" height="55" viewBox="0 0 88 55" fill="none" xmlns="http://www.w3.org/2000/svg">
<g style="mix-blend-mode:luminosity">
<path d="M43.3892 54.4519C43.1006 54.4519 42.814 54.3762 42.561 54.2305L39.9247 52.6697C39.5309 52.4495 39.723 52.3716 39.8529 52.3267C40.3779 52.1429 40.4845 52.1014 41.0448 51.7831C41.1038 51.7495 41.1808 51.7614 41.2411 51.797L43.2664 52.9988C43.3396 53.0384 43.4434 53.0384 43.5112 52.9988L51.408 48.4406C51.4812 48.3991 51.5286 48.3141 51.5286 48.2271V39.1145C51.5286 39.0236 51.4812 38.9426 51.4065 38.8971L43.5127 34.3428C43.4396 34.2993 43.3428 34.2993 43.2696 34.3428L35.3775 38.8971C35.301 38.9406 35.2523 39.0256 35.2523 39.1126V48.2251C35.2523 48.3121 35.2998 48.3951 35.3749 48.4366L37.5374 49.6859C38.7116 50.273 39.4291 49.5811 39.4291 48.8853V39.8914C39.4291 39.7629 39.5299 39.664 39.6584 39.664H40.6586C40.7831 39.664 40.8859 39.7629 40.8859 39.8914V48.8893C40.8859 50.4548 40.032 51.3542 38.5475 51.3542C38.0909 51.3542 37.7311 51.3542 36.727 50.86L34.6554 49.6661C34.1434 49.3696 33.8271 48.8161 33.8271 48.2251V39.1126C33.8271 38.5195 34.1434 37.9661 34.6554 37.6735L42.5602 33.1133C43.0603 32.8306 43.7244 32.8306 44.2206 33.1133L52.1155 37.6755C52.6255 37.97 52.9437 38.5215 52.9437 39.1145V48.2271C52.9437 48.8181 52.6255 49.3696 52.1155 49.6661L44.2206 54.2263C43.9676 54.3726 43.681 54.4477 43.3884 54.4477" fill="#689F63"/>
<path d="M45.8282 48.1727C42.3729 48.1727 41.6484 46.5866 41.6484 45.2563C41.6484 45.1298 41.7504 45.029 41.8771 45.029H42.8971C43.0098 45.029 43.1047 45.111 43.1225 45.2223C43.2766 46.2617 43.7352 46.7859 45.8246 46.7859C47.489 46.7859 48.1966 46.4099 48.1966 45.5273C48.1966 45.0193 47.995 44.6418 45.4095 44.3888C43.247 44.1753 41.9107 43.6989 41.9107 41.9693C41.9107 40.3761 43.2549 39.4273 45.5063 39.4273C48.0345 39.4273 49.2878 40.3049 49.4459 42.1907C49.4518 42.2559 49.4281 42.3192 49.3846 42.3666C49.3411 42.4121 49.2799 42.4397 49.2166 42.4397H48.1907C48.084 42.4397 47.9911 42.3646 47.9693 42.2618C47.7222 41.1687 47.1253 40.8188 45.5024 40.8188C43.6858 40.8188 43.4743 41.4514 43.4743 41.9258C43.4743 42.501 43.7234 42.669 46.1745 42.9932C48.6018 43.3154 49.7543 43.77 49.7543 45.4759C49.7543 47.1957 48.3192 48.182 45.8167 48.182M55.4353 38.518H55.7001C55.9176 38.518 55.9591 38.3658 55.9591 38.2768C55.9591 38.0436 55.799 38.0436 55.71 38.0436H55.4373L55.4353 38.518ZM55.1131 37.7708H55.7001C55.9018 37.7708 56.2971 37.7708 56.2971 38.2215C56.2971 38.5358 56.0955 38.601 55.9749 38.6405C56.2101 38.6563 56.226 38.8105 56.2576 39.028C56.2734 39.1644 56.2991 39.3996 56.3465 39.4786H55.9848C55.9749 39.3996 55.9196 38.9647 55.9196 38.941C55.8958 38.8441 55.8622 38.7967 55.7417 38.7967H55.4432V39.4806H55.1131V37.7708ZM54.4074 38.6208C54.4074 39.3284 54.9787 39.9017 55.6804 39.9017C56.388 39.9017 56.9593 39.3166 56.9593 38.6208C56.9593 37.9111 56.3801 37.3478 55.6784 37.3478C54.9866 37.3478 54.4054 37.9032 54.4054 38.6188M57.2044 38.6247C57.2044 39.4628 56.5185 40.1468 55.6824 40.1468C54.8521 40.1468 54.1603 39.4707 54.1603 38.6247C54.1603 37.7629 54.868 37.1027 55.6824 37.1027C56.5027 37.1027 57.2024 37.7649 57.2024 38.6247" fill="#689F63"/>
<path fill-rule="evenodd" clip-rule="evenodd" d="M18.9349 18.7962C18.9349 18.4325 18.7431 18.0985 18.4292 17.9176L10.0568 13.1004C9.91542 13.0174 9.75709 12.9739 9.59658 12.968H9.51C9.3495 12.9739 9.19116 13.0174 9.04746 13.1004L0.675374 17.9176C0.363452 18.0995 0.168945 18.4335 0.168945 18.7972L0.187329 31.7722C0.187329 31.9521 0.280233 32.1201 0.438368 32.2091C0.592551 32.304 0.786266 32.304 0.940448 32.2091L5.91776 29.3587C6.23205 29.1717 6.42379 28.8412 6.42379 28.4811V22.4195C6.42379 22.0578 6.61553 21.7237 6.92884 21.5438L9.04785 20.3234C9.2052 20.2325 9.37796 20.1874 9.55389 20.1874C9.72704 20.1874 9.90376 20.2321 10.0568 20.3232L12.1748 21.5433C12.4883 21.7231 12.6808 22.0572 12.6808 22.4189V28.4801C12.6808 28.8398 12.8751 29.1719 13.1878 29.3577L18.162 32.2061C18.3181 32.299 18.5125 32.299 18.668 32.2061C18.8214 32.1172 18.9187 31.9492 18.9187 31.7693L18.9349 18.7962ZM58.4426 25.5518C58.4426 25.6421 58.3946 25.7257 58.3161 25.7704L55.4404 27.4281C55.3624 27.4729 55.2659 27.4729 55.188 27.4281L52.3119 25.7704C52.2329 25.7255 52.1854 25.6419 52.1854 25.5518V22.2317C52.1854 22.1412 52.2328 22.0578 52.3099 22.0123L55.1841 20.3519C55.2631 20.3064 55.36 20.3064 55.439 20.3519L58.3151 22.0123C58.3942 22.0578 58.4416 22.1412 58.4416 22.2317L58.4426 25.5518ZM59.2195 0.961341C59.0625 0.873971 58.8716 0.876343 58.7166 0.966678C58.5624 1.05761 58.4671 1.22365 58.4671 1.40353V14.252C58.4671 14.3785 58.3999 14.4952 58.2904 14.5584C58.1817 14.6217 58.0463 14.6217 57.9366 14.5584L55.8393 13.3505C55.527 13.1698 55.1423 13.1698 54.8288 13.3505L46.4536 18.1841C46.1407 18.3639 45.9476 18.698 45.9476 19.0578V28.7277C45.9476 29.0895 46.1407 29.4216 46.4536 29.6034L54.8288 34.4404C55.1416 34.6203 55.5266 34.6203 55.8403 34.4404L64.2156 29.6014C64.5279 29.4196 64.7216 29.0875 64.7216 28.7258V4.62593C64.7216 4.25906 64.5219 3.92164 64.2017 3.74235L59.2195 0.961341ZM87.1092 22.1444C87.4203 21.9637 87.6119 21.63 87.6119 21.2703V18.9267C87.6119 18.5662 87.4202 18.2335 87.1084 18.052L78.7866 13.221C78.4723 13.0391 78.0868 13.0391 77.7725 13.221L69.3992 18.054C69.0849 18.2359 68.8932 18.5679 68.8932 18.9297V28.5957C68.8932 28.9594 69.0889 29.2954 69.4032 29.4753L77.7231 34.2174C78.0295 34.3933 78.4051 34.3953 78.7154 34.2233L83.7481 31.4263C83.9062 31.3374 84.007 31.1694 84.007 30.9875C84.007 30.8056 83.9101 30.6356 83.752 30.5467L75.3273 25.7117C75.1692 25.6228 75.0723 25.4547 75.0723 25.2749V22.2426C75.0723 22.0615 75.1672 21.8947 75.3254 21.8046L77.9465 20.2924C78.1026 20.2015 78.2944 20.2015 78.4505 20.2924L81.0736 21.8046C81.2297 21.8935 81.3266 22.0615 81.3266 22.2414V24.6253C81.3266 24.8052 81.4235 24.9732 81.5796 25.0641C81.7358 25.1531 81.9295 25.1531 82.0857 25.0622L87.1092 22.1444Z" fill="#333333"/>
<path fill-rule="evenodd" clip-rule="evenodd" d="M78.157 21.6921C78.2163 21.6571 78.2907 21.6571 78.3508 21.6921L79.9578 22.6192C80.0179 22.654 80.0547 22.718 80.0547 22.7872V24.6433C80.0547 24.7125 80.0179 24.7766 79.9578 24.8113L78.3508 25.7384C78.2907 25.7734 78.2163 25.7734 78.157 25.7384L76.551 24.8113C76.4897 24.7766 76.4521 24.7125 76.4521 24.6433V22.7872C76.4521 22.718 76.4877 22.654 76.549 22.6192L78.157 21.6921Z" fill="#689F63"/>
<mask id="mask0_425_12032" style="mask-type:luminance" maskUnits="userSpaceOnUse" x="23" y="13" width="19" height="22">
<path d="M31.9395 13.2693L23.6117 18.076C23.2997 18.2559 23.1084 18.5879 23.1084 18.9469V28.5671C23.1084 28.9262 23.2997 29.2581 23.6117 29.438L31.9401 34.2485C32.2514 34.4278 32.6353 34.4278 32.9462 34.2485L41.2732 29.438C41.5836 29.2581 41.7753 28.926 41.7753 28.5671V18.9469C41.7753 18.5879 41.5836 18.2559 41.2712 18.076L32.9454 13.2693C32.7893 13.1797 32.6153 13.1348 32.4414 13.1348C32.2674 13.1348 32.0935 13.1797 31.9373 13.2693" fill="white"/>
</mask>
<g mask="url(#mask0_425_12032)">
<path d="M50.1908 17.2596L26.7245 5.75726L14.6924 30.3026L38.1581 41.8056L50.1908 17.2596Z" fill="url(#paint0_linear_425_12032)"/>
</g>
<mask id="mask1_425_12032" style="mask-type:luminance" maskUnits="userSpaceOnUse" x="23" y="13" width="19" height="22">
<path d="M23.3145 29.1779C23.3941 29.2812 23.4937 29.3708 23.611 29.438L30.7547 33.5643L31.9447 34.2483C32.1226 34.3511 32.3254 34.3946 32.5247 34.3797C32.5911 34.3744 32.6575 34.3619 32.7223 34.3436L41.5056 18.2612C41.4384 18.1881 41.3597 18.1268 41.2715 18.0754L35.8186 14.9265L32.9362 13.2681C32.8544 13.2206 32.7656 13.187 32.6753 13.1633L23.3145 29.1779Z" fill="white"/>
</mask>
<g mask="url(#mask1_425_12032)">
<path d="M13.1689 20.6619L29.7386 43.0881L51.6522 26.8978L35.0816 4.47223L13.1689 20.6619Z" fill="url(#paint1_linear_425_12032)"/>
</g>
<mask id="mask2_425_12032" style="mask-type:luminance" maskUnits="userSpaceOnUse" x="23" y="13" width="19" height="22">
<path d="M32.3411 13.1402C32.2014 13.1541 32.0648 13.1976 31.9389 13.2691L23.6348 18.062L32.5892 34.3717C32.7137 34.3539 32.8363 34.3124 32.947 34.2484L41.2748 29.4379C41.5317 29.2888 41.7077 29.0366 41.761 28.7508L32.6327 13.1567C32.5655 13.1434 32.4983 13.1365 32.4291 13.1365C32.4014 13.1365 32.3737 13.1379 32.3461 13.1404" fill="white"/>
</mask>
<g mask="url(#mask2_425_12032)">
<path d="M23.6338 13.1365V34.3721H41.7567V13.1365H23.6338Z" fill="url(#paint2_linear_425_12032)"/>
</g>
</g>
<defs>
<linearGradient id="paint0_linear_425_12032" x1="38.4506" y1="11.4904" x2="26.4193" y2="36.0341" gradientUnits="userSpaceOnUse">
<stop offset="0.3" stop-color="#3E863D"/>
<stop offset="0.5" stop-color="#55934F"/>
<stop offset="0.8" stop-color="#5AAD45"/>
</linearGradient>
<linearGradient id="paint1_linear_425_12032" x1="21.5531" y1="32.0036" x2="43.4675" y2="15.8114" gradientUnits="userSpaceOnUse">
<stop offset="0.57" stop-color="#3E863D"/>
<stop offset="0.72" stop-color="#619857"/>
<stop offset="1" stop-color="#76AC64"/>
</linearGradient>
<linearGradient id="paint2_linear_425_12032" x1="23.6399" y1="23.7549" x2="41.7601" y2="23.7549" gradientUnits="userSpaceOnUse">
<stop offset="0.16" stop-color="#6BBF47"/>
<stop offset="0.38" stop-color="#79B461"/>
<stop offset="0.47" stop-color="#75AC64"/>
<stop offset="0.7" stop-color="#659E5A"/>
<stop offset="0.9" stop-color="#3E863D"/>
</linearGradient>
</defs>
</svg>
