<svg width="140" height="35" viewBox="0 0 140 35" fill="none" xmlns="http://www.w3.org/2000/svg">
<path d="M45.0153 27V8.06998H52.8036C53.9935 8.06998 55.0392 8.31337 55.9406 8.80014C56.8601 9.26889 57.5722 9.93594 58.077 10.8013C58.5998 11.6667 58.8613 12.6943 58.8613 13.8842V14.2628C58.8613 15.4347 58.5908 16.4623 58.05 17.3457C57.5271 18.2111 56.806 18.8871 55.8865 19.3739C54.9851 19.8427 53.9575 20.077 52.8036 20.077H48.585V27H45.0153ZM48.585 16.8319H52.4521C53.2994 16.8319 53.9845 16.5975 54.5073 16.1288C55.0302 15.66 55.2916 15.02 55.2916 14.2087V13.9383C55.2916 13.127 55.0302 12.487 54.5073 12.0182C53.9845 11.5495 53.2994 11.3151 52.4521 11.3151H48.585V16.8319ZM62.9046 32.4086V29.4339H70.2062C70.711 29.4339 70.9634 29.1634 70.9634 28.6226V25.2422H70.4766C70.3324 25.5487 70.107 25.8552 69.8005 26.1617C69.494 26.4682 69.0794 26.7206 68.5565 26.9189C68.0337 27.1172 67.3667 27.2163 66.5554 27.2163C65.5097 27.2163 64.5903 26.982 63.797 26.5132C63.0218 26.0265 62.4178 25.3594 61.9851 24.5121C61.5524 23.6647 61.3361 22.6912 61.3361 21.5914V13.5867H64.7435V21.321C64.7435 22.3306 64.9869 23.0878 65.4737 23.5926C65.9785 24.0974 66.6906 24.3498 67.61 24.3498C68.6557 24.3498 69.467 24.0073 70.0439 23.3222C70.6208 22.6191 70.9093 21.6455 70.9093 20.4015V13.5867H74.3167V29.3798C74.3167 30.2992 74.0463 31.0294 73.5054 31.5702C72.9645 32.1291 72.2434 32.4086 71.342 32.4086H62.9046ZM83.2465 27C82.3631 27 81.642 26.7296 81.0831 26.1887C80.5422 25.6298 80.2718 24.8907 80.2718 23.9712V16.3992H76.9185V13.5867H80.2718V9.42213H83.6792V13.5867H87.3571V16.3992H83.6792V23.3763C83.6792 23.9171 83.9316 24.1875 84.4364 24.1875H87.0325V27H83.2465ZM90.4414 27V8.06998H93.8488V15.2363H94.3356C94.4798 14.9479 94.7052 14.6594 95.0117 14.371C95.3182 14.0825 95.7238 13.8481 96.2286 13.6679C96.7514 13.4695 97.4095 13.3704 98.2027 13.3704C99.2484 13.3704 100.159 13.6138 100.934 14.1005C101.727 14.5693 102.34 15.2273 102.773 16.0747C103.206 16.904 103.422 17.8775 103.422 18.9953V27H100.015V19.2657C100.015 18.2561 99.7622 17.4989 99.2574 16.9941C98.7706 16.4893 98.0675 16.2369 97.1481 16.2369C96.1024 16.2369 95.2911 16.5885 94.7142 17.2916C94.1373 17.9767 93.8488 18.9412 93.8488 20.1852V27H90.4414ZM113.488 27.3786C112.154 27.3786 110.955 27.1082 109.891 26.5673C108.827 26.0265 107.989 25.2422 107.376 24.2146C106.763 23.187 106.457 21.952 106.457 20.5097V20.077C106.457 18.6347 106.763 17.3998 107.376 16.3721C107.989 15.3445 108.827 14.5603 109.891 14.0194C110.955 13.4786 112.154 13.2081 113.488 13.2081C114.822 13.2081 116.021 13.4786 117.084 14.0194C118.148 14.5603 118.986 15.3445 119.599 16.3721C120.212 17.3998 120.519 18.6347 120.519 20.077V20.5097C120.519 21.952 120.212 23.187 119.599 24.2146C118.986 25.2422 118.148 26.0265 117.084 26.5673C116.021 27.1082 114.822 27.3786 113.488 27.3786ZM113.488 24.3498C114.533 24.3498 115.399 24.0163 116.084 23.3492C116.769 22.6641 117.111 21.6906 117.111 20.4286V20.1582C117.111 18.8962 116.769 17.9316 116.084 17.2646C115.417 16.5795 114.551 16.2369 113.488 16.2369C112.442 16.2369 111.577 16.5795 110.892 17.2646C110.206 17.9316 109.864 18.8962 109.864 20.1582V20.4286C109.864 21.6906 110.206 22.6641 110.892 23.3492C111.577 24.0163 112.442 24.3498 113.488 24.3498ZM123.664 27V13.5867H127.017V15.3445H127.504C127.72 14.8758 128.126 14.4341 128.721 14.0194C129.316 13.5867 130.217 13.3704 131.425 13.3704C132.471 13.3704 133.381 13.6138 134.157 14.1005C134.95 14.5693 135.563 15.2273 135.996 16.0747C136.428 16.904 136.645 17.8775 136.645 18.9953V27H133.237V19.2657C133.237 18.2561 132.985 17.4989 132.48 16.9941C131.993 16.4893 131.29 16.2369 130.371 16.2369C129.325 16.2369 128.514 16.5885 127.937 17.2916C127.36 17.9767 127.071 18.9412 127.071 20.1852V27H123.664Z" fill="#192533"/>
<path d="M16.5449 0.846077C15.1753 0.852431 13.8673 0.969069 12.7164 1.17242C9.3261 1.77049 8.71054 3.02232 8.71054 5.3309V8.37984H16.7223V9.39615H8.71054H5.7038C3.37535 9.39615 1.3365 10.7936 0.698775 13.4521C-0.0368348 16.4993 -0.0694631 18.4008 0.698775 21.5826C1.26828 23.951 2.62834 25.6385 4.95678 25.6385H7.71141V21.9835C7.71141 19.343 9.99942 17.0138 12.7164 17.0138H20.7189C22.9465 17.0138 24.7247 15.1824 24.7247 12.9486V5.3309C24.7247 3.16287 22.8931 1.53425 20.7189 1.17242C19.3426 0.94365 17.9145 0.839722 16.5449 0.846077ZM12.2122 3.29828C13.0398 3.29828 13.7156 3.98412 13.7156 4.82741C13.7156 5.66771 13.0398 6.34721 12.2122 6.34721C11.3817 6.34721 10.7088 5.66771 10.7088 4.82741C10.7088 3.98412 11.3817 3.29828 12.2122 3.29828Z" fill="url(#paint0_linear_1064_2096)"/>
<path d="M25.726 9.39661V12.949C25.726 15.7032 23.3876 18.0213 20.721 18.0213H12.7186C10.5266 18.0213 8.71269 19.8946 8.71269 22.0865V29.7042C8.71269 31.8722 10.6007 33.1474 12.7186 33.7694C15.2547 34.514 17.6866 34.6486 20.721 33.7694C22.738 33.1863 24.7269 32.0128 24.7269 29.7042V26.6553H16.7245V25.639H24.7269H28.7328C31.0612 25.639 31.9289 24.0172 32.7387 21.583C33.5751 19.0771 33.5395 16.6672 32.7387 13.4525C32.1632 11.138 31.0642 9.39661 28.7328 9.39661H25.726ZM21.2252 28.6879C22.0558 28.6879 22.7286 29.3674 22.7286 30.2077C22.7286 31.051 22.0558 31.7368 21.2252 31.7368C20.3977 31.7368 19.7219 31.051 19.7219 30.2077C19.7219 29.3674 20.3977 28.6879 21.2252 28.6879Z" fill="url(#paint1_linear_1064_2096)"/>
<defs>
<linearGradient id="paint0_linear_1064_2096" x1="0.134766" y1="0.845802" x2="18.5861" y2="16.5921" gradientUnits="userSpaceOnUse">
<stop stop-color="#5A9FD4"/>
<stop offset="1" stop-color="#306998"/>
</linearGradient>
<linearGradient id="paint1_linear_1064_2096" x1="21.0327" y1="29.9514" x2="14.4178" y2="20.6682" gradientUnits="userSpaceOnUse">
<stop stop-color="#FFD43B"/>
<stop offset="1" stop-color="#FFE873"/>
</linearGradient>
</defs>
</svg>
