<svg width="155" height="24" viewBox="0 0 155 24" fill="none" xmlns="http://www.w3.org/2000/svg">
<path d="M1.99229 8.46489L0.923257 9.53512C0.631702 9.827 0.38874 10.1675 0.242962 10.5567C0.0971849 10.9459 0 11.335 0 11.7242C0 12.1134 0.0971849 12.5512 0.242962 12.8917C0.38874 13.2809 0.631702 13.6214 0.923257 13.9133L9.47553 22.5724C9.6699 22.767 9.91286 22.9616 10.1558 23.1075V12.5999L1.99229 8.46489Z" fill="#3D89F5"/>
<path d="M21.3295 8.46387L22.3986 9.53409C22.6901 9.82597 22.9331 10.1665 23.0789 10.5557C23.2247 10.9448 23.3218 11.334 23.3218 11.7232C23.3218 12.1124 23.2247 12.5502 23.0789 12.8907C22.9331 13.2799 22.6901 13.6204 22.3986 13.9123L13.8463 22.5714C13.6519 22.766 13.409 22.9606 13.166 23.1065V12.5988L21.3295 8.46387Z" fill="#1656B9"/>
<path d="M19.2898 6.32407L13.9446 0.924287C13.653 0.632407 13.3129 0.389173 12.9241 0.243233C12.5354 0.0972933 12.1467 0 11.7579 0C11.3692 0 10.9319 0.0972933 10.5917 0.243233C10.203 0.389173 9.86282 0.632407 9.57126 0.924287L4.12891 6.32407L11.6607 10.0699L19.2898 6.32407Z" fill="#85B5F8"/>
<path fill-rule="evenodd" clip-rule="evenodd" d="M135.961 3.79424C135.961 3.40506 136.01 3.01589 136.253 2.67536C136.447 2.33484 136.738 2.04296 137.127 1.89702C137.467 1.75108 137.905 1.65378 138.293 1.75108C138.682 1.79972 139.022 1.99431 139.314 2.23754C139.605 2.52942 139.8 2.86995 139.897 3.25912C139.994 3.6483 139.946 4.03747 139.8 4.42665C139.654 4.81582 139.411 5.1077 139.071 5.35093C138.731 5.59417 138.342 5.69146 137.953 5.69146C137.71 5.69146 137.467 5.64281 137.224 5.54552C136.981 5.44823 136.787 5.30229 136.593 5.15635C136.398 4.96176 136.253 4.76717 136.155 4.57259C136.058 4.2807 136.01 4.03747 135.961 3.79424ZM136.107 7.2968H139.751V20.4314H136.107V7.2968ZM39.0676 2.9186H32.0703V20.4314H39.5536C43.4895 20.4314 45.579 18.3882 45.579 15.5667C45.6276 14.4965 45.2389 13.4263 44.51 12.6479C43.7811 11.8696 42.7607 11.3831 41.6916 11.3345V11.1885C42.5663 11.0426 43.3924 10.6048 43.9755 9.92372C44.5586 9.24267 44.8501 8.36703 44.8501 7.44274C44.8987 4.81582 42.955 2.9186 39.0676 2.9186ZM41.1571 8.0265C41.1571 9.43725 39.9909 10.2642 38.5331 10.2642L35.7147 10.3129V5.93469H38.5817C40.2338 5.88604 41.1571 6.61575 41.1571 8.0265ZM41.6916 15.2262C41.6916 16.5397 40.8655 17.4153 38.7761 17.4153H35.7147V12.7939H38.7761C39.1162 12.7452 39.505 12.7452 39.8451 12.8425C40.1853 12.9398 40.5254 13.1344 40.7684 13.329C41.0599 13.5722 41.2543 13.8641 41.4001 14.156C41.5944 14.4965 41.6916 14.837 41.6916 15.2262ZM47.3769 20.4314H51.07L51.0214 2.9186H47.3769V20.4314ZM52.9651 13.9127C52.9651 9.82643 55.4433 7.15086 59.4279 7.15086C63.4124 7.15086 65.8907 9.87507 65.8907 13.9127C65.8907 17.9991 63.4124 20.6746 59.4279 20.6746C55.4433 20.6746 52.9651 17.9991 52.9651 13.9127ZM62.1976 13.9127C62.1976 11.6264 61.2258 9.92372 59.4765 9.92372C57.6785 9.92372 56.7067 11.6264 56.7067 13.9127C56.7067 16.1991 57.6299 17.9018 59.4765 17.9018C61.2744 17.9018 62.1976 16.1991 62.1976 13.9127ZM73.714 7.15086C69.7295 7.15086 67.2512 9.92372 67.2512 13.9127C67.2512 17.9018 69.6809 20.6746 73.714 20.6746C77.1641 20.6746 79.3508 18.6315 79.5451 15.6154H76.0951C76.0465 16.1991 75.8035 16.7829 75.3662 17.1721C74.9289 17.5612 74.3458 17.8045 73.7626 17.8045C72.0619 17.8045 70.9443 16.2964 70.9443 13.8641C70.9443 11.4318 72.0619 9.97237 73.7626 9.97237C74.3458 9.97237 74.9289 10.167 75.3662 10.6048C75.8035 10.9939 76.0951 11.5777 76.0951 12.1615H79.5451C79.3994 9.14537 77.1155 7.15086 73.714 7.15086ZM81.4403 2.9186H85.0847V12.2588H85.2791L89.5066 7.2968H93.6856L88.8263 12.9885L93.9285 20.4314H89.6524L86.0565 15.1289L85.0847 16.2478V20.4314H81.4403V2.9186ZM100.343 7.15086C96.3581 7.15086 93.8799 9.92372 93.8799 13.9127C93.8799 17.9018 96.3095 20.6746 100.343 20.6746C103.793 20.6746 105.979 18.6315 106.174 15.6154H102.772C102.724 16.1991 102.481 16.7829 101.995 17.1721C101.558 17.5612 100.974 17.8045 100.343 17.8045C98.642 17.8045 97.5244 16.2964 97.5244 13.8641C97.5244 11.4318 98.642 9.97237 100.343 9.97237C100.926 9.97237 101.509 10.167 101.995 10.6048C102.432 10.9939 102.724 11.5777 102.772 12.1615H106.174C106.077 9.14537 103.744 7.15086 100.343 7.15086ZM111.713 20.4314H108.069V2.9186H111.616V9.63184H111.762C112.053 8.85349 112.588 8.17244 113.317 7.73462C114.046 7.2968 114.872 7.05357 115.698 7.15086C118.419 7.15086 120.217 8.99943 120.217 12.1128V20.4314H116.573V12.6966C116.621 12.3561 116.573 12.0155 116.475 11.7236C116.378 11.3831 116.232 11.1399 115.989 10.848C115.747 10.6048 115.504 10.4102 115.163 10.2642C114.872 10.1183 114.532 10.0697 114.192 10.1183C113.851 10.1183 113.511 10.167 113.171 10.3129C112.831 10.4588 112.539 10.6534 112.296 10.8967C112.053 11.1399 111.859 11.4318 111.762 11.7723C111.665 12.1128 111.616 12.4533 111.665 12.7939V20.4314H111.713ZM126.923 12.7452C124.347 12.9885 122.015 13.8641 122.015 16.7829C122.015 19.3612 123.861 20.6746 126.388 20.6746C127.166 20.7233 127.943 20.5773 128.624 20.1882C129.304 19.799 129.887 19.2639 130.227 18.5828H130.324V20.4314H133.774V11.5777C133.774 8.46432 131.102 7.10221 128.186 7.10221C125.028 7.10221 122.987 8.61026 122.452 10.9939L125.805 11.2858C125.951 10.7994 126.291 10.4102 126.728 10.167C127.166 9.92372 127.652 9.77778 128.138 9.82643C129.352 9.82643 130.081 10.4588 130.081 11.5291C130.13 12.4047 129.255 12.502 126.923 12.7452ZM130.13 14.3019V15.7613C130.13 16.1018 130.033 16.4424 129.887 16.7343C129.741 17.0261 129.547 17.318 129.255 17.5126C129.012 17.7558 128.721 17.9018 128.381 17.9991C128.04 18.0964 127.7 18.145 127.409 18.0964C126.291 18.0964 125.465 17.5612 125.465 16.5397C125.465 15.5181 126.291 14.983 127.603 14.837C128.478 14.7884 129.352 14.5938 130.13 14.3019ZM142.132 20.4314H145.825L145.777 12.8425C145.728 12.502 145.777 12.1615 145.874 11.8209C145.971 11.4804 146.165 11.1885 146.408 10.9453C146.651 10.7021 146.943 10.5075 147.234 10.3615C147.575 10.2156 147.915 10.167 148.255 10.167C148.595 10.167 148.935 10.2156 149.227 10.3129C149.518 10.4588 149.81 10.6534 150.004 10.8967C150.247 11.1399 150.393 11.4318 150.49 11.7236C150.587 12.0155 150.636 12.3561 150.587 12.6966V20.4314H154.232V12.0642C154.232 8.99943 152.434 7.10221 149.713 7.10221C148.887 7.05357 148.061 7.24815 147.332 7.73462C146.603 8.17244 146.068 8.85349 145.777 9.63184H145.631V7.2968H142.181V20.4314H142.132Z" fill="black"/>
</svg>
