<svg width="132" height="40" viewBox="0 0 132 40" fill="none" xmlns="http://www.w3.org/2000/svg">
<path d="M62.0847 12.7259C61.393 12.7031 60.814 13.2453 60.7911 13.9369C60.7902 13.9644 60.7902 13.9919 60.7911 14.0194V20.2393C57.7901 17.8292 53.4035 18.3083 50.9935 21.3092C49.9993 22.5472 49.4576 24.0875 49.4581 25.6753C49.3923 29.5226 52.4578 32.6947 56.3052 32.7605C60.1524 32.8262 63.3245 29.7607 63.3903 25.9134C63.3917 25.834 63.3917 25.7547 63.3903 25.6754V14.0256C63.4007 13.6764 63.2628 13.3393 63.0106 13.0976C62.7637 12.8561 62.4299 12.7243 62.0847 12.732M60.4479 27.3527C60.003 28.3991 59.1727 29.2346 58.1289 29.6859C57.0354 30.1489 55.8009 30.1489 54.7072 29.6859C53.6656 29.2388 52.8385 28.4043 52.4005 27.3588C51.9428 26.2775 51.9428 25.057 52.4005 23.9757C52.8394 22.9337 53.6668 22.1035 54.7072 21.6608C55.8008 21.1978 57.0353 21.1978 58.1289 21.6608C59.1727 22.1122 60.003 22.9475 60.4479 23.994C60.9055 25.0711 60.9055 26.2879 60.4479 27.3649" fill="#0091E2"/>
<path d="M76.6308 20.7426C73.9088 18.023 69.4974 18.025 66.7778 20.747C65.473 22.0529 64.74 23.823 64.7393 25.6689C64.6736 29.5163 67.7391 32.6884 71.5864 32.7542C75.4337 32.8199 78.6058 29.7543 78.6716 25.9071C78.673 25.8277 78.673 25.7484 78.6716 25.669C78.6722 24.7528 78.497 23.845 78.1558 22.9946C77.8043 22.149 77.2856 21.383 76.6308 20.7426ZM75.7312 27.3463C75.5087 27.8626 75.192 28.333 74.7971 28.7333C74.3988 29.1335 73.9282 29.4546 73.4101 29.6796C72.3173 30.1427 71.0834 30.1427 69.9905 29.6796C68.9477 29.2334 68.1196 28.3988 67.6817 27.3525C67.224 26.2712 67.224 25.0506 67.6817 23.9694C68.122 22.9289 68.9501 22.1008 69.9905 21.6606C71.0834 21.1974 72.3173 21.1974 73.4101 21.6606C73.9282 21.8855 74.3988 22.2066 74.7971 22.6069C75.192 23.007 75.5087 23.4774 75.7312 23.9938C76.1862 25.0714 76.1862 26.2871 75.7312 27.3647" fill="#0091E2"/>
<path d="M105.432 19.9961C105.433 19.8248 105.398 19.6553 105.329 19.4985C105.259 19.3481 105.163 19.2108 105.047 19.0924C104.932 18.9725 104.793 18.8772 104.64 18.8121C104.479 18.7455 104.306 18.7117 104.131 18.7126C103.884 18.711 103.642 18.7815 103.434 18.9157L95.996 23.7548V14.0382C96.0026 13.6903 95.8652 13.3553 95.6163 13.1122C95.377 12.8607 95.0434 12.7209 94.6964 12.7264C93.9798 12.7219 93.3952 13.2992 93.3907 14.0158C93.3907 14.0213 93.3907 14.0267 93.3907 14.0321V31.323C93.3866 31.6686 93.5238 32.0009 93.7705 32.2429C94.0116 32.4952 94.3474 32.6351 94.6964 32.6287C95.0423 32.6343 95.3746 32.4943 95.6122 32.2429C95.8589 32.0009 95.9961 31.6686 95.992 31.323V26.8393L97.5089 25.8443L103.258 32.2998C103.491 32.5237 103.804 32.6445 104.127 32.6348C104.302 32.6368 104.475 32.6029 104.636 32.5353C104.79 32.4718 104.928 32.3771 105.043 32.2571C105.161 32.1356 105.256 31.9939 105.325 31.8388C105.394 31.682 105.429 31.5125 105.428 31.3413C105.429 31.0039 105.3 30.6789 105.069 30.4336L99.7243 24.4126L104.935 21.0296C105.272 20.7971 105.461 20.4043 105.432 19.9961Z" fill="#0091E2"/>
<path d="M83.8505 22.5787C84.2521 22.1817 84.7255 21.8648 85.2456 21.6446C85.7842 21.4155 86.364 21.2995 86.9493 21.3035C87.4674 21.2987 87.9819 21.391 88.4662 21.5756C88.9514 21.7708 89.4009 22.0453 89.7962 22.3879C90.0365 22.5793 90.3358 22.6812 90.643 22.6762C90.993 22.6909 91.3333 22.5584 91.5812 22.3107C91.8252 22.062 91.9578 21.7249 91.9486 21.3766C91.9529 20.9985 91.7884 20.6382 91.4998 20.3938C90.2534 19.2782 88.6319 18.6741 86.9593 18.7022C83.1114 18.7022 79.9922 21.8215 79.9922 25.6693C79.9826 29.5116 83.0895 32.6341 86.9318 32.6438C88.609 32.648 90.2313 32.0461 91.4999 30.949C91.7616 30.7 91.9086 30.3537 91.906 29.9926C91.9288 29.301 91.3867 28.7219 90.6951 28.6991C90.6676 28.6981 90.64 28.6981 90.6125 28.6991C90.3165 28.7004 90.0284 28.7956 89.79 28.9712C89.4012 29.3137 88.9551 29.5852 88.4722 29.7732C87.9874 29.9555 87.4731 30.0464 86.9553 30.0413C86.3701 30.0454 85.7902 29.9293 85.2516 29.7001C84.732 29.4793 84.2586 29.1624 83.8566 28.7661C82.1497 27.0694 82.1414 24.3102 83.838 22.6033C83.8442 22.5971 83.8504 22.591 83.8566 22.5848" fill="#0091E2"/>
<path d="M131.273 19.5734C131.022 19.3373 130.723 19.1573 130.396 19.0454C130.023 18.9114 129.635 18.8214 129.241 18.7774C128.851 18.7295 128.458 18.705 128.065 18.7043C127.267 18.7018 126.476 18.8392 125.726 19.1104C124.991 19.3784 124.305 19.7653 123.695 20.2557V19.9958C123.667 19.2775 123.061 18.7182 122.343 18.7466C121.665 18.7734 121.121 19.3173 121.094 19.9958V31.341C121.122 32.0594 121.727 32.6186 122.446 32.5903C123.124 32.5635 123.668 32.0196 123.695 31.341V25.6694C123.691 25.0835 123.807 24.503 124.036 23.9637C124.255 23.4465 124.572 22.9763 124.968 22.5788C125.367 22.1826 125.838 21.8656 126.355 21.6447C126.894 21.4155 127.475 21.2995 128.061 21.3035C128.643 21.2978 129.222 21.4033 129.765 21.6142C129.936 21.6968 130.123 21.7431 130.313 21.7503C130.488 21.7519 130.661 21.718 130.823 21.6508C130.976 21.5861 131.114 21.4907 131.229 21.3706C131.345 21.2523 131.44 21.1149 131.509 20.9645C131.579 20.8038 131.615 20.6302 131.615 20.4548C131.627 20.1279 131.5 19.8112 131.265 19.5836" fill="#0091E2"/>
<path d="M119.184 23.005C118.078 20.4186 115.542 18.7355 112.729 18.7203C108.882 18.7192 105.763 21.8367 105.762 25.6834C105.762 25.6841 105.762 25.6848 105.762 25.6854C105.761 29.5344 108.881 32.6552 112.73 32.6559C114.4 32.6562 116.016 32.0562 117.282 30.9651C117.3 30.9468 117.328 30.9224 117.332 30.9163C117.446 30.8245 117.545 30.7164 117.627 30.5955C118.045 29.9933 117.896 29.1661 117.294 28.7477C116.789 28.4198 116.126 28.4794 115.688 28.8919C115.645 28.9305 115.523 29.0442 115.503 29.0604L115.485 29.0767C115.114 29.3919 114.69 29.6394 114.234 29.8077C113.75 29.978 113.241 30.0618 112.729 30.0554C112.257 30.0577 111.788 29.9823 111.34 29.832C110.904 29.6864 110.493 29.4748 110.122 29.2046C109.751 28.9336 109.426 28.6061 109.157 28.2339C108.883 27.8539 108.673 27.4313 108.536 26.9831H118.386C118.732 26.9909 119.066 26.8583 119.312 26.6155C119.566 26.3755 119.704 26.0384 119.692 25.6895C119.7 24.7713 119.527 23.8604 119.182 23.0091M108.534 24.3959C108.664 23.9473 108.87 23.5242 109.143 23.1451C109.413 22.7723 109.741 22.4447 110.113 22.1744C110.49 21.9045 110.906 21.693 111.346 21.547C111.791 21.3987 112.257 21.3232 112.727 21.3236C113.193 21.323 113.657 21.3986 114.099 21.547C114.978 21.8388 115.743 22.3975 116.289 23.1451C116.567 23.5238 116.78 23.9467 116.918 24.3959H108.534Z" fill="#0091E2"/>
<path d="M126.831 30.7521C126.333 30.76 125.936 31.17 125.943 31.6679C125.951 32.1658 126.361 32.563 126.859 32.5551C127.354 32.5473 127.75 32.1424 127.747 31.6476C127.741 31.1475 127.331 30.7466 126.831 30.7521H126.831ZM126.831 32.3624C126.436 32.3804 126.102 32.0752 126.084 31.6809C126.066 31.2865 126.371 30.9522 126.766 30.9343C127.16 30.9164 127.494 31.2215 127.512 31.6159C127.513 31.6284 127.513 31.6411 127.513 31.6537C127.526 32.0314 127.231 32.3485 126.854 32.3619C126.846 32.3623 126.838 32.3624 126.831 32.3624Z" fill="#0091E2"/>
<path d="M127.037 31.6759V31.6637C127.137 31.6444 127.212 31.5618 127.222 31.4607C127.225 31.3831 127.193 31.3081 127.134 31.2576C127.039 31.2071 126.931 31.1846 126.824 31.1926C126.709 31.1911 126.594 31.2006 126.48 31.2211V32.1146H126.684V31.7552H126.781C126.897 31.7552 126.95 31.7978 126.968 31.8973C126.98 31.9728 127.003 32.046 127.037 32.1146H127.262C127.227 32.0445 127.205 31.9689 127.195 31.8912C127.186 31.794 127.123 31.7101 127.033 31.6739M126.787 31.6089H126.688V31.351C126.726 31.3464 126.765 31.3464 126.803 31.351C126.933 31.351 126.994 31.4058 126.994 31.4871C126.994 31.5683 126.901 31.6191 126.791 31.6191" fill="#0091E2"/>
<path d="M47.0716 15.6519C46.9437 15.5503 45.7496 14.6488 43.2316 14.6488C42.5667 14.6517 41.9032 14.7087 41.2476 14.8193C40.7602 11.4789 37.9985 9.85032 37.8747 9.77726L37.1986 9.38733L36.7538 10.029C36.1969 10.8911 35.7904 11.8413 35.5517 12.8395C35.1009 14.7463 35.375 16.5372 36.3437 18.0684C35.174 18.7202 33.2977 18.8806 32.918 18.8948H1.85318C1.04177 18.896 0.383356 19.5517 0.378934 20.363C0.3427 23.0844 0.803776 25.7896 1.73946 28.3454C2.80958 31.1518 4.40163 33.219 6.47291 34.4841C8.79393 35.9055 12.5648 36.7178 16.8393 36.7178C18.7704 36.7239 20.6978 36.5491 22.5963 36.1959C25.2353 35.7114 27.7748 34.7889 30.1096 33.4667C32.0335 32.3526 33.7649 30.9353 35.237 29.2694C37.6982 26.4833 39.1644 23.3805 40.2547 20.6229C40.4009 20.6229 40.5472 20.6229 40.6893 20.6229C43.3839 20.6229 45.041 19.5446 45.9548 18.641C46.562 18.0647 47.0361 17.3626 47.3437 16.584L47.5367 16.0195L47.0716 15.6519Z" fill="#0091E2"/>
<path d="M4.7326 17.9854H8.89542C9.09619 17.9854 9.25888 17.8227 9.25888 17.622V13.914C9.26 13.7132 9.09817 13.5496 8.89747 13.5485C8.89681 13.5485 8.89608 13.5485 8.89542 13.5485H4.7326C4.53183 13.5485 4.36914 13.7112 4.36914 13.9119C4.36914 13.9126 4.36914 13.9133 4.36914 13.914V17.6219C4.36914 17.8227 4.53183 17.9854 4.7326 17.9854Z" fill="#0091E2"/>
<path d="M10.4691 17.9854H14.6319C14.8327 17.9854 14.9954 17.8227 14.9954 17.622V13.914C14.9965 13.7132 14.8347 13.5496 14.6339 13.5485C14.6332 13.5485 14.6325 13.5485 14.6318 13.5485H10.469C10.2671 13.5485 10.1035 13.7121 10.1035 13.914V17.6219C10.1047 17.823 10.268 17.9854 10.4691 17.9854Z" fill="#0091E2"/>
<path d="M16.2932 17.9854H20.456C20.6568 17.9854 20.8195 17.8227 20.8195 17.622V13.914C20.8206 13.7132 20.6588 13.5496 20.458 13.5485C20.4574 13.5485 20.4566 13.5485 20.456 13.5485H16.2931C16.0924 13.5485 15.9297 13.7112 15.9297 13.9119C15.9297 13.9126 15.9297 13.9133 15.9297 13.914V17.6219C15.9298 17.8227 16.0925 17.9854 16.2932 17.9854Z" fill="#0091E2"/>
<path d="M22.049 17.9854H26.2118C26.4129 17.9854 26.5762 17.8231 26.5773 17.622V13.914C26.5773 13.7121 26.4137 13.5485 26.2118 13.5485H22.049C21.8482 13.5485 21.6855 13.7112 21.6855 13.9119C21.6855 13.9126 21.6855 13.9133 21.6855 13.914V17.6219C21.6855 17.8227 21.8483 17.9854 22.049 17.9854Z" fill="#0091E2"/>
<path d="M10.471 12.6504H14.6338C14.8348 12.6493 14.9973 12.4859 14.9973 12.2849V8.57696C14.9973 8.37619 14.8345 8.2135 14.6338 8.2135H10.471C10.2699 8.2135 10.1066 8.37586 10.1055 8.57696V12.2849C10.1066 12.4863 10.2695 12.6493 10.471 12.6504Z" fill="#0091E2"/>
<path d="M16.2931 12.6504H20.456C20.657 12.6493 20.8194 12.4859 20.8194 12.2849V8.57696C20.8194 8.37619 20.6567 8.2135 20.456 8.2135H16.2931C16.0924 8.2135 15.9297 8.37626 15.9297 8.57696V12.2849C15.9297 12.4859 16.0921 12.6493 16.2931 12.6504Z" fill="#0091E2"/>
<path d="M22.049 12.6504H26.2118C26.4133 12.6493 26.5762 12.4863 26.5773 12.2849V8.57696C26.5762 8.37586 26.4129 8.2135 26.2118 8.2135H22.049C21.8482 8.2135 21.6855 8.37626 21.6855 8.57696V12.2849C21.6855 12.4859 21.848 12.6493 22.049 12.6504Z" fill="#0091E2"/>
<path d="M22.049 7.31455H26.2118C26.4129 7.31455 26.5762 7.15212 26.5773 6.95108V3.24103C26.5762 3.03992 26.4129 2.87756 26.2118 2.87756H22.049C21.8482 2.87756 21.6855 3.04025 21.6855 3.24103V6.95102C21.6855 7.15179 21.8483 7.31455 22.049 7.31455Z" fill="#0091E2"/>
<path d="M27.8537 17.9854H32.0165C32.2176 17.9854 32.3809 17.8231 32.382 17.622V13.914C32.382 13.7121 32.2184 13.5485 32.0165 13.5485H27.8537C27.653 13.5485 27.4902 13.7112 27.4902 13.9119C27.4902 13.9126 27.4902 13.9133 27.4902 13.914V17.6219C27.4902 17.8227 27.653 17.9854 27.8537 17.9854Z" fill="#0091E2"/>
</svg>
