<svg width="123" height="25" viewBox="0 0 123 25" fill="none" xmlns="http://www.w3.org/2000/svg">
<path fill-rule="evenodd" clip-rule="evenodd" d="M9.60544 0.0921266C6.8058 0.449198 4.25706 1.71637 2.28614 3.7312C1.43726 4.599 -0.086541 6.66026 0.00384789 6.81847C0.0243192 6.85436 1.05755 7.47553 2.29979 8.19888C3.54193 8.92223 4.55836 9.54703 4.55836 9.58746C4.55836 9.62789 4.458 10.0518 4.33538 10.5294C3.8869 12.2763 4.25486 14.3042 5.29932 15.8424C7.67011 19.3339 12.5652 19.9193 15.6748 17.0833L16.3924 16.4289L17.7191 17.2112C18.4488 17.6415 19.0458 18.0503 19.0458 18.1197C19.0458 18.2936 17.3228 19.9284 16.7019 20.3437C15.9589 20.8406 14.605 21.4353 13.5868 21.712C12.8281 21.9181 12.4508 21.9544 11.0672 21.9541C9.69247 21.9539 9.30152 21.9167 8.54765 21.7142C7.48503 21.4287 6.18494 20.8455 5.33323 20.2724C4.63017 19.7992 3.16011 18.3437 2.7236 17.6887C2.56256 17.447 2.40582 17.2492 2.37527 17.2492C2.32793 17.2492 0.704494 18.1533 0.577152 18.2507C0.469966 18.3327 1.62581 19.8283 2.36257 20.5608C6.09287 24.27 11.718 25.1975 16.4737 22.8874C17.8173 22.2348 18.7672 21.5534 19.8556 20.4613C20.6029 19.7116 22.0902 17.6731 22.0902 17.3988C22.0902 17.3264 21.7713 17.0832 21.3816 16.8584C20.9919 16.6334 19.6101 15.8339 18.3109 15.0815C17.0118 14.3291 15.8716 13.6726 15.7772 13.6228C15.6379 13.5491 15.5404 13.6574 15.2586 14.1986C13.84 16.9229 10.0973 17.5564 7.83682 15.4547C6.52298 14.2331 6.024 12.3943 6.55048 10.7151C7.16662 8.75026 8.98637 7.43024 11.0841 7.42662C12.419 7.42424 13.5984 7.94574 14.5515 8.95977L15.1279 9.57298L16.0354 9.05542L16.943 8.53786L16.7609 8.23083C16.4498 7.70645 15.0364 6.45995 14.3428 6.09823C13.4509 5.6331 12.4561 5.36072 11.3821 5.28771C9.5477 5.16289 7.2421 6.06628 6.1589 7.33428C6.01896 7.49818 5.83535 7.6322 5.75095 7.6322C5.52734 7.6322 3.08862 6.19016 3.08862 6.0579C3.08862 5.99627 3.33554 5.68552 3.63725 5.36723C6.79005 2.04149 11.548 1.20181 15.6864 3.24062C16.9724 3.87421 18.2929 4.99061 19.2291 6.23618C19.4857 6.57743 19.7123 6.87369 19.7328 6.89448C19.7634 6.92571 21.4099 6.03836 21.5573 5.91127C21.6671 5.81654 20.4889 4.30646 19.7117 3.54609C17.0369 0.92912 13.2341 -0.370526 9.60544 0.0921266Z" fill="#FE7152"/>
<path d="M38.1317 10.5823H34.8392C34.8158 10.3099 34.7535 10.0627 34.6524 9.8409C34.5551 9.61906 34.4188 9.42836 34.2437 9.2688C34.0725 9.10534 33.8643 8.9808 33.6191 8.89518C33.3739 8.80566 33.0956 8.76091 32.7843 8.76091C32.2394 8.76091 31.7782 8.89323 31.4007 9.15788C31.0271 9.42252 30.743 9.80198 30.5484 10.2962C30.3577 10.7905 30.2623 11.384 30.2623 12.0768C30.2623 12.8084 30.3596 13.4214 30.5542 13.9157C30.7527 14.4061 31.0388 14.7758 31.4124 15.0249C31.786 15.2701 32.2355 15.3926 32.7609 15.3926C33.0606 15.3926 33.3291 15.3557 33.5665 15.2817C33.8039 15.2039 34.0102 15.093 34.1853 14.949C34.3605 14.805 34.5025 14.6318 34.6115 14.4294C34.7244 14.2231 34.8002 13.9916 34.8392 13.7347L38.1317 13.7581C38.0928 14.264 37.9507 14.7797 37.7055 15.3051C37.4603 15.8266 37.112 16.3092 36.6606 16.7529C36.213 17.1926 35.6584 17.5468 34.9968 17.8153C34.3352 18.0839 33.5665 18.2181 32.6909 18.2181C31.5933 18.2181 30.6087 17.9827 29.7369 17.5118C28.869 17.0409 28.1821 16.3481 27.6762 15.4335C27.1741 14.5189 26.9231 13.4 26.9231 12.0768C26.9231 10.7458 27.18 9.6249 27.6937 8.71421C28.2074 7.79962 28.9002 7.10881 29.772 6.64179C30.6437 6.17087 31.6167 5.93541 32.6909 5.93541C33.4459 5.93541 34.1406 6.03855 34.7749 6.24481C35.4093 6.45108 35.9659 6.7527 36.4446 7.14967C36.9233 7.54275 37.3086 8.02729 37.6004 8.60329C37.8923 9.17928 38.0694 9.83895 38.1317 10.5823ZM43.9709 18.2181C42.998 18.2181 42.1651 18.0255 41.4724 17.6402C40.7796 17.251 40.2484 16.71 39.8786 16.0173C39.5089 15.3207 39.3241 14.5131 39.3241 13.5946C39.3241 12.6761 39.5089 11.8705 39.8786 11.1778C40.2484 10.4811 40.7796 9.94014 41.4724 9.55485C42.1651 9.16566 42.998 8.97107 43.9709 8.97107C44.9439 8.97107 45.7768 9.16566 46.4695 9.55485C47.1623 9.94014 47.6935 10.4811 48.0632 11.1778C48.433 11.8705 48.6178 12.6761 48.6178 13.5946C48.6178 14.5131 48.433 15.3207 48.0632 16.0173C47.6935 16.71 47.1623 17.251 46.4695 17.6402C45.7768 18.0255 44.9439 18.2181 43.9709 18.2181ZM43.9943 15.8363C44.2667 15.8363 44.5022 15.7449 44.7007 15.5619C44.8992 15.379 45.0529 15.1183 45.1619 14.7797C45.2708 14.4411 45.3253 14.0383 45.3253 13.5713C45.3253 13.1003 45.2708 12.6975 45.1619 12.3628C45.0529 12.0242 44.8992 11.7635 44.7007 11.5806C44.5022 11.3976 44.2667 11.3062 43.9943 11.3062C43.7063 11.3062 43.4592 11.3976 43.2529 11.5806C43.0466 11.7635 42.889 12.0242 42.78 12.3628C42.6711 12.6975 42.6166 13.1003 42.6166 13.5713C42.6166 14.0383 42.6711 14.4411 42.78 14.7797C42.889 15.1183 43.0466 15.379 43.2529 15.5619C43.4592 15.7449 43.7063 15.8363 43.9943 15.8363ZM49.9255 18.0547V9.08782H53.0546V10.7925H53.148C53.3114 10.162 53.5702 9.70079 53.9244 9.4089C54.2824 9.11701 54.7008 8.97107 55.1795 8.97107C55.3196 8.97107 55.4578 8.98274 55.594 9.0061C55.7341 9.02555 55.8684 9.05474 55.9968 9.09366V11.8433C55.8373 11.7888 55.6407 11.7479 55.4072 11.7207C55.1737 11.6934 54.9733 11.6798 54.8059 11.6798C54.4907 11.6798 54.2066 11.7518 53.9536 11.8958C53.7045 12.0359 53.508 12.2344 53.364 12.4913C53.22 12.7442 53.148 13.042 53.148 13.3844V18.0547H49.9255ZM60.8364 18.2181C59.879 18.2181 59.0539 18.0352 58.3611 17.6694C57.6723 17.2997 57.141 16.7704 56.7674 16.0815C56.3977 15.3888 56.2128 14.5598 56.2128 13.5946C56.2128 12.6683 56.3996 11.8588 56.7732 11.1661C57.1469 10.4733 57.6742 9.93431 58.3553 9.54901C59.0364 9.16372 59.84 8.97107 60.7663 8.97107C61.4435 8.97107 62.0565 9.07615 62.6052 9.28631C63.154 9.49647 63.6229 9.80198 64.0121 10.2028C64.4013 10.5998 64.701 11.0824 64.9111 11.6506C65.1213 12.2188 65.2264 12.859 65.2264 13.5713V14.3185H57.2169V12.5438H62.2608C62.2569 12.2869 62.1907 12.0612 62.0623 11.8666C61.9378 11.6681 61.7685 11.5144 61.5544 11.4054C61.3442 11.2926 61.1049 11.2361 60.8364 11.2361C60.5756 11.2361 60.3362 11.2926 60.1183 11.4054C59.9004 11.5144 59.7252 11.6662 59.5929 11.8608C59.4645 12.0554 59.3964 12.283 59.3886 12.5438V14.4586C59.3886 14.7466 59.4489 15.0035 59.5696 15.2292C59.6902 15.4549 59.8634 15.632 60.0891 15.7604C60.3148 15.8889 60.5873 15.9531 60.9064 15.9531C61.1282 15.9531 61.3306 15.9219 61.5135 15.8597C61.7003 15.7974 61.8599 15.7079 61.9922 15.5911C62.1246 15.4705 62.2219 15.3265 62.2841 15.1591H65.2264C65.1252 15.7818 64.8858 16.3228 64.5083 16.782C64.1308 17.2374 63.6307 17.5916 63.008 17.8445C62.3892 18.0936 61.6653 18.2181 60.8364 18.2181ZM72.8053 18.0547L69.2793 6.09887H72.8987L74.5333 13.4545H74.6267L76.5649 6.09887H79.4137L81.3519 13.4779H81.4453L83.0798 6.09887H86.6993L83.1732 18.0547H80.0675L78.036 11.3762H77.9426L75.911 18.0547H72.8053ZM89.2519 18.1948C88.6797 18.1948 88.1738 18.1014 87.734 17.9146C87.2981 17.7239 86.9557 17.4359 86.7066 17.0506C86.4575 16.6653 86.333 16.1749 86.333 15.5795C86.333 15.0891 86.4166 14.6707 86.584 14.3243C86.7513 13.9741 86.9848 13.688 87.2845 13.4662C87.5842 13.2443 87.9325 13.075 88.3295 12.9583C88.7303 12.8415 89.1623 12.7656 89.6255 12.7306C90.1275 12.6917 90.5303 12.645 90.8339 12.5905C91.1414 12.5321 91.3632 12.4523 91.4994 12.3512C91.6356 12.2461 91.7037 12.1079 91.7037 11.9367V11.9133C91.7037 11.6798 91.6142 11.5008 91.4352 11.3762C91.2562 11.2517 91.0265 11.1894 90.7463 11.1894C90.4389 11.1894 90.1878 11.2575 89.9933 11.3938C89.8026 11.5261 89.6877 11.7304 89.6488 12.0067H86.6832C86.7221 11.4619 86.8953 10.9598 87.2028 10.5006C87.5141 10.0374 87.9675 9.66771 88.563 9.39139C89.1584 9.11118 89.9018 8.97107 90.793 8.97107C91.4352 8.97107 92.0112 9.04696 92.521 9.19874C93.0309 9.34663 93.4648 9.55485 93.8229 9.82339C94.1809 10.088 94.4533 10.3994 94.6401 10.7574C94.8308 11.1116 94.9262 11.4969 94.9262 11.9133V18.0547H91.9139V16.7937H91.8438C91.6648 17.1284 91.4469 17.3989 91.19 17.6052C90.937 17.8114 90.6471 17.9613 90.3202 18.0547C89.9971 18.1481 89.641 18.1948 89.2519 18.1948ZM90.3027 16.1632C90.5478 16.1632 90.7775 16.1126 90.9915 16.0115C91.2095 15.9103 91.3865 15.7643 91.5228 15.5736C91.659 15.3829 91.7271 15.1514 91.7271 14.8789V14.1317C91.6415 14.1667 91.55 14.1998 91.4527 14.2309C91.3593 14.2621 91.2581 14.2913 91.1491 14.3185C91.0441 14.3457 90.9312 14.371 90.8105 14.3944C90.6938 14.4177 90.5712 14.4391 90.4428 14.4586C90.1937 14.4975 89.9894 14.5617 89.8298 14.6512C89.6741 14.7369 89.5574 14.8439 89.4795 14.9723C89.4056 15.0969 89.3686 15.237 89.3686 15.3926C89.3686 15.6417 89.4562 15.8324 89.6313 15.9648C89.8064 16.0971 90.0302 16.1632 90.3027 16.1632ZM99.6884 6.09887V18.0547H96.4659V6.09887H99.6884ZM104.553 6.09887V18.0547H101.33V6.09887H104.553ZM110.491 18.2181C109.534 18.2181 108.709 18.0352 108.016 17.6694C107.327 17.2997 106.796 16.7704 106.422 16.0815C106.053 15.3888 105.868 14.5598 105.868 13.5946C105.868 12.6683 106.055 11.8588 106.428 11.1661C106.802 10.4733 107.329 9.93431 108.01 9.54901C108.691 9.16372 109.495 8.97107 110.421 8.97107C111.098 8.97107 111.711 9.07615 112.26 9.28631C112.809 9.49647 113.278 9.80198 113.667 10.2028C114.056 10.5998 114.356 11.0824 114.566 11.6506C114.776 12.2188 114.881 12.859 114.881 13.5713V14.3185H106.872V12.5438H111.916C111.912 12.2869 111.846 12.0612 111.717 11.8666C111.593 11.6681 111.423 11.5144 111.209 11.4054C110.999 11.2926 110.76 11.2361 110.491 11.2361C110.23 11.2361 109.991 11.2926 109.773 11.4054C109.555 11.5144 109.38 11.6662 109.248 11.8608C109.119 12.0554 109.051 12.283 109.043 12.5438V14.4586C109.043 14.7466 109.104 15.0035 109.224 15.2292C109.345 15.4549 109.518 15.632 109.744 15.7604C109.97 15.8889 110.242 15.9531 110.561 15.9531C110.783 15.9531 110.986 15.9219 111.168 15.8597C111.355 15.7974 111.515 15.7079 111.647 15.5911C111.779 15.4705 111.877 15.3265 111.939 15.1591H114.881C114.78 15.7818 114.541 16.3228 114.163 16.782C113.786 17.2374 113.286 17.5916 112.663 17.8445C112.044 18.0936 111.32 18.2181 110.491 18.2181ZM121.544 9.08782V11.4229H115.636V9.08782H121.544ZM116.78 6.93951H120.002V15.1708C120.002 15.2954 120.024 15.4004 120.067 15.4861C120.11 15.5678 120.176 15.6301 120.265 15.6729C120.355 15.7118 120.469 15.7312 120.61 15.7312C120.707 15.7312 120.82 15.7196 120.948 15.6962C121.081 15.6729 121.178 15.6534 121.24 15.6378L121.707 17.9029C121.563 17.9457 121.357 17.9983 121.088 18.0605C120.824 18.1228 120.508 18.1637 120.143 18.1831C119.403 18.222 118.782 18.1461 118.28 17.9554C117.778 17.7609 117.401 17.4553 117.148 17.0389C116.895 16.6225 116.772 16.101 116.78 15.4744V6.93951Z" fill="#131414"/>
</svg>
