<svg width="63" height="24" viewBox="0 0 63 24" fill="none" xmlns="http://www.w3.org/2000/svg">
<path d="M47.2404 6.43431L43.0212 7.79471V16.9866L47.2404 15.6262V6.43431ZM34.7631 0.477977H28.3803L26.8296 4.81654H33.1764L34.7631 0.477977ZM12.6936 11.2876C12.0084 10.2214 11.2511 9.0448 10.6381 8.05208L7.24833 11.6921C7.24833 11.6921 10.5299 16.1777 11.3233 17.3543C11.5757 17.7587 11.6478 17.9425 11.6478 18.0161C11.6478 18.1631 11.5036 18.2367 11.3593 18.3102C9.62838 19.0088 2.74066 19.0088 1.37033 19.0456L0 23.568H5.48133C6.74347 23.568 8.83503 23.4209 10.2775 22.5752C11.9363 21.6193 13.3788 19.8545 14.4967 18.3102C14.8933 17.7955 15.1097 17.3543 15.0736 16.6924C15.0376 16.0306 14.8212 15.332 14.5688 14.7438C14.1 13.4937 13.4148 12.3906 12.6936 11.2876ZM58.203 2.27958V23.568L62.6746 22.1708V0.808885L58.203 2.27958ZM37.4678 12.1333C37.7202 12.17 39.4872 10.3317 40.0281 9.15511C42.5885 3.89735 35.3401 4.70624 31.4816 7.3535C25.3511 11.5818 24.5578 14.6702 24.5578 14.6702C24.5578 14.6702 30.6522 17.8322 31.4455 18.3102C31.8422 18.5676 31.6979 19.0456 31.1931 19.0456C30.8685 19.0456 20.8074 19.0456 20.8074 19.0456V0.88242L16.3358 2.31635V23.568C16.3358 23.568 21.5286 23.568 23.5841 23.568C26.3248 23.568 29.2097 23.4944 30.7243 22.134C32.3831 20.6633 34.1501 18.5676 35.1598 16.9866C35.845 15.9203 35.7007 15.2585 35.0156 14.8173C34.5107 14.5232 28.6327 11.9862 28.6327 11.9862C28.6688 12.023 29.2458 11.4715 29.2818 11.4347C29.7867 11.0303 30.3637 10.6993 30.9406 10.442C32.311 9.85369 33.9698 9.33895 35.4844 9.63309C35.9532 9.74339 36.422 9.89046 36.8186 10.2214C37.1432 10.4787 37.3596 10.8464 37.4317 11.2509C37.4678 11.3612 37.5038 12.17 37.4678 12.1333ZM55.1018 0L50.9186 1.39717C50.9186 1.39717 50.8465 17.4646 50.8465 17.9058C50.8465 19.0088 49.9089 19.0456 49.9089 19.0456H38.5496L37.1071 23.6047C39.0905 23.6047 42.4082 23.6047 44.3915 23.6047C46.6634 23.6047 48.5746 22.7591 50.3056 21.2148C51.6399 20.0383 52.7578 18.6044 53.8396 17.1337C54.8854 15.7365 55.1378 14.2658 55.1378 12.5377C55.1378 9.78015 55.1018 1.76484 55.1018 0Z" fill="#139FDA"/>
</svg>
