<svg width="109" height="27" viewBox="0 0 109 27" fill="none" xmlns="http://www.w3.org/2000/svg">
<path d="M13.482 0C10.8155 0 8.20893 0.775504 5.99182 2.22844C3.77471 3.68137 2.04668 5.74649 1.02626 8.16263C0.00583325 10.5788 -0.261145 13.2374 0.259062 15.8024C0.779269 18.3674 2.06332 20.7234 3.94881 22.5727C5.83431 24.4219 8.23656 25.6812 10.8518 26.1914C13.4671 26.7017 16.1779 26.4398 18.6414 25.439C21.1049 24.4382 23.2105 22.7434 24.6919 20.5689C26.1734 18.3945 26.9641 15.838 26.9641 13.2228C26.9641 9.71587 25.5436 6.3526 23.0153 3.87286C20.4869 1.39311 17.0577 0 13.482 0ZM7.76817 23.4496L10.1048 19.4804C11.1323 20.0207 12.2777 20.3097 13.4434 20.3227C14.6092 20.3357 15.761 20.0724 16.8008 19.5552L19.1175 23.4912C17.3718 24.4115 15.4194 24.8898 13.4375 24.8825C11.4556 24.8752 9.50682 24.3827 7.76817 23.4496ZM7.81596 13.2233C7.816 12.2886 8.05449 11.3689 8.50972 10.5477C8.96495 9.72664 9.62245 9.03031 10.4223 8.5222C11.2221 8.01409 12.1389 7.71034 13.0891 7.63865C14.0393 7.56697 14.9926 7.72962 15.8623 8.11178C16.732 8.49394 17.4903 9.08345 18.0682 9.82662C18.6461 10.5698 19.0252 11.443 19.171 12.3666C19.3168 13.2903 19.2246 14.235 18.9029 15.1148C18.5811 15.9945 18.04 16.7813 17.3288 17.4035L14.3283 12.3064L13.431 10.78L9.60089 17.2866C9.03665 16.764 8.58729 16.1338 8.28043 15.4347C7.97358 14.7356 7.8157 13.9823 7.81649 13.2212L7.81596 13.2233ZM13.431 13.8307L16.036 18.2567C15.2294 18.6431 14.3412 18.8377 13.4436 18.8246C12.546 18.8115 11.6642 18.5912 10.8696 18.1814L13.431 13.8307ZM20.4355 22.6806L18.1059 18.7225C19.2582 17.8006 20.0932 16.5531 20.4973 15.1495C20.9014 13.7459 20.855 12.2543 20.3644 10.8775C19.8738 9.50062 18.9629 8.30534 17.7554 7.45408C16.5479 6.60282 15.1024 6.13689 13.6154 6.11961C12.1284 6.10233 10.6721 6.53454 9.44436 7.35749C8.21662 8.18045 7.27702 9.35422 6.75332 10.7193C6.22961 12.0843 6.14719 13.5744 6.51725 14.987C6.88731 16.3996 7.6919 17.6662 8.82165 18.6146L6.46035 22.629C4.43536 21.1739 2.93199 19.1274 2.16571 16.7828C1.39944 14.4382 1.40957 11.9159 2.19467 9.57732C2.97977 7.23874 4.49955 5.20395 6.53618 3.76451C8.57282 2.32508 11.0218 1.55489 13.5321 1.56434C16.0425 1.5738 18.4853 2.3624 20.5106 3.81713C22.5359 5.27187 24.0397 7.31805 24.8065 9.66247C25.5732 12.0069 25.5637 14.5292 24.7791 16.8679C23.9945 19.2067 22.4751 21.2418 20.4388 22.6816L20.4355 22.6806Z" fill="#05ADF1"/>
<path d="M33.2509 19.0825V10.1157H36.3099V11.8203H36.4033C36.5901 11.2599 36.9092 10.8162 37.3607 10.4893C37.8122 10.1624 38.3492 9.9989 38.9719 9.9989C39.6024 9.9989 40.1453 10.1663 40.6007 10.501C41.056 10.8318 41.3304 11.2715 41.4238 11.8203H41.5172C41.669 11.2715 41.992 10.8318 42.4863 10.501C42.9806 10.1663 43.5604 9.9989 44.226 9.9989C45.0861 9.9989 45.7827 10.2752 46.3159 10.8279C46.853 11.3805 47.1215 12.1161 47.1215 13.0346V19.0825H43.899V13.8518C43.899 13.4588 43.7998 13.1513 43.6013 12.9295C43.4028 12.7037 43.1362 12.5909 42.8015 12.5909C42.4707 12.5909 42.208 12.7037 42.0134 12.9295C41.8227 13.1513 41.7274 13.4588 41.7274 13.8518V19.0825H38.645V13.8518C38.645 13.4588 38.5458 13.1513 38.3473 12.9295C38.1488 12.7037 37.8822 12.5909 37.5475 12.5909C37.3257 12.5909 37.135 12.6415 36.9754 12.7427C36.8158 12.8439 36.6913 12.9898 36.6018 13.1805C36.5162 13.3673 36.4734 13.5911 36.4734 13.8518V19.0825H33.2509ZM51.2094 19.2226C50.6373 19.2226 50.1314 19.1292 49.6916 18.9424C49.2557 18.7517 48.9132 18.4637 48.6641 18.0784C48.4151 17.6931 48.2905 17.2027 48.2905 16.6073C48.2905 16.1169 48.3742 15.6985 48.5415 15.3522C48.7089 15.0019 48.9424 14.7158 49.2421 14.494C49.5418 14.2722 49.8901 14.1029 50.2871 13.9861C50.6879 13.8694 51.1199 13.7935 51.583 13.7584C52.0851 13.7195 52.4879 13.6728 52.7915 13.6183C53.0989 13.56 53.3208 13.4802 53.457 13.379C53.5932 13.2739 53.6613 13.1357 53.6613 12.9645V12.9412C53.6613 12.7076 53.5718 12.5286 53.3928 12.4041C53.2137 12.2795 52.9841 12.2173 52.7039 12.2173C52.3964 12.2173 52.1454 12.2854 51.9508 12.4216C51.7601 12.5539 51.6453 12.7582 51.6064 13.0346H48.6408C48.6797 12.4897 48.8529 11.9876 49.1604 11.5284C49.4717 11.0653 49.9251 10.6955 50.5206 10.4192C51.116 10.139 51.8594 9.9989 52.7506 9.9989C53.3928 9.9989 53.9688 10.0748 54.4786 10.2266C54.9884 10.3745 55.4224 10.5827 55.7804 10.8512C56.1385 11.1159 56.4109 11.4272 56.5977 11.7853C56.7884 12.1394 56.8838 12.5247 56.8838 12.9412V19.0825H53.8715V17.8216H53.8014C53.6224 18.1563 53.4044 18.4267 53.1476 18.633C52.8946 18.8393 52.6047 18.9891 52.2777 19.0825C51.9547 19.1759 51.5986 19.2226 51.2094 19.2226ZM52.2602 17.1911C52.5054 17.1911 52.735 17.1405 52.9491 17.0393C53.167 16.9381 53.3441 16.7922 53.4803 16.6015C53.6165 16.4108 53.6847 16.1792 53.6847 15.9068V15.1595C53.599 15.1945 53.5076 15.2276 53.4103 15.2588C53.3169 15.2899 53.2157 15.3191 53.1067 15.3463C53.0016 15.3736 52.8888 15.3989 52.7681 15.4222C52.6514 15.4456 52.5288 15.467 52.4003 15.4864C52.1513 15.5254 51.9469 15.5896 51.7874 15.6791C51.6317 15.7647 51.5149 15.8717 51.4371 16.0002C51.3632 16.1247 51.3262 16.2648 51.3262 16.4205C51.3262 16.6696 51.4137 16.8603 51.5889 16.9926C51.764 17.1249 51.9878 17.1911 52.2602 17.1911ZM63.7709 10.1157V12.4508H57.8631V10.1157H63.7709ZM59.0073 7.96735H62.2297V16.1986C62.2297 16.3232 62.2511 16.4283 62.2939 16.5139C62.3368 16.5956 62.4029 16.6579 62.4924 16.7007C62.5819 16.7396 62.6968 16.7591 62.8369 16.7591C62.9342 16.7591 63.047 16.7474 63.1755 16.724C63.3078 16.7007 63.4051 16.6812 63.4673 16.6657L63.9344 18.9307C63.7904 18.9735 63.5841 19.0261 63.3156 19.0884C63.0509 19.1506 62.7357 19.1915 62.3698 19.211C61.6304 19.2499 61.0096 19.174 60.5076 18.9833C60.0055 18.7887 59.628 18.4832 59.375 18.0667C59.1221 17.6503 58.9995 17.1288 59.0073 16.5022V7.96735ZM67.5845 19.2226C67.0124 19.2226 66.5064 19.1292 66.0666 18.9424C65.6307 18.7517 65.2883 18.4637 65.0392 18.0784C64.7901 17.6931 64.6656 17.2027 64.6656 16.6073C64.6656 16.1169 64.7492 15.6985 64.9166 15.3522C65.0839 15.0019 65.3174 14.7158 65.6171 14.494C65.9168 14.2722 66.2651 14.1029 66.6621 13.9861C67.0629 13.8694 67.4949 13.7935 67.9581 13.7584C68.4601 13.7195 68.8629 13.6728 69.1665 13.6183C69.474 13.56 69.6958 13.4802 69.832 13.379C69.9682 13.2739 70.0363 13.1357 70.0363 12.9645V12.9412C70.0363 12.7076 69.9468 12.5286 69.7678 12.4041C69.5888 12.2795 69.3591 12.2173 69.0789 12.2173C68.7715 12.2173 68.5205 12.2854 68.3259 12.4216C68.1352 12.5539 68.0203 12.7582 67.9814 13.0346H65.0158C65.0547 12.4897 65.2279 11.9876 65.5354 11.5284C65.8467 11.0653 66.3001 10.6955 66.8956 10.4192C67.4911 10.139 68.2344 9.9989 69.1256 9.9989C69.7678 9.9989 70.3438 10.0748 70.8536 10.2266C71.3635 10.3745 71.7974 10.5827 72.1555 10.8512C72.5135 11.1159 72.7859 11.4272 72.9727 11.7853C73.1634 12.1394 73.2588 12.5247 73.2588 12.9412V19.0825H70.2465V17.8216H70.1764C69.9974 18.1563 69.7795 18.4267 69.5226 18.633C69.2696 18.8393 68.9797 18.9891 68.6528 19.0825C68.3297 19.1759 67.9736 19.2226 67.5845 19.2226ZM68.6353 17.1911C68.8804 17.1911 69.1101 17.1405 69.3241 17.0393C69.5421 16.9381 69.7191 16.7922 69.8554 16.6015C69.9916 16.4108 70.0597 16.1792 70.0597 15.9068V15.1595C69.9741 15.1945 69.8826 15.2276 69.7853 15.2588C69.6919 15.2899 69.5907 15.3191 69.4817 15.3463C69.3767 15.3736 69.2638 15.3989 69.1431 15.4222C69.0264 15.4456 68.9038 15.467 68.7754 15.4864C68.5263 15.5254 68.322 15.5896 68.1624 15.6791C68.0067 15.7647 67.89 15.8717 67.8121 16.0002C67.7382 16.1247 67.7012 16.2648 67.7012 16.4205C67.7012 16.6696 67.7888 16.8603 67.9639 16.9926C68.139 17.1249 68.3628 17.1911 68.6353 17.1911ZM77.6941 16.9576L77.7174 13.128H78.1377L80.3094 10.1157H83.9288L80.2861 14.8092H79.3754L77.6941 16.9576ZM74.7985 19.0825V7.1267H78.021V19.0825H74.7985ZM80.3328 19.0825L78.2779 15.5331L80.3795 13.2447L84.0222 19.0825H80.3328ZM87.2666 19.2226C86.6945 19.2226 86.1886 19.1292 85.7488 18.9424C85.3129 18.7517 84.9704 18.4637 84.7213 18.0784C84.4722 17.6931 84.3477 17.2027 84.3477 16.6073C84.3477 16.1169 84.4314 15.6985 84.5987 15.3522C84.7661 15.0019 84.9996 14.7158 85.2993 14.494C85.5989 14.2722 85.9473 14.1029 86.3442 13.9861C86.7451 13.8694 87.1771 13.7935 87.6402 13.7584C88.1423 13.7195 88.5451 13.6728 88.8486 13.6183C89.1561 13.56 89.3779 13.4802 89.5142 13.379C89.6504 13.2739 89.7185 13.1357 89.7185 12.9645V12.9412C89.7185 12.7076 89.629 12.5286 89.4499 12.4041C89.2709 12.2795 89.0413 12.2173 88.7611 12.2173C88.4536 12.2173 88.2026 12.2854 88.008 12.4216C87.8173 12.5539 87.7025 12.7582 87.6636 13.0346H84.698C84.7369 12.4897 84.9101 11.9876 85.2175 11.5284C85.5289 11.0653 85.9823 10.6955 86.5777 10.4192C87.1732 10.139 87.9165 9.9989 88.8078 9.9989C89.4499 9.9989 90.0259 10.0748 90.5358 10.2266C91.0456 10.3745 91.4796 10.5827 91.8376 10.8512C92.1957 11.1159 92.4681 11.4272 92.6549 11.7853C92.8456 12.1394 92.9409 12.5247 92.9409 12.9412V19.0825H89.9286V17.8216H89.8586C89.6796 18.1563 89.4616 18.4267 89.2048 18.633C88.9518 18.8393 88.6618 18.9891 88.3349 19.0825C88.0119 19.1759 87.6558 19.2226 87.2666 19.2226ZM88.3174 17.1911C88.5626 17.1911 88.7922 17.1405 89.0063 17.0393C89.2242 16.9381 89.4013 16.7922 89.5375 16.6015C89.6737 16.4108 89.7418 16.1792 89.7418 15.9068V15.1595C89.6562 15.1945 89.5648 15.2276 89.4675 15.2588C89.3741 15.2899 89.2729 15.3191 89.1639 15.3463C89.0588 15.3736 88.9459 15.3989 88.8253 15.4222C88.7085 15.4456 88.5859 15.467 88.4575 15.4864C88.2084 15.5254 88.0041 15.5896 87.8445 15.6791C87.6889 15.7647 87.5721 15.8717 87.4943 16.0002C87.4203 16.1247 87.3834 16.2648 87.3834 16.4205C87.3834 16.6696 87.4709 16.8603 87.6461 16.9926C87.8212 17.1249 88.045 17.1911 88.3174 17.1911ZM97.7031 7.1267V19.0825H94.4807V7.1267H97.7031ZM101.844 19.2226C101.271 19.2226 100.766 19.1292 100.326 18.9424C99.8899 18.7517 99.5474 18.4637 99.2983 18.0784C99.0492 17.6931 98.9247 17.2027 98.9247 16.6073C98.9247 16.1169 99.0084 15.6985 99.1757 15.3522C99.3431 15.0019 99.5766 14.7158 99.8763 14.494C100.176 14.2722 100.524 14.1029 100.921 13.9861C101.322 13.8694 101.754 13.7935 102.217 13.7584C102.719 13.7195 103.122 13.6728 103.426 13.6183C103.733 13.56 103.955 13.4802 104.091 13.379C104.227 13.2739 104.295 13.1357 104.295 12.9645V12.9412C104.295 12.7076 104.206 12.5286 104.027 12.4041C103.848 12.2795 103.618 12.2173 103.338 12.2173C103.031 12.2173 102.78 12.2854 102.585 12.4216C102.394 12.5539 102.279 12.7582 102.241 13.0346H99.275C99.3139 12.4897 99.4871 11.9876 99.7945 11.5284C100.106 11.0653 100.559 10.6955 101.155 10.4192C101.75 10.139 102.494 9.9989 103.385 9.9989C104.027 9.9989 104.603 10.0748 105.113 10.2266C105.623 10.3745 106.057 10.5827 106.415 10.8512C106.773 11.1159 107.045 11.4272 107.232 11.7853C107.423 12.1394 107.518 12.5247 107.518 12.9412V19.0825H104.506V17.8216H104.436C104.257 18.1563 104.039 18.4267 103.782 18.633C103.529 18.8393 103.239 18.9891 102.912 19.0825C102.589 19.1759 102.233 19.2226 101.844 19.2226ZM102.894 17.1911C103.14 17.1911 103.369 17.1405 103.583 17.0393C103.801 16.9381 103.978 16.7922 104.115 16.6015C104.251 16.4108 104.319 16.1792 104.319 15.9068V15.1595C104.233 15.1945 104.142 15.2276 104.044 15.2588C103.951 15.2899 103.85 15.3191 103.741 15.3463C103.636 15.3736 103.523 15.3989 103.402 15.4222C103.286 15.4456 103.163 15.467 103.035 15.4864C102.785 15.5254 102.581 15.5896 102.422 15.6791C102.266 15.7647 102.149 15.8717 102.071 16.0002C101.997 16.1247 101.96 16.2648 101.96 16.4205C101.96 16.6696 102.048 16.8603 102.223 16.9926C102.398 17.1249 102.622 17.1911 102.894 17.1911Z" fill="#131414"/>
</svg>
