<svg width="68" height="13" viewBox="0 0 68 13" fill="none" xmlns="http://www.w3.org/2000/svg">
<path d="M14.1098 3.56201C11.5296 3.56201 9.42969 5.50247 9.42969 7.88773C9.42969 10.273 11.5296 12.2135 14.1098 12.2135C16.6918 12.2135 18.79 10.273 18.79 7.88773C18.7917 5.50247 16.6918 3.56201 14.1098 3.56201ZM11.379 9.56592C10.1757 7.60596 10.4203 5.25969 11.9266 4.33465C12.3413 4.07947 12.8109 3.95896 13.2964 3.95896C14.5724 3.95896 15.9688 4.79185 16.8407 6.21131C17.4254 7.16294 17.6895 8.23329 17.5832 9.22213C17.4786 10.2074 17.0196 10.996 16.2931 11.4426C14.7885 12.3676 12.584 11.5259 11.379 9.56592Z" fill="black"/>
<path d="M27.8989 3.56201C25.3187 3.56201 23.2188 5.50247 23.2188 7.88773C23.2188 10.273 25.3187 12.2135 27.8989 12.2135C30.4809 12.2135 32.579 10.273 32.579 7.88773C32.5808 5.50247 30.4809 3.56201 27.8989 3.56201ZM25.1681 9.56592C23.9648 7.60596 24.2094 5.25969 25.7157 4.33465C26.1303 4.07947 26.5999 3.95896 27.0855 3.95896C28.3614 3.95896 29.7578 4.79185 30.6297 6.21131C31.2145 7.16294 31.4786 8.23329 31.3722 9.22213C31.2677 10.2074 30.8087 10.996 30.0821 11.4426C28.5776 12.3676 26.3731 11.5259 25.1681 9.56592Z" fill="black"/>
<path d="M50.4809 3.56201C47.899 3.56201 45.8008 5.50247 45.8008 7.88773C45.8008 10.273 47.9007 12.2135 50.4809 12.2135C53.0611 12.2135 55.1611 10.273 55.1611 7.88773C55.1611 5.50247 53.0611 3.56201 50.4809 3.56201ZM47.7483 9.56592C46.5451 7.60596 46.7896 5.25969 48.2959 4.33465C48.7106 4.07947 49.1802 3.95896 49.6658 3.95896C50.9417 3.95896 52.3381 4.79185 53.21 6.21131C54.4132 8.17127 54.1687 10.5175 52.6624 11.4426C51.1579 12.3676 48.9534 11.5259 47.7483 9.56592Z" fill="black"/>
<path d="M2.57665 4.46415C4.02624 3.57278 6.151 4.38263 7.31173 6.2717L7.34363 6.3231L8.59828 5.52033L8.56107 5.46894C7.68742 4.27631 6.23783 3.56392 4.68015 3.56392C2.09995 3.56392 0 5.50438 0 7.88964C0 10.2749 2.09995 12.2154 4.68015 12.2154C5.83556 12.2154 7.49603 11.767 8.38031 10.5L8.41398 10.4503L8.18361 10.2926L8.14994 10.3422C8.04716 10.4946 7.47476 11.2708 6.31226 11.6111H6.31049C6.25023 11.6306 6.18998 11.6465 6.12796 11.6607C6.08366 11.6713 6.04112 11.6802 6.00214 11.6855C4.63761 11.9265 2.97537 11.0121 2.04856 9.50404C0.889599 7.61674 1.12529 5.35553 2.57665 4.46415Z" fill="black"/>
<path d="M21.7584 0L20.2344 0L20.2344 12.1301H21.7584L21.7584 0Z" fill="black"/>
<path d="M40.1497 5.23116L40.2436 5.30028V3.60791H38.5583C36.7206 3.7036 35.8541 5.44382 35.5652 6.19342V3.60791L34.043 3.60791V12.1318H35.5652V8.15869C35.5564 6.81011 35.7867 6.0109 36.3857 5.3056C36.7543 4.87143 37.1885 4.59852 37.6404 4.51878C38.8791 4.29726 40.1373 5.22053 40.1497 5.23116Z" fill="black"/>
<path d="M67.8326 0L66.3086 0V12.1301H67.8326V0Z" fill="black"/>
<path d="M62.7609 5.69057C62.7609 6.22043 62.7609 6.87966 62.6103 7.42193C62.2824 8.60038 61.3397 11.3666 59.6774 11.5758C59.3018 11.6218 58.9934 11.5421 58.7595 11.3365C58.2987 10.9307 58.2633 10.1581 58.2633 9.93123V3.6048L56.7411 3.6048V9.92415C56.7375 9.96668 56.6471 10.9697 57.2567 11.6378C57.6005 12.017 58.1003 12.2102 58.7382 12.2102C60.7584 12.2102 62.0911 10.096 62.7184 7.97659V12.1269H64.2424V3.60303L62.7184 3.60303L62.7609 5.69057Z" fill="black"/>
<path d="M46.5368 3.7977V3.56201H46.4784C46.4784 3.56201 46.2498 3.56378 46.0052 3.56378H46.0017C42.7339 3.56378 42.243 5.4245 41.6742 7.57761C41.5306 8.12165 41.3818 8.68518 41.1815 9.2558C40.8342 10.25 40.4992 10.8099 40.0261 11.1892C39.4041 11.6889 38.5783 11.9742 37.7613 11.9742H37.5664V12.2135H37.6249C37.6249 12.2135 38.2628 12.2099 38.4755 12.2099C41.8797 12.2099 42.4167 10.7089 43.3063 7.31179C43.6678 5.93309 43.985 5.03109 44.5397 4.50123C45.0004 4.05997 45.6898 3.7977 46.3844 3.7977H46.5368Z" fill="black"/>
</svg>
