<svg width="80" height="23" viewBox="0 0 80 23" fill="none" xmlns="http://www.w3.org/2000/svg">
<path fill-rule="evenodd" clip-rule="evenodd" d="M41.6732 18.0115C41.9448 16.0675 42.1613 10.0867 43.6597 10.3923C45.0477 10.5748 44.1436 15.5963 44.428 17.7271C44.7888 17.7738 46.164 18.0582 46.3975 17.7908C46.7498 17.3833 47.0979 10.7064 49.0504 10.9102C50.795 11.1054 49.6914 16.0038 49.8102 18.0497L51.8774 18.3384C52.4462 16.0293 52.4122 12.3958 51.4275 10.439C49.3645 6.33863 46.3848 10.4178 46.2065 10.5196C46.0622 10.2862 44.4407 5.53214 41.4906 9.30142L41.3633 7.88794L39.3471 7.91765C39.2367 9.39905 39.398 16.2712 39.4065 18.0879L41.6732 18.0115Z" fill="black"/>
<path fill-rule="evenodd" clip-rule="evenodd" d="M30.0026 2.47907L27.8165 2.41115L27.1077 11.5924L22.4343 11.5754C22.4088 11.2783 22.2984 2.67432 22.2093 2.19043L20.0742 2.26259C20.1336 7.6109 20.1973 12.9592 20.2737 18.3075C21.0123 18.3712 21.6872 18.3712 22.4258 18.3075L22.447 13.8803L26.8827 13.8973C26.8954 14.118 26.7851 18.4179 26.7893 18.4731L28.9074 18.5367L30.0026 2.47907Z" fill="black"/>
<path fill-rule="evenodd" clip-rule="evenodd" d="M72.4526 13.8683C72.7964 11.6229 76.3535 9.44536 76.8671 11.5125C77.3679 13.5203 74.4136 15.3964 72.4526 13.8683ZM71.6885 16.2538C72.5163 16.2751 73.1487 16.7802 74.5028 16.708C75.5003 16.6528 76.1879 16.3387 76.8416 15.9143C78.0089 15.163 79.1083 13.7367 79.1465 11.9158C79.1889 10.0014 77.9282 8.57944 76.0054 8.60491C73.6369 8.63887 71.6376 10.8461 71.6461 11.0456L71.5824 7.79842C71.0476 7.77295 69.494 7.83662 69.4346 7.8536C69.4473 9.96745 69.4219 22.4002 69.4219 22.4002L71.6546 22.4681L71.6885 16.2538Z" fill="black"/>
<path fill-rule="evenodd" clip-rule="evenodd" d="M55.1272 11.8307C54.8726 10.8587 55.2461 8.99948 56.5068 8.96128C57.7462 9.17351 58.1198 10.8969 57.9287 11.8307H55.1272ZM60.2591 13.8469C60.76 9.23294 57.742 4.92034 54.5712 7.40772C52.1093 9.33481 52.364 15.4641 54.6518 17.7011C56.6129 19.6197 59.7625 18.4609 59.338 15.0609L57.3175 15.2562C56.6851 18.2954 55.2758 14.6407 55.2546 14.0719L60.2591 13.8469Z" fill="black"/>
<path fill-rule="evenodd" clip-rule="evenodd" d="M32.917 13.1166C32.5265 10.0477 36.0454 9.24122 36.3382 12.5224C36.6311 15.8247 33.299 16.1261 32.917 13.1166ZM38.4818 13.7151C38.9572 11.2447 37.5437 8.86345 35.6124 8.28617C33.0316 7.51364 31.0706 9.66569 30.7989 11.7753C30.0009 18.0065 37.323 19.8063 38.4818 13.7151Z" fill="black"/>
<path fill-rule="evenodd" clip-rule="evenodd" d="M67.0185 17.7689C67.0185 17.7689 68.6994 16.8011 68.7758 16.712C68.7291 16.5804 66.9293 13.8808 66.4454 12.8366L68.6484 9.94597L67.167 8.78292C67.167 8.78292 65.2569 10.7058 65.1678 10.7609L63.4232 8.18018C62.7823 8.34572 62.2177 8.78717 61.7636 9.22437C61.7636 9.22437 63.6652 12.4503 63.61 12.7432L61.0547 16.1135C61.2712 16.6568 62.188 17.3487 62.6762 17.4251C62.7611 17.3402 64.7136 15.0099 64.9216 14.7934C65.1381 14.9971 66.9803 17.7265 67.0185 17.7689Z" fill="black"/>
<path d="M33.1436 20.6008C33.1436 20.7493 33.1096 20.8724 33.0417 20.97C32.9738 21.0634 32.8804 21.1356 32.7616 21.1823C32.6427 21.229 32.5026 21.2502 32.3456 21.2502H32.0994V22.0227H31.6367V19.9895H32.3456C32.5451 19.9895 32.7021 20.015 32.821 20.0617C32.9356 20.1126 33.0205 20.1805 33.0672 20.2697C33.1181 20.3588 33.1436 20.4692 33.1436 20.6008ZM32.0994 20.9234H32.2692C32.405 20.9234 32.5026 20.8979 32.5663 20.847C32.6342 20.8003 32.6639 20.7239 32.6639 20.6177C32.6639 20.5159 32.6342 20.4395 32.5748 20.3928C32.5154 20.3461 32.422 20.3206 32.2946 20.3206H32.0994V20.9234ZM35.5249 20.5668C35.5249 20.7026 35.4867 20.8172 35.406 20.9106C35.3296 21.004 35.2107 21.0719 35.0494 21.1144C35.0877 21.1271 35.1259 21.1398 35.1598 21.1611C35.1938 21.1823 35.2277 21.2162 35.2744 21.2672C35.3169 21.3181 35.3593 21.386 35.406 21.4794L35.7159 22.0227H35.1938L34.9136 21.5346C34.8457 21.42 34.7948 21.3393 34.7566 21.2926C34.7141 21.2417 34.6802 21.2078 34.6504 21.195C34.6207 21.1823 34.5783 21.1738 34.5274 21.1738H34.4255V22.0227H33.9628V19.9895H34.7481C35.0155 19.9895 35.2107 20.0405 35.3381 20.1381C35.4612 20.2357 35.5249 20.38 35.5249 20.5668ZM35.0579 20.588C35.0579 20.4904 35.024 20.4225 34.9561 20.3843C34.8924 20.3418 34.7905 20.3206 34.6589 20.3206H34.4255V20.8682H34.6207C34.7735 20.8682 34.8839 20.8427 34.9518 20.796C35.0197 20.7493 35.0579 20.6814 35.0579 20.588ZM38.0504 21.0337C38.0504 21.246 38.025 21.4242 37.9698 21.577C37.9189 21.7256 37.8255 21.8445 37.6981 21.9293C37.5666 22.0142 37.3883 22.0567 37.1676 22.0567C36.9341 22.0567 36.7516 22.0058 36.62 21.9039C36.4884 21.8063 36.3993 21.6789 36.3526 21.5219C36.3059 21.3648 36.2847 21.1823 36.2847 20.9785C36.2847 20.2994 36.5775 19.9556 37.1633 19.9556C37.4647 19.9556 37.6854 20.0447 37.834 20.2187C37.9783 20.3928 38.0504 20.6644 38.0504 21.0337ZM36.7643 20.9785C36.7643 21.1653 36.777 21.3096 36.8025 21.4157C36.8322 21.5261 36.8747 21.6025 36.9341 21.6492C36.9935 21.6959 37.0699 21.7214 37.1718 21.7214C37.2864 21.7214 37.3713 21.6916 37.4307 21.6322C37.4901 21.5728 37.5283 21.4879 37.5453 21.386C37.5623 21.2799 37.5708 21.1398 37.5708 20.9658C37.5708 20.7493 37.5411 20.5795 37.4817 20.4649C37.4222 20.3503 37.3161 20.2909 37.1676 20.2909C37.0529 20.2909 36.9638 20.3249 36.9044 20.397C36.845 20.4649 36.8068 20.5456 36.7898 20.6432C36.7728 20.7451 36.7643 20.8554 36.7643 20.9785ZM40.385 20.6008C40.385 20.7493 40.3511 20.8724 40.2874 20.97C40.2195 21.0634 40.1261 21.1356 40.0072 21.1823C39.8842 21.229 39.7483 21.2502 39.587 21.2502H39.3408V22.0227H38.8824V19.9895H39.5913C39.7865 19.9895 39.9436 20.015 40.0624 20.0617C40.1813 20.1126 40.2619 20.1805 40.3129 20.2697C40.3638 20.3588 40.385 20.4692 40.385 20.6008ZM39.3408 20.9234H39.5149C39.6464 20.9234 39.7483 20.8979 39.812 20.847C39.8757 20.8003 39.9096 20.7239 39.9096 20.6177C39.9096 20.5159 39.8799 20.4395 39.8205 20.3928C39.7611 20.3461 39.6634 20.3206 39.5361 20.3206H39.3408V20.9234ZM41.6669 20.3121V20.7918H42.4055V21.1144H41.6669V21.7001H42.5243V22.0227H41.2085V19.9895H42.4819V20.3121H41.6669ZM44.8929 20.5668C44.8929 20.7026 44.8547 20.8172 44.7783 20.9106C44.6976 21.004 44.5788 21.0719 44.4175 21.1144C44.4599 21.1271 44.4939 21.1398 44.5278 21.1611C44.5618 21.1823 44.6 21.2162 44.6424 21.2672C44.6849 21.3181 44.7316 21.386 44.7783 21.4794L45.0839 22.0227H44.566L44.2859 21.5346C44.218 21.42 44.1628 21.3393 44.1246 21.2926C44.0864 21.2417 44.0524 21.2078 44.0227 21.195C43.9888 21.1823 43.9506 21.1738 43.8996 21.1738H43.7935V22.0227H43.3351V19.9895H44.1161C44.3878 19.9895 44.583 20.0405 44.7061 20.1381C44.8335 20.2357 44.8929 20.38 44.8929 20.5668ZM44.426 20.588C44.426 20.4904 44.392 20.4225 44.3283 20.3843C44.2604 20.3418 44.1628 20.3206 44.0312 20.3206H43.7935V20.8682H43.993C44.1416 20.8682 44.2519 20.8427 44.3199 20.796C44.392 20.7493 44.426 20.6814 44.426 20.588ZM46.5526 20.3079V22.0227H46.0899V20.3079H45.5296V19.9895H47.1044V20.3079H46.5526ZM47.8345 22.0227V19.9895H48.2971V22.0227H47.8345ZM49.6767 20.3121V20.7918H50.411V21.1144H49.6767V21.7001H50.5298V22.0227H49.2182V19.9895H50.4874V20.3121H49.6767ZM52.0112 20.2739C51.9391 20.2739 51.8796 20.2909 51.833 20.3291C51.7863 20.3631 51.7608 20.414 51.7608 20.4734C51.7608 20.5116 51.7735 20.5498 51.7905 20.5795C51.8117 20.6135 51.8499 20.6432 51.9094 20.6814C51.9688 20.7154 52.0537 20.7578 52.1683 20.8003C52.3466 20.8724 52.4824 20.9361 52.5758 20.9998C52.6692 21.0634 52.7371 21.1313 52.7753 21.1993C52.8092 21.2714 52.8305 21.3521 52.8305 21.4455C52.8305 21.5643 52.7965 21.6704 52.7328 21.7596C52.6692 21.8529 52.5758 21.9251 52.4569 21.9803C52.3423 22.0312 52.2022 22.0567 52.0409 22.0567C51.7905 22.0567 51.5995 21.9973 51.4637 21.8827C51.3278 21.768 51.2557 21.594 51.2429 21.3648L51.7099 21.3308C51.7141 21.4327 51.7311 21.5091 51.7608 21.5685C51.7863 21.628 51.8287 21.6704 51.8754 21.6959C51.9263 21.7171 51.9858 21.7298 52.0622 21.7298C52.1258 21.7298 52.1853 21.7171 52.232 21.6959C52.2786 21.6704 52.3169 21.6407 52.3423 21.5983C52.3635 21.5601 52.3763 21.5219 52.3763 21.4752C52.3763 21.4285 52.3635 21.386 52.3338 21.3478C52.3084 21.3054 52.2574 21.2672 52.1853 21.229C52.1131 21.1865 52.0112 21.1441 51.8796 21.0931C51.6801 21.021 51.5358 20.9361 51.4424 20.8427C51.3533 20.7493 51.3109 20.639 51.3109 20.5074C51.3109 20.4013 51.3406 20.3036 51.4 20.223C51.4552 20.1381 51.5401 20.0744 51.6504 20.0277C51.7565 19.981 51.8839 19.9556 52.024 19.9556C52.2617 19.9556 52.4399 20.0065 52.5546 20.1126C52.6734 20.2187 52.7413 20.3673 52.7625 20.5626L52.3041 20.5838C52.2871 20.3758 52.1895 20.2739 52.0112 20.2739ZM54.3458 21.4794V21.0931H55.2584V21.4794H54.3458ZM58.2679 21.7001V22.0227H56.8841V19.9895H57.3468V21.7001H58.2679ZM60.577 21.0337C60.577 21.246 60.5515 21.4242 60.4964 21.577C60.4454 21.7256 60.352 21.8445 60.2247 21.9293C60.0931 22.0142 59.9148 22.0567 59.6941 22.0567C59.4607 22.0567 59.2781 22.0058 59.1466 21.9039C59.015 21.8063 58.9258 21.6789 58.8791 21.5219C58.8324 21.3648 58.8112 21.1823 58.8112 20.9785C58.8112 20.2994 59.1041 19.9556 59.6899 19.9556C59.9912 19.9556 60.212 20.0447 60.3605 20.2187C60.5049 20.3928 60.577 20.6644 60.577 21.0337ZM59.2909 20.9785C59.2909 21.1653 59.3036 21.3096 59.3291 21.4157C59.3588 21.5261 59.4012 21.6025 59.4607 21.6492C59.5201 21.6959 59.5965 21.7214 59.6984 21.7214C59.813 21.7214 59.8979 21.6916 59.9573 21.6322C60.0167 21.5728 60.0549 21.4879 60.0719 21.386C60.0889 21.2799 60.0974 21.1398 60.0974 20.9658C60.0974 20.7493 60.0677 20.5795 60.0082 20.4649C59.9488 20.3503 59.8427 20.2909 59.6941 20.2909C59.5795 20.2909 59.4904 20.3249 59.431 20.397C59.3715 20.4649 59.3333 20.5456 59.3163 20.6432C59.2994 20.7451 59.2909 20.8554 59.2909 20.9785ZM61.6976 21.6195L61.5873 22.0227H61.1076L61.8037 19.9895H62.3046L62.9922 22.0227H62.5126L62.398 21.6195H61.6976ZM62.0542 20.3673L61.7952 21.2884H62.3089L62.0542 20.3673ZM64.8047 22.0227L64.0534 20.6899H64.0492L64.0746 22.0227H63.6544V19.9895H64.1256L64.8217 21.2714H64.826V19.9895H65.2547V22.0227H64.8047ZM66.8422 20.2739C66.7743 20.2739 66.7148 20.2909 66.6639 20.3291C66.6172 20.3631 66.596 20.414 66.596 20.4734C66.596 20.5116 66.6045 20.5498 66.6215 20.5795C66.6427 20.6135 66.6809 20.6432 66.7403 20.6814C66.7997 20.7154 66.8846 20.7578 67.0035 20.8003C67.1775 20.8724 67.3133 20.9361 67.4067 20.9998C67.5001 21.0634 67.568 21.1313 67.6062 21.1993C67.6402 21.2714 67.6614 21.3521 67.6614 21.4455C67.6614 21.5643 67.6274 21.6704 67.5638 21.7596C67.5001 21.8529 67.4067 21.9251 67.2921 21.9803C67.1733 22.0312 67.0332 22.0567 66.8719 22.0567C66.6215 22.0567 66.4304 21.9973 66.2946 21.8827C66.1588 21.768 66.0866 21.594 66.0781 21.3648L66.5408 21.3308C66.5451 21.4327 66.562 21.5091 66.5917 21.5685C66.6215 21.628 66.6597 21.6704 66.7063 21.6959C66.7573 21.7171 66.821 21.7298 66.8931 21.7298C66.9568 21.7298 67.0162 21.7171 67.0629 21.6959C67.1096 21.6704 67.1478 21.6407 67.1733 21.5983C67.1945 21.5601 67.2072 21.5219 67.2072 21.4752C67.2072 21.4285 67.1945 21.386 67.1648 21.3478C67.1393 21.3054 67.0884 21.2672 67.0162 21.229C66.9441 21.1865 66.8422 21.1441 66.7106 21.0931C66.5111 21.021 66.3668 20.9361 66.2776 20.8427C66.1843 20.7493 66.1418 20.639 66.1418 20.5074C66.1418 20.4013 66.1715 20.3036 66.2309 20.223C66.2861 20.1381 66.371 20.0744 66.4814 20.0277C66.5875 19.981 66.7148 19.9556 66.8549 19.9556C67.0926 19.9556 67.2709 20.0065 67.3897 20.1126C67.5044 20.2187 67.5723 20.3673 67.5977 20.5626L67.1351 20.5838C67.1181 20.3758 67.0205 20.2739 66.8422 20.2739Z" fill="black"/>
<path fill-rule="evenodd" clip-rule="evenodd" d="M0 7.16928C0 9.18976 0.670661 10.7094 1.52384 12.42L2.46617 14.0924C2.97977 14.8904 3.44669 15.6799 4.01972 16.4652L5.63695 18.7743C6.15056 19.5213 6.77028 20.3278 7.26691 21.0706C7.38152 20.9942 7.46217 20.8372 7.5513 20.7014C8.44693 19.3431 9.61847 17.8319 10.5183 16.4736C10.7009 16.1935 10.8622 15.9728 11.0489 15.6926C11.2315 15.421 11.397 15.1748 11.571 14.9074C12.4879 13.5321 13.2731 12.2374 13.8929 10.6881C14.589 8.96054 14.7461 7.37727 14.3683 5.56054C14.2706 5.09787 14.0796 4.65643 13.9099 4.24469C13.6891 3.70562 13.2519 3.07316 12.8826 2.61473C12.8105 2.52559 12.7595 2.48739 12.6874 2.38976C12.611 2.29213 12.56 2.24544 12.4667 2.15206C12.0846 1.77004 11.4479 1.26067 10.9683 0.993258C10.7645 0.878651 10.6075 0.781023 10.391 0.68764C9.96653 0.505118 9.57178 0.339575 9.08788 0.216479C7.92908 -0.0721597 6.6387 -0.0721597 5.4799 0.216479C4.75405 0.403246 4.21922 0.649438 3.5995 0.993258C3.13258 1.25218 2.20299 1.97378 1.89738 2.36854C1.81248 2.48314 1.76579 2.5171 1.68514 2.61473C1.40499 2.95855 1.17153 3.26841 0.9593 3.66317C0.369288 4.75405 0 5.86616 0 7.16928ZM7.28389 1.92709C10.2976 1.92709 12.7383 4.37628 12.7383 7.39425C12.7383 10.4122 10.2976 12.8614 7.28389 12.8614C4.27016 12.8614 1.82946 10.4122 1.82946 7.39425C1.82946 4.37628 4.27016 1.92709 7.28389 1.92709Z" fill="black"/>
<path d="M10.1064 10.9346H8.54433V7.71716H6.02298V10.9346H4.46094V3.85449H6.02298V6.57534H8.54433V3.85449H10.1064V10.9346Z" fill="black"/>
</svg>
