<svg width="87" height="25" viewBox="0 0 87 25" fill="none" xmlns="http://www.w3.org/2000/svg">
<path d="M9.46831 17.6728C9.46831 17.7389 9.44849 17.7984 9.40883 17.8513C9.37578 17.8976 9.30968 17.9372 9.21054 17.9703C9.118 17.9967 8.98912 18.0165 8.82387 18.0297C8.65863 18.0496 8.44382 18.0595 8.17943 18.0595C7.90844 18.0595 7.68702 18.0529 7.51516 18.0397C7.34992 18.0264 7.21112 18.0066 7.09876 17.9802C6.993 17.9471 6.91038 17.9042 6.8509 17.8513C6.79141 17.7984 6.73853 17.729 6.69226 17.6431L3.74767 12.9833V17.6629C3.74767 17.729 3.72784 17.7885 3.68818 17.8414C3.64852 17.8876 3.57912 17.9273 3.47998 17.9603C3.38744 17.9934 3.26186 18.0165 3.10323 18.0297C2.9446 18.0496 2.743 18.0595 2.49845 18.0595C2.25389 18.0595 2.05229 18.0496 1.89366 18.0297C1.73503 18.0165 1.60614 17.9934 1.507 17.9603C1.41446 17.9273 1.34837 17.8876 1.30871 17.8414C1.26905 17.7885 1.24922 17.729 1.24922 17.6629V4.62539C1.24922 4.55929 1.26905 4.4998 1.30871 4.44693C1.34837 4.39405 1.41446 4.35109 1.507 4.31804C1.60614 4.27838 1.73503 4.24864 1.89366 4.22881C2.05229 4.20898 2.25389 4.19906 2.49845 4.19906C2.743 4.19906 2.9446 4.20898 3.10323 4.22881C3.26186 4.24864 3.38744 4.27838 3.47998 4.31804C3.57912 4.35109 3.64852 4.39405 3.68818 4.44693C3.72784 4.4998 3.74767 4.55929 3.74767 4.62539V12.3884L6.36509 8.86878C6.41796 8.78946 6.47745 8.72006 6.54355 8.66057C6.60964 8.60109 6.69557 8.55482 6.80132 8.52177C6.91369 8.48872 7.04918 8.46559 7.20782 8.45237C7.37306 8.43254 7.58126 8.42263 7.83243 8.42263C8.07698 8.42263 8.28188 8.43254 8.44712 8.45237C8.61898 8.46559 8.75447 8.48872 8.85362 8.52177C8.95937 8.55482 9.03208 8.59778 9.07174 8.65066C9.11139 8.69693 9.13122 8.75641 9.13122 8.82912C9.13122 8.92826 9.10478 9.03402 9.05191 9.14638C9.00564 9.25875 8.93293 9.37772 8.83379 9.5033L6.24611 12.438L9.24028 17.068C9.3196 17.2002 9.37578 17.3159 9.40883 17.415C9.44849 17.5076 9.46831 17.5935 9.46831 17.6728ZM13.5035 17.6629C13.5035 17.729 13.4837 17.7885 13.444 17.8414C13.4044 17.8876 13.335 17.9273 13.2358 17.9603C13.1433 17.9934 13.0177 18.0165 12.8591 18.0297C12.7004 18.0496 12.4988 18.0595 12.2543 18.0595C12.0097 18.0595 11.8081 18.0496 11.6495 18.0297C11.4909 18.0165 11.362 17.9934 11.2628 17.9603C11.1703 17.9273 11.1042 17.8876 11.0645 17.8414C11.0249 17.7885 11.0051 17.729 11.0051 17.6629V4.62539C11.0051 4.55929 11.0249 4.4998 11.0645 4.44693C11.1042 4.39405 11.1703 4.35109 11.2628 4.31804C11.362 4.27838 11.4909 4.24864 11.6495 4.22881C11.8081 4.20898 12.0097 4.19906 12.2543 4.19906C12.4988 4.19906 12.7004 4.20898 12.8591 4.22881C13.0177 4.24864 13.1433 4.27838 13.2358 4.31804C13.335 4.35109 13.4044 4.39405 13.444 4.44693C13.4837 4.4998 13.5035 4.55929 13.5035 4.62539V17.6629ZM23.5369 17.6927C23.5369 17.7852 23.5039 17.8579 23.4378 17.9108C23.3717 17.9636 23.2659 18 23.1205 18.0198C22.9817 18.0463 22.7735 18.0595 22.4959 18.0595C22.1985 18.0595 21.9804 18.0463 21.8416 18.0198C21.7094 18 21.6135 17.9636 21.554 17.9108C21.5012 17.8579 21.4747 17.7852 21.4747 17.6927V16.9887C21.1112 17.3787 20.6948 17.6827 20.2255 17.9009C19.7628 18.119 19.2473 18.228 18.6789 18.228C18.2096 18.228 17.7766 18.1652 17.3801 18.0397C16.9901 17.9207 16.6497 17.7422 16.3589 17.5043C16.0747 17.2597 15.8532 16.959 15.6946 16.6021C15.536 16.2451 15.4567 15.8287 15.4567 15.3528C15.4567 14.8373 15.5558 14.3911 15.7541 14.0144C15.959 13.631 16.2597 13.3171 16.6563 13.0725C17.0595 12.8213 17.5585 12.6363 18.1534 12.5173C18.7483 12.3983 19.439 12.3388 20.2255 12.3388H21.0881V11.8035C21.0881 11.5259 21.0583 11.2846 20.9988 11.0797C20.946 10.8682 20.8534 10.693 20.7212 10.5542C20.5956 10.4154 20.4238 10.313 20.2057 10.2469C19.9942 10.1808 19.7298 10.1477 19.4125 10.1477C18.9961 10.1477 18.6227 10.194 18.2922 10.2865C17.9683 10.3791 17.6808 10.4815 17.4296 10.5939C17.1785 10.7063 16.967 10.8087 16.7951 10.9012C16.6299 10.9938 16.4944 11.04 16.3886 11.04C16.3159 11.04 16.2498 11.0169 16.1903 10.9706C16.1374 10.9244 16.0912 10.8583 16.0515 10.7724C16.0185 10.6864 15.992 10.5807 15.9722 10.4551C15.9524 10.3295 15.9425 10.1907 15.9425 10.0387C15.9425 9.83379 15.959 9.67185 15.992 9.55288C16.0251 9.4339 16.0879 9.32815 16.1804 9.23561C16.2729 9.13647 16.4349 9.03071 16.6662 8.91835C16.8976 8.79938 17.1685 8.69032 17.4792 8.59117C17.7899 8.49203 18.1269 8.41271 18.4905 8.35323C18.8606 8.28713 19.2407 8.25408 19.6306 8.25408C20.3247 8.25408 20.9162 8.32348 21.4053 8.46228C21.9011 8.59448 22.3075 8.80268 22.6248 9.0869C22.9421 9.3645 23.1734 9.72473 23.3188 10.1676C23.4642 10.6104 23.5369 11.1359 23.5369 11.744V17.6927ZM21.0881 13.9053H20.1363C19.7331 13.9053 19.3894 13.9351 19.1052 13.9946C18.821 14.054 18.5896 14.1433 18.4112 14.2622C18.2327 14.3812 18.1005 14.5266 18.0146 14.6985C17.9353 14.8637 17.8956 15.0554 17.8956 15.2735C17.8956 15.6437 18.0113 15.9345 18.2426 16.146C18.4806 16.3575 18.8077 16.4633 19.2241 16.4633C19.5745 16.4633 19.895 16.374 20.1859 16.1956C20.4833 16.0171 20.784 15.756 21.0881 15.4123V13.9053ZM40.104 17.6629C40.104 17.729 40.0842 17.7885 40.0445 17.8414C40.0049 17.8876 39.9388 17.9273 39.8462 17.9603C39.7537 17.9934 39.6281 18.0165 39.4695 18.0297C39.3109 18.0496 39.1093 18.0595 38.8647 18.0595C38.6135 18.0595 38.4086 18.0496 38.25 18.0297C38.0914 18.0165 37.9625 17.9934 37.8633 17.9603C37.7708 17.9273 37.7047 17.8876 37.6651 17.8414C37.632 17.7885 37.6155 17.729 37.6155 17.6629V12.4182C37.6155 12.1207 37.5857 11.8497 37.5263 11.6052C37.4734 11.3606 37.3874 11.1524 37.2685 10.9806C37.1561 10.8021 37.0107 10.6666 36.8322 10.5741C36.6604 10.4749 36.4522 10.4253 36.2076 10.4253C35.9102 10.4253 35.6095 10.541 35.3054 10.7724C35.0014 11.0037 34.6709 11.3408 34.314 11.7836V17.6629C34.314 17.729 34.2941 17.7885 34.2545 17.8414C34.2148 17.8876 34.1454 17.9273 34.0463 17.9603C33.9537 17.9934 33.8282 18.0165 33.6695 18.0297C33.5109 18.0496 33.3126 18.0595 33.0747 18.0595C32.8301 18.0595 32.6285 18.0496 32.4699 18.0297C32.3112 18.0165 32.1824 17.9934 32.0832 17.9603C31.9907 17.9273 31.9246 17.8876 31.8849 17.8414C31.8453 17.7885 31.8254 17.729 31.8254 17.6629V12.4182C31.8254 12.1207 31.7957 11.8497 31.7362 11.6052C31.6833 11.3606 31.6007 11.1524 31.4883 10.9806C31.376 10.8021 31.2306 10.6666 31.0521 10.5741C30.8736 10.4749 30.6654 10.4253 30.4275 10.4253C30.1235 10.4253 29.8194 10.541 29.5154 10.7724C29.2113 11.0037 28.8841 11.3408 28.5338 11.7836V17.6629C28.5338 17.729 28.514 17.7885 28.4743 17.8414C28.4347 17.8876 28.3653 17.9273 28.2661 17.9603C28.1736 17.9934 28.048 18.0165 27.8894 18.0297C27.7308 18.0496 27.5292 18.0595 27.2846 18.0595C27.0401 18.0595 26.8385 18.0496 26.6798 18.0297C26.5212 18.0165 26.3923 17.9934 26.2932 17.9603C26.2006 17.9273 26.1345 17.8876 26.0949 17.8414C26.0552 17.7885 26.0354 17.729 26.0354 17.6629V8.81921C26.0354 8.75311 26.0519 8.69693 26.085 8.65066C26.118 8.59778 26.1775 8.55482 26.2634 8.52177C26.3493 8.48872 26.4584 8.46559 26.5906 8.45237C26.7294 8.43254 26.9012 8.42263 27.1061 8.42263C27.3177 8.42263 27.4928 8.43254 27.6316 8.45237C27.7704 8.46559 27.8762 8.48872 27.9489 8.52177C28.0282 8.55482 28.0844 8.59778 28.1174 8.65066C28.1505 8.69693 28.167 8.75311 28.167 8.81921V9.8404C28.6561 9.31162 29.1419 8.91505 29.6244 8.65066C30.1135 8.38627 30.6225 8.25408 31.1513 8.25408C31.5148 8.25408 31.842 8.29374 32.1328 8.37305C32.4236 8.44576 32.6814 8.55482 32.9061 8.70023C33.1374 8.83903 33.3357 9.00758 33.501 9.20587C33.6662 9.40416 33.805 9.62558 33.9174 9.87014C34.1818 9.58592 34.4395 9.34137 34.6907 9.13647C34.9485 8.93157 35.1997 8.76633 35.4442 8.64074C35.6954 8.50855 35.9432 8.41271 36.1878 8.35323C36.439 8.28713 36.6934 8.25408 36.9512 8.25408C37.5395 8.25408 38.0352 8.35323 38.4384 8.55151C38.8416 8.7498 39.1654 9.0208 39.41 9.3645C39.6612 9.70159 39.8396 10.0982 39.9454 10.5542C40.0511 11.0103 40.104 11.4928 40.104 12.0017V17.6629ZM51.4561 13.1122C51.4561 13.8987 51.3701 14.6093 51.1983 15.2438C51.0331 15.8717 50.7885 16.4071 50.4646 16.8499C50.1408 17.2928 49.7376 17.6332 49.2551 17.8711C48.7726 18.1091 48.2207 18.228 47.5993 18.228C47.3416 18.228 47.1036 18.2016 46.8855 18.1487C46.674 18.1024 46.4658 18.0297 46.2609 17.9306C46.0626 17.8248 45.8643 17.696 45.666 17.5439C45.4677 17.3919 45.2628 17.2135 45.0513 17.0086V21.1726C45.0513 21.2387 45.0315 21.2982 44.9918 21.3511C44.9522 21.404 44.8828 21.4469 44.7836 21.48C44.6911 21.5196 44.5655 21.5494 44.4069 21.5692C44.2483 21.589 44.0467 21.599 43.8021 21.599C43.5575 21.599 43.356 21.589 43.1973 21.5692C43.0387 21.5494 42.9098 21.5196 42.8107 21.48C42.7181 21.4469 42.652 21.404 42.6124 21.3511C42.5727 21.2982 42.5529 21.2387 42.5529 21.1726V8.81921C42.5529 8.75311 42.5694 8.69693 42.6025 8.65066C42.6355 8.59778 42.6917 8.55482 42.771 8.52177C42.8569 8.48872 42.966 8.46559 43.0982 8.45237C43.237 8.43254 43.4088 8.42263 43.6137 8.42263C43.812 8.42263 43.9773 8.43254 44.1095 8.45237C44.2483 8.46559 44.3573 8.48872 44.4366 8.52177C44.5226 8.55482 44.582 8.59778 44.6151 8.65066C44.6481 8.69693 44.6647 8.75311 44.6647 8.81921V9.86022C44.9224 9.59584 45.1736 9.3645 45.4182 9.16621C45.6693 8.96131 45.9238 8.79277 46.1816 8.66057C46.4394 8.52177 46.7037 8.41932 46.9747 8.35323C47.2523 8.28713 47.5465 8.25408 47.8571 8.25408C48.5049 8.25408 49.0568 8.38297 49.5128 8.64074C49.9689 8.89191 50.339 9.23892 50.6233 9.68176C50.9141 10.1246 51.1256 10.6402 51.2578 11.2284C51.39 11.8167 51.4561 12.4446 51.4561 13.1122ZM48.8585 13.2906C48.8585 12.9139 48.8287 12.5537 48.7693 12.21C48.7164 11.8596 48.6205 11.549 48.4817 11.278C48.3495 11.007 48.1711 10.7922 47.9464 10.6336C47.7282 10.4683 47.4539 10.3857 47.1235 10.3857C46.9582 10.3857 46.793 10.4121 46.6277 10.465C46.4691 10.5113 46.3039 10.5906 46.132 10.703C45.9668 10.8153 45.7949 10.9607 45.6165 11.1392C45.438 11.3177 45.2496 11.5391 45.0513 11.8035V14.7183C45.4016 15.1612 45.7354 15.5049 46.0527 15.7494C46.37 15.9874 46.7004 16.1063 47.0441 16.1063C47.368 16.1063 47.6423 16.0237 47.867 15.8585C48.0984 15.6932 48.2867 15.4784 48.4322 15.214C48.5776 14.943 48.6833 14.639 48.7494 14.3019C48.8221 13.9648 48.8585 13.6277 48.8585 13.2906Z" fill="#00AEEE"/>
<path d="M61.7613 17.6728C61.7613 17.7389 61.7415 17.7984 61.7018 17.8513C61.6687 17.8976 61.6027 17.9372 61.5035 17.9703C61.411 17.9967 61.2821 18.0165 61.1168 18.0297C60.9516 18.0496 60.7368 18.0595 60.4724 18.0595C60.2014 18.0595 59.98 18.0529 59.8081 18.0397C59.6429 18.0264 59.5041 18.0066 59.3917 17.9802C59.286 17.9471 59.2034 17.9042 59.1439 17.8513C59.0844 17.7984 59.0315 17.729 58.9852 17.6431L56.0406 12.9833V17.6629C56.0406 17.729 56.0208 17.7885 55.9811 17.8414C55.9415 17.8876 55.8721 17.9273 55.7729 17.9603C55.6804 17.9934 55.5548 18.0165 55.3962 18.0297C55.2376 18.0496 55.036 18.0595 54.7914 18.0595C54.5469 18.0595 54.3453 18.0496 54.1866 18.0297C54.028 18.0165 53.8991 17.9934 53.8 17.9603C53.7074 17.9273 53.6413 17.8876 53.6017 17.8414C53.562 17.7885 53.5422 17.729 53.5422 17.6629V4.62539C53.5422 4.55929 53.562 4.4998 53.6017 4.44693C53.6413 4.39405 53.7074 4.35109 53.8 4.31804C53.8991 4.27838 54.028 4.24864 54.1866 4.22881C54.3453 4.20898 54.5469 4.19906 54.7914 4.19906C55.036 4.19906 55.2376 4.20898 55.3962 4.22881C55.5548 4.24864 55.6804 4.27838 55.7729 4.31804C55.8721 4.35109 55.9415 4.39405 55.9811 4.44693C56.0208 4.4998 56.0406 4.55929 56.0406 4.62539V12.3884L58.6581 8.86878C58.7109 8.78946 58.7704 8.72006 58.8365 8.66057C58.9026 8.60109 58.9885 8.55482 59.0943 8.52177C59.2067 8.48872 59.3422 8.46559 59.5008 8.45237C59.666 8.43254 59.8742 8.42263 60.1254 8.42263C60.37 8.42263 60.5749 8.43254 60.7401 8.45237C60.9119 8.46559 61.0474 8.48872 61.1466 8.52177C61.2523 8.55482 61.325 8.59778 61.3647 8.65066C61.4044 8.69693 61.4242 8.75641 61.4242 8.82912C61.4242 8.92826 61.3978 9.03402 61.3449 9.14638C61.2986 9.25875 61.2259 9.37772 61.1268 9.5033L58.5391 12.438L61.5333 17.068C61.6126 17.2002 61.6687 17.3159 61.7018 17.415C61.7415 17.5076 61.7613 17.5935 61.7613 17.6728ZM70.5752 17.6927C70.5752 17.7852 70.5422 17.8579 70.4761 17.9108C70.41 17.9636 70.3042 18 70.1588 18.0198C70.02 18.0463 69.8118 18.0595 69.5342 18.0595C69.2368 18.0595 69.0187 18.0463 68.8799 18.0198C68.7477 18 68.6518 17.9636 68.5923 17.9108C68.5395 17.8579 68.513 17.7852 68.513 17.6927V16.9887C68.1495 17.3787 67.7331 17.6827 67.2638 17.9009C66.8011 18.119 66.2856 18.228 65.7172 18.228C65.2479 18.228 64.8149 18.1652 64.4184 18.0397C64.0284 17.9207 63.688 17.7422 63.3972 17.5043C63.113 17.2597 62.8915 16.959 62.7329 16.6021C62.5743 16.2451 62.495 15.8287 62.495 15.3528C62.495 14.8373 62.5941 14.3911 62.7924 14.0144C62.9973 13.631 63.298 13.3171 63.6946 13.0725C64.0978 12.8213 64.5968 12.6363 65.1917 12.5173C65.7866 12.3983 66.4773 12.3388 67.2638 12.3388H68.1264V11.8035C68.1264 11.5259 68.0966 11.2846 68.0371 11.0797C67.9843 10.8682 67.8917 10.693 67.7595 10.5542C67.634 10.4154 67.4621 10.313 67.244 10.2469C67.0325 10.1808 66.7681 10.1477 66.4508 10.1477C66.0344 10.1477 65.661 10.194 65.3305 10.2865C65.0066 10.3791 64.7191 10.4815 64.4679 10.5939C64.2168 10.7063 64.0053 10.8087 63.8334 10.9012C63.6682 10.9938 63.5327 11.04 63.4269 11.04C63.3542 11.04 63.2881 11.0169 63.2286 10.9706C63.1757 10.9244 63.1295 10.8583 63.0898 10.7724C63.0568 10.6864 63.0303 10.5807 63.0105 10.4551C62.9907 10.3295 62.9808 10.1907 62.9808 10.0387C62.9808 9.83379 62.9973 9.67185 63.0303 9.55288C63.0634 9.4339 63.1262 9.32815 63.2187 9.23561C63.3112 9.13647 63.4732 9.03071 63.7045 8.91835C63.9359 8.79938 64.2069 8.69032 64.5175 8.59117C64.8282 8.49203 65.1652 8.41271 65.5288 8.35323C65.8989 8.28713 66.279 8.25408 66.6689 8.25408C67.363 8.25408 67.9545 8.32348 68.4436 8.46228C68.9394 8.59448 69.3458 8.80268 69.6631 9.0869C69.9804 9.3645 70.2117 9.72473 70.3571 10.1676C70.5025 10.6104 70.5752 11.1359 70.5752 11.744V17.6927ZM68.1264 13.9053H67.1746C66.7714 13.9053 66.4277 13.9351 66.1435 13.9946C65.8593 14.054 65.6279 14.1433 65.4495 14.2622C65.271 14.3812 65.1388 14.5266 65.0529 14.6985C64.9736 14.8637 64.9339 15.0554 64.9339 15.2735C64.9339 15.6437 65.0496 15.9345 65.2809 16.146C65.5189 16.3575 65.846 16.4633 66.2624 16.4633C66.6128 16.4633 66.9333 16.374 67.2242 16.1956C67.5216 16.0171 67.8223 15.756 68.1264 15.4123V13.9053ZM78.7547 9.64211C78.7547 9.88005 78.7481 10.075 78.7348 10.2271C78.7216 10.3791 78.7018 10.4981 78.6754 10.584C78.6489 10.6699 78.6126 10.7294 78.5663 10.7624C78.5266 10.7955 78.4738 10.812 78.4077 10.812C78.3548 10.812 78.2953 10.8021 78.2292 10.7823C78.1631 10.7558 78.0871 10.7294 78.0012 10.703C77.9219 10.6765 77.8326 10.6534 77.7335 10.6336C77.6343 10.6071 77.5253 10.5939 77.4063 10.5939C77.2675 10.5939 77.1287 10.6236 76.9899 10.6831C76.8511 10.736 76.7057 10.8219 76.5537 10.9409C76.4083 11.0599 76.2529 11.2185 76.0877 11.4168C75.9291 11.6151 75.7572 11.8596 75.5721 12.1505V17.6629C75.5721 17.729 75.5523 17.7885 75.5126 17.8414C75.473 17.8876 75.4036 17.9273 75.3044 17.9603C75.2119 17.9934 75.0863 18.0165 74.9277 18.0297C74.7691 18.0496 74.5675 18.0595 74.3229 18.0595C74.0784 18.0595 73.8768 18.0496 73.7181 18.0297C73.5595 18.0165 73.4306 17.9934 73.3315 17.9603C73.2389 17.9273 73.1728 17.8876 73.1332 17.8414C73.0935 17.7885 73.0737 17.729 73.0737 17.6629V8.81921C73.0737 8.75311 73.0902 8.69693 73.1233 8.65066C73.1563 8.59778 73.2158 8.55482 73.3017 8.52177C73.3876 8.48872 73.4967 8.46559 73.6289 8.45237C73.7677 8.43254 73.9396 8.42263 74.1444 8.42263C74.356 8.42263 74.5311 8.43254 74.6699 8.45237C74.8087 8.46559 74.9145 8.48872 74.9872 8.52177C75.0665 8.55482 75.1227 8.59778 75.1557 8.65066C75.1888 8.69693 75.2053 8.75311 75.2053 8.81921V9.91971C75.4366 9.58923 75.6548 9.31823 75.8597 9.10672C76.0646 8.88861 76.2595 8.71676 76.4446 8.59117C76.6297 8.46559 76.8147 8.37966 76.9998 8.3334C77.1849 8.28052 77.37 8.25408 77.555 8.25408C77.641 8.25408 77.7335 8.26069 77.8326 8.27391C77.9318 8.28052 78.0342 8.29704 78.14 8.32348C78.2457 8.34331 78.3383 8.36975 78.4176 8.4028C78.4969 8.42924 78.5531 8.45898 78.5861 8.49203C78.6258 8.52508 78.6522 8.56143 78.6654 8.60109C78.6853 8.64074 78.7018 8.69693 78.715 8.76963C78.7282 8.83573 78.7382 8.93818 78.7448 9.07698C78.7514 9.21578 78.7547 9.40416 78.7547 9.64211ZM85.5263 16.7904C85.5263 17.0813 85.5064 17.306 85.4668 17.4646C85.4337 17.6166 85.3875 17.7257 85.328 17.7918C85.2685 17.8513 85.1792 17.9075 85.0603 17.9603C84.9479 18.0066 84.8124 18.0463 84.6538 18.0793C84.5018 18.119 84.3332 18.1487 84.1481 18.1685C83.9697 18.1884 83.7879 18.1983 83.6028 18.1983C83.1071 18.1983 82.6775 18.1355 82.314 18.0099C81.9504 17.8843 81.6497 17.6927 81.4118 17.4349C81.1738 17.1705 80.9986 16.84 80.8863 16.4434C80.7739 16.0469 80.7177 15.5776 80.7177 15.0356V10.5047H79.6569C79.5313 10.5047 79.4355 10.4287 79.3694 10.2766C79.3033 10.118 79.2702 9.85692 79.2702 9.49339C79.2702 9.30171 79.2768 9.13977 79.2901 9.00758C79.3099 8.87539 79.3363 8.77294 79.3694 8.70023C79.4024 8.62092 79.4421 8.56473 79.4883 8.53169C79.5412 8.49864 79.6007 8.48211 79.6668 8.48211H80.7177V6.50913C80.7177 6.44304 80.7343 6.38355 80.7673 6.33067C80.807 6.2778 80.8731 6.23483 80.9656 6.20179C81.0647 6.16213 81.1936 6.13569 81.3523 6.12247C81.5175 6.10264 81.7191 6.09273 81.957 6.09273C82.2016 6.09273 82.4032 6.10264 82.5618 6.12247C82.7271 6.13569 82.856 6.16213 82.9485 6.20179C83.041 6.23483 83.1071 6.2778 83.1468 6.33067C83.1864 6.38355 83.2063 6.44304 83.2063 6.50913V8.48211H85.1297C85.1958 8.48211 85.252 8.49864 85.2982 8.53169C85.3511 8.56473 85.3941 8.62092 85.4271 8.70023C85.4602 8.77294 85.4833 8.87539 85.4965 9.00758C85.5163 9.13977 85.5263 9.30171 85.5263 9.49339C85.5263 9.85692 85.4932 10.118 85.4271 10.2766C85.361 10.4287 85.2652 10.5047 85.1396 10.5047H83.2063V14.6588C83.2063 15.1413 83.2823 15.5049 83.4343 15.7494C83.5863 15.9874 83.8573 16.1063 84.2473 16.1063C84.3795 16.1063 84.4985 16.0964 84.6042 16.0766C84.71 16.0502 84.8025 16.0237 84.8818 15.9973C84.9677 15.9642 85.0371 15.9378 85.09 15.918C85.1495 15.8915 85.2024 15.8783 85.2486 15.8783C85.2883 15.8783 85.3247 15.8915 85.3577 15.918C85.3974 15.9378 85.4271 15.9841 85.4469 16.0568C85.4668 16.1229 85.4833 16.2154 85.4965 16.3344C85.5163 16.4533 85.5263 16.6054 85.5263 16.7904Z" fill="#86C442"/>
</svg>
