<svg width="113" height="26" viewBox="0 0 113 26" fill="none" xmlns="http://www.w3.org/2000/svg">
<path d="M52.0387 11.4112H47.8137C47.7837 11.0616 47.7038 10.7444 47.5739 10.4598C47.4491 10.1751 47.2743 9.93039 47.0495 9.72562C46.8298 9.51587 46.5626 9.35605 46.248 9.24618C45.9333 9.13132 45.5763 9.07388 45.1767 9.07388C44.4775 9.07388 43.8857 9.24368 43.4013 9.58329C42.9219 9.92289 42.5573 10.4098 42.3076 11.0441C42.0629 11.6784 41.9405 12.44 41.9405 13.3289C41.9405 14.2678 42.0653 15.0544 42.3151 15.6887C42.5698 16.318 42.9368 16.7924 43.4163 17.112C43.8957 17.4267 44.4725 17.584 45.1468 17.584C45.5313 17.584 45.8759 17.5365 46.1806 17.4416C46.4852 17.3418 46.7499 17.1994 46.9746 17.0146C47.1994 16.8299 47.3817 16.6076 47.5215 16.3479C47.6663 16.0832 47.7637 15.7861 47.8137 15.4565L52.0387 15.4864C51.9888 16.1357 51.8065 16.7974 51.4919 17.4716C51.1772 18.1408 50.7303 18.7601 50.1509 19.3294C49.5766 19.8938 48.8649 20.3483 48.0159 20.6929C47.1669 21.0375 46.1806 21.2098 45.0569 21.2098C43.6485 21.2098 42.385 20.9076 41.2663 20.3033C40.1526 19.699 39.2711 18.81 38.6219 17.6364C37.9776 16.4628 37.6555 15.027 37.6555 13.3289C37.6555 11.6209 37.9851 10.1826 38.6443 9.01395C39.3036 7.84032 40.1925 6.95385 41.3112 6.35455C42.4299 5.75025 43.6785 5.4481 45.0569 5.4481C46.0257 5.4481 46.9172 5.58045 47.7313 5.84514C48.5453 6.10983 49.2595 6.49688 49.8738 7.00629C50.488 7.5107 50.9825 8.13248 51.357 8.87162C51.7316 9.61076 51.9588 10.4573 52.0387 11.4112ZM57.1946 21.1798C56.4605 21.1798 55.8112 21.0599 55.2469 20.8202C54.6875 20.5755 54.248 20.2059 53.9284 19.7115C53.6088 19.2171 53.449 18.5878 53.449 17.8237C53.449 17.1944 53.5563 16.6576 53.7711 16.2131C53.9858 15.7636 54.2855 15.3965 54.67 15.1119C55.0546 14.8272 55.5016 14.6099 56.011 14.4601C56.5254 14.3103 57.0797 14.2129 57.6741 14.168C58.3183 14.118 58.8352 14.0581 59.2247 13.9882C59.6193 13.9132 59.904 13.8109 60.0788 13.681C60.2536 13.5462 60.3409 13.3689 60.3409 13.1491V13.1192C60.3409 12.8195 60.2261 12.5898 59.9963 12.43C59.7666 12.2702 59.472 12.1903 59.1124 12.1903C58.7178 12.1903 58.3957 12.2777 58.146 12.4524C57.9013 12.6223 57.754 12.8844 57.704 13.239H53.8984C53.9484 12.5398 54.1706 11.8956 54.5652 11.3063C54.9647 10.712 55.5465 10.2375 56.3106 9.88294C57.0748 9.52336 58.0286 9.34357 59.1723 9.34357C59.9963 9.34357 60.7355 9.44096 61.3897 9.63573C62.044 9.82551 62.6008 10.0927 63.0603 10.4373C63.5197 10.7769 63.8693 11.1764 64.1091 11.6359C64.3538 12.0904 64.4761 12.5848 64.4761 13.1192V21H60.6106V19.3819H60.5207C60.291 19.8114 60.0113 20.1585 59.6817 20.4232C59.3571 20.6879 58.985 20.8801 58.5655 21C58.151 21.1199 57.694 21.1798 57.1946 21.1798ZM58.543 18.5728C58.8577 18.5728 59.1523 18.5079 59.427 18.3781C59.7067 18.2482 59.9339 18.0609 60.1087 17.8162C60.2835 17.5715 60.3709 17.2743 60.3709 16.9247V15.9659C60.261 16.0108 60.1437 16.0533 60.0188 16.0932C59.899 16.1332 59.7691 16.1706 59.6293 16.2056C59.4944 16.2405 59.3496 16.273 59.1948 16.303C59.045 16.3329 58.8876 16.3604 58.7228 16.3854C58.4032 16.4353 58.141 16.5177 57.9362 16.6326C57.7365 16.7425 57.5867 16.8798 57.4868 17.0446C57.3919 17.2044 57.3444 17.3842 57.3444 17.584C57.3444 17.9036 57.4568 18.1483 57.6815 18.3181C57.9063 18.4879 58.1934 18.5728 58.543 18.5728ZM73.314 9.49339V12.4899H65.7328V9.49339H73.314ZM67.2011 6.7366H71.3363V17.2993C71.3363 17.4591 71.3637 17.594 71.4187 17.7038C71.4736 17.8087 71.5585 17.8886 71.6734 17.9436C71.7882 17.9935 71.9356 18.0185 72.1154 18.0185C72.2402 18.0185 72.3851 18.0035 72.5499 17.9735C72.7197 17.9436 72.8445 17.9186 72.9244 17.8986L73.5237 20.8052C73.3389 20.8602 73.0743 20.9276 72.7297 21.0075C72.39 21.0874 71.9855 21.1398 71.5161 21.1648C70.5672 21.2148 69.7706 21.1174 69.1263 20.8726C68.4821 20.6229 67.9977 20.2309 67.673 19.6965C67.3484 19.1621 67.1911 18.4929 67.2011 17.6889V6.7366ZM75.0014 25.315V9.49339H79.1066V11.5011H79.1965C79.3463 11.1115 79.5661 10.7544 79.8557 10.4298C80.1454 10.1002 80.505 9.83799 80.9345 9.64322C81.364 9.44345 81.8634 9.34357 82.4327 9.34357C83.1918 9.34357 83.9135 9.54583 84.5977 9.95036C85.2869 10.3549 85.8463 10.9916 86.2758 11.8606C86.7103 12.7296 86.9275 13.8583 86.9275 15.2467C86.9275 16.5752 86.7202 17.6764 86.3057 18.5504C85.8962 19.4243 85.3468 20.0761 84.6576 20.5056C83.9734 20.9351 83.2218 21.1498 82.4028 21.1498C81.8634 21.1498 81.3815 21.0624 80.9569 20.8876C80.5374 20.7078 80.1779 20.4656 79.8782 20.161C79.5835 19.8513 79.3563 19.5017 79.1965 19.1122H79.1366V25.315H75.0014ZM79.0467 15.2467C79.0467 15.806 79.1191 16.2905 79.2639 16.7C79.4137 17.1045 79.6235 17.4192 79.8932 17.6439C80.1679 17.8637 80.495 17.9735 80.8745 17.9735C81.2541 17.9735 81.5762 17.8661 81.8409 17.6514C82.1106 17.4317 82.3154 17.1195 82.4552 16.715C82.6 16.3055 82.6725 15.816 82.6725 15.2467C82.6725 14.6774 82.6 14.1904 82.4552 13.7859C82.3154 13.3764 82.1106 13.0642 81.8409 12.8495C81.5762 12.6297 81.2541 12.5199 80.8745 12.5199C80.495 12.5199 80.1679 12.6297 79.8932 12.8495C79.6235 13.0642 79.4137 13.3764 79.2639 13.7859C79.1191 14.1904 79.0467 14.6774 79.0467 15.2467ZM91.8661 21.1798C91.132 21.1798 90.4827 21.0599 89.9184 20.8202C89.359 20.5755 88.9196 20.2059 88.5999 19.7115C88.2803 19.2171 88.1205 18.5878 88.1205 17.8237C88.1205 17.1944 88.2279 16.6576 88.4426 16.2131C88.6574 15.7636 88.957 15.3965 89.3416 15.1119C89.7261 14.8272 90.1731 14.6099 90.6825 14.4601C91.1969 14.3103 91.7513 14.2129 92.3456 14.168C92.9898 14.118 93.5067 14.0581 93.8963 13.9882C94.2908 13.9132 94.5755 13.8109 94.7503 13.681C94.9251 13.5462 95.0125 13.3689 95.0125 13.1491V13.1192C95.0125 12.8195 94.8976 12.5898 94.6679 12.43C94.4381 12.2702 94.1435 12.1903 93.7839 12.1903C93.3894 12.1903 93.0672 12.2777 92.8175 12.4524C92.5728 12.6223 92.4255 12.8844 92.3755 13.239H88.57C88.6199 12.5398 88.8421 11.8956 89.2367 11.3063C89.6362 10.712 90.218 10.2375 90.9822 9.88294C91.7463 9.52336 92.7002 9.34357 93.8438 9.34357C94.6679 9.34357 95.407 9.44096 96.0612 9.63573C96.7155 9.82551 97.2723 10.0927 97.7318 10.4373C98.1913 10.7769 98.5409 11.1764 98.7806 11.6359C99.0253 12.0904 99.1477 12.5848 99.1477 13.1192V21H95.2822V19.3819H95.1923C94.9625 19.8114 94.6828 20.1585 94.3532 20.4232C94.0286 20.6879 93.6565 20.8801 93.237 21C92.8225 21.1199 92.3655 21.1798 91.8661 21.1798ZM93.2146 18.5728C93.5292 18.5728 93.8238 18.5079 94.0985 18.3781C94.3782 18.2482 94.6054 18.0609 94.7802 17.8162C94.955 17.5715 95.0424 17.2743 95.0424 16.9247V15.9659C94.9326 16.0108 94.8152 16.0533 94.6903 16.0932C94.5705 16.1332 94.4406 16.1706 94.3008 16.2056C94.166 16.2405 94.0211 16.273 93.8663 16.303C93.7165 16.3329 93.5592 16.3604 93.3943 16.3854C93.0747 16.4353 92.8125 16.5177 92.6078 16.6326C92.408 16.7425 92.2582 16.8798 92.1583 17.0446C92.0634 17.2044 92.016 17.3842 92.016 17.584C92.016 17.9036 92.1283 18.1483 92.3531 18.3181C92.5778 18.4879 92.865 18.5728 93.2146 18.5728ZM103.229 25.315C102.754 25.315 102.302 25.2775 101.873 25.2026C101.443 25.1327 101.066 25.0353 100.741 24.9104L101.64 21.9739C101.98 22.0937 102.29 22.1711 102.569 22.2061C102.854 22.2411 103.096 22.2211 103.296 22.1462C103.501 22.0713 103.648 21.9289 103.738 21.7192L103.828 21.5094L99.7825 9.49339H104.098L105.955 17.4641H106.075L107.963 9.49339H112.308L108.113 21.9589C107.903 22.5931 107.598 23.1625 107.199 23.6669C106.804 24.1763 106.285 24.5783 105.641 24.873C104.996 25.1676 104.192 25.315 103.229 25.315Z" fill="black"/>
<g clip-path="url(#clip0_1423_3635)">
<path d="M28.7659 10.9563H22.7282C21.4265 10.9563 20.1782 11.4733 19.2578 12.3937C18.3374 13.3141 17.8203 14.5625 17.8203 15.8641C17.8203 17.1658 18.3374 18.4141 19.2578 19.3345C20.1782 20.2549 21.4265 20.772 22.7282 20.772H28.7659C29.3587 20.772 29.6256 20.4064 29.9418 19.8069C29.9418 19.8069 30.7125 18.8023 30.7125 15.9069C30.7125 13.0116 30.0274 12.0301 30.0274 12.0301C29.5761 11.3383 29.3587 10.9563 28.7659 10.9563ZM22.5075 17.0697C22.2775 17.0697 22.0527 17.0015 21.8615 16.8737C21.6703 16.746 21.5213 16.5644 21.4333 16.3519C21.3453 16.1394 21.3222 15.9057 21.3671 15.6801C21.412 15.4546 21.5227 15.2474 21.6853 15.0848C21.8479 14.9222 22.0551 14.8114 22.2807 14.7665C22.5062 14.7217 22.74 14.7447 22.9525 14.8327C23.1649 14.9207 23.3465 15.0698 23.4743 15.261C23.602 15.4522 23.6702 15.677 23.6702 15.9069C23.6703 16.2131 23.5496 16.5068 23.3343 16.7245C23.1191 16.9422 22.8268 17.0662 22.5207 17.0697H22.5075Z" fill="black"/>
<path d="M16.4694 15.8642C16.4711 14.2028 17.1303 12.6096 18.3029 11.4326C19.4755 10.2557 21.0663 9.59062 22.7277 9.58279H28.0506C26.1962 5.12618 22.675 2.38897 21.3575 1.48315C21.2006 1.37303 21.0129 1.31533 20.8212 1.31828C20.6295 1.32124 20.4437 1.38471 20.2903 1.49962C19.1605 2.34944 18.4457 3.77239 17.922 5.50827C15.6118 4.9644 13.2212 4.85051 10.8698 5.17229C10.6766 3.78704 9.98294 2.52045 8.91981 1.61161C8.75931 1.46996 8.55454 1.38856 8.34059 1.38135C8.12665 1.37413 7.91686 1.44157 7.74719 1.57209C5.84662 3.02798 0 8.19607 0 16.6251C0 26.6813 14.2328 25.5844 14.2328 25.5844C18.3106 25.5844 23.7225 25.255 26.8055 22.1456H22.7277C21.0663 22.1378 19.4755 21.4727 18.3029 20.2958C17.1303 19.1188 16.4711 17.5256 16.4694 15.8642ZM5.34266 12.9491C5.08831 12.9498 4.83949 12.8749 4.62773 12.734C4.41598 12.5931 4.25081 12.3925 4.15318 12.1576C4.05554 11.9228 4.02982 11.6642 4.07929 11.4147C4.12875 11.1652 4.25116 10.936 4.43102 10.7562C4.61087 10.5763 4.84007 10.4539 5.08956 10.4044C5.33906 10.355 5.59762 10.3807 5.83249 10.4783C6.06736 10.576 6.26795 10.7411 6.40885 10.9529C6.54976 11.1646 6.62463 11.4135 6.62398 11.6678C6.62398 12.0076 6.48898 12.3335 6.24869 12.5738C6.0084 12.8141 5.68249 12.9491 5.34266 12.9491ZM13.215 12.9491C12.9605 12.9504 12.7114 12.8761 12.4992 12.7356C12.287 12.5951 12.1213 12.3947 12.0232 12.1599C11.925 11.9251 11.8989 11.6665 11.9479 11.4167C11.997 11.167 12.1192 10.9375 12.2989 10.7573C12.4786 10.5772 12.7078 10.4544 12.9574 10.4047C13.207 10.355 13.4657 10.3805 13.7008 10.478C13.9358 10.5756 14.1366 10.7407 14.2777 10.9525C14.4187 11.1644 14.4937 11.4133 14.493 11.6678C14.4922 12.0068 14.3574 12.3317 14.118 12.5717C13.8786 12.8117 13.554 12.9474 13.215 12.9491Z" fill="black"/>
</g>
<defs>
<clipPath id="clip0_1423_3635">
<rect width="30.7121" height="24.3022" fill="white" transform="translate(0 1.31844)"/>
</clipPath>
</defs>
</svg>
