<svg width="17" height="14" viewBox="0 0 17 14" fill="none" xmlns="http://www.w3.org/2000/svg">
<path fill-rule="evenodd" clip-rule="evenodd" d="M1.19512 6.02545C5.738 4.03317 8.77469 2.74547 10.2809 2.11377C14.6051 0.315851 15.504 0 16.087 0C16.2085 0 16.5 0.0242964 16.6944 0.170074C16.8401 0.291554 16.8887 0.461627 16.913 0.583108C16.9373 0.704589 16.9616 0.971847 16.9373 1.19051C16.6944 3.64443 15.6983 9.64559 15.1639 12.3911C14.9452 13.5573 14.508 13.946 14.095 13.9946C13.1961 14.0675 12.4916 13.3872 11.617 12.8284C10.2566 11.9294 9.4792 11.3706 8.14306 10.496C6.61257 9.47551 7.6086 8.9167 8.48317 8.01774C8.70181 7.77478 12.7102 4.15465 12.7831 3.8145C12.7831 3.76591 12.8074 3.62013 12.7102 3.54724C12.6131 3.47435 12.4916 3.49865 12.3944 3.52295C12.2487 3.54724 10.0622 5.00501 5.81088 7.87196C5.17925 8.3093 4.6205 8.50367 4.11034 8.50367C3.55159 8.50367 2.48267 8.18782 1.68099 7.92056C0.709249 7.60471 -0.0681424 7.43463 0.00473813 6.90012C0.0776186 6.60856 0.466314 6.31701 1.19512 6.02545Z" fill="#192533"/>
</svg>
