<svg width="123" height="139" viewBox="0 0 123 139" fill="none" xmlns="http://www.w3.org/2000/svg">
<path d="M15.7163 93.694C12.4623 82.9432 15.4134 70.3961 17.2957 65.4665C23.0076 66.7839 35.1864 69.8684 38.206 71.6674C41.9804 73.9161 61.9803 75.4328 69.2335 76.5816C75.0361 77.5007 87.4312 76.4373 92.9034 75.7907C93.6881 76.0525 95.3716 77.4197 95.8286 80.7939C96.3998 85.0116 90.4775 98.9315 88.5672 103.169C87.0389 106.559 77.0808 117.446 72.2928 122.465C67.0458 126.037 53.5107 132.037 41.3466 127.469C26.1415 121.759 19.7838 107.133 15.7163 93.694Z" fill="white"/>
<path d="M94.6087 111.967C89.5692 112.49 85.793 111.121 84.5349 110.372C85.4994 108.599 87.7536 105.104 89.0542 105.31C90.68 105.567 93.6143 105.206 95.9479 103.512C98.2815 101.818 97.7103 97.6008 97.1595 95.8626C96.7188 94.4721 94.8557 93.0214 93.9793 92.4699C94.5668 90.4993 95.9029 86.5837 96.5476 86.6859C97.3535 86.8135 103.227 91.4582 104.647 92.9214C106.068 94.3845 106.32 100.615 105.81 103.836C105.3 107.057 100.908 111.314 94.6087 111.967Z" fill="white"/>
<path d="M66.421 9.4816C66.2099 9.31587 65.9598 9.20683 65.6946 9.16483C65.4295 9.12283 65.158 9.14927 64.9059 9.24163C64.6791 9.3213 64.4784 9.46127 64.3253 9.64647C64.1723 9.83167 64.0727 10.0551 64.0372 10.2927L57.5935 48.9428C57.5445 49.1732 57.5601 49.4127 57.6387 49.6349C57.7172 49.857 57.8555 50.0532 58.0384 50.2019C58.2601 50.3826 58.5285 50.4967 58.8125 50.5309C59.0746 50.5732 59.3432 50.5475 59.5926 50.4563C59.8172 50.3731 60.0147 50.23 60.1638 50.0427C60.3128 49.8553 60.4078 49.6308 60.4383 49.3934L66.8821 10.7433C66.9298 10.511 66.9119 10.27 66.8305 10.0472C66.749 9.82443 66.6073 9.62861 66.421 9.4816Z" fill="#7A5C50"/>
<path d="M46.6797 45.72L39.2323 29.732C39.1513 29.5534 39.0348 29.3932 38.8898 29.2611C38.7448 29.129 38.5743 29.0278 38.3889 28.9636C38.2035 28.8995 38.0069 28.8738 37.8112 28.8881C37.6156 28.9024 37.4248 28.9564 37.2508 29.0467C37.0883 29.1113 36.941 29.209 36.8185 29.3336C36.696 29.4582 36.6008 29.607 36.5392 29.7705C36.4775 29.934 36.4507 30.1086 36.4604 30.2831C36.4701 30.4575 36.5162 30.628 36.5956 30.7837L44.0354 46.82C44.1295 47.0358 44.2768 47.2243 44.4635 47.3679C44.6502 47.5115 44.8703 47.6055 45.1032 47.6412L45.1999 47.6565C45.4644 47.6828 45.7313 47.641 45.9751 47.5351C46.2188 47.4293 46.4315 47.2629 46.5927 47.0517C46.7196 46.8659 46.7938 46.6493 46.8076 46.4248C46.8213 46.2003 46.774 45.9763 46.6708 45.7764L46.6797 45.72Z" fill="#7A5C50"/>
<path d="M9.93583 18.0593C9.84015 17.9079 9.7143 17.7777 9.56613 17.677C9.41795 17.5763 9.25062 17.5072 9.07456 17.4738C8.89849 17.4405 8.71746 17.4438 8.54273 17.4834C8.368 17.5231 8.20331 17.5982 8.05892 17.7042C7.89614 17.8059 7.75541 17.9391 7.64508 18.0961C7.53475 18.2531 7.45704 18.4306 7.41656 18.6181C7.37607 18.8056 7.37363 18.9994 7.40939 19.1879C7.44514 19.3764 7.51835 19.5558 7.6247 19.7155L26.1638 47.5637C26.2578 47.7178 26.3834 47.8502 26.5325 47.9521C26.6816 48.054 26.8507 48.123 27.0285 48.1546C27.3796 48.2031 27.7363 48.1216 28.0314 47.9255C28.1955 47.8253 28.3377 47.6929 28.4493 47.5364C28.561 47.3799 28.6398 47.2025 28.6812 47.0147C28.7225 46.827 28.7254 46.6329 28.6897 46.444C28.6541 46.255 28.5806 46.0753 28.4737 45.9154L9.93583 18.0593Z" fill="#7A5C50"/>
<path d="M86.3361 39.6028L74.9325 48.5935C74.7176 48.7727 74.5582 49.0093 74.4728 49.2757C74.3874 49.542 74.3795 49.8271 74.45 50.0979C74.5206 50.3686 74.6667 50.6137 74.8713 50.8046C75.0759 50.9956 75.3305 51.1245 75.6056 51.1764C75.7869 51.1992 75.9709 51.1825 76.1451 51.1274C76.3192 51.0724 76.4794 50.9803 76.6145 50.8574L88.0155 41.8829C88.1666 41.7652 88.2924 41.6181 88.3851 41.4505C88.4778 41.2829 88.5355 41.0983 88.5549 40.9077C88.5743 40.7172 88.5548 40.5247 88.4978 40.3419C88.4407 40.1591 88.3472 39.9897 88.2228 39.8439C88.1197 39.6978 87.9873 39.5747 87.834 39.4825C87.6807 39.3903 87.5099 39.331 87.3325 39.3083C87.155 39.2856 86.9748 39.3001 86.8032 39.3508C86.6317 39.4015 86.4726 39.4874 86.3361 39.6028Z" fill="#7A5C50"/>
<path d="M110.987 58.4314L102.768 63.0646C102.62 63.1373 102.489 63.2405 102.383 63.3673C102.278 63.4941 102.2 63.6417 102.155 63.8006C102.111 63.9594 102.1 64.1258 102.124 64.289C102.148 64.4523 102.207 64.6086 102.295 64.7478C102.413 64.9604 102.576 65.144 102.774 65.2853C102.972 65.4266 103.199 65.522 103.438 65.5645C103.767 65.6164 104.104 65.5531 104.392 65.3853L112.653 60.792C112.802 60.7185 112.933 60.6146 113.039 60.4871C113.145 60.3596 113.223 60.2113 113.267 60.0519C113.312 59.8924 113.323 59.7254 113.299 59.5615C113.275 59.3976 113.216 59.2406 113.128 59.1006C113.036 58.912 112.906 58.744 112.747 58.6071C112.588 58.4703 112.402 58.3673 112.202 58.3047C112.001 58.242 111.79 58.2209 111.581 58.2427C111.372 58.2645 111.17 58.3287 110.987 58.4314Z" fill="#7A5C50"/>
<path d="M119.874 34.5635C119.838 34.2988 119.735 34.0475 119.575 33.8331C119.416 33.6188 119.204 33.4483 118.961 33.3376C118.745 33.2458 118.509 33.2156 118.277 33.2503C118.046 33.2851 117.828 33.3834 117.649 33.5343L89.9752 54.4427C89.7794 54.5843 89.6249 54.7754 89.5275 54.9964C89.43 55.2174 89.3932 55.4604 89.4208 55.7003C89.4618 55.9646 89.5672 56.2148 89.7278 56.4288C89.8884 56.6428 90.0992 56.8141 90.3417 56.9275C90.4415 56.9554 90.5443 56.9717 90.6479 56.976C90.8264 57.0026 91.0085 56.9916 91.1825 56.9438C91.3565 56.896 91.5186 56.8125 91.6584 56.6986L119.321 35.8131C119.517 35.6738 119.672 35.4842 119.769 35.2643C119.866 35.0444 119.903 34.8023 119.874 34.5635Z" fill="#7A5C50"/>
<path d="M15.7061 49.1183L2.84608 42.7892C2.68634 42.7035 2.51039 42.6521 2.32959 42.6385C2.14879 42.6249 1.96715 42.6493 1.79638 42.7101C1.62562 42.771 1.46952 42.8669 1.33816 42.9917C1.2068 43.1166 1.10309 43.2675 1.03373 43.4349C0.942097 43.6017 0.885598 43.7854 0.867708 43.9748C0.849818 44.1642 0.870916 44.3553 0.929703 44.5363C0.98849 44.7172 1.08372 44.8843 1.20954 45.0271C1.33535 45.1699 1.48908 45.2855 1.66127 45.3668L14.5251 51.6717C14.6575 51.7343 14.7977 51.7787 14.942 51.8038C15.2434 51.8452 15.5493 51.773 15.8002 51.6013C16.0199 51.4491 16.1964 51.2428 16.3126 51.0023C16.4289 50.7618 16.4809 50.4954 16.4637 50.2289C16.4443 49.9941 16.3643 49.7684 16.2315 49.5737C16.0987 49.3791 15.9177 49.2222 15.7061 49.1183Z" fill="#7A5C50"/>
<path d="M107.706 101.214C107.775 100.671 107.799 100.122 107.775 99.5743L107.75 98.7448C107.735 98.4702 107.686 98.2065 107.66 97.9051L107.545 97.0616L107.347 96.2791C107.08 95.2318 106.685 94.2212 106.172 93.2698C105.666 92.3197 105.06 91.4267 104.363 90.6061C104.032 90.1905 103.659 89.8343 103.259 89.4407C102.858 89.0471 102.443 88.7502 102.032 88.421C101.622 88.0919 101.154 87.8114 100.714 87.5106L99.3088 86.735L97.8295 86.1127L96.3407 85.654C96.6495 84.2266 96.8781 82.7829 97.0256 81.3299C97.0933 80.5895 97.1356 79.8533 97.1617 79.1145L97.1714 78.01L97.1602 77.4551C97.163 77.2742 97.153 77.0933 97.1302 76.9139C97.1946 76.6897 97.2027 76.4532 97.1538 76.2252C97.1049 75.9971 97.0005 75.7846 96.8499 75.6065C96.6829 75.428 96.4674 75.3021 96.2298 75.2442L95.6012 75.1446L93.1339 74.6052L88.1997 73.5761C84.8766 72.9287 81.5687 72.2892 78.2761 71.6577C74.9723 71.0271 71.6528 70.4436 68.3414 69.8613C65.03 69.2791 61.7122 68.7371 58.3851 68.2018C55.0579 67.6666 51.7193 67.2039 48.3909 66.6767C45.0625 66.1495 41.7298 65.7538 38.3916 65.3406C35.0534 64.9274 31.7101 64.5465 28.3655 64.1736L23.3645 63.6704C21.6852 63.5283 20.0373 63.292 18.3304 63.2198L18.4029 63.2313C16.7745 63.0807 15.7301 64.4588 15.2974 65.678C14.7701 66.9092 14.3602 68.1875 14.0732 69.4957C13.5205 72.1052 13.1971 74.7579 13.1066 77.4237C12.9997 80.0812 12.9169 82.7425 12.9749 85.4014C13.0312 88.0729 13.2745 90.7372 13.703 93.3749C14.1422 95.9986 14.785 98.5842 15.6257 101.108C16.0439 102.38 16.533 103.621 17.0649 104.853L17.8978 106.636L18.8194 108.432C21.3529 113.166 24.735 117.395 28.7974 120.909C30.8285 122.667 33.0373 124.209 35.3881 125.51C37.7614 126.809 40.2788 127.825 42.8888 128.539C43.534 128.736 44.1896 128.898 44.8526 129.023C45.5134 129.128 46.1373 129.309 46.8207 129.376C47.504 129.443 48.1666 129.589 48.8389 129.622L50.8915 129.806C53.5863 129.873 56.2802 129.64 58.9237 129.114C64.2199 128.038 69.2241 125.841 73.5998 122.672C75.7917 121.115 77.8174 119.336 79.6451 117.365C81.3904 115.516 83.0306 113.571 84.5579 111.539L85.5893 112.173C86.069 112.431 86.5724 112.642 87.0627 112.885C88.0782 113.312 89.1338 113.637 90.2137 113.855C92.356 114.293 94.5671 114.272 96.7004 113.793C98.8337 113.316 100.827 112.352 102.525 110.976C103.371 110.293 104.13 109.51 104.786 108.643C105.124 108.218 105.428 107.766 105.694 107.293C105.83 107.058 105.989 106.836 106.109 106.599L106.454 105.828L106.799 105.058C106.91 104.778 106.971 104.548 107.064 104.274C107.254 103.76 107.399 103.231 107.496 102.692C107.603 102.205 107.673 101.711 107.706 101.214ZM92.0546 99.3626C92.4662 98.5537 92.8171 97.7153 93.1045 96.8545C93.3932 96.0748 93.6425 95.231 93.9257 94.4339C94.2105 94.5551 94.4831 94.7033 94.7396 94.8765C95.0501 95.0658 95.3332 95.2967 95.5809 95.5628C96.0785 96.0762 96.4469 96.7004 96.6556 97.3839C97.066 98.7175 96.9327 100.159 96.2847 101.395C96.1205 101.688 95.9377 101.971 95.7377 102.241C95.5329 102.499 95.3069 102.739 95.0621 102.959C94.8162 103.196 94.5448 103.405 94.253 103.582C93.9735 103.772 93.6716 103.927 93.3539 104.042C93.0328 104.165 92.6979 104.247 92.3566 104.289C92.0098 104.343 91.6583 104.359 91.308 104.337C90.9463 104.313 90.5876 104.256 90.2361 104.168C89.8965 104.09 89.5616 103.992 89.233 103.877C90.3242 102.47 91.2721 100.959 92.0627 99.3639L92.0546 99.3626ZM42.5014 69.2273L56.7861 71.3081L71.0426 73.5661L84.5662 75.7576L81.6839 75.6478L78.0635 75.5036L74.4491 75.2696L70.8423 74.9872L67.2415 74.615L63.6458 74.2106L60.0565 73.7659L56.4761 73.2649L52.906 72.6994L49.3277 72.1327L45.7741 71.4625L42.229 70.6864C41.0596 70.4022 39.8393 70.1263 38.7128 69.8324L35.2212 68.8749L31.792 67.8365L31.0053 67.5881L42.5014 69.2273ZM87.1844 102.05L85.8958 104.24C85.4459 104.994 84.9753 105.67 84.5237 106.383C83.5784 107.796 82.5944 109.176 81.5716 110.521C80.531 111.875 79.4968 113.189 78.3672 114.48C76.8237 116.198 75.1358 117.781 73.3219 119.211C69.6748 122.054 65.5052 124.156 61.0489 125.398C58.83 126.011 56.5544 126.397 54.2572 126.551C51.9696 126.696 49.6729 126.595 47.4067 126.25C46.8362 126.201 46.2785 126.071 45.7143 125.982C45.1561 125.878 44.6035 125.746 44.0584 125.587C43.5058 125.426 42.9425 125.279 42.3924 125.101L40.8316 124.523C38.7018 123.677 36.6542 122.637 34.7146 121.417C32.7963 120.168 30.9882 118.757 29.3103 117.201C27.6516 115.619 26.1156 113.913 24.7155 112.098C22.0197 108.52 19.8848 104.552 18.384 100.332L20.3838 100.954C20.6353 101.059 20.9172 101.063 21.172 100.967C21.4267 100.871 21.6351 100.681 21.7546 100.436C21.8654 100.186 21.8731 99.9019 21.7762 99.6456C21.6792 99.3893 21.4853 99.1814 21.2363 99.0667L17.6065 97.9388C17.1878 96.5072 16.8415 95.0556 16.5687 93.5894C17.2195 93.6904 17.8571 93.8633 18.4697 94.1051C19.7133 94.5992 20.5751 92.7051 19.3302 92.2191C18.3271 91.8172 17.2723 91.5584 16.197 91.4504C16.035 90.3352 15.9132 89.2263 15.8207 88.089L16.8764 88.2563C17.1479 88.2993 17.4253 88.2327 17.6476 88.0714C17.8699 87.91 18.0189 87.6669 18.0619 87.3957C18.1049 87.1245 18.0382 86.8473 17.8767 86.6251C17.7151 86.4029 17.4718 86.2539 17.2004 86.2109L15.7014 85.9735C15.6479 84.8507 15.6186 83.7317 15.6147 82.6085L18.2297 83.1547C19.5424 83.4205 19.8664 81.3751 18.5549 81.1014L15.6269 80.4973C15.6334 80.1434 15.6306 79.7963 15.6451 79.4436C15.6657 78.6875 15.7025 77.9339 15.7473 77.1816L17.6517 77.7804C17.9042 77.8853 18.1872 77.8904 18.4432 77.7945C18.6993 77.6986 18.9092 77.509 19.0305 77.2641C19.1413 77.0136 19.1491 76.7295 19.0521 76.4732C18.9551 76.2169 18.7612 76.009 18.5122 75.8943L15.9152 75.0785C15.9943 74.2656 16.0998 73.3909 16.2312 72.5615C16.2491 72.4487 16.2656 72.3441 16.2835 72.2313C17.1851 72.7004 18.1421 73.0544 19.132 73.2851C20.4303 73.5897 20.7542 71.5444 19.4559 71.2397C18.4962 71.0126 17.5773 70.6388 16.7318 70.1314C17.0556 68.7845 17.5177 67.4746 18.1109 66.2226L22.4841 67.8728L27.1114 69.4311L31.7676 70.9115L36.4672 72.2749L41.2286 73.5078L46.0093 74.6199L50.8129 75.5871L55.6356 76.4335L60.48 77.143L65.3435 77.7317L70.2287 78.1835L75.1368 78.4904L80.0629 78.6845L84.9609 78.7422L89.8433 78.69L94.2885 78.4778L94.264 80.5623C94.1929 81.3765 94.1459 82.1945 94.0485 83.0706C93.951 83.9466 93.7857 84.7294 93.6544 85.5587C93.523 86.3881 93.3111 87.2048 93.1072 88.0227C92.9033 88.8406 92.6671 89.6534 92.4242 90.4569L91.4469 92.8197L90.5243 95.1499L89.497 97.4635L88.3649 99.7605L87.1844 102.05ZM99.1056 109.716C98.6916 109.931 98.2597 110.102 97.8414 110.292L96.5288 110.703C96.0774 110.788 95.6316 110.891 95.1815 110.968C94.7314 111.046 94.2741 111.064 93.8168 111.082C93.3596 111.101 92.8993 111.086 92.4497 111.056C92.0001 111.026 91.5369 110.977 91.0881 110.89C90.6393 110.802 90.1855 110.747 89.7495 110.578C89.3135 110.41 88.8779 110.292 88.4499 110.125C88.022 109.958 87.6072 109.76 87.1937 109.555L86.2339 108.99L87.9461 106.265L88.2548 106.454C88.4273 106.557 88.6191 106.624 88.8185 106.651L89.5556 106.899L90.3513 107.091C91.3963 107.29 92.468 107.304 93.5175 107.131C94.0423 107.043 94.557 106.903 95.054 106.714C95.3039 106.623 95.5473 106.515 95.7825 106.392C96.0234 106.276 96.2567 106.144 96.4808 105.999C96.9448 105.726 97.378 105.405 97.7728 105.039C98.1573 104.667 98.4998 104.253 98.7942 103.806C99.0984 103.365 99.3583 102.894 99.5701 102.402C99.7938 101.898 99.9579 101.37 100.059 100.829C100.126 100.564 100.168 100.295 100.186 100.023C100.215 99.7503 100.222 99.4756 100.209 99.2014C100.218 98.9227 100.202 98.6438 100.159 98.3681C100.141 98.0818 100.095 97.798 100.021 97.5207C99.9739 97.2493 99.8998 96.9831 99.7999 96.7263C99.7236 96.4624 99.6232 96.2061 99.4999 95.9606C99.3892 95.7097 99.2622 95.4662 99.1196 95.2318C98.9888 94.9913 98.8403 94.7609 98.6753 94.5424C98.5191 94.3179 98.3488 94.1035 98.1657 93.9003C97.9889 93.6882 97.7967 93.4895 97.5907 93.3058C96.9086 92.6389 96.1128 92.0992 95.2408 91.7119C95.5504 90.6961 95.8439 89.6778 96.1454 88.6607L96.8367 88.8858L97.9446 89.3502C98.3042 89.5309 98.6532 89.7265 99.0036 89.9141L100.006 90.5763C100.332 90.8097 100.639 91.0646 100.955 91.3127L101.832 92.1368L102.615 93.0863L103.334 94.0255L103.937 95.0703C104.101 95.4429 104.274 95.8088 104.429 96.1883C104.584 96.5677 104.639 96.8407 104.735 97.1777L103.205 96.8199C101.908 96.5072 101.592 98.5538 102.881 98.8652L105.045 99.3896C105.025 99.5184 105.069 99.6575 105.065 99.7889C105.001 100.191 105.05 100.612 105.002 101.017C104.955 101.422 104.875 101.822 104.808 102.241L103.083 102.026C101.754 101.865 101.428 103.918 102.758 104.079L104.127 104.246L103.919 104.725C103.711 105.154 103.451 105.543 103.221 105.952C103.113 106.116 102.997 106.271 102.882 106.426L100.811 105.941C100.539 105.898 100.262 105.965 100.039 106.126C99.817 106.288 99.668 106.531 99.625 106.802C99.5821 107.073 99.6487 107.35 99.8103 107.573C99.9718 107.795 100.215 107.944 100.487 107.987L101.282 108.179C100.968 108.443 100.632 108.687 100.335 108.945C100.038 109.203 99.4964 109.44 99.1095 109.692L99.1056 109.716Z" fill="#7A5C50"/>
</svg>
