<svg width="45" height="31" viewBox="0 0 45 31" fill="none" xmlns="http://www.w3.org/2000/svg">
<path d="M45 0V8.91699C45 11.5103 44.4275 14.1834 43.2824 16.9363C42.1374 19.6892 40.626 22.2825 38.7481 24.7162C36.8702 27.1898 34.8092 29.2844 32.5649 31L23.3588 26.332C25.0076 23.9382 26.4275 21.3649 27.6183 18.612C28.8092 15.8591 29.4046 12.6274 29.4046 8.91699V0H45ZM21.6412 0V8.91699C21.6412 11.5103 21.0687 14.1834 19.9237 16.9363C18.7786 19.6892 17.2672 22.2825 15.3893 24.7162C13.5114 27.1898 11.4504 29.2844 9.2061 31L0 26.332C1.64885 23.9382 3.0687 21.3649 4.25954 18.612C5.45038 15.8591 6.0458 12.6274 6.0458 8.91699V0H21.6412Z" fill="#C46060"/>
</svg>
