<svg width="45" height="31" viewBox="0 0 45 31" fill="none" xmlns="http://www.w3.org/2000/svg">
<path d="M0 31V22.083C0 19.4897 0.572519 16.8166 1.71756 14.0637C2.8626 11.3108 4.37405 8.7175 6.25191 6.28378C8.12977 3.81017 10.1908 1.71557 12.4351 0L21.6412 4.66795C19.9924 7.06178 18.5725 9.63513 17.3817 12.388C16.1908 15.1409 15.5954 18.3726 15.5954 22.083V31H0ZM23.3588 31V22.083C23.3588 19.4897 23.9313 16.8166 25.0763 14.0637C26.2214 11.3108 27.7328 8.7175 29.6107 6.28378C31.4886 3.81017 33.5496 1.71557 35.7939 0L45 4.66795C43.3511 7.06178 41.9313 9.63513 40.7405 12.388C39.5496 15.1409 38.9542 18.3726 38.9542 22.083V31H23.3588Z" fill="#C46060"/>
</svg>
